<?xml version="1.0" encoding="UTF-8" standalone="no"?><svg xmlns="http://www.w3.org/2000/svg" xmlns:xlink="http://www.w3.org/1999/xlink" contentScriptType="application/ecmascript" contentStyleType="text/css" height="990px" preserveAspectRatio="none" style="width:795px;height:990px;" version="1.1" viewBox="0 0 795 990" width="795px" zoomAndPan="magnify"><defs><filter height="300%" id="fnupmo1ld0877" width="300%" x="-1" y="-1"><feGaussianBlur result="blurOut" stdDeviation="2.0"/><feColorMatrix in="blurOut" result="blurOut2" type="matrix" values="0 0 0 0 0 0 0 0 0 0 0 0 0 0 0 0 0 0 .4 0"/><feOffset dx="4.0" dy="4.0" in="blurOut2" result="blurOut3"/><feBlend in="SourceGraphic" in2="blurOut3" mode="normal"/></filter></defs><g><!--MD5=[08dbe06e87f91eb667838fe2f259c34a]
class Money--><rect fill="#FEFECE" filter="url(#fnupmo1ld0877)" height="150.4375" id="Money" style="stroke: #A80036; stroke-width: 1.5;" width="288" x="156" y="829"/><ellipse cx="275.75" cy="845" fill="#ADD1B2" rx="11" ry="11" style="stroke: #A80036; stroke-width: 1.0;"/><path d="M278.0938,840.6719 L278.2656,840.75 C278.4844,840.4375 278.6875,840.3438 278.9844,840.3438 C279.2813,840.3438 279.5625,840.4844 279.7188,840.75 C279.8125,840.9063 279.8281,841.0313 279.8281,841.4688 L279.8281,842.8906 C279.8281,843.3125 279.7969,843.5 279.6875,843.6563 C279.5156,843.875 279.25,844.0156 278.9844,844.0156 C278.7656,844.0156 278.5313,843.9063 278.3906,843.7656 C278.25,843.6406 278.2188,843.5156 278.1563,843.1094 C278.0625,842.7031 277.8906,842.4844 277.4063,842.2031 C276.9375,841.9531 276.3281,841.7969 275.75,841.7969 C274.0156,841.7969 272.7656,843.1094 272.7656,844.8906 L272.7656,845.9844 C272.7656,847.6875 274.0625,848.7813 276.1094,848.7813 C276.875,848.7813 277.5625,848.6563 277.9844,848.3906 C278.1719,848.2969 278.1719,848.2969 278.625,847.8125 C278.8125,847.625 279.0156,847.5469 279.2344,847.5469 C279.7031,847.5469 280.0938,847.9375 280.0938,848.3906 C280.0938,848.7813 279.7656,849.2344 279.1875,849.6406 C278.4375,850.1875 277.2813,850.4844 276.0625,850.4844 C273.1719,850.4844 271.0625,848.5938 271.0625,846.0156 L271.0625,844.8906 C271.0625,842.1719 273.0625,840.0938 275.6875,840.0938 C276.5625,840.0938 277.1563,840.2344 278.0938,840.6719 Z "/><text fill="#000000" font-family="sans-serif" font-size="12" lengthAdjust="spacingAndGlyphs" textLength="40" x="296.25" y="849.1543">Money</text><line style="stroke: #A80036; stroke-width: 1.5;" x1="157" x2="443" y1="861" y2="861"/><rect fill="none" height="6" style="stroke: #C82930; stroke-width: 1.0;" width="6" x="164" y="869"/><text fill="#000000" font-family="sans-serif" font-size="11" lengthAdjust="spacingAndGlyphs" textLength="95" x="176" y="875.2104">amount: number</text><ellipse cx="167" cy="884.8047" fill="none" rx="3" ry="3" style="stroke: #038048; stroke-width: 1.0;"/><text fill="#000000" font-family="sans-serif" font-size="11" lengthAdjust="spacingAndGlyphs" text-decoration="underline" textLength="76" x="176" y="888.0151">ZERO: Money</text><line style="stroke: #A80036; stroke-width: 1.5;" x1="157" x2="443" y1="894.6094" y2="894.6094"/><ellipse cx="167" cy="905.6094" fill="#84BE84" rx="3" ry="3" style="stroke: #038048; stroke-width: 1.0;"/><text fill="#000000" font-family="sans-serif" font-size="11" lengthAdjust="spacingAndGlyphs" textLength="163" x="176" y="908.8198">plus(amount: Money): Money</text><ellipse cx="167" cy="918.4141" fill="#84BE84" rx="3" ry="3" style="stroke: #038048; stroke-width: 1.0;"/><text fill="#000000" font-family="sans-serif" font-size="11" lengthAdjust="spacingAndGlyphs" textLength="174" x="176" y="921.6245">minus(amount: Money): Money</text><ellipse cx="167" cy="931.2188" fill="#84BE84" rx="3" ry="3" style="stroke: #038048; stroke-width: 1.0;"/><text fill="#000000" font-family="sans-serif" font-size="11" lengthAdjust="spacingAndGlyphs" textLength="179" x="176" y="934.4292">times(percent: number): Money</text><ellipse cx="167" cy="944.0234" fill="#84BE84" rx="3" ry="3" style="stroke: #038048; stroke-width: 1.0;"/><text fill="#000000" font-family="sans-serif" font-size="11" lengthAdjust="spacingAndGlyphs" textLength="200" x="176" y="947.2339">isLessThan(other: Money): boolean</text><ellipse cx="167" cy="956.8281" fill="#84BE84" rx="3" ry="3" style="stroke: #038048; stroke-width: 1.0;"/><text fill="#000000" font-family="sans-serif" font-size="11" lengthAdjust="spacingAndGlyphs" textLength="262" x="176" y="960.0386">isGreaterThanOrEqual(other: Money): boolean</text><ellipse cx="167" cy="969.6328" fill="#84BE84" rx="3" ry="3" style="stroke: #038048; stroke-width: 1.0;"/><text fill="#000000" font-family="sans-serif" font-size="11" lengthAdjust="spacingAndGlyphs" text-decoration="underline" textLength="177" x="176" y="972.8433">wons(amount: number): Money</text><!--MD5=[e69084ab16b022bdbef99762ea85e9d6]
class Movie--><rect fill="#FEFECE" filter="url(#fnupmo1ld0877)" height="124.8281" id="Movie" style="stroke: #A80036; stroke-width: 1.5;" width="301" x="421.5" y="8"/><ellipse cx="550.25" cy="24" fill="#ADD1B2" rx="11" ry="11" style="stroke: #A80036; stroke-width: 1.0;"/><path d="M552.5938,19.6719 L552.7656,19.75 C552.9844,19.4375 553.1875,19.3438 553.4844,19.3438 C553.7813,19.3438 554.0625,19.4844 554.2188,19.75 C554.3125,19.9063 554.3281,20.0313 554.3281,20.4688 L554.3281,21.8906 C554.3281,22.3125 554.2969,22.5 554.1875,22.6563 C554.0156,22.875 553.75,23.0156 553.4844,23.0156 C553.2656,23.0156 553.0313,22.9063 552.8906,22.7656 C552.75,22.6406 552.7188,22.5156 552.6563,22.1094 C552.5625,21.7031 552.3906,21.4844 551.9063,21.2031 C551.4375,20.9531 550.8281,20.7969 550.25,20.7969 C548.5156,20.7969 547.2656,22.1094 547.2656,23.8906 L547.2656,24.9844 C547.2656,26.6875 548.5625,27.7813 550.6094,27.7813 C551.375,27.7813 552.0625,27.6563 552.4844,27.3906 C552.6719,27.2969 552.6719,27.2969 553.125,26.8125 C553.3125,26.625 553.5156,26.5469 553.7344,26.5469 C554.2031,26.5469 554.5938,26.9375 554.5938,27.3906 C554.5938,27.7813 554.2656,28.2344 553.6875,28.6406 C552.9375,29.1875 551.7813,29.4844 550.5625,29.4844 C547.6719,29.4844 545.5625,27.5938 545.5625,25.0156 L545.5625,23.8906 C545.5625,21.1719 547.5625,19.0938 550.1875,19.0938 C551.0625,19.0938 551.6563,19.2344 552.5938,19.6719 Z "/><text fill="#000000" font-family="sans-serif" font-size="12" lengthAdjust="spacingAndGlyphs" textLength="35" x="570.75" y="28.1543">Movie</text><line style="stroke: #A80036; stroke-width: 1.5;" x1="422.5" x2="721.5" y1="40" y2="40"/><rect fill="none" height="6" style="stroke: #C82930; stroke-width: 1.0;" width="6" x="429.5" y="48"/><text fill="#000000" font-family="sans-serif" font-size="11" lengthAdjust="spacingAndGlyphs" textLength="62" x="441.5" y="54.2104">title: string</text><rect fill="none" height="6" style="stroke: #C82930; stroke-width: 1.0;" width="6" x="429.5" y="60.8047"/><text fill="#000000" font-family="sans-serif" font-size="11" lengthAdjust="spacingAndGlyphs" textLength="123" x="441.5" y="67.0151">runningTime: number</text><rect fill="none" height="6" style="stroke: #C82930; stroke-width: 1.0;" width="6" x="429.5" y="73.6094"/><text fill="#000000" font-family="sans-serif" font-size="11" lengthAdjust="spacingAndGlyphs" textLength="62" x="441.5" y="79.8198">fee: Money</text><rect fill="none" height="6" style="stroke: #C82930; stroke-width: 1.0;" width="6" x="429.5" y="86.4141"/><text fill="#000000" font-family="sans-serif" font-size="11" lengthAdjust="spacingAndGlyphs" textLength="169" x="441.5" y="92.6245">discountPolicy: DiscountPolicy</text><line style="stroke: #A80036; stroke-width: 1.5;" x1="422.5" x2="721.5" y1="99.2188" y2="99.2188"/><ellipse cx="432.5" cy="110.2188" fill="#84BE84" rx="3" ry="3" style="stroke: #038048; stroke-width: 1.0;"/><text fill="#000000" font-family="sans-serif" font-size="11" lengthAdjust="spacingAndGlyphs" textLength="90" x="441.5" y="113.4292">getFee(): Money</text><ellipse cx="432.5" cy="123.0234" fill="#84BE84" rx="3" ry="3" style="stroke: #038048; stroke-width: 1.0;"/><text fill="#000000" font-family="sans-serif" font-size="11" lengthAdjust="spacingAndGlyphs" textLength="275" x="441.5" y="126.2339">calculateMovieFee(screening: Screening): Money</text><!--MD5=[2ce0c9fb7f55b1e256ab28a8ea6b25ec]
class Customer--><rect fill="#FEFECE" filter="url(#fnupmo1ld0877)" height="73.6094" id="Customer" style="stroke: #A80036; stroke-width: 1.5;" width="99" x="534.5" y="867"/><ellipse cx="552.65" cy="883" fill="#ADD1B2" rx="11" ry="11" style="stroke: #A80036; stroke-width: 1.0;"/><path d="M554.9938,878.6719 L555.1656,878.75 C555.3844,878.4375 555.5875,878.3438 555.8844,878.3438 C556.1813,878.3438 556.4625,878.4844 556.6188,878.75 C556.7125,878.9063 556.7281,879.0313 556.7281,879.4688 L556.7281,880.8906 C556.7281,881.3125 556.6969,881.5 556.5875,881.6563 C556.4156,881.875 556.15,882.0156 555.8844,882.0156 C555.6656,882.0156 555.4313,881.9063 555.2906,881.7656 C555.15,881.6406 555.1188,881.5156 555.0563,881.1094 C554.9625,880.7031 554.7906,880.4844 554.3063,880.2031 C553.8375,879.9531 553.2281,879.7969 552.65,879.7969 C550.9156,879.7969 549.6656,881.1094 549.6656,882.8906 L549.6656,883.9844 C549.6656,885.6875 550.9625,886.7813 553.0094,886.7813 C553.775,886.7813 554.4625,886.6563 554.8844,886.3906 C555.0719,886.2969 555.0719,886.2969 555.525,885.8125 C555.7125,885.625 555.9156,885.5469 556.1344,885.5469 C556.6031,885.5469 556.9938,885.9375 556.9938,886.3906 C556.9938,886.7813 556.6656,887.2344 556.0875,887.6406 C555.3375,888.1875 554.1813,888.4844 552.9625,888.4844 C550.0719,888.4844 547.9625,886.5938 547.9625,884.0156 L547.9625,882.8906 C547.9625,880.1719 549.9625,878.0938 552.5875,878.0938 C553.4625,878.0938 554.0563,878.2344 554.9938,878.6719 Z "/><text fill="#000000" font-family="sans-serif" font-size="12" lengthAdjust="spacingAndGlyphs" textLength="60" x="567.35" y="887.1543">Customer</text><line style="stroke: #A80036; stroke-width: 1.5;" x1="535.5" x2="632.5" y1="899" y2="899"/><rect fill="none" height="6" style="stroke: #C82930; stroke-width: 1.0;" width="6" x="542.5" y="907"/><text fill="#000000" font-family="sans-serif" font-size="11" lengthAdjust="spacingAndGlyphs" textLength="73" x="554.5" y="913.2104">name: string</text><rect fill="none" height="6" style="stroke: #C82930; stroke-width: 1.0;" width="6" x="542.5" y="919.8047"/><text fill="#000000" font-family="sans-serif" font-size="11" lengthAdjust="spacingAndGlyphs" textLength="51" x="554.5" y="926.0151">id: string</text><line style="stroke: #A80036; stroke-width: 1.5;" x1="535.5" x2="632.5" y1="932.6094" y2="932.6094"/><!--MD5=[9c46470aa33a0c75e6d1dfdefc2f9c22]
class Reservation--><rect fill="#FEFECE" filter="url(#fnupmo1ld0877)" height="99.2188" id="Reservation" style="stroke: #A80036; stroke-width: 1.5;" width="162" x="466" y="670"/><ellipse cx="506.2" cy="686" fill="#ADD1B2" rx="11" ry="11" style="stroke: #A80036; stroke-width: 1.0;"/><path d="M508.5438,681.6719 L508.7156,681.75 C508.9344,681.4375 509.1375,681.3438 509.4344,681.3438 C509.7313,681.3438 510.0125,681.4844 510.1688,681.75 C510.2625,681.9063 510.2781,682.0313 510.2781,682.4688 L510.2781,683.8906 C510.2781,684.3125 510.2469,684.5 510.1375,684.6563 C509.9656,684.875 509.7,685.0156 509.4344,685.0156 C509.2156,685.0156 508.9813,684.9063 508.8406,684.7656 C508.7,684.6406 508.6688,684.5156 508.6063,684.1094 C508.5125,683.7031 508.3406,683.4844 507.8563,683.2031 C507.3875,682.9531 506.7781,682.7969 506.2,682.7969 C504.4656,682.7969 503.2156,684.1094 503.2156,685.8906 L503.2156,686.9844 C503.2156,688.6875 504.5125,689.7813 506.5594,689.7813 C507.325,689.7813 508.0125,689.6563 508.4344,689.3906 C508.6219,689.2969 508.6219,689.2969 509.075,688.8125 C509.2625,688.625 509.4656,688.5469 509.6844,688.5469 C510.1531,688.5469 510.5438,688.9375 510.5438,689.3906 C510.5438,689.7813 510.2156,690.2344 509.6375,690.6406 C508.8875,691.1875 507.7313,691.4844 506.5125,691.4844 C503.6219,691.4844 501.5125,689.5938 501.5125,687.0156 L501.5125,685.8906 C501.5125,683.1719 503.5125,681.0938 506.1375,681.0938 C507.0125,681.0938 507.6063,681.2344 508.5438,681.6719 Z "/><text fill="#000000" font-family="sans-serif" font-size="12" lengthAdjust="spacingAndGlyphs" textLength="74" x="525.8" y="690.1543">Reservation</text><line style="stroke: #A80036; stroke-width: 1.5;" x1="467" x2="627" y1="702" y2="702"/><rect fill="none" height="6" style="stroke: #C82930; stroke-width: 1.0;" width="6" x="474" y="710"/><text fill="#000000" font-family="sans-serif" font-size="11" lengthAdjust="spacingAndGlyphs" textLength="118" x="486" y="716.2104">customer: Customer</text><rect fill="none" height="6" style="stroke: #C82930; stroke-width: 1.0;" width="6" x="474" y="722.8047"/><text fill="#000000" font-family="sans-serif" font-size="11" lengthAdjust="spacingAndGlyphs" textLength="121" x="486" y="729.0151">screening: Screening</text><rect fill="none" height="6" style="stroke: #C82930; stroke-width: 1.0;" width="6" x="474" y="735.6094"/><text fill="#000000" font-family="sans-serif" font-size="11" lengthAdjust="spacingAndGlyphs" textLength="62" x="486" y="741.8198">fee: Money</text><rect fill="none" height="6" style="stroke: #C82930; stroke-width: 1.0;" width="6" x="474" y="748.4141"/><text fill="#000000" font-family="sans-serif" font-size="11" lengthAdjust="spacingAndGlyphs" textLength="136" x="486" y="754.6245">audienceCount: number</text><line style="stroke: #A80036; stroke-width: 1.5;" x1="467" x2="627" y1="761.2188" y2="761.2188"/><!--MD5=[fa5b27f77fe197a60cf8f352dcfe1889]
class Screening--><rect fill="#FEFECE" filter="url(#fnupmo1ld0877)" height="150.4375" id="Screening" style="stroke: #A80036; stroke-width: 1.5;" width="415" x="355.5" y="460"/><ellipse cx="527.25" cy="476" fill="#ADD1B2" rx="11" ry="11" style="stroke: #A80036; stroke-width: 1.0;"/><path d="M529.5938,471.6719 L529.7656,471.75 C529.9844,471.4375 530.1875,471.3438 530.4844,471.3438 C530.7813,471.3438 531.0625,471.4844 531.2188,471.75 C531.3125,471.9063 531.3281,472.0313 531.3281,472.4688 L531.3281,473.8906 C531.3281,474.3125 531.2969,474.5 531.1875,474.6563 C531.0156,474.875 530.75,475.0156 530.4844,475.0156 C530.2656,475.0156 530.0313,474.9063 529.8906,474.7656 C529.75,474.6406 529.7188,474.5156 529.6563,474.1094 C529.5625,473.7031 529.3906,473.4844 528.9063,473.2031 C528.4375,472.9531 527.8281,472.7969 527.25,472.7969 C525.5156,472.7969 524.2656,474.1094 524.2656,475.8906 L524.2656,476.9844 C524.2656,478.6875 525.5625,479.7813 527.6094,479.7813 C528.375,479.7813 529.0625,479.6563 529.4844,479.3906 C529.6719,479.2969 529.6719,479.2969 530.125,478.8125 C530.3125,478.625 530.5156,478.5469 530.7344,478.5469 C531.2031,478.5469 531.5938,478.9375 531.5938,479.3906 C531.5938,479.7813 531.2656,480.2344 530.6875,480.6406 C529.9375,481.1875 528.7813,481.4844 527.5625,481.4844 C524.6719,481.4844 522.5625,479.5938 522.5625,477.0156 L522.5625,475.8906 C522.5625,473.1719 524.5625,471.0938 527.1875,471.0938 C528.0625,471.0938 528.6563,471.2344 529.5938,471.6719 Z "/><text fill="#000000" font-family="sans-serif" font-size="12" lengthAdjust="spacingAndGlyphs" textLength="63" x="547.75" y="480.1543">Screening</text><line style="stroke: #A80036; stroke-width: 1.5;" x1="356.5" x2="769.5" y1="492" y2="492"/><rect fill="none" height="6" style="stroke: #C82930; stroke-width: 1.0;" width="6" x="363.5" y="500"/><text fill="#000000" font-family="sans-serif" font-size="11" lengthAdjust="spacingAndGlyphs" textLength="74" x="375.5" y="506.2104">movie: Movie</text><rect fill="none" height="6" style="stroke: #C82930; stroke-width: 1.0;" width="6" x="363.5" y="512.8047"/><text fill="#000000" font-family="sans-serif" font-size="11" lengthAdjust="spacingAndGlyphs" textLength="107" x="375.5" y="519.0151">sequence: number</text><rect fill="none" height="6" style="stroke: #C82930; stroke-width: 1.0;" width="6" x="363.5" y="525.6094"/><text fill="#000000" font-family="sans-serif" font-size="11" lengthAdjust="spacingAndGlyphs" textLength="118" x="375.5" y="531.8198">whenScreened: Date</text><line style="stroke: #A80036; stroke-width: 1.5;" x1="356.5" x2="769.5" y1="538.4141" y2="538.4141"/><ellipse cx="366.5" cy="549.4141" fill="#84BE84" rx="3" ry="3" style="stroke: #038048; stroke-width: 1.0;"/><text fill="#000000" font-family="sans-serif" font-size="11" lengthAdjust="spacingAndGlyphs" textLength="116" x="375.5" y="552.6245">getStartTime(): Date</text><ellipse cx="366.5" cy="562.2188" fill="#84BE84" rx="3" ry="3" style="stroke: #038048; stroke-width: 1.0;"/><text fill="#000000" font-family="sans-serif" font-size="11" lengthAdjust="spacingAndGlyphs" textLength="234" x="375.5" y="565.4292">isSequence(sequence: number): boolean</text><ellipse cx="366.5" cy="575.0234" fill="#84BE84" rx="3" ry="3" style="stroke: #038048; stroke-width: 1.0;"/><text fill="#000000" font-family="sans-serif" font-size="11" lengthAdjust="spacingAndGlyphs" textLength="122" x="375.5" y="578.2339">getMovieFee(): Money</text><ellipse cx="366.5" cy="587.8281" fill="#84BE84" rx="3" ry="3" style="stroke: #038048; stroke-width: 1.0;"/><text fill="#000000" font-family="sans-serif" font-size="11" lengthAdjust="spacingAndGlyphs" textLength="389" x="375.5" y="591.0386">reserve(customer: Customer, audienceCount: number): Reservation</text><ellipse cx="366.5" cy="600.6328" fill="#84BE84" rx="3" ry="3" style="stroke: #038048; stroke-width: 1.0;"/><text fill="#000000" font-family="sans-serif" font-size="11" lengthAdjust="spacingAndGlyphs" textLength="258" x="375.5" y="603.8433">calculateFee(audienceCount: number): Money</text><!--MD5=[fb6547c0cf79da1af610e0229b9f01c4]
class DiscountCondition--><rect fill="#FEFECE" filter="url(#fnupmo1ld0877)" height="60.8047" id="DiscountCondition" style="stroke: #A80036; stroke-width: 1.5;" width="282" x="423" y="339"/><ellipse cx="503.25" cy="355" fill="#B4A7E5" rx="11" ry="11" style="stroke: #A80036; stroke-width: 1.0;"/><path d="M504.2031,351.7813 L504.2031,358.2969 L505.9219,358.2969 C506.375,358.2969 506.5156,358.3281 506.6875,358.4531 C506.9219,358.625 507.0313,358.875 507.0313,359.1563 C507.0313,359.7188 506.6719,360 505.9219,360 L500.7813,360 C500.375,360 500.1719,359.9531 500.0156,359.8281 C499.7969,359.6719 499.6563,359.4063 499.6563,359.1563 C499.6563,358.8594 499.8125,358.5781 500.0625,358.4219 C500.2188,358.3125 500.3438,358.2969 500.7813,358.2969 L502.5,358.2969 L502.5,351.7813 L500.7813,351.7813 C500.3594,351.7813 500.1719,351.75 500.0156,351.6406 C499.7969,351.4688 499.6563,351.2188 499.6563,350.9375 C499.6563,350.6563 499.8125,350.3594 500.0625,350.2031 C500.2188,350.1094 500.3438,350.0938 500.7813,350.0938 L505.9219,350.0938 C506.375,350.0938 506.5156,350.125 506.6875,350.2344 C506.9219,350.4063 507.0313,350.6719 507.0313,350.9375 C507.0313,351.2344 506.8906,351.5156 506.625,351.6719 C506.5,351.75 506.3125,351.7813 505.9219,351.7813 Z "/><text fill="#000000" font-family="sans-serif" font-size="12" font-style="italic" lengthAdjust="spacingAndGlyphs" textLength="113" x="523.75" y="359.1543">DiscountCondition</text><line style="stroke: #A80036; stroke-width: 1.5;" x1="424" x2="704" y1="371" y2="371"/><line style="stroke: #A80036; stroke-width: 1.5;" x1="424" x2="704" y1="379" y2="379"/><ellipse cx="434" cy="390" fill="#84BE84" rx="3" ry="3" style="stroke: #038048; stroke-width: 1.0;"/><text fill="#000000" font-family="sans-serif" font-size="11" lengthAdjust="spacingAndGlyphs" textLength="256" x="443" y="393.2104">isSatisfiedBy(screening: Screening): boolean</text><!--MD5=[a1cd337173fecc0fb20a861a9d65958d]
class DiscountPolicy--><rect fill="#FEFECE" filter="url(#fnupmo1ld0877)" height="86.4141" id="DiscountPolicy" style="stroke: #A80036; stroke-width: 1.5;" width="341" x="199.5" y="193"/><ellipse cx="321.25" cy="209" fill="#A9DCDF" rx="11" ry="11" style="stroke: #A80036; stroke-width: 1.0;"/><path d="M322.8281,210.8125 L318.7813,210.8125 L318.3906,211.7969 L318.7813,211.7969 C319.2344,211.7969 319.375,211.8281 319.5469,211.9531 C319.7656,212.125 319.8906,212.375 319.8906,212.6563 C319.8906,212.9375 319.75,213.2344 319.4844,213.375 C319.3594,213.4688 319.1406,213.5 318.7813,213.5 L316.5156,213.5 C315.7656,213.5 315.3906,213.2188 315.3906,212.6563 C315.3906,212.3594 315.5469,212.0781 315.7969,211.9219 C315.9531,211.8125 316.1094,211.7969 316.5313,211.7969 L319.1719,205.2813 L318.0938,205.2813 C317.6563,205.2813 317.4844,205.25 317.3125,205.1406 C317.0938,204.9688 316.9531,204.7188 316.9531,204.4375 C316.9531,204.1563 317.1094,203.875 317.3594,203.7031 C317.5156,203.6094 317.6406,203.5938 318.0938,203.5938 L321.7656,203.5938 L325.1563,211.7969 C325.625,211.7969 325.7813,211.8281 325.9531,211.9688 C326.1719,212.125 326.3125,212.375 326.3125,212.6563 C326.3125,212.9375 326.1563,213.2344 325.9063,213.375 C325.7656,213.4688 325.5469,213.5 325.1875,213.5 L322.8281,213.5 C322.4063,213.5 322.2031,213.4531 322.0625,213.3281 C321.8438,213.1719 321.7031,212.9219 321.7031,212.6563 C321.7031,212.3594 321.8594,212.0781 322.1094,211.9219 C322.2656,211.8125 322.375,211.7969 322.8281,211.7969 L323.2188,211.7969 Z M322.125,209.1094 L320.7969,205.8438 L319.4531,209.1094 Z "/><text fill="#000000" font-family="sans-serif" font-size="12" font-style="italic" lengthAdjust="spacingAndGlyphs" textLength="89" x="341.75" y="213.1543">DiscountPolicy</text><line style="stroke: #A80036; stroke-width: 1.5;" x1="200.5" x2="539.5" y1="225" y2="225"/><rect fill="none" height="6" style="stroke: #C82930; stroke-width: 1.0;" width="6" x="207.5" y="233"/><text fill="#000000" font-family="sans-serif" font-size="11" lengthAdjust="spacingAndGlyphs" textLength="176" x="219.5" y="239.2104">conditions: DiscountCondition[]</text><line style="stroke: #A80036; stroke-width: 1.5;" x1="200.5" x2="539.5" y1="245.8047" y2="245.8047"/><ellipse cx="210.5" cy="256.8047" fill="#84BE84" rx="3" ry="3" style="stroke: #038048; stroke-width: 1.0;"/><text fill="#000000" font-family="sans-serif" font-size="11" lengthAdjust="spacingAndGlyphs" textLength="315" x="219.5" y="260.0151">calculateDiscountAmount(screening: Screening): Money</text><polygon fill="#FFFF44" points="210.5,264.6094,214.5,268.6094,210.5,272.6094,206.5,268.6094" style="stroke: #B38D22; stroke-width: 1.0;"/><text fill="#000000" font-family="sans-serif" font-size="11" font-style="italic" lengthAdjust="spacingAndGlyphs" textLength="283" x="219.5" y="272.8198">getDiscountAmount(Screening: Screening): Money</text><!--MD5=[0d27dc7004874190cdbbc1a5b9b00428]
class AmountDiscountPolicy--><rect fill="#FEFECE" filter="url(#fnupmo1ld0877)" height="73.6094" id="AmountDiscountPolicy" style="stroke: #A80036; stroke-width: 1.5;" width="188" x="59" y="498"/><ellipse cx="82.1" cy="514" fill="#ADD1B2" rx="11" ry="11" style="stroke: #A80036; stroke-width: 1.0;"/><path d="M84.4438,509.6719 L84.6156,509.75 C84.8344,509.4375 85.0375,509.3438 85.3344,509.3438 C85.6313,509.3438 85.9125,509.4844 86.0688,509.75 C86.1625,509.9063 86.1781,510.0313 86.1781,510.4688 L86.1781,511.8906 C86.1781,512.3125 86.1469,512.5 86.0375,512.6563 C85.8656,512.875 85.6,513.0156 85.3344,513.0156 C85.1156,513.0156 84.8813,512.9063 84.7406,512.7656 C84.6,512.6406 84.5688,512.5156 84.5063,512.1094 C84.4125,511.7031 84.2406,511.4844 83.7563,511.2031 C83.2875,510.9531 82.6781,510.7969 82.1,510.7969 C80.3656,510.7969 79.1156,512.1094 79.1156,513.8906 L79.1156,514.9844 C79.1156,516.6875 80.4125,517.7813 82.4594,517.7813 C83.225,517.7813 83.9125,517.6563 84.3344,517.3906 C84.5219,517.2969 84.5219,517.2969 84.975,516.8125 C85.1625,516.625 85.3656,516.5469 85.5844,516.5469 C86.0531,516.5469 86.4438,516.9375 86.4438,517.3906 C86.4438,517.7813 86.1156,518.2344 85.5375,518.6406 C84.7875,519.1875 83.6313,519.4844 82.4125,519.4844 C79.5219,519.4844 77.4125,517.5938 77.4125,515.0156 L77.4125,513.8906 C77.4125,511.1719 79.4125,509.0938 82.0375,509.0938 C82.9125,509.0938 83.5063,509.2344 84.4438,509.6719 Z "/><text fill="#000000" font-family="sans-serif" font-size="12" lengthAdjust="spacingAndGlyphs" textLength="138" x="97.9" y="518.1543">AmountDiscountPolicy</text><line style="stroke: #A80036; stroke-width: 1.5;" x1="60" x2="246" y1="530" y2="530"/><rect fill="none" height="6" style="stroke: #C82930; stroke-width: 1.0;" width="6" x="67" y="538"/><text fill="#000000" font-family="sans-serif" font-size="11" lengthAdjust="spacingAndGlyphs" textLength="135" x="79" y="544.2104">discountAmount: Money</text><line style="stroke: #A80036; stroke-width: 1.5;" x1="60" x2="246" y1="550.8047" y2="550.8047"/><polygon fill="#FFFF44" points="70,556.8047,74,560.8047,70,564.8047,66,560.8047" style="stroke: #B38D22; stroke-width: 1.0;"/><text fill="#000000" font-family="sans-serif" font-size="11" lengthAdjust="spacingAndGlyphs" textLength="162" x="79" y="565.0151">getDiscountAmount(): Money</text><!--MD5=[b9b99c8fdbc5d8cdc0f992e9fc5c24b3]
reverse link DiscountPolicy to AmountDiscountPolicy--><path d="M311.683,294.142 C298.373,308.297 284.712,323.783 273,339 C232.874,391.134 194.477,457.359 172.343,497.667 " fill="none" id="DiscountPolicy&lt;-AmountDiscountPolicy" style="stroke: #A80036; stroke-width: 1.0;"/><polygon fill="none" points="306.971,288.943,325.879,279.38,317.062,298.648,306.971,288.943" style="stroke: #A80036; stroke-width: 1.0;"/><!--MD5=[7114dc62aa61f1f979cee9d07f4dfd9b]
reverse link Movie to Money--><path d="M408.516,87.959 C241.34,114.883 6,185.316 6,368.5 C6,368.5 6,368.5 6,536 C6,658.254 106.601,763.06 190.107,828.998 " fill="none" id="Movie&lt;-Money" style="stroke: #A80036; stroke-width: 1.0;"/><polygon fill="#A80036" points="421.437,85.942,414.8917,82.9156,409.5807,87.7934,416.126,90.8198,421.437,85.942" style="stroke: #A80036; stroke-width: 1.0;"/><!--MD5=[092c468b0fc5801242764288116528b0]
reverse link Movie to DiscountPolicy--><path d="M485.727,141.33 C464.092,158.841 441.536,177.098 422.145,192.793 " fill="none" id="Movie&lt;-DiscountPolicy" style="stroke: #A80036; stroke-width: 1.0;"/><polygon fill="#A80036" points="495.92,133.079,488.7397,133.7447,486.5926,140.6288,493.7729,139.963,495.92,133.079" style="stroke: #A80036; stroke-width: 1.0;"/><!--MD5=[583467abdeec2d311a672525fbe0a9b9]
reverse link Movie to Screening--><path d="M629.569,143.455 C682.376,210.097 745.964,311.905 705,400 C694.573,422.423 678.343,442.44 660.486,459.734 " fill="none" id="Movie&lt;-Screening" style="stroke: #A80036; stroke-width: 1.0;"/><polygon fill="#A80036" points="621.205,133.069,621.8529,140.2509,628.7315,142.4152,628.0837,135.2333,621.205,133.069" style="stroke: #A80036; stroke-width: 1.0;"/><!--MD5=[88f6fb7f013dd115006957351a8e9723]
reverse link Screening to Movie--><path d="M704.147,450.577 C718.75,435.488 731.365,418.569 740,400 C783.156,307.193 710.273,199.165 647.128,133.069 " fill="none" id="Screening&lt;-Movie" style="stroke: #A80036; stroke-width: 1.0;"/><polygon fill="#A80036" points="694.815,459.734,701.8992,458.3869,703.3803,451.3295,696.2962,452.6767,694.815,459.734" style="stroke: #A80036; stroke-width: 1.0;"/><!--MD5=[b2a5c62ee17020f07685cec7b7db6df8]
reverse link Reservation to Customer--><path d="M559.554,782.421 C565.262,810.576 571.815,842.901 576.699,866.99 " fill="none" id="Reservation&lt;-Customer" style="stroke: #A80036; stroke-width: 1.0;"/><polygon fill="#A80036" points="556.915,769.407,554.1875,776.0824,559.3003,781.1675,562.0278,774.4922,556.915,769.407" style="stroke: #A80036; stroke-width: 1.0;"/><!--MD5=[d6f262f12d648c2666cae04541bf4aa4]
reverse link Reservation to Screening--><path d="M565.281,656.64 C567.262,641.728 568.816,625.643 569.781,610.23 " fill="none" id="Reservation&lt;-Screening" style="stroke: #A80036; stroke-width: 1.0;"/><polygon fill="#A80036" points="563.346,669.953,568.1675,664.5908,565.0722,658.0778,560.2507,663.44,563.346,669.953" style="stroke: #A80036; stroke-width: 1.0;"/><!--MD5=[c68cec2d08a0c756de089f5d87b96330]
reverse link Screening to Reservation--><path d="M542.583,623.563 C541.103,639.528 540.131,655.645 539.838,669.953 " fill="none" id="Screening&lt;-Reservation" style="stroke: #A80036; stroke-width: 1.0;"/><polygon fill="#A80036" points="543.941,610.23,539.3531,615.7933,542.7238,622.1681,547.3118,616.6048,543.941,610.23" style="stroke: #A80036; stroke-width: 1.0;"/><!--MD5=[39dd7fb721f0a429b8062e1ef2dc64c3]
reverse link Reservation to Money--><path d="M470.482,777.036 C448.369,793.375 423.894,811.459 400.553,828.705 " fill="none" id="Reservation&lt;-Money" style="stroke: #A80036; stroke-width: 1.0;"/><polygon fill="#A80036" points="481.133,769.167,473.9303,769.5149,471.4812,776.2974,478.6839,775.9495,481.133,769.167" style="stroke: #A80036; stroke-width: 1.0;"/><!--MD5=[0e44eefa85f7d41020a26d0e9d3d82cf]
reverse link Screening to Money--><path d="M487.548,620.224 C473.962,636.411 460.24,653.476 448,670 C410.061,721.215 371.596,782.104 343.392,828.792 " fill="none" id="Screening&lt;-Money" style="stroke: #A80036; stroke-width: 1.0;"/><polygon fill="#A80036" points="495.975,610.271,489.0451,612.265,488.2203,619.4287,495.1502,617.4348,495.975,610.271" style="stroke: #A80036; stroke-width: 1.0;"/><!--MD5=[7f35b6f28088c12d4f6bb0e95957d027]
reverse link Screening to Customer--><path d="M624.78,621.776 C633.113,637.18 640.374,653.578 645,670 C656.93,712.352 654.327,726 645,769 C637.414,803.972 619.882,840.769 605.551,866.936 " fill="none" id="Screening&lt;-Customer" style="stroke: #A80036; stroke-width: 1.0;"/><polygon fill="#A80036" points="618.225,610.206,617.7024,617.3981,624.1403,620.6468,624.6629,613.4546,618.225,610.206" style="stroke: #A80036; stroke-width: 1.0;"/><!--MD5=[d0fa2538dcf05f1b31919df43b72669a]
reverse link DiscountCondition to Screening--><path d="M563.737,413.521 C563.65,427.695 563.551,443.889 563.454,459.708 " fill="none" id="DiscountCondition&lt;-Screening" style="stroke: #A80036; stroke-width: 1.0;"/><polygon fill="#A80036" points="563.819,400.109,559.7828,406.0847,563.7465,412.1088,567.7827,406.1331,563.819,400.109" style="stroke: #A80036; stroke-width: 1.0;"/><!--MD5=[16d1abe9ff43d595e4dffd7964cee7c5]
reverse link DiscountPolicy to DiscountCondition--><path d="M443.144,286.579 C469.121,304.188 497.532,323.446 520.277,338.863 " fill="none" id="DiscountPolicy&lt;-DiscountCondition" style="stroke: #A80036; stroke-width: 1.0;"/><polygon fill="#A80036" points="432.183,279.15,434.9049,285.8277,442.1158,285.8835,439.3939,279.2058,432.183,279.15" style="stroke: #A80036; stroke-width: 1.0;"/><!--MD5=[978676fffa62c0490feeef4066d3cb09]
reverse link DiscountPolicy to Screening--><path d="M372.958,292.4 C376.821,325.576 385.53,367.479 405,400 C418.21,422.064 436.366,442.257 455.675,459.902 " fill="none" id="DiscountPolicy&lt;-Screening" style="stroke: #A80036; stroke-width: 1.0;"/><polygon fill="#A80036" points="371.622,279.231,368.2484,285.6043,372.8339,291.1696,376.2075,284.7963,371.622,279.231" style="stroke: #A80036; stroke-width: 1.0;"/><!--MD5=[d359a93dfaa8fe5f2814ef13a93483d6]
reverse link DiscountPolicy to Money--><path d="M361.178,292.255 C354.199,337.313 344.569,402.653 338,460 C323.176,589.416 311.384,740.706 305.068,828.8 " fill="none" id="DiscountPolicy&lt;-Money" style="stroke: #A80036; stroke-width: 1.0;"/><polygon fill="#A80036" points="363.207,279.243,358.3303,284.5551,361.3581,291.0997,366.2348,285.7876,363.207,279.243" style="stroke: #A80036; stroke-width: 1.0;"/><!--MD5=[4f2c9916e02fbd70d581dfbc001efef4]
reverse link AmountDiscountPolicy to Money--><path d="M172.386,584.4 C197.385,646.812 241.11,755.975 270.309,828.874 " fill="none" id="AmountDiscountPolicy&lt;-Money" style="stroke: #A80036; stroke-width: 1.0;"/><polygon fill="#A80036" points="167.497,572.194,166.0149,579.2511,171.9591,583.3335,173.4413,576.2764,167.497,572.194" style="stroke: #A80036; stroke-width: 1.0;"/><!--MD5=[0a9eb1812cdaa79037d4e08fa9a5e329]
@startuml
class Money {
    -amount: number
    +plus(amount: Money): Money
    +minus(amount: Money): Money
    +times(percent: number): Money
    +isLessThan(other: Money): boolean
    +isGreaterThanOrEqual(other: Money): boolean
    +{static} ZERO: Money
    +{static} wons(amount: number): Money
}
class Movie {
    -title: string
    -runningTime: number
    -fee: Money
    -discountPolicy: DiscountPolicy
    +getFee(): Money
    +calculateMovieFee(screening: Screening): Money
}
class Customer {
    -name: string
    -id: string
}
class Reservation {
    -customer: Customer
    -screening: Screening
    -fee: Money
    -audienceCount: number
}
class Screening {
    -movie: Movie
    -sequence: number
    -whenScreened: Date
    +getStartTime(): Date
    +isSequence(sequence: number): boolean
    +getMovieFee(): Money
    +reserve(customer: Customer, audienceCount: number): Reservation
    +calculateFee(audienceCount: number): Money
}
interface DiscountCondition {
    +isSatisfiedBy(screening: Screening): boolean
}
abstract class DiscountPolicy {
    -conditions: DiscountCondition[]
    +calculateDiscountAmount(screening: Screening): Money
    #{abstract} getDiscountAmount(Screening: Screening): Money
}
class AmountDiscountPolicy extends DiscountPolicy {
    -discountAmount: Money
    #getDiscountAmount(): Money
}
Movie *- - Money
Movie *- - DiscountPolicy
Movie *- - Screening
Reservation *- - Customer
Reservation *- - Screening
Reservation *- - Money
Screening *- - Movie
Screening *- - Money
Screening *- - Customer
Screening *- - Reservation
DiscountCondition *- - Screening
DiscountPolicy *- - DiscountCondition
DiscountPolicy *- - Screening
DiscountPolicy *- - Money
AmountDiscountPolicy *- - Money
@enduml

PlantUML version 1.2019.11(Sun Sep 22 10:02:15 UTC 2019)
(GPL source distribution)
Java Runtime: Java(TM) SE Runtime Environment
JVM: Java HotSpot(TM) 64-Bit Server VM
Java Version: 1.7.0_25-b15
Operating System: Linux
Default Encoding: UTF-8
Language: en
Country: US
--></g></svg>