<?xml version="1.0" encoding="UTF-8" standalone="no"?><svg xmlns="http://www.w3.org/2000/svg" xmlns:xlink="http://www.w3.org/1999/xlink" contentScriptType="application/ecmascript" contentStyleType="text/css" height="1124px" preserveAspectRatio="none" style="width:1552px;height:1124px;" version="1.1" viewBox="0 0 1552 1124" width="1552px" zoomAndPan="magnify"><defs><filter height="300%" id="f1adokptjkyewf" width="300%" x="-1" y="-1"><feGaussianBlur result="blurOut" stdDeviation="2.0"/><feColorMatrix in="blurOut" result="blurOut2" type="matrix" values="0 0 0 0 0 0 0 0 0 0 0 0 0 0 0 0 0 0 .4 0"/><feOffset dx="4.0" dy="4.0" in="blurOut2" result="blurOut3"/><feBlend in="SourceGraphic" in2="blurOut3" mode="normal"/></filter></defs><g><!--MD5=[2ce0c9fb7f55b1e256ab28a8ea6b25ec]
class Customer--><rect fill="#FEFECE" filter="url(#f1adokptjkyewf)" height="73.6094" id="Customer" style="stroke: #A80036; stroke-width: 1.5;" width="99" x="6" y="402.5"/><ellipse cx="24.15" cy="418.5" fill="#ADD1B2" rx="11" ry="11" style="stroke: #A80036; stroke-width: 1.0;"/><path d="M26.4938,414.1719 L26.6656,414.25 C26.8844,413.9375 27.0875,413.8438 27.3844,413.8438 C27.6813,413.8438 27.9625,413.9844 28.1188,414.25 C28.2125,414.4063 28.2281,414.5313 28.2281,414.9688 L28.2281,416.3906 C28.2281,416.8125 28.1969,417 28.0875,417.1563 C27.9156,417.375 27.65,417.5156 27.3844,417.5156 C27.1656,417.5156 26.9313,417.4063 26.7906,417.2656 C26.65,417.1406 26.6188,417.0156 26.5563,416.6094 C26.4625,416.2031 26.2906,415.9844 25.8063,415.7031 C25.3375,415.4531 24.7281,415.2969 24.15,415.2969 C22.4156,415.2969 21.1656,416.6094 21.1656,418.3906 L21.1656,419.4844 C21.1656,421.1875 22.4625,422.2813 24.5094,422.2813 C25.275,422.2813 25.9625,422.1563 26.3844,421.8906 C26.5719,421.7969 26.5719,421.7969 27.025,421.3125 C27.2125,421.125 27.4156,421.0469 27.6344,421.0469 C28.1031,421.0469 28.4938,421.4375 28.4938,421.8906 C28.4938,422.2813 28.1656,422.7344 27.5875,423.1406 C26.8375,423.6875 25.6813,423.9844 24.4625,423.9844 C21.5719,423.9844 19.4625,422.0938 19.4625,419.5156 L19.4625,418.3906 C19.4625,415.6719 21.4625,413.5938 24.0875,413.5938 C24.9625,413.5938 25.5563,413.7344 26.4938,414.1719 Z "/><text fill="#000000" font-family="sans-serif" font-size="12" lengthAdjust="spacingAndGlyphs" textLength="60" x="38.85" y="422.6543">Customer</text><line style="stroke: #A80036; stroke-width: 1.5;" x1="7" x2="104" y1="434.5" y2="434.5"/><rect fill="none" height="6" style="stroke: #C82930; stroke-width: 1.0;" width="6" x="14" y="442.5"/><text fill="#000000" font-family="sans-serif" font-size="11" lengthAdjust="spacingAndGlyphs" textLength="73" x="26" y="448.7104">name: string</text><rect fill="none" height="6" style="stroke: #C82930; stroke-width: 1.0;" width="6" x="14" y="455.3047"/><text fill="#000000" font-family="sans-serif" font-size="11" lengthAdjust="spacingAndGlyphs" textLength="51" x="26" y="461.5151">id: string</text><line style="stroke: #A80036; stroke-width: 1.5;" x1="7" x2="104" y1="468.1094" y2="468.1094"/><!--MD5=[08dbe06e87f91eb667838fe2f259c34a]
class Money--><rect fill="#FEFECE" filter="url(#f1adokptjkyewf)" height="150.4375" id="Money" style="stroke: #A80036; stroke-width: 1.5;" width="288" x="1147.5" y="963"/><ellipse cx="1267.25" cy="979" fill="#ADD1B2" rx="11" ry="11" style="stroke: #A80036; stroke-width: 1.0;"/><path d="M1269.5938,974.6719 L1269.7656,974.75 C1269.9844,974.4375 1270.1875,974.3438 1270.4844,974.3438 C1270.7813,974.3438 1271.0625,974.4844 1271.2188,974.75 C1271.3125,974.9063 1271.3281,975.0313 1271.3281,975.4688 L1271.3281,976.8906 C1271.3281,977.3125 1271.2969,977.5 1271.1875,977.6563 C1271.0156,977.875 1270.75,978.0156 1270.4844,978.0156 C1270.2656,978.0156 1270.0313,977.9063 1269.8906,977.7656 C1269.75,977.6406 1269.7188,977.5156 1269.6563,977.1094 C1269.5625,976.7031 1269.3906,976.4844 1268.9063,976.2031 C1268.4375,975.9531 1267.8281,975.7969 1267.25,975.7969 C1265.5156,975.7969 1264.2656,977.1094 1264.2656,978.8906 L1264.2656,979.9844 C1264.2656,981.6875 1265.5625,982.7813 1267.6094,982.7813 C1268.375,982.7813 1269.0625,982.6563 1269.4844,982.3906 C1269.6719,982.2969 1269.6719,982.2969 1270.125,981.8125 C1270.3125,981.625 1270.5156,981.5469 1270.7344,981.5469 C1271.2031,981.5469 1271.5938,981.9375 1271.5938,982.3906 C1271.5938,982.7813 1271.2656,983.2344 1270.6875,983.6406 C1269.9375,984.1875 1268.7813,984.4844 1267.5625,984.4844 C1264.6719,984.4844 1262.5625,982.5938 1262.5625,980.0156 L1262.5625,978.8906 C1262.5625,976.1719 1264.5625,974.0938 1267.1875,974.0938 C1268.0625,974.0938 1268.6563,974.2344 1269.5938,974.6719 Z "/><text fill="#000000" font-family="sans-serif" font-size="12" lengthAdjust="spacingAndGlyphs" textLength="40" x="1287.75" y="983.1543">Money</text><line style="stroke: #A80036; stroke-width: 1.5;" x1="1148.5" x2="1434.5" y1="995" y2="995"/><rect fill="none" height="6" style="stroke: #C82930; stroke-width: 1.0;" width="6" x="1155.5" y="1003"/><text fill="#000000" font-family="sans-serif" font-size="11" lengthAdjust="spacingAndGlyphs" textLength="95" x="1167.5" y="1009.2104">amount: number</text><ellipse cx="1158.5" cy="1018.8047" fill="none" rx="3" ry="3" style="stroke: #038048; stroke-width: 1.0;"/><text fill="#000000" font-family="sans-serif" font-size="11" lengthAdjust="spacingAndGlyphs" text-decoration="underline" textLength="76" x="1167.5" y="1022.0151">ZERO: Money</text><line style="stroke: #A80036; stroke-width: 1.5;" x1="1148.5" x2="1434.5" y1="1028.6094" y2="1028.6094"/><ellipse cx="1158.5" cy="1039.6094" fill="#84BE84" rx="3" ry="3" style="stroke: #038048; stroke-width: 1.0;"/><text fill="#000000" font-family="sans-serif" font-size="11" lengthAdjust="spacingAndGlyphs" textLength="163" x="1167.5" y="1042.8198">plus(amount: Money): Money</text><ellipse cx="1158.5" cy="1052.4141" fill="#84BE84" rx="3" ry="3" style="stroke: #038048; stroke-width: 1.0;"/><text fill="#000000" font-family="sans-serif" font-size="11" lengthAdjust="spacingAndGlyphs" textLength="174" x="1167.5" y="1055.6245">minus(amount: Money): Money</text><ellipse cx="1158.5" cy="1065.2188" fill="#84BE84" rx="3" ry="3" style="stroke: #038048; stroke-width: 1.0;"/><text fill="#000000" font-family="sans-serif" font-size="11" lengthAdjust="spacingAndGlyphs" textLength="179" x="1167.5" y="1068.4292">times(percent: number): Money</text><ellipse cx="1158.5" cy="1078.0234" fill="#84BE84" rx="3" ry="3" style="stroke: #038048; stroke-width: 1.0;"/><text fill="#000000" font-family="sans-serif" font-size="11" lengthAdjust="spacingAndGlyphs" textLength="200" x="1167.5" y="1081.2339">isLessThan(other: Money): boolean</text><ellipse cx="1158.5" cy="1090.8281" fill="#84BE84" rx="3" ry="3" style="stroke: #038048; stroke-width: 1.0;"/><text fill="#000000" font-family="sans-serif" font-size="11" lengthAdjust="spacingAndGlyphs" textLength="262" x="1167.5" y="1094.0386">isGreaterThanOrEqual(other: Money): boolean</text><ellipse cx="1158.5" cy="1103.6328" fill="#84BE84" rx="3" ry="3" style="stroke: #038048; stroke-width: 1.0;"/><text fill="#000000" font-family="sans-serif" font-size="11" lengthAdjust="spacingAndGlyphs" text-decoration="underline" textLength="177" x="1167.5" y="1106.8433">wons(amount: number): Money</text><!--MD5=[a1cd337173fecc0fb20a861a9d65958d]
class DiscountPolicy--><rect fill="#FEFECE" filter="url(#f1adokptjkyewf)" height="60.8047" id="DiscountPolicy" style="stroke: #A80036; stroke-width: 1.5;" width="341" x="824" y="562"/><ellipse cx="945.75" cy="578" fill="#B4A7E5" rx="11" ry="11" style="stroke: #A80036; stroke-width: 1.0;"/><path d="M946.7031,574.7813 L946.7031,581.2969 L948.4219,581.2969 C948.875,581.2969 949.0156,581.3281 949.1875,581.4531 C949.4219,581.625 949.5313,581.875 949.5313,582.1563 C949.5313,582.7188 949.1719,583 948.4219,583 L943.2813,583 C942.875,583 942.6719,582.9531 942.5156,582.8281 C942.2969,582.6719 942.1563,582.4063 942.1563,582.1563 C942.1563,581.8594 942.3125,581.5781 942.5625,581.4219 C942.7188,581.3125 942.8438,581.2969 943.2813,581.2969 L945,581.2969 L945,574.7813 L943.2813,574.7813 C942.8594,574.7813 942.6719,574.75 942.5156,574.6406 C942.2969,574.4688 942.1563,574.2188 942.1563,573.9375 C942.1563,573.6563 942.3125,573.3594 942.5625,573.2031 C942.7188,573.1094 942.8438,573.0938 943.2813,573.0938 L948.4219,573.0938 C948.875,573.0938 949.0156,573.125 949.1875,573.2344 C949.4219,573.4063 949.5313,573.6719 949.5313,573.9375 C949.5313,574.2344 949.3906,574.5156 949.125,574.6719 C949,574.75 948.8125,574.7813 948.4219,574.7813 Z "/><text fill="#000000" font-family="sans-serif" font-size="12" font-style="italic" lengthAdjust="spacingAndGlyphs" textLength="89" x="966.25" y="582.1543">DiscountPolicy</text><line style="stroke: #A80036; stroke-width: 1.5;" x1="825" x2="1164" y1="594" y2="594"/><line style="stroke: #A80036; stroke-width: 1.5;" x1="825" x2="1164" y1="602" y2="602"/><ellipse cx="835" cy="613" fill="#84BE84" rx="3" ry="3" style="stroke: #038048; stroke-width: 1.0;"/><text fill="#000000" font-family="sans-serif" font-size="11" lengthAdjust="spacingAndGlyphs" textLength="315" x="844" y="616.2104">calculateDiscountAmount(screening: Screening): Money</text><!--MD5=[e69084ab16b022bdbef99762ea85e9d6]
class Movie--><rect fill="#FEFECE" filter="url(#f1adokptjkyewf)" height="124.8281" id="Movie" style="stroke: #A80036; stroke-width: 1.5;" width="301" x="1115" y="377"/><ellipse cx="1243.75" cy="393" fill="#ADD1B2" rx="11" ry="11" style="stroke: #A80036; stroke-width: 1.0;"/><path d="M1246.0938,388.6719 L1246.2656,388.75 C1246.4844,388.4375 1246.6875,388.3438 1246.9844,388.3438 C1247.2813,388.3438 1247.5625,388.4844 1247.7188,388.75 C1247.8125,388.9063 1247.8281,389.0313 1247.8281,389.4688 L1247.8281,390.8906 C1247.8281,391.3125 1247.7969,391.5 1247.6875,391.6563 C1247.5156,391.875 1247.25,392.0156 1246.9844,392.0156 C1246.7656,392.0156 1246.5313,391.9063 1246.3906,391.7656 C1246.25,391.6406 1246.2188,391.5156 1246.1563,391.1094 C1246.0625,390.7031 1245.8906,390.4844 1245.4063,390.2031 C1244.9375,389.9531 1244.3281,389.7969 1243.75,389.7969 C1242.0156,389.7969 1240.7656,391.1094 1240.7656,392.8906 L1240.7656,393.9844 C1240.7656,395.6875 1242.0625,396.7813 1244.1094,396.7813 C1244.875,396.7813 1245.5625,396.6563 1245.9844,396.3906 C1246.1719,396.2969 1246.1719,396.2969 1246.625,395.8125 C1246.8125,395.625 1247.0156,395.5469 1247.2344,395.5469 C1247.7031,395.5469 1248.0938,395.9375 1248.0938,396.3906 C1248.0938,396.7813 1247.7656,397.2344 1247.1875,397.6406 C1246.4375,398.1875 1245.2813,398.4844 1244.0625,398.4844 C1241.1719,398.4844 1239.0625,396.5938 1239.0625,394.0156 L1239.0625,392.8906 C1239.0625,390.1719 1241.0625,388.0938 1243.6875,388.0938 C1244.5625,388.0938 1245.1563,388.2344 1246.0938,388.6719 Z "/><text fill="#000000" font-family="sans-serif" font-size="12" lengthAdjust="spacingAndGlyphs" textLength="35" x="1264.25" y="397.1543">Movie</text><line style="stroke: #A80036; stroke-width: 1.5;" x1="1116" x2="1415" y1="409" y2="409"/><rect fill="none" height="6" style="stroke: #C82930; stroke-width: 1.0;" width="6" x="1123" y="417"/><text fill="#000000" font-family="sans-serif" font-size="11" lengthAdjust="spacingAndGlyphs" textLength="62" x="1135" y="423.2104">title: string</text><rect fill="none" height="6" style="stroke: #C82930; stroke-width: 1.0;" width="6" x="1123" y="429.8047"/><text fill="#000000" font-family="sans-serif" font-size="11" lengthAdjust="spacingAndGlyphs" textLength="123" x="1135" y="436.0151">runningTime: number</text><rect fill="none" height="6" style="stroke: #C82930; stroke-width: 1.0;" width="6" x="1123" y="442.6094"/><text fill="#000000" font-family="sans-serif" font-size="11" lengthAdjust="spacingAndGlyphs" textLength="62" x="1135" y="448.8198">fee: Money</text><rect fill="none" height="6" style="stroke: #C82930; stroke-width: 1.0;" width="6" x="1123" y="455.4141"/><text fill="#000000" font-family="sans-serif" font-size="11" lengthAdjust="spacingAndGlyphs" textLength="169" x="1135" y="461.6245">discountPolicy: DiscountPolicy</text><line style="stroke: #A80036; stroke-width: 1.5;" x1="1116" x2="1415" y1="468.2188" y2="468.2188"/><ellipse cx="1126" cy="479.2188" fill="#84BE84" rx="3" ry="3" style="stroke: #038048; stroke-width: 1.0;"/><text fill="#000000" font-family="sans-serif" font-size="11" lengthAdjust="spacingAndGlyphs" textLength="90" x="1135" y="482.4292">getFee(): Money</text><ellipse cx="1126" cy="492.0234" fill="#84BE84" rx="3" ry="3" style="stroke: #038048; stroke-width: 1.0;"/><text fill="#000000" font-family="sans-serif" font-size="11" lengthAdjust="spacingAndGlyphs" textLength="275" x="1135" y="495.2339">calculateMovieFee(screening: Screening): Money</text><!--MD5=[9c46470aa33a0c75e6d1dfdefc2f9c22]
class Reservation--><rect fill="#FEFECE" filter="url(#f1adokptjkyewf)" height="99.2188" id="Reservation" style="stroke: #A80036; stroke-width: 1.5;" width="162" x="762.5" y="8"/><ellipse cx="802.7" cy="24" fill="#ADD1B2" rx="11" ry="11" style="stroke: #A80036; stroke-width: 1.0;"/><path d="M805.0438,19.6719 L805.2156,19.75 C805.4344,19.4375 805.6375,19.3438 805.9344,19.3438 C806.2313,19.3438 806.5125,19.4844 806.6688,19.75 C806.7625,19.9063 806.7781,20.0313 806.7781,20.4688 L806.7781,21.8906 C806.7781,22.3125 806.7469,22.5 806.6375,22.6563 C806.4656,22.875 806.2,23.0156 805.9344,23.0156 C805.7156,23.0156 805.4813,22.9063 805.3406,22.7656 C805.2,22.6406 805.1688,22.5156 805.1063,22.1094 C805.0125,21.7031 804.8406,21.4844 804.3563,21.2031 C803.8875,20.9531 803.2781,20.7969 802.7,20.7969 C800.9656,20.7969 799.7156,22.1094 799.7156,23.8906 L799.7156,24.9844 C799.7156,26.6875 801.0125,27.7813 803.0594,27.7813 C803.825,27.7813 804.5125,27.6563 804.9344,27.3906 C805.1219,27.2969 805.1219,27.2969 805.575,26.8125 C805.7625,26.625 805.9656,26.5469 806.1844,26.5469 C806.6531,26.5469 807.0438,26.9375 807.0438,27.3906 C807.0438,27.7813 806.7156,28.2344 806.1375,28.6406 C805.3875,29.1875 804.2313,29.4844 803.0125,29.4844 C800.1219,29.4844 798.0125,27.5938 798.0125,25.0156 L798.0125,23.8906 C798.0125,21.1719 800.0125,19.0938 802.6375,19.0938 C803.5125,19.0938 804.1063,19.2344 805.0438,19.6719 Z "/><text fill="#000000" font-family="sans-serif" font-size="12" lengthAdjust="spacingAndGlyphs" textLength="74" x="822.3" y="28.1543">Reservation</text><line style="stroke: #A80036; stroke-width: 1.5;" x1="763.5" x2="923.5" y1="40" y2="40"/><rect fill="none" height="6" style="stroke: #C82930; stroke-width: 1.0;" width="6" x="770.5" y="48"/><text fill="#000000" font-family="sans-serif" font-size="11" lengthAdjust="spacingAndGlyphs" textLength="118" x="782.5" y="54.2104">customer: Customer</text><rect fill="none" height="6" style="stroke: #C82930; stroke-width: 1.0;" width="6" x="770.5" y="60.8047"/><text fill="#000000" font-family="sans-serif" font-size="11" lengthAdjust="spacingAndGlyphs" textLength="121" x="782.5" y="67.0151">screening: Screening</text><rect fill="none" height="6" style="stroke: #C82930; stroke-width: 1.0;" width="6" x="770.5" y="73.6094"/><text fill="#000000" font-family="sans-serif" font-size="11" lengthAdjust="spacingAndGlyphs" textLength="62" x="782.5" y="79.8198">fee: Money</text><rect fill="none" height="6" style="stroke: #C82930; stroke-width: 1.0;" width="6" x="770.5" y="86.4141"/><text fill="#000000" font-family="sans-serif" font-size="11" lengthAdjust="spacingAndGlyphs" textLength="136" x="782.5" y="92.6245">audienceCount: number</text><line style="stroke: #A80036; stroke-width: 1.5;" x1="763.5" x2="923.5" y1="99.2188" y2="99.2188"/><!--MD5=[fa5b27f77fe197a60cf8f352dcfe1889]
class Screening--><rect fill="#FEFECE" filter="url(#f1adokptjkyewf)" height="150.4375" id="Screening" style="stroke: #A80036; stroke-width: 1.5;" width="415" x="636" y="167"/><ellipse cx="807.75" cy="183" fill="#ADD1B2" rx="11" ry="11" style="stroke: #A80036; stroke-width: 1.0;"/><path d="M810.0938,178.6719 L810.2656,178.75 C810.4844,178.4375 810.6875,178.3438 810.9844,178.3438 C811.2813,178.3438 811.5625,178.4844 811.7188,178.75 C811.8125,178.9063 811.8281,179.0313 811.8281,179.4688 L811.8281,180.8906 C811.8281,181.3125 811.7969,181.5 811.6875,181.6563 C811.5156,181.875 811.25,182.0156 810.9844,182.0156 C810.7656,182.0156 810.5313,181.9063 810.3906,181.7656 C810.25,181.6406 810.2188,181.5156 810.1563,181.1094 C810.0625,180.7031 809.8906,180.4844 809.4063,180.2031 C808.9375,179.9531 808.3281,179.7969 807.75,179.7969 C806.0156,179.7969 804.7656,181.1094 804.7656,182.8906 L804.7656,183.9844 C804.7656,185.6875 806.0625,186.7813 808.1094,186.7813 C808.875,186.7813 809.5625,186.6563 809.9844,186.3906 C810.1719,186.2969 810.1719,186.2969 810.625,185.8125 C810.8125,185.625 811.0156,185.5469 811.2344,185.5469 C811.7031,185.5469 812.0938,185.9375 812.0938,186.3906 C812.0938,186.7813 811.7656,187.2344 811.1875,187.6406 C810.4375,188.1875 809.2813,188.4844 808.0625,188.4844 C805.1719,188.4844 803.0625,186.5938 803.0625,184.0156 L803.0625,182.8906 C803.0625,180.1719 805.0625,178.0938 807.6875,178.0938 C808.5625,178.0938 809.1563,178.2344 810.0938,178.6719 Z "/><text fill="#000000" font-family="sans-serif" font-size="12" lengthAdjust="spacingAndGlyphs" textLength="63" x="828.25" y="187.1543">Screening</text><line style="stroke: #A80036; stroke-width: 1.5;" x1="637" x2="1050" y1="199" y2="199"/><rect fill="none" height="6" style="stroke: #C82930; stroke-width: 1.0;" width="6" x="644" y="207"/><text fill="#000000" font-family="sans-serif" font-size="11" lengthAdjust="spacingAndGlyphs" textLength="74" x="656" y="213.2104">movie: Movie</text><rect fill="none" height="6" style="stroke: #C82930; stroke-width: 1.0;" width="6" x="644" y="219.8047"/><text fill="#000000" font-family="sans-serif" font-size="11" lengthAdjust="spacingAndGlyphs" textLength="107" x="656" y="226.0151">sequence: number</text><rect fill="none" height="6" style="stroke: #C82930; stroke-width: 1.0;" width="6" x="644" y="232.6094"/><text fill="#000000" font-family="sans-serif" font-size="11" lengthAdjust="spacingAndGlyphs" textLength="118" x="656" y="238.8198">whenScreened: Date</text><line style="stroke: #A80036; stroke-width: 1.5;" x1="637" x2="1050" y1="245.4141" y2="245.4141"/><ellipse cx="647" cy="256.4141" fill="#84BE84" rx="3" ry="3" style="stroke: #038048; stroke-width: 1.0;"/><text fill="#000000" font-family="sans-serif" font-size="11" lengthAdjust="spacingAndGlyphs" textLength="116" x="656" y="259.6245">getStartTime(): Date</text><ellipse cx="647" cy="269.2188" fill="#84BE84" rx="3" ry="3" style="stroke: #038048; stroke-width: 1.0;"/><text fill="#000000" font-family="sans-serif" font-size="11" lengthAdjust="spacingAndGlyphs" textLength="234" x="656" y="272.4292">isSequence(sequence: number): boolean</text><ellipse cx="647" cy="282.0234" fill="#84BE84" rx="3" ry="3" style="stroke: #038048; stroke-width: 1.0;"/><text fill="#000000" font-family="sans-serif" font-size="11" lengthAdjust="spacingAndGlyphs" textLength="122" x="656" y="285.2339">getMovieFee(): Money</text><ellipse cx="647" cy="294.8281" fill="#84BE84" rx="3" ry="3" style="stroke: #038048; stroke-width: 1.0;"/><text fill="#000000" font-family="sans-serif" font-size="11" lengthAdjust="spacingAndGlyphs" textLength="389" x="656" y="298.0386">reserve(customer: Customer, audienceCount: number): Reservation</text><ellipse cx="647" cy="307.6328" fill="#84BE84" rx="3" ry="3" style="stroke: #038048; stroke-width: 1.0;"/><text fill="#000000" font-family="sans-serif" font-size="11" lengthAdjust="spacingAndGlyphs" textLength="258" x="656" y="310.8433">calculateFee(audienceCount: number): Money</text><!--MD5=[fb6547c0cf79da1af610e0229b9f01c4]
class DiscountCondition--><rect fill="#FEFECE" filter="url(#f1adokptjkyewf)" height="60.8047" id="DiscountCondition" style="stroke: #A80036; stroke-width: 1.5;" width="282" x="211.5" y="835.5"/><ellipse cx="291.75" cy="851.5" fill="#B4A7E5" rx="11" ry="11" style="stroke: #A80036; stroke-width: 1.0;"/><path d="M292.7031,848.2813 L292.7031,854.7969 L294.4219,854.7969 C294.875,854.7969 295.0156,854.8281 295.1875,854.9531 C295.4219,855.125 295.5313,855.375 295.5313,855.6563 C295.5313,856.2188 295.1719,856.5 294.4219,856.5 L289.2813,856.5 C288.875,856.5 288.6719,856.4531 288.5156,856.3281 C288.2969,856.1719 288.1563,855.9063 288.1563,855.6563 C288.1563,855.3594 288.3125,855.0781 288.5625,854.9219 C288.7188,854.8125 288.8438,854.7969 289.2813,854.7969 L291,854.7969 L291,848.2813 L289.2813,848.2813 C288.8594,848.2813 288.6719,848.25 288.5156,848.1406 C288.2969,847.9688 288.1563,847.7188 288.1563,847.4375 C288.1563,847.1563 288.3125,846.8594 288.5625,846.7031 C288.7188,846.6094 288.8438,846.5938 289.2813,846.5938 L294.4219,846.5938 C294.875,846.5938 295.0156,846.625 295.1875,846.7344 C295.4219,846.9063 295.5313,847.1719 295.5313,847.4375 C295.5313,847.7344 295.3906,848.0156 295.125,848.1719 C295,848.25 294.8125,848.2813 294.4219,848.2813 Z "/><text fill="#000000" font-family="sans-serif" font-size="12" font-style="italic" lengthAdjust="spacingAndGlyphs" textLength="113" x="312.25" y="855.6543">DiscountCondition</text><line style="stroke: #A80036; stroke-width: 1.5;" x1="212.5" x2="492.5" y1="867.5" y2="867.5"/><line style="stroke: #A80036; stroke-width: 1.5;" x1="212.5" x2="492.5" y1="875.5" y2="875.5"/><ellipse cx="222.5" cy="886.5" fill="#84BE84" rx="3" ry="3" style="stroke: #038048; stroke-width: 1.0;"/><text fill="#000000" font-family="sans-serif" font-size="11" lengthAdjust="spacingAndGlyphs" textLength="256" x="231.5" y="889.7104">isSatisfiedBy(screening: Screening): boolean</text><!--MD5=[04e48f3c0c0facecbfa385417a52a9e0]
class DefaultDiscountPolicy--><rect fill="#FEFECE" filter="url(#f1adokptjkyewf)" height="86.4141" id="DefaultDiscountPolicy" style="stroke: #A80036; stroke-width: 1.5;" width="341" x="600" y="683"/><ellipse cx="699.25" cy="699" fill="#A9DCDF" rx="11" ry="11" style="stroke: #A80036; stroke-width: 1.0;"/><path d="M700.8281,700.8125 L696.7813,700.8125 L696.3906,701.7969 L696.7813,701.7969 C697.2344,701.7969 697.375,701.8281 697.5469,701.9531 C697.7656,702.125 697.8906,702.375 697.8906,702.6563 C697.8906,702.9375 697.75,703.2344 697.4844,703.375 C697.3594,703.4688 697.1406,703.5 696.7813,703.5 L694.5156,703.5 C693.7656,703.5 693.3906,703.2188 693.3906,702.6563 C693.3906,702.3594 693.5469,702.0781 693.7969,701.9219 C693.9531,701.8125 694.1094,701.7969 694.5313,701.7969 L697.1719,695.2813 L696.0938,695.2813 C695.6563,695.2813 695.4844,695.25 695.3125,695.1406 C695.0938,694.9688 694.9531,694.7188 694.9531,694.4375 C694.9531,694.1563 695.1094,693.875 695.3594,693.7031 C695.5156,693.6094 695.6406,693.5938 696.0938,693.5938 L699.7656,693.5938 L703.1563,701.7969 C703.625,701.7969 703.7813,701.8281 703.9531,701.9688 C704.1719,702.125 704.3125,702.375 704.3125,702.6563 C704.3125,702.9375 704.1563,703.2344 703.9063,703.375 C703.7656,703.4688 703.5469,703.5 703.1875,703.5 L700.8281,703.5 C700.4063,703.5 700.2031,703.4531 700.0625,703.3281 C699.8438,703.1719 699.7031,702.9219 699.7031,702.6563 C699.7031,702.3594 699.8594,702.0781 700.1094,701.9219 C700.2656,701.8125 700.375,701.7969 700.8281,701.7969 L701.2188,701.7969 Z M700.125,699.1094 L698.7969,695.8438 L697.4531,699.1094 Z "/><text fill="#000000" font-family="sans-serif" font-size="12" font-style="italic" lengthAdjust="spacingAndGlyphs" textLength="134" x="719.75" y="703.1543">DefaultDiscountPolicy</text><line style="stroke: #A80036; stroke-width: 1.5;" x1="601" x2="940" y1="715" y2="715"/><rect fill="none" height="6" style="stroke: #C82930; stroke-width: 1.0;" width="6" x="608" y="723"/><text fill="#000000" font-family="sans-serif" font-size="11" lengthAdjust="spacingAndGlyphs" textLength="176" x="620" y="729.2104">conditions: DiscountCondition[]</text><line style="stroke: #A80036; stroke-width: 1.5;" x1="601" x2="940" y1="735.8047" y2="735.8047"/><ellipse cx="611" cy="746.8047" fill="#84BE84" rx="3" ry="3" style="stroke: #038048; stroke-width: 1.0;"/><text fill="#000000" font-family="sans-serif" font-size="11" lengthAdjust="spacingAndGlyphs" textLength="315" x="620" y="750.0151">calculateDiscountAmount(screening: Screening): Money</text><polygon fill="#FFFF44" points="611,754.6094,615,758.6094,611,762.6094,607,758.6094" style="stroke: #B38D22; stroke-width: 1.0;"/><text fill="#000000" font-family="sans-serif" font-size="11" font-style="italic" lengthAdjust="spacingAndGlyphs" textLength="283" x="620" y="762.8198">getDiscountAmount(Screening: Screening): Money</text><!--MD5=[0d27dc7004874190cdbbc1a5b9b00428]
class AmountDiscountPolicy--><rect fill="#FEFECE" filter="url(#f1adokptjkyewf)" height="73.6094" id="AmountDiscountPolicy" style="stroke: #A80036; stroke-width: 1.5;" width="188" x="670.5" y="829"/><ellipse cx="693.6" cy="845" fill="#ADD1B2" rx="11" ry="11" style="stroke: #A80036; stroke-width: 1.0;"/><path d="M695.9438,840.6719 L696.1156,840.75 C696.3344,840.4375 696.5375,840.3438 696.8344,840.3438 C697.1313,840.3438 697.4125,840.4844 697.5688,840.75 C697.6625,840.9063 697.6781,841.0313 697.6781,841.4688 L697.6781,842.8906 C697.6781,843.3125 697.6469,843.5 697.5375,843.6563 C697.3656,843.875 697.1,844.0156 696.8344,844.0156 C696.6156,844.0156 696.3813,843.9063 696.2406,843.7656 C696.1,843.6406 696.0688,843.5156 696.0063,843.1094 C695.9125,842.7031 695.7406,842.4844 695.2563,842.2031 C694.7875,841.9531 694.1781,841.7969 693.6,841.7969 C691.8656,841.7969 690.6156,843.1094 690.6156,844.8906 L690.6156,845.9844 C690.6156,847.6875 691.9125,848.7813 693.9594,848.7813 C694.725,848.7813 695.4125,848.6563 695.8344,848.3906 C696.0219,848.2969 696.0219,848.2969 696.475,847.8125 C696.6625,847.625 696.8656,847.5469 697.0844,847.5469 C697.5531,847.5469 697.9438,847.9375 697.9438,848.3906 C697.9438,848.7813 697.6156,849.2344 697.0375,849.6406 C696.2875,850.1875 695.1313,850.4844 693.9125,850.4844 C691.0219,850.4844 688.9125,848.5938 688.9125,846.0156 L688.9125,844.8906 C688.9125,842.1719 690.9125,840.0938 693.5375,840.0938 C694.4125,840.0938 695.0063,840.2344 695.9438,840.6719 Z "/><text fill="#000000" font-family="sans-serif" font-size="12" lengthAdjust="spacingAndGlyphs" textLength="138" x="709.4" y="849.1543">AmountDiscountPolicy</text><line style="stroke: #A80036; stroke-width: 1.5;" x1="671.5" x2="857.5" y1="861" y2="861"/><rect fill="none" height="6" style="stroke: #C82930; stroke-width: 1.0;" width="6" x="678.5" y="869"/><text fill="#000000" font-family="sans-serif" font-size="11" lengthAdjust="spacingAndGlyphs" textLength="135" x="690.5" y="875.2104">discountAmount: Money</text><line style="stroke: #A80036; stroke-width: 1.5;" x1="671.5" x2="857.5" y1="881.8047" y2="881.8047"/><polygon fill="#FFFF44" points="681.5,887.8047,685.5,891.8047,681.5,895.8047,677.5,891.8047" style="stroke: #B38D22; stroke-width: 1.0;"/><text fill="#000000" font-family="sans-serif" font-size="11" lengthAdjust="spacingAndGlyphs" textLength="162" x="690.5" y="896.0151">getDiscountAmount(): Money</text><!--MD5=[3569ce30feb923fc14990051d8236b45]
class NoneDiscountPolicy--><rect fill="#FEFECE" filter="url(#f1adokptjkyewf)" height="60.8047" id="NoneDiscountPolicy" style="stroke: #A80036; stroke-width: 1.5;" width="220" x="1047.5" y="695.5"/><ellipse cx="1091.75" cy="711.5" fill="#ADD1B2" rx="11" ry="11" style="stroke: #A80036; stroke-width: 1.0;"/><path d="M1094.0938,707.1719 L1094.2656,707.25 C1094.4844,706.9375 1094.6875,706.8438 1094.9844,706.8438 C1095.2813,706.8438 1095.5625,706.9844 1095.7188,707.25 C1095.8125,707.4063 1095.8281,707.5313 1095.8281,707.9688 L1095.8281,709.3906 C1095.8281,709.8125 1095.7969,710 1095.6875,710.1563 C1095.5156,710.375 1095.25,710.5156 1094.9844,710.5156 C1094.7656,710.5156 1094.5313,710.4063 1094.3906,710.2656 C1094.25,710.1406 1094.2188,710.0156 1094.1563,709.6094 C1094.0625,709.2031 1093.8906,708.9844 1093.4063,708.7031 C1092.9375,708.4531 1092.3281,708.2969 1091.75,708.2969 C1090.0156,708.2969 1088.7656,709.6094 1088.7656,711.3906 L1088.7656,712.4844 C1088.7656,714.1875 1090.0625,715.2813 1092.1094,715.2813 C1092.875,715.2813 1093.5625,715.1563 1093.9844,714.8906 C1094.1719,714.7969 1094.1719,714.7969 1094.625,714.3125 C1094.8125,714.125 1095.0156,714.0469 1095.2344,714.0469 C1095.7031,714.0469 1096.0938,714.4375 1096.0938,714.8906 C1096.0938,715.2813 1095.7656,715.7344 1095.1875,716.1406 C1094.4375,716.6875 1093.2813,716.9844 1092.0625,716.9844 C1089.1719,716.9844 1087.0625,715.0938 1087.0625,712.5156 L1087.0625,711.3906 C1087.0625,708.6719 1089.0625,706.5938 1091.6875,706.5938 C1092.5625,706.5938 1093.1563,706.7344 1094.0938,707.1719 Z "/><text fill="#000000" font-family="sans-serif" font-size="12" lengthAdjust="spacingAndGlyphs" textLength="123" x="1112.25" y="715.6543">NoneDiscountPolicy</text><line style="stroke: #A80036; stroke-width: 1.5;" x1="1048.5" x2="1266.5" y1="727.5" y2="727.5"/><line style="stroke: #A80036; stroke-width: 1.5;" x1="1048.5" x2="1266.5" y1="735.5" y2="735.5"/><ellipse cx="1058.5" cy="746.5" fill="#84BE84" rx="3" ry="3" style="stroke: #038048; stroke-width: 1.0;"/><text fill="#000000" font-family="sans-serif" font-size="11" lengthAdjust="spacingAndGlyphs" textLength="194" x="1067.5" y="749.7104">calculateDiscountAmount(): Money</text><!--MD5=[3877aba889c0f996d5efd598404f2be1]
class PercentDiscountPolicy--><rect fill="#FEFECE" filter="url(#f1adokptjkyewf)" height="73.6094" id="PercentDiscountPolicy" style="stroke: #A80036; stroke-width: 1.5;" width="309" x="894" y="829"/><ellipse cx="974.75" cy="845" fill="#ADD1B2" rx="11" ry="11" style="stroke: #A80036; stroke-width: 1.0;"/><path d="M977.0938,840.6719 L977.2656,840.75 C977.4844,840.4375 977.6875,840.3438 977.9844,840.3438 C978.2813,840.3438 978.5625,840.4844 978.7188,840.75 C978.8125,840.9063 978.8281,841.0313 978.8281,841.4688 L978.8281,842.8906 C978.8281,843.3125 978.7969,843.5 978.6875,843.6563 C978.5156,843.875 978.25,844.0156 977.9844,844.0156 C977.7656,844.0156 977.5313,843.9063 977.3906,843.7656 C977.25,843.6406 977.2188,843.5156 977.1563,843.1094 C977.0625,842.7031 976.8906,842.4844 976.4063,842.2031 C975.9375,841.9531 975.3281,841.7969 974.75,841.7969 C973.0156,841.7969 971.7656,843.1094 971.7656,844.8906 L971.7656,845.9844 C971.7656,847.6875 973.0625,848.7813 975.1094,848.7813 C975.875,848.7813 976.5625,848.6563 976.9844,848.3906 C977.1719,848.2969 977.1719,848.2969 977.625,847.8125 C977.8125,847.625 978.0156,847.5469 978.2344,847.5469 C978.7031,847.5469 979.0938,847.9375 979.0938,848.3906 C979.0938,848.7813 978.7656,849.2344 978.1875,849.6406 C977.4375,850.1875 976.2813,850.4844 975.0625,850.4844 C972.1719,850.4844 970.0625,848.5938 970.0625,846.0156 L970.0625,844.8906 C970.0625,842.1719 972.0625,840.0938 974.6875,840.0938 C975.5625,840.0938 976.1563,840.2344 977.0938,840.6719 Z "/><text fill="#000000" font-family="sans-serif" font-size="12" lengthAdjust="spacingAndGlyphs" textLength="139" x="995.25" y="849.1543">PercentDiscountPolicy</text><line style="stroke: #A80036; stroke-width: 1.5;" x1="895" x2="1202" y1="861" y2="861"/><rect fill="none" height="6" style="stroke: #C82930; stroke-width: 1.0;" width="6" x="902" y="869"/><text fill="#000000" font-family="sans-serif" font-size="11" lengthAdjust="spacingAndGlyphs" textLength="95" x="914" y="875.2104">percent: number</text><line style="stroke: #A80036; stroke-width: 1.5;" x1="895" x2="1202" y1="881.8047" y2="881.8047"/><polygon fill="#FFFF44" points="905,887.8047,909,891.8047,905,895.8047,901,891.8047" style="stroke: #B38D22; stroke-width: 1.0;"/><text fill="#000000" font-family="sans-serif" font-size="11" lengthAdjust="spacingAndGlyphs" textLength="283" x="914" y="896.0151">getDiscountAmount(screening: Screening): Money</text><!--MD5=[3387774d7316174022149a2e55ddfc5c]
class PeriodCondition--><rect fill="#FEFECE" filter="url(#f1adokptjkyewf)" height="99.2188" id="PeriodCondition" style="stroke: #A80036; stroke-width: 1.5;" width="282" x="35.5" y="988.5"/><ellipse cx="122.75" cy="1004.5" fill="#ADD1B2" rx="11" ry="11" style="stroke: #A80036; stroke-width: 1.0;"/><path d="M125.0938,1000.1719 L125.2656,1000.25 C125.4844,999.9375 125.6875,999.8438 125.9844,999.8438 C126.2813,999.8438 126.5625,999.9844 126.7188,1000.25 C126.8125,1000.4063 126.8281,1000.5313 126.8281,1000.9688 L126.8281,1002.3906 C126.8281,1002.8125 126.7969,1003 126.6875,1003.1563 C126.5156,1003.375 126.25,1003.5156 125.9844,1003.5156 C125.7656,1003.5156 125.5313,1003.4063 125.3906,1003.2656 C125.25,1003.1406 125.2188,1003.0156 125.1563,1002.6094 C125.0625,1002.2031 124.8906,1001.9844 124.4063,1001.7031 C123.9375,1001.4531 123.3281,1001.2969 122.75,1001.2969 C121.0156,1001.2969 119.7656,1002.6094 119.7656,1004.3906 L119.7656,1005.4844 C119.7656,1007.1875 121.0625,1008.2813 123.1094,1008.2813 C123.875,1008.2813 124.5625,1008.1563 124.9844,1007.8906 C125.1719,1007.7969 125.1719,1007.7969 125.625,1007.3125 C125.8125,1007.125 126.0156,1007.0469 126.2344,1007.0469 C126.7031,1007.0469 127.0938,1007.4375 127.0938,1007.8906 C127.0938,1008.2813 126.7656,1008.7344 126.1875,1009.1406 C125.4375,1009.6875 124.2813,1009.9844 123.0625,1009.9844 C120.1719,1009.9844 118.0625,1008.0938 118.0625,1005.5156 L118.0625,1004.3906 C118.0625,1001.6719 120.0625,999.5938 122.6875,999.5938 C123.5625,999.5938 124.1563,999.7344 125.0938,1000.1719 Z "/><text fill="#000000" font-family="sans-serif" font-size="12" lengthAdjust="spacingAndGlyphs" textLength="99" x="143.25" y="1008.6543">PeriodCondition</text><line style="stroke: #A80036; stroke-width: 1.5;" x1="36.5" x2="316.5" y1="1020.5" y2="1020.5"/><rect fill="none" height="6" style="stroke: #C82930; stroke-width: 1.0;" width="6" x="43.5" y="1028.5"/><text fill="#000000" font-family="sans-serif" font-size="11" lengthAdjust="spacingAndGlyphs" textLength="114" x="55.5" y="1034.7104">dayOfWeek: number</text><rect fill="none" height="6" style="stroke: #C82930; stroke-width: 1.0;" width="6" x="43.5" y="1041.3047"/><text fill="#000000" font-family="sans-serif" font-size="11" lengthAdjust="spacingAndGlyphs" textLength="89" x="55.5" y="1047.5151">startTime: Date</text><rect fill="none" height="6" style="stroke: #C82930; stroke-width: 1.0;" width="6" x="43.5" y="1054.1094"/><text fill="#000000" font-family="sans-serif" font-size="11" lengthAdjust="spacingAndGlyphs" textLength="83" x="55.5" y="1060.3198">endTime: Date</text><line style="stroke: #A80036; stroke-width: 1.5;" x1="36.5" x2="316.5" y1="1066.9141" y2="1066.9141"/><ellipse cx="46.5" cy="1077.9141" fill="#84BE84" rx="3" ry="3" style="stroke: #038048; stroke-width: 1.0;"/><text fill="#000000" font-family="sans-serif" font-size="11" lengthAdjust="spacingAndGlyphs" textLength="256" x="55.5" y="1081.1245">isSatisfiedBy(screening: Screening): boolean</text><!--MD5=[d9cfa9873d7e4c13423254ca3a85e4a5]
class SequenceCondition--><rect fill="#FEFECE" filter="url(#f1adokptjkyewf)" height="73.6094" id="SequenceCondition" style="stroke: #A80036; stroke-width: 1.5;" width="282" x="387.5" y="1001"/><ellipse cx="463.25" cy="1017" fill="#ADD1B2" rx="11" ry="11" style="stroke: #A80036; stroke-width: 1.0;"/><path d="M465.5938,1012.6719 L465.7656,1012.75 C465.9844,1012.4375 466.1875,1012.3438 466.4844,1012.3438 C466.7813,1012.3438 467.0625,1012.4844 467.2188,1012.75 C467.3125,1012.9063 467.3281,1013.0313 467.3281,1013.4688 L467.3281,1014.8906 C467.3281,1015.3125 467.2969,1015.5 467.1875,1015.6563 C467.0156,1015.875 466.75,1016.0156 466.4844,1016.0156 C466.2656,1016.0156 466.0313,1015.9063 465.8906,1015.7656 C465.75,1015.6406 465.7188,1015.5156 465.6563,1015.1094 C465.5625,1014.7031 465.3906,1014.4844 464.9063,1014.2031 C464.4375,1013.9531 463.8281,1013.7969 463.25,1013.7969 C461.5156,1013.7969 460.2656,1015.1094 460.2656,1016.8906 L460.2656,1017.9844 C460.2656,1019.6875 461.5625,1020.7813 463.6094,1020.7813 C464.375,1020.7813 465.0625,1020.6563 465.4844,1020.3906 C465.6719,1020.2969 465.6719,1020.2969 466.125,1019.8125 C466.3125,1019.625 466.5156,1019.5469 466.7344,1019.5469 C467.2031,1019.5469 467.5938,1019.9375 467.5938,1020.3906 C467.5938,1020.7813 467.2656,1021.2344 466.6875,1021.6406 C465.9375,1022.1875 464.7813,1022.4844 463.5625,1022.4844 C460.6719,1022.4844 458.5625,1020.5938 458.5625,1018.0156 L458.5625,1016.8906 C458.5625,1014.1719 460.5625,1012.0938 463.1875,1012.0938 C464.0625,1012.0938 464.6563,1012.2344 465.5938,1012.6719 Z "/><text fill="#000000" font-family="sans-serif" font-size="12" lengthAdjust="spacingAndGlyphs" textLength="122" x="483.75" y="1021.1543">SequenceCondition</text><line style="stroke: #A80036; stroke-width: 1.5;" x1="388.5" x2="668.5" y1="1033" y2="1033"/><rect fill="none" height="6" style="stroke: #C82930; stroke-width: 1.0;" width="6" x="395.5" y="1041"/><text fill="#000000" font-family="sans-serif" font-size="11" lengthAdjust="spacingAndGlyphs" textLength="107" x="407.5" y="1047.2104">sequence: number</text><line style="stroke: #A80036; stroke-width: 1.5;" x1="388.5" x2="668.5" y1="1053.8047" y2="1053.8047"/><ellipse cx="398.5" cy="1064.8047" fill="#84BE84" rx="3" ry="3" style="stroke: #038048; stroke-width: 1.0;"/><text fill="#000000" font-family="sans-serif" font-size="11" lengthAdjust="spacingAndGlyphs" textLength="256" x="407.5" y="1068.0151">isSatisfiedBy(screening: Screening): boolean</text><!--MD5=[dab82498d92f282dab54f65e7fbfe74e]
reverse link DiscountPolicy to DefaultDiscountPolicy--><path d="M926.892,633.19 C900.157,648.885 869.396,666.943 842.267,682.869 " fill="none" id="DiscountPolicy&lt;-DefaultDiscountPolicy" style="stroke: #A80036; stroke-width: 1.0; stroke-dasharray: 7.0,7.0;"/><polygon fill="none" points="923.439,627.1,944.23,623.011,930.526,639.173,923.439,627.1" style="stroke: #A80036; stroke-width: 1.0;"/><!--MD5=[dc5cef2608ee95af0171adec29a4f660]
reverse link DefaultDiscountPolicy to AmountDiscountPolicy--><path d="M767.798,789.145 C767.21,802.677 766.606,816.564 766.078,828.697 " fill="none" id="DefaultDiscountPolicy&lt;-AmountDiscountPolicy" style="stroke: #A80036; stroke-width: 1.0;"/><polygon fill="none" points="760.805,788.831,768.667,769.154,774.792,789.44,760.805,788.831" style="stroke: #A80036; stroke-width: 1.0;"/><!--MD5=[f610d21dd537894f2535aecff51a3a97]
reverse link DiscountPolicy to NoneDiscountPolicy--><path d="M1046.65,635.57 C1070.79,655.044 1098.89,677.717 1120.76,695.36 " fill="none" id="DiscountPolicy&lt;-NoneDiscountPolicy" style="stroke: #A80036; stroke-width: 1.0; stroke-dasharray: 7.0,7.0;"/><polygon fill="none" points="1042.25,641.017,1031.08,623.011,1051.04,630.121,1042.25,641.017" style="stroke: #A80036; stroke-width: 1.0;"/><!--MD5=[b835ba15efe3a255727fb276a1a6e70f]
reverse link DefaultDiscountPolicy to PercentDiscountPolicy--><path d="M873.412,778.086 C907.434,794.975 944.556,813.402 975.828,828.925 " fill="none" id="DefaultDiscountPolicy&lt;-PercentDiscountPolicy" style="stroke: #A80036; stroke-width: 1.0;"/><polygon fill="none" points="870.222,784.317,855.42,769.154,876.446,771.777,870.222,784.317" style="stroke: #A80036; stroke-width: 1.0;"/><!--MD5=[f10db535786092e9f64cc5487298fd3d]
reverse link DiscountCondition to PeriodCondition--><path d="M307.37,910.591 C282.735,934.387 252.168,963.911 226.773,988.441 " fill="none" id="DiscountCondition&lt;-PeriodCondition" style="stroke: #A80036; stroke-width: 1.0; stroke-dasharray: 7.0,7.0;"/><polygon fill="none" points="302.595,905.472,321.843,896.612,312.321,915.541,302.595,905.472" style="stroke: #A80036; stroke-width: 1.0;"/><!--MD5=[b6f68802e2fe0ab73d04375e226265b5]
reverse link DiscountCondition to SequenceCondition--><path d="M397.88,910.833 C426.841,938.806 463.92,974.621 491.168,1000.941 " fill="none" id="DiscountCondition&lt;-SequenceCondition" style="stroke: #A80036; stroke-width: 1.0; stroke-dasharray: 7.0,7.0;"/><polygon fill="none" points="392.679,915.541,383.157,896.612,402.405,905.472,392.679,915.541" style="stroke: #A80036; stroke-width: 1.0;"/><!--MD5=[978676fffa62c0490feeef4066d3cb09]
reverse link DiscountPolicy to Screening--><path d="M976.349,549.607 C951.473,492.197 906.388,388.143 875.708,317.335 " fill="none" id="DiscountPolicy&lt;-Screening" style="stroke: #A80036; stroke-width: 1.0;"/><polygon fill="#A80036" points="981.631,561.798,982.9158,554.7023,976.8601,550.7872,975.5753,557.8829,981.631,561.798" style="stroke: #A80036; stroke-width: 1.0;"/><!--MD5=[d359a93dfaa8fe5f2814ef13a93483d6]
reverse link DiscountPolicy to Money--><path d="M991.527,636.335 C991.199,675.585 997.1,732.914 1029.5,769 C1088.95,835.208 1156.81,766.86 1220.5,829 C1256.62,864.241 1274.37,918.582 1283.09,962.883 " fill="none" id="DiscountPolicy&lt;-Money" style="stroke: #A80036; stroke-width: 1.0;"/><polygon fill="#A80036" points="991.87,623.271,987.7138,629.1639,991.5548,635.2669,995.711,629.374,991.87,623.271" style="stroke: #A80036; stroke-width: 1.0;"/><!--MD5=[7114dc62aa61f1f979cee9d07f4dfd9b]
reverse link Movie to Money--><path d="M1297.21,514.672 C1315.65,561.888 1337.05,624.885 1346.5,683 C1362.2,779.535 1337.86,891.044 1316.74,962.707 " fill="none" id="Movie&lt;-Money" style="stroke: #A80036; stroke-width: 1.0;"/><polygon fill="#A80036" points="1292.35,502.406,1290.8414,509.4575,1296.7703,513.5622,1298.2789,506.5107,1292.35,502.406" style="stroke: #A80036; stroke-width: 1.0;"/><!--MD5=[092c468b0fc5801242764288116528b0]
reverse link Movie to DiscountPolicy--><path d="M1143.1,508.704 C1109.6,527.365 1075.03,546.627 1047.68,561.871 " fill="none" id="Movie&lt;-DiscountPolicy" style="stroke: #A80036; stroke-width: 1.0;"/><polygon fill="#A80036" points="1154.88,502.135,1147.6917,501.5614,1144.3976,507.9761,1151.5858,508.5497,1154.88,502.135" style="stroke: #A80036; stroke-width: 1.0;"/><!--MD5=[583467abdeec2d311a672525fbe0a9b9]
reverse link Movie to Screening--><path d="M1133.19,371.229 C1096.19,353.76 1055.45,334.847 1016.48,317.05 " fill="none" id="Movie&lt;-Screening" style="stroke: #A80036; stroke-width: 1.0;"/><polygon fill="#A80036" points="1145.06,376.847,1141.3462,370.6658,1134.2121,371.7165,1137.9259,377.8977,1145.06,376.847" style="stroke: #A80036; stroke-width: 1.0;"/><!--MD5=[88f6fb7f013dd115006957351a8e9723]
reverse link Screening to Movie--><path d="M1002.834,322.63 C1041.46,340.709 1082.54,359.646 1120.48,376.847 " fill="none" id="Screening&lt;-Movie" style="stroke: #A80036; stroke-width: 1.0;"/><polygon fill="#A80036" points="990.93,317.05,994.6647,323.2186,1001.7953,322.1437,998.0605,315.9751,990.93,317.05" style="stroke: #A80036; stroke-width: 1.0;"/><!--MD5=[b2a5c62ee17020f07685cec7b7db6df8]
reverse link Reservation to Customer--><path d="M750.086,91.65 C610.506,143.064 341.565,249.524 132.5,377 C120.376,384.393 108.019,393.456 96.8558,402.33 " fill="none" id="Reservation&lt;-Customer" style="stroke: #A80036; stroke-width: 1.0;"/><polygon fill="#A80036" points="762.365,87.14,755.3543,85.452,751.0996,91.2742,758.1104,92.9622,762.365,87.14" style="stroke: #A80036; stroke-width: 1.0;"/><!--MD5=[d6f262f12d648c2666cae04541bf4aa4]
reverse link Reservation to Screening--><path d="M831.344,120.677 C830.717,135.535 830.587,151.542 830.952,166.879 " fill="none" id="Reservation&lt;-Screening" style="stroke: #A80036; stroke-width: 1.0;"/><polygon fill="#A80036" points="832.058,107.41,827.7407,113.1859,831.4118,119.3926,835.7291,113.6167,832.058,107.41" style="stroke: #A80036; stroke-width: 1.0;"/><!--MD5=[c68cec2d08a0c756de089f5d87b96330]
reverse link Screening to Reservation--><path d="M856.989,153.612 C857.078,137.722 856.62,121.677 855.615,107.41 " fill="none" id="Screening&lt;-Reservation" style="stroke: #A80036; stroke-width: 1.0;"/><polygon fill="#A80036" points="856.786,166.879,860.8772,160.9408,856.9693,154.8804,852.8781,160.8186,856.786,166.879" style="stroke: #A80036; stroke-width: 1.0;"/><!--MD5=[39dd7fb721f0a429b8062e1ef2dc64c3]
reverse link Reservation to Money--><path d="M937.861,66.53 C1128.27,88.42 1540.5,167.161 1540.5,438.5 C1540.5,438.5 1540.5,438.5 1540.5,727 C1540.5,823.471 1466.3,906.997 1398.91,962.962 " fill="none" id="Reservation&lt;-Money" style="stroke: #A80036; stroke-width: 1.0;"/><polygon fill="#A80036" points="924.819,65.07,930.3398,69.7091,936.7454,66.3972,931.2246,61.7581,924.819,65.07" style="stroke: #A80036; stroke-width: 1.0;"/><!--MD5=[0e44eefa85f7d41020a26d0e9d3d82cf]
reverse link Screening to Money--><path d="M1064.45,267.454 C1210.04,288.227 1382.83,323.352 1433.5,377 C1499.88,447.275 1469.5,494.833 1469.5,591.5 C1469.5,591.5 1469.5,591.5 1469.5,727 C1469.5,816.678 1412.79,903.886 1363.39,962.84 " fill="none" id="Screening&lt;-Money" style="stroke: #A80036; stroke-width: 1.0;"/><polygon fill="#A80036" points="1051.35,265.612,1056.733,270.4102,1063.2326,267.2867,1057.8495,262.4885,1051.35,265.612" style="stroke: #A80036; stroke-width: 1.0;"/><!--MD5=[7f35b6f28088c12d4f6bb0e95957d027]
reverse link Screening to Customer--><path d="M623.153,279.018 C431.292,311.285 177.025,356.574 132.5,377 C118.66,383.349 105.1368,392.717 93.3825,402.237 " fill="none" id="Screening&lt;-Customer" style="stroke: #A80036; stroke-width: 1.0;"/><polygon fill="#A80036" points="635.987,276.864,629.4075,273.9128,624.1527,278.8511,630.7322,281.8023,635.987,276.864" style="stroke: #A80036; stroke-width: 1.0;"/><!--MD5=[d0fa2538dcf05f1b31919df43b72669a]
reverse link DiscountCondition to Screening--><path d="M355.613,822.515 C364.596,729.73 398.366,506.911 520.5,377 C552.104,343.383 593.411,317.916 635.874,298.723 " fill="none" id="DiscountCondition&lt;-Screening" style="stroke: #A80036; stroke-width: 1.0;"/><polygon fill="#A80036" points="354.438,835.49,358.9624,829.8748,355.5193,823.5388,350.9949,829.154,354.438,835.49" style="stroke: #A80036; stroke-width: 1.0;"/><!--MD5=[7c4c0fcc3760790a6ebf1013c7479220]
reverse link DefaultDiscountPolicy to DiscountCondition--><path d="M630.392,773.256 C568.238,793.776 496.931,817.317 442.112,835.415 " fill="none" id="DefaultDiscountPolicy&lt;-DiscountCondition" style="stroke: #A80036; stroke-width: 1.0;"/><polygon fill="#A80036" points="643.099,769.06,636.1475,767.1426,631.7039,772.8219,638.6554,774.7393,643.099,769.06" style="stroke: #A80036; stroke-width: 1.0;"/><!--MD5=[94324a2fe1bfc58c34ab1a8cb6ae9af8]
reverse link DefaultDiscountPolicy to Screening--><path d="M778.842,669.922 C791.979,583.178 817.509,414.613 832.254,317.256 " fill="none" id="DefaultDiscountPolicy&lt;-Screening" style="stroke: #A80036; stroke-width: 1.0;"/><polygon fill="#A80036" points="776.881,682.865,781.7339,677.5312,778.6769,671.0002,773.824,676.3339,776.881,682.865" style="stroke: #A80036; stroke-width: 1.0;"/><!--MD5=[46c7028af690f44afe66a303c10e476d]
reverse link DefaultDiscountPolicy to Money--><path d="M692.341,777.682 C676.228,792.168 661.455,809.423 652.5,829 C638.82,858.909 631.767,877.469 652.5,903 C713.593,978.233 978.18,1012.748 1147.15,1027.374 " fill="none" id="DefaultDiscountPolicy&lt;-Money" style="stroke: #A80036; stroke-width: 1.0;"/><polygon fill="#A80036" points="702.508,769.023,695.3466,769.8684,693.3727,776.8041,700.534,775.9587,702.508,769.023" style="stroke: #A80036; stroke-width: 1.0;"/><!--MD5=[4f2c9916e02fbd70d581dfbc001efef4]
reverse link AmountDiscountPolicy to Money--><path d="M871.213,901.424 C950.723,927.072 1060.16,962.375 1147.44,990.527 " fill="none" id="AmountDiscountPolicy&lt;-Money" style="stroke: #A80036; stroke-width: 1.0;"/><polygon fill="#A80036" points="858.717,897.393,863.1992,903.0419,870.1375,901.0772,865.6553,895.4283,858.717,897.393" style="stroke: #A80036; stroke-width: 1.0;"/><!--MD5=[349cbd6019290ea13fa11ccc36052601]
reverse link NoneDiscountPolicy to Money--><path d="M1222.98,764.211 C1245.97,780.873 1269.33,802.738 1282.5,829 C1303,869.872 1305.43,921.14 1302.65,962.549 " fill="none" id="NoneDiscountPolicy&lt;-Money" style="stroke: #A80036; stroke-width: 1.0;"/><polygon fill="#A80036" points="1212.12,756.69,1214.775,763.3946,1221.9849,763.5225,1219.33,756.8179,1212.12,756.69" style="stroke: #A80036; stroke-width: 1.0;"/><!--MD5=[464f933a9aa102cffc9a6bdb3882db61]
reverse link PercentDiscountPolicy to Screening--><path d="M1215.15,826.642 C1242.53,812.918 1267.49,794.288 1284.5,769 C1305.84,737.287 1297.61,718.902 1284.5,683 C1260.37,616.933 1234.32,609.558 1182.5,562 C1148.43,530.734 1132.72,531.963 1097.5,502 C1029.5,444.154 958.932,370.96 909.485,317.149 " fill="none" id="PercentDiscountPolicy&lt;-Screening" style="stroke: #A80036; stroke-width: 1.0;"/><polygon fill="#A80036" points="1203.28,832.229,1210.4127,833.2895,1214.135,827.1133,1207.0023,826.0529,1203.28,832.229" style="stroke: #A80036; stroke-width: 1.0;"/><!--MD5=[cca19c106ce502e8301ea01e264c699b]
reverse link PercentDiscountPolicy to Money--><path d="M1110.89,910.646 C1133.64,926.562 1160.04,945.035 1185.52,962.861 " fill="none" id="PercentDiscountPolicy&lt;-Money" style="stroke: #A80036; stroke-width: 1.0;"/><polygon fill="#A80036" points="1100.03,903.053,1102.6571,909.7685,1109.8665,909.9264,1107.2394,903.2109,1100.03,903.053" style="stroke: #A80036; stroke-width: 1.0;"/><!--MD5=[c3fe0045adb0b9a29d28c0b772884ede]
reverse link PeriodCondition to Screening--><path d="M170.806,975.314 C165.532,912.797 158.5,813.261 158.5,727 C158.5,591.5 158.5,591.5 158.5,591.5 C158.5,437.194 295.366,449.649 431.5,377 C495.038,343.093 568.682,315.804 635.985,294.926 " fill="none" id="PeriodCondition&lt;-Screening" style="stroke: #A80036; stroke-width: 1.0;"/><polygon fill="#A80036" points="171.935,988.458,175.4067,982.1376,170.9077,976.5021,167.436,982.8225,171.935,988.458" style="stroke: #A80036; stroke-width: 1.0;"/><!--MD5=[4338201ae531b0c5c74cd4579d448b1b]
reverse link SequenceCondition to Screening--><path d="M533.13,987.723 C538.463,926.612 546.5,819.22 546.5,727 C546.5,591.5 546.5,591.5 546.5,591.5 C546.5,475.836 642.441,379.072 725.264,317.088 " fill="none" id="SequenceCondition&lt;-Screening" style="stroke: #A80036; stroke-width: 1.0;"/><polygon fill="#A80036" points="531.971,1000.768,536.4861,995.1454,533.0326,988.815,528.5175,994.4377,531.971,1000.768" style="stroke: #A80036; stroke-width: 1.0;"/><!--MD5=[380923de5e8e5e340268c488cebde1a9]
@startuml
class Customer {
    -name: string
    -id: string
}
class Money {
    -amount: number
    +plus(amount: Money): Money
    +minus(amount: Money): Money
    +times(percent: number): Money
    +isLessThan(other: Money): boolean
    +isGreaterThanOrEqual(other: Money): boolean
    +{static} ZERO: Money
    +{static} wons(amount: number): Money
}
interface DiscountPolicy {
    +calculateDiscountAmount(screening: Screening): Money
}
class Movie {
    -title: string
    -runningTime: number
    -fee: Money
    -discountPolicy: DiscountPolicy
    +getFee(): Money
    +calculateMovieFee(screening: Screening): Money
}
class Reservation {
    -customer: Customer
    -screening: Screening
    -fee: Money
    -audienceCount: number
}
class Screening {
    -movie: Movie
    -sequence: number
    -whenScreened: Date
    +getStartTime(): Date
    +isSequence(sequence: number): boolean
    +getMovieFee(): Money
    +reserve(customer: Customer, audienceCount: number): Reservation
    +calculateFee(audienceCount: number): Money
}
interface DiscountCondition {
    +isSatisfiedBy(screening: Screening): boolean
}
abstract class DefaultDiscountPolicy implements DiscountPolicy {
    -conditions: DiscountCondition[]
    +calculateDiscountAmount(screening: Screening): Money
    #{abstract} getDiscountAmount(Screening: Screening): Money
}
class AmountDiscountPolicy extends DefaultDiscountPolicy {
    -discountAmount: Money
    #getDiscountAmount(): Money
}
class NoneDiscountPolicy implements DiscountPolicy {
    +calculateDiscountAmount(): Money
}
class PercentDiscountPolicy extends DefaultDiscountPolicy {
    -percent: number
    #getDiscountAmount(screening: Screening): Money
}
class PeriodCondition implements DiscountCondition {
    -dayOfWeek: number
    -startTime: Date
    -endTime: Date
    +isSatisfiedBy(screening: Screening): boolean
}
class SequenceCondition implements DiscountCondition {
    -sequence: number
    +isSatisfiedBy(screening: Screening): boolean
}
DiscountPolicy *- - Screening
DiscountPolicy *- - Money
Movie *- - Money
Movie *- - DiscountPolicy
Movie *- - Screening
Reservation *- - Customer
Reservation *- - Screening
Reservation *- - Money
Screening *- - Movie
Screening *- - Money
Screening *- - Customer
Screening *- - Reservation
DiscountCondition *- - Screening
DefaultDiscountPolicy *- - DiscountCondition
DefaultDiscountPolicy *- - Screening
DefaultDiscountPolicy *- - Money
AmountDiscountPolicy *- - Money
NoneDiscountPolicy *- - Money
PercentDiscountPolicy *- - Screening
PercentDiscountPolicy *- - Money
PeriodCondition *- - Screening
SequenceCondition *- - Screening
@enduml

PlantUML version 1.2019.11(Sun Sep 22 10:02:15 UTC 2019)
(GPL source distribution)
Java Runtime: Java(TM) SE Runtime Environment
JVM: Java HotSpot(TM) 64-Bit Server VM
Java Version: 1.7.0_25-b15
Operating System: Linux
Default Encoding: UTF-8
Language: en
Country: US
--></g></svg>