<?xml version="1.0" encoding="UTF-8" standalone="no"?><svg xmlns="http://www.w3.org/2000/svg" xmlns:xlink="http://www.w3.org/1999/xlink" contentScriptType="application/ecmascript" contentStyleType="text/css" height="1003px" preserveAspectRatio="none" style="width:1633px;height:1003px;" version="1.1" viewBox="0 0 1633 1003" width="1633px" zoomAndPan="magnify"><defs><filter height="300%" id="frrwmswj7ode7" width="300%" x="-1" y="-1"><feGaussianBlur result="blurOut" stdDeviation="2.0"/><feColorMatrix in="blurOut" result="blurOut2" type="matrix" values="0 0 0 0 0 0 0 0 0 0 0 0 0 0 0 0 0 0 .4 0"/><feOffset dx="4.0" dy="4.0" in="blurOut2" result="blurOut3"/><feBlend in="SourceGraphic" in2="blurOut3" mode="normal"/></filter></defs><g><!--MD5=[2ce0c9fb7f55b1e256ab28a8ea6b25ec]
class Customer--><rect fill="#FEFECE" filter="url(#frrwmswj7ode7)" height="73.6094" id="Customer" style="stroke: #A80036; stroke-width: 1.5;" width="99" x="6" y="402.5"/><ellipse cx="24.15" cy="418.5" fill="#ADD1B2" rx="11" ry="11" style="stroke: #A80036; stroke-width: 1.0;"/><path d="M26.4938,414.1719 L26.6656,414.25 C26.8844,413.9375 27.0875,413.8438 27.3844,413.8438 C27.6813,413.8438 27.9625,413.9844 28.1188,414.25 C28.2125,414.4063 28.2281,414.5313 28.2281,414.9688 L28.2281,416.3906 C28.2281,416.8125 28.1969,417 28.0875,417.1563 C27.9156,417.375 27.65,417.5156 27.3844,417.5156 C27.1656,417.5156 26.9313,417.4063 26.7906,417.2656 C26.65,417.1406 26.6188,417.0156 26.5563,416.6094 C26.4625,416.2031 26.2906,415.9844 25.8063,415.7031 C25.3375,415.4531 24.7281,415.2969 24.15,415.2969 C22.4156,415.2969 21.1656,416.6094 21.1656,418.3906 L21.1656,419.4844 C21.1656,421.1875 22.4625,422.2813 24.5094,422.2813 C25.275,422.2813 25.9625,422.1563 26.3844,421.8906 C26.5719,421.7969 26.5719,421.7969 27.025,421.3125 C27.2125,421.125 27.4156,421.0469 27.6344,421.0469 C28.1031,421.0469 28.4938,421.4375 28.4938,421.8906 C28.4938,422.2813 28.1656,422.7344 27.5875,423.1406 C26.8375,423.6875 25.6813,423.9844 24.4625,423.9844 C21.5719,423.9844 19.4625,422.0938 19.4625,419.5156 L19.4625,418.3906 C19.4625,415.6719 21.4625,413.5938 24.0875,413.5938 C24.9625,413.5938 25.5563,413.7344 26.4938,414.1719 Z "/><text fill="#000000" font-family="sans-serif" font-size="12" lengthAdjust="spacingAndGlyphs" textLength="60" x="38.85" y="422.6543">Customer</text><line style="stroke: #A80036; stroke-width: 1.5;" x1="7" x2="104" y1="434.5" y2="434.5"/><rect fill="none" height="6" style="stroke: #C82930; stroke-width: 1.0;" width="6" x="14" y="442.5"/><text fill="#000000" font-family="sans-serif" font-size="11" lengthAdjust="spacingAndGlyphs" textLength="73" x="26" y="448.7104">name: string</text><rect fill="none" height="6" style="stroke: #C82930; stroke-width: 1.0;" width="6" x="14" y="455.3047"/><text fill="#000000" font-family="sans-serif" font-size="11" lengthAdjust="spacingAndGlyphs" textLength="51" x="26" y="461.5151">id: string</text><line style="stroke: #A80036; stroke-width: 1.5;" x1="7" x2="104" y1="468.1094" y2="468.1094"/><!--MD5=[08dbe06e87f91eb667838fe2f259c34a]
class Money--><rect fill="#FEFECE" filter="url(#frrwmswj7ode7)" height="150.4375" id="Money" style="stroke: #A80036; stroke-width: 1.5;" width="288" x="1127.5" y="842"/><ellipse cx="1247.25" cy="858" fill="#ADD1B2" rx="11" ry="11" style="stroke: #A80036; stroke-width: 1.0;"/><path d="M1249.5938,853.6719 L1249.7656,853.75 C1249.9844,853.4375 1250.1875,853.3438 1250.4844,853.3438 C1250.7813,853.3438 1251.0625,853.4844 1251.2188,853.75 C1251.3125,853.9063 1251.3281,854.0313 1251.3281,854.4688 L1251.3281,855.8906 C1251.3281,856.3125 1251.2969,856.5 1251.1875,856.6563 C1251.0156,856.875 1250.75,857.0156 1250.4844,857.0156 C1250.2656,857.0156 1250.0313,856.9063 1249.8906,856.7656 C1249.75,856.6406 1249.7188,856.5156 1249.6563,856.1094 C1249.5625,855.7031 1249.3906,855.4844 1248.9063,855.2031 C1248.4375,854.9531 1247.8281,854.7969 1247.25,854.7969 C1245.5156,854.7969 1244.2656,856.1094 1244.2656,857.8906 L1244.2656,858.9844 C1244.2656,860.6875 1245.5625,861.7813 1247.6094,861.7813 C1248.375,861.7813 1249.0625,861.6563 1249.4844,861.3906 C1249.6719,861.2969 1249.6719,861.2969 1250.125,860.8125 C1250.3125,860.625 1250.5156,860.5469 1250.7344,860.5469 C1251.2031,860.5469 1251.5938,860.9375 1251.5938,861.3906 C1251.5938,861.7813 1251.2656,862.2344 1250.6875,862.6406 C1249.9375,863.1875 1248.7813,863.4844 1247.5625,863.4844 C1244.6719,863.4844 1242.5625,861.5938 1242.5625,859.0156 L1242.5625,857.8906 C1242.5625,855.1719 1244.5625,853.0938 1247.1875,853.0938 C1248.0625,853.0938 1248.6563,853.2344 1249.5938,853.6719 Z "/><text fill="#000000" font-family="sans-serif" font-size="12" lengthAdjust="spacingAndGlyphs" textLength="40" x="1267.75" y="862.1543">Money</text><line style="stroke: #A80036; stroke-width: 1.5;" x1="1128.5" x2="1414.5" y1="874" y2="874"/><rect fill="none" height="6" style="stroke: #C82930; stroke-width: 1.0;" width="6" x="1135.5" y="882"/><text fill="#000000" font-family="sans-serif" font-size="11" lengthAdjust="spacingAndGlyphs" textLength="95" x="1147.5" y="888.2104">amount: number</text><ellipse cx="1138.5" cy="897.8047" fill="none" rx="3" ry="3" style="stroke: #038048; stroke-width: 1.0;"/><text fill="#000000" font-family="sans-serif" font-size="11" lengthAdjust="spacingAndGlyphs" text-decoration="underline" textLength="76" x="1147.5" y="901.0151">ZERO: Money</text><line style="stroke: #A80036; stroke-width: 1.5;" x1="1128.5" x2="1414.5" y1="907.6094" y2="907.6094"/><ellipse cx="1138.5" cy="918.6094" fill="#84BE84" rx="3" ry="3" style="stroke: #038048; stroke-width: 1.0;"/><text fill="#000000" font-family="sans-serif" font-size="11" lengthAdjust="spacingAndGlyphs" textLength="163" x="1147.5" y="921.8198">plus(amount: Money): Money</text><ellipse cx="1138.5" cy="931.4141" fill="#84BE84" rx="3" ry="3" style="stroke: #038048; stroke-width: 1.0;"/><text fill="#000000" font-family="sans-serif" font-size="11" lengthAdjust="spacingAndGlyphs" textLength="174" x="1147.5" y="934.6245">minus(amount: Money): Money</text><ellipse cx="1138.5" cy="944.2188" fill="#84BE84" rx="3" ry="3" style="stroke: #038048; stroke-width: 1.0;"/><text fill="#000000" font-family="sans-serif" font-size="11" lengthAdjust="spacingAndGlyphs" textLength="179" x="1147.5" y="947.4292">times(percent: number): Money</text><ellipse cx="1138.5" cy="957.0234" fill="#84BE84" rx="3" ry="3" style="stroke: #038048; stroke-width: 1.0;"/><text fill="#000000" font-family="sans-serif" font-size="11" lengthAdjust="spacingAndGlyphs" textLength="200" x="1147.5" y="960.2339">isLessThan(other: Money): boolean</text><ellipse cx="1138.5" cy="969.8281" fill="#84BE84" rx="3" ry="3" style="stroke: #038048; stroke-width: 1.0;"/><text fill="#000000" font-family="sans-serif" font-size="11" lengthAdjust="spacingAndGlyphs" textLength="262" x="1147.5" y="973.0386">isGreaterThanOrEqual(other: Money): boolean</text><ellipse cx="1138.5" cy="982.6328" fill="#84BE84" rx="3" ry="3" style="stroke: #038048; stroke-width: 1.0;"/><text fill="#000000" font-family="sans-serif" font-size="11" lengthAdjust="spacingAndGlyphs" text-decoration="underline" textLength="177" x="1147.5" y="985.8433">wons(amount: number): Money</text><!--MD5=[a1cd337173fecc0fb20a861a9d65958d]
class DiscountPolicy--><rect fill="#FEFECE" filter="url(#frrwmswj7ode7)" height="86.4141" id="DiscountPolicy" style="stroke: #A80036; stroke-width: 1.5;" width="341" x="635" y="562"/><ellipse cx="756.75" cy="578" fill="#A9DCDF" rx="11" ry="11" style="stroke: #A80036; stroke-width: 1.0;"/><path d="M758.3281,579.8125 L754.2813,579.8125 L753.8906,580.7969 L754.2813,580.7969 C754.7344,580.7969 754.875,580.8281 755.0469,580.9531 C755.2656,581.125 755.3906,581.375 755.3906,581.6563 C755.3906,581.9375 755.25,582.2344 754.9844,582.375 C754.8594,582.4688 754.6406,582.5 754.2813,582.5 L752.0156,582.5 C751.2656,582.5 750.8906,582.2188 750.8906,581.6563 C750.8906,581.3594 751.0469,581.0781 751.2969,580.9219 C751.4531,580.8125 751.6094,580.7969 752.0313,580.7969 L754.6719,574.2813 L753.5938,574.2813 C753.1563,574.2813 752.9844,574.25 752.8125,574.1406 C752.5938,573.9688 752.4531,573.7188 752.4531,573.4375 C752.4531,573.1563 752.6094,572.875 752.8594,572.7031 C753.0156,572.6094 753.1406,572.5938 753.5938,572.5938 L757.2656,572.5938 L760.6563,580.7969 C761.125,580.7969 761.2813,580.8281 761.4531,580.9688 C761.6719,581.125 761.8125,581.375 761.8125,581.6563 C761.8125,581.9375 761.6563,582.2344 761.4063,582.375 C761.2656,582.4688 761.0469,582.5 760.6875,582.5 L758.3281,582.5 C757.9063,582.5 757.7031,582.4531 757.5625,582.3281 C757.3438,582.1719 757.2031,581.9219 757.2031,581.6563 C757.2031,581.3594 757.3594,581.0781 757.6094,580.9219 C757.7656,580.8125 757.875,580.7969 758.3281,580.7969 L758.7188,580.7969 Z M757.625,578.1094 L756.2969,574.8438 L754.9531,578.1094 Z "/><text fill="#000000" font-family="sans-serif" font-size="12" font-style="italic" lengthAdjust="spacingAndGlyphs" textLength="89" x="777.25" y="582.1543">DiscountPolicy</text><line style="stroke: #A80036; stroke-width: 1.5;" x1="636" x2="975" y1="594" y2="594"/><rect fill="none" height="6" style="stroke: #C82930; stroke-width: 1.0;" width="6" x="643" y="602"/><text fill="#000000" font-family="sans-serif" font-size="11" lengthAdjust="spacingAndGlyphs" textLength="176" x="655" y="608.2104">conditions: DiscountCondition[]</text><line style="stroke: #A80036; stroke-width: 1.5;" x1="636" x2="975" y1="614.8047" y2="614.8047"/><ellipse cx="646" cy="625.8047" fill="#84BE84" rx="3" ry="3" style="stroke: #038048; stroke-width: 1.0;"/><text fill="#000000" font-family="sans-serif" font-size="11" lengthAdjust="spacingAndGlyphs" textLength="315" x="655" y="629.0151">calculateDiscountAmount(screening: Screening): Money</text><polygon fill="#FFFF44" points="646,633.6094,650,637.6094,646,641.6094,642,637.6094" style="stroke: #B38D22; stroke-width: 1.0;"/><text fill="#000000" font-family="sans-serif" font-size="11" font-style="italic" lengthAdjust="spacingAndGlyphs" textLength="283" x="655" y="641.8198">getDiscountAmount(Screening: Screening): Money</text><!--MD5=[e69084ab16b022bdbef99762ea85e9d6]
class Movie--><rect fill="#FEFECE" filter="url(#frrwmswj7ode7)" height="124.8281" id="Movie" style="stroke: #A80036; stroke-width: 1.5;" width="301" x="1083" y="377"/><ellipse cx="1211.75" cy="393" fill="#ADD1B2" rx="11" ry="11" style="stroke: #A80036; stroke-width: 1.0;"/><path d="M1214.0938,388.6719 L1214.2656,388.75 C1214.4844,388.4375 1214.6875,388.3438 1214.9844,388.3438 C1215.2813,388.3438 1215.5625,388.4844 1215.7188,388.75 C1215.8125,388.9063 1215.8281,389.0313 1215.8281,389.4688 L1215.8281,390.8906 C1215.8281,391.3125 1215.7969,391.5 1215.6875,391.6563 C1215.5156,391.875 1215.25,392.0156 1214.9844,392.0156 C1214.7656,392.0156 1214.5313,391.9063 1214.3906,391.7656 C1214.25,391.6406 1214.2188,391.5156 1214.1563,391.1094 C1214.0625,390.7031 1213.8906,390.4844 1213.4063,390.2031 C1212.9375,389.9531 1212.3281,389.7969 1211.75,389.7969 C1210.0156,389.7969 1208.7656,391.1094 1208.7656,392.8906 L1208.7656,393.9844 C1208.7656,395.6875 1210.0625,396.7813 1212.1094,396.7813 C1212.875,396.7813 1213.5625,396.6563 1213.9844,396.3906 C1214.1719,396.2969 1214.1719,396.2969 1214.625,395.8125 C1214.8125,395.625 1215.0156,395.5469 1215.2344,395.5469 C1215.7031,395.5469 1216.0938,395.9375 1216.0938,396.3906 C1216.0938,396.7813 1215.7656,397.2344 1215.1875,397.6406 C1214.4375,398.1875 1213.2813,398.4844 1212.0625,398.4844 C1209.1719,398.4844 1207.0625,396.5938 1207.0625,394.0156 L1207.0625,392.8906 C1207.0625,390.1719 1209.0625,388.0938 1211.6875,388.0938 C1212.5625,388.0938 1213.1563,388.2344 1214.0938,388.6719 Z "/><text fill="#000000" font-family="sans-serif" font-size="12" lengthAdjust="spacingAndGlyphs" textLength="35" x="1232.25" y="397.1543">Movie</text><line style="stroke: #A80036; stroke-width: 1.5;" x1="1084" x2="1383" y1="409" y2="409"/><rect fill="none" height="6" style="stroke: #C82930; stroke-width: 1.0;" width="6" x="1091" y="417"/><text fill="#000000" font-family="sans-serif" font-size="11" lengthAdjust="spacingAndGlyphs" textLength="62" x="1103" y="423.2104">title: string</text><rect fill="none" height="6" style="stroke: #C82930; stroke-width: 1.0;" width="6" x="1091" y="429.8047"/><text fill="#000000" font-family="sans-serif" font-size="11" lengthAdjust="spacingAndGlyphs" textLength="123" x="1103" y="436.0151">runningTime: number</text><rect fill="none" height="6" style="stroke: #C82930; stroke-width: 1.0;" width="6" x="1091" y="442.6094"/><text fill="#000000" font-family="sans-serif" font-size="11" lengthAdjust="spacingAndGlyphs" textLength="62" x="1103" y="448.8198">fee: Money</text><rect fill="none" height="6" style="stroke: #C82930; stroke-width: 1.0;" width="6" x="1091" y="455.4141"/><text fill="#000000" font-family="sans-serif" font-size="11" lengthAdjust="spacingAndGlyphs" textLength="169" x="1103" y="461.6245">discountPolicy: DiscountPolicy</text><line style="stroke: #A80036; stroke-width: 1.5;" x1="1084" x2="1383" y1="468.2188" y2="468.2188"/><ellipse cx="1094" cy="479.2188" fill="#84BE84" rx="3" ry="3" style="stroke: #038048; stroke-width: 1.0;"/><text fill="#000000" font-family="sans-serif" font-size="11" lengthAdjust="spacingAndGlyphs" textLength="90" x="1103" y="482.4292">getFee(): Money</text><ellipse cx="1094" cy="492.0234" fill="#84BE84" rx="3" ry="3" style="stroke: #038048; stroke-width: 1.0;"/><text fill="#000000" font-family="sans-serif" font-size="11" lengthAdjust="spacingAndGlyphs" textLength="275" x="1103" y="495.2339">calculateMovieFee(screening: Screening): Money</text><!--MD5=[9c46470aa33a0c75e6d1dfdefc2f9c22]
class Reservation--><rect fill="#FEFECE" filter="url(#frrwmswj7ode7)" height="99.2188" id="Reservation" style="stroke: #A80036; stroke-width: 1.5;" width="162" x="724.5" y="8"/><ellipse cx="764.7" cy="24" fill="#ADD1B2" rx="11" ry="11" style="stroke: #A80036; stroke-width: 1.0;"/><path d="M767.0438,19.6719 L767.2156,19.75 C767.4344,19.4375 767.6375,19.3438 767.9344,19.3438 C768.2313,19.3438 768.5125,19.4844 768.6688,19.75 C768.7625,19.9063 768.7781,20.0313 768.7781,20.4688 L768.7781,21.8906 C768.7781,22.3125 768.7469,22.5 768.6375,22.6563 C768.4656,22.875 768.2,23.0156 767.9344,23.0156 C767.7156,23.0156 767.4813,22.9063 767.3406,22.7656 C767.2,22.6406 767.1688,22.5156 767.1063,22.1094 C767.0125,21.7031 766.8406,21.4844 766.3563,21.2031 C765.8875,20.9531 765.2781,20.7969 764.7,20.7969 C762.9656,20.7969 761.7156,22.1094 761.7156,23.8906 L761.7156,24.9844 C761.7156,26.6875 763.0125,27.7813 765.0594,27.7813 C765.825,27.7813 766.5125,27.6563 766.9344,27.3906 C767.1219,27.2969 767.1219,27.2969 767.575,26.8125 C767.7625,26.625 767.9656,26.5469 768.1844,26.5469 C768.6531,26.5469 769.0438,26.9375 769.0438,27.3906 C769.0438,27.7813 768.7156,28.2344 768.1375,28.6406 C767.3875,29.1875 766.2313,29.4844 765.0125,29.4844 C762.1219,29.4844 760.0125,27.5938 760.0125,25.0156 L760.0125,23.8906 C760.0125,21.1719 762.0125,19.0938 764.6375,19.0938 C765.5125,19.0938 766.1063,19.2344 767.0438,19.6719 Z "/><text fill="#000000" font-family="sans-serif" font-size="12" lengthAdjust="spacingAndGlyphs" textLength="74" x="784.3" y="28.1543">Reservation</text><line style="stroke: #A80036; stroke-width: 1.5;" x1="725.5" x2="885.5" y1="40" y2="40"/><rect fill="none" height="6" style="stroke: #C82930; stroke-width: 1.0;" width="6" x="732.5" y="48"/><text fill="#000000" font-family="sans-serif" font-size="11" lengthAdjust="spacingAndGlyphs" textLength="118" x="744.5" y="54.2104">customer: Customer</text><rect fill="none" height="6" style="stroke: #C82930; stroke-width: 1.0;" width="6" x="732.5" y="60.8047"/><text fill="#000000" font-family="sans-serif" font-size="11" lengthAdjust="spacingAndGlyphs" textLength="121" x="744.5" y="67.0151">screening: Screening</text><rect fill="none" height="6" style="stroke: #C82930; stroke-width: 1.0;" width="6" x="732.5" y="73.6094"/><text fill="#000000" font-family="sans-serif" font-size="11" lengthAdjust="spacingAndGlyphs" textLength="62" x="744.5" y="79.8198">fee: Money</text><rect fill="none" height="6" style="stroke: #C82930; stroke-width: 1.0;" width="6" x="732.5" y="86.4141"/><text fill="#000000" font-family="sans-serif" font-size="11" lengthAdjust="spacingAndGlyphs" textLength="136" x="744.5" y="92.6245">audienceCount: number</text><line style="stroke: #A80036; stroke-width: 1.5;" x1="725.5" x2="885.5" y1="99.2188" y2="99.2188"/><!--MD5=[fa5b27f77fe197a60cf8f352dcfe1889]
class Screening--><rect fill="#FEFECE" filter="url(#frrwmswj7ode7)" height="150.4375" id="Screening" style="stroke: #A80036; stroke-width: 1.5;" width="415" x="598" y="167"/><ellipse cx="769.75" cy="183" fill="#ADD1B2" rx="11" ry="11" style="stroke: #A80036; stroke-width: 1.0;"/><path d="M772.0938,178.6719 L772.2656,178.75 C772.4844,178.4375 772.6875,178.3438 772.9844,178.3438 C773.2813,178.3438 773.5625,178.4844 773.7188,178.75 C773.8125,178.9063 773.8281,179.0313 773.8281,179.4688 L773.8281,180.8906 C773.8281,181.3125 773.7969,181.5 773.6875,181.6563 C773.5156,181.875 773.25,182.0156 772.9844,182.0156 C772.7656,182.0156 772.5313,181.9063 772.3906,181.7656 C772.25,181.6406 772.2188,181.5156 772.1563,181.1094 C772.0625,180.7031 771.8906,180.4844 771.4063,180.2031 C770.9375,179.9531 770.3281,179.7969 769.75,179.7969 C768.0156,179.7969 766.7656,181.1094 766.7656,182.8906 L766.7656,183.9844 C766.7656,185.6875 768.0625,186.7813 770.1094,186.7813 C770.875,186.7813 771.5625,186.6563 771.9844,186.3906 C772.1719,186.2969 772.1719,186.2969 772.625,185.8125 C772.8125,185.625 773.0156,185.5469 773.2344,185.5469 C773.7031,185.5469 774.0938,185.9375 774.0938,186.3906 C774.0938,186.7813 773.7656,187.2344 773.1875,187.6406 C772.4375,188.1875 771.2813,188.4844 770.0625,188.4844 C767.1719,188.4844 765.0625,186.5938 765.0625,184.0156 L765.0625,182.8906 C765.0625,180.1719 767.0625,178.0938 769.6875,178.0938 C770.5625,178.0938 771.1563,178.2344 772.0938,178.6719 Z "/><text fill="#000000" font-family="sans-serif" font-size="12" lengthAdjust="spacingAndGlyphs" textLength="63" x="790.25" y="187.1543">Screening</text><line style="stroke: #A80036; stroke-width: 1.5;" x1="599" x2="1012" y1="199" y2="199"/><rect fill="none" height="6" style="stroke: #C82930; stroke-width: 1.0;" width="6" x="606" y="207"/><text fill="#000000" font-family="sans-serif" font-size="11" lengthAdjust="spacingAndGlyphs" textLength="74" x="618" y="213.2104">movie: Movie</text><rect fill="none" height="6" style="stroke: #C82930; stroke-width: 1.0;" width="6" x="606" y="219.8047"/><text fill="#000000" font-family="sans-serif" font-size="11" lengthAdjust="spacingAndGlyphs" textLength="107" x="618" y="226.0151">sequence: number</text><rect fill="none" height="6" style="stroke: #C82930; stroke-width: 1.0;" width="6" x="606" y="232.6094"/><text fill="#000000" font-family="sans-serif" font-size="11" lengthAdjust="spacingAndGlyphs" textLength="118" x="618" y="238.8198">whenScreened: Date</text><line style="stroke: #A80036; stroke-width: 1.5;" x1="599" x2="1012" y1="245.4141" y2="245.4141"/><ellipse cx="609" cy="256.4141" fill="#84BE84" rx="3" ry="3" style="stroke: #038048; stroke-width: 1.0;"/><text fill="#000000" font-family="sans-serif" font-size="11" lengthAdjust="spacingAndGlyphs" textLength="116" x="618" y="259.6245">getStartTime(): Date</text><ellipse cx="609" cy="269.2188" fill="#84BE84" rx="3" ry="3" style="stroke: #038048; stroke-width: 1.0;"/><text fill="#000000" font-family="sans-serif" font-size="11" lengthAdjust="spacingAndGlyphs" textLength="234" x="618" y="272.4292">isSequence(sequence: number): boolean</text><ellipse cx="609" cy="282.0234" fill="#84BE84" rx="3" ry="3" style="stroke: #038048; stroke-width: 1.0;"/><text fill="#000000" font-family="sans-serif" font-size="11" lengthAdjust="spacingAndGlyphs" textLength="122" x="618" y="285.2339">getMovieFee(): Money</text><ellipse cx="609" cy="294.8281" fill="#84BE84" rx="3" ry="3" style="stroke: #038048; stroke-width: 1.0;"/><text fill="#000000" font-family="sans-serif" font-size="11" lengthAdjust="spacingAndGlyphs" textLength="389" x="618" y="298.0386">reserve(customer: Customer, audienceCount: number): Reservation</text><ellipse cx="609" cy="307.6328" fill="#84BE84" rx="3" ry="3" style="stroke: #038048; stroke-width: 1.0;"/><text fill="#000000" font-family="sans-serif" font-size="11" lengthAdjust="spacingAndGlyphs" textLength="258" x="618" y="310.8433">calculateFee(audienceCount: number): Money</text><!--MD5=[fb6547c0cf79da1af610e0229b9f01c4]
class DiscountCondition--><rect fill="#FEFECE" filter="url(#frrwmswj7ode7)" height="60.8047" id="DiscountCondition" style="stroke: #A80036; stroke-width: 1.5;" width="282" x="211.5" y="714.5"/><ellipse cx="291.75" cy="730.5" fill="#B4A7E5" rx="11" ry="11" style="stroke: #A80036; stroke-width: 1.0;"/><path d="M292.7031,727.2813 L292.7031,733.7969 L294.4219,733.7969 C294.875,733.7969 295.0156,733.8281 295.1875,733.9531 C295.4219,734.125 295.5313,734.375 295.5313,734.6563 C295.5313,735.2188 295.1719,735.5 294.4219,735.5 L289.2813,735.5 C288.875,735.5 288.6719,735.4531 288.5156,735.3281 C288.2969,735.1719 288.1563,734.9063 288.1563,734.6563 C288.1563,734.3594 288.3125,734.0781 288.5625,733.9219 C288.7188,733.8125 288.8438,733.7969 289.2813,733.7969 L291,733.7969 L291,727.2813 L289.2813,727.2813 C288.8594,727.2813 288.6719,727.25 288.5156,727.1406 C288.2969,726.9688 288.1563,726.7188 288.1563,726.4375 C288.1563,726.1563 288.3125,725.8594 288.5625,725.7031 C288.7188,725.6094 288.8438,725.5938 289.2813,725.5938 L294.4219,725.5938 C294.875,725.5938 295.0156,725.625 295.1875,725.7344 C295.4219,725.9063 295.5313,726.1719 295.5313,726.4375 C295.5313,726.7344 295.3906,727.0156 295.125,727.1719 C295,727.25 294.8125,727.2813 294.4219,727.2813 Z "/><text fill="#000000" font-family="sans-serif" font-size="12" font-style="italic" lengthAdjust="spacingAndGlyphs" textLength="113" x="312.25" y="734.6543">DiscountCondition</text><line style="stroke: #A80036; stroke-width: 1.5;" x1="212.5" x2="492.5" y1="746.5" y2="746.5"/><line style="stroke: #A80036; stroke-width: 1.5;" x1="212.5" x2="492.5" y1="754.5" y2="754.5"/><ellipse cx="222.5" cy="765.5" fill="#84BE84" rx="3" ry="3" style="stroke: #038048; stroke-width: 1.0;"/><text fill="#000000" font-family="sans-serif" font-size="11" lengthAdjust="spacingAndGlyphs" textLength="256" x="231.5" y="768.7104">isSatisfiedBy(screening: Screening): boolean</text><!--MD5=[0d27dc7004874190cdbbc1a5b9b00428]
class AmountDiscountPolicy--><rect fill="#FEFECE" filter="url(#frrwmswj7ode7)" height="73.6094" id="AmountDiscountPolicy" style="stroke: #A80036; stroke-width: 1.5;" width="188" x="893.5" y="708"/><ellipse cx="916.6" cy="724" fill="#ADD1B2" rx="11" ry="11" style="stroke: #A80036; stroke-width: 1.0;"/><path d="M918.9438,719.6719 L919.1156,719.75 C919.3344,719.4375 919.5375,719.3438 919.8344,719.3438 C920.1313,719.3438 920.4125,719.4844 920.5688,719.75 C920.6625,719.9063 920.6781,720.0313 920.6781,720.4688 L920.6781,721.8906 C920.6781,722.3125 920.6469,722.5 920.5375,722.6563 C920.3656,722.875 920.1,723.0156 919.8344,723.0156 C919.6156,723.0156 919.3813,722.9063 919.2406,722.7656 C919.1,722.6406 919.0688,722.5156 919.0063,722.1094 C918.9125,721.7031 918.7406,721.4844 918.2563,721.2031 C917.7875,720.9531 917.1781,720.7969 916.6,720.7969 C914.8656,720.7969 913.6156,722.1094 913.6156,723.8906 L913.6156,724.9844 C913.6156,726.6875 914.9125,727.7813 916.9594,727.7813 C917.725,727.7813 918.4125,727.6563 918.8344,727.3906 C919.0219,727.2969 919.0219,727.2969 919.475,726.8125 C919.6625,726.625 919.8656,726.5469 920.0844,726.5469 C920.5531,726.5469 920.9438,726.9375 920.9438,727.3906 C920.9438,727.7813 920.6156,728.2344 920.0375,728.6406 C919.2875,729.1875 918.1313,729.4844 916.9125,729.4844 C914.0219,729.4844 911.9125,727.5938 911.9125,725.0156 L911.9125,723.8906 C911.9125,721.1719 913.9125,719.0938 916.5375,719.0938 C917.4125,719.0938 918.0063,719.2344 918.9438,719.6719 Z "/><text fill="#000000" font-family="sans-serif" font-size="12" lengthAdjust="spacingAndGlyphs" textLength="138" x="932.4" y="728.1543">AmountDiscountPolicy</text><line style="stroke: #A80036; stroke-width: 1.5;" x1="894.5" x2="1080.5" y1="740" y2="740"/><rect fill="none" height="6" style="stroke: #C82930; stroke-width: 1.0;" width="6" x="901.5" y="748"/><text fill="#000000" font-family="sans-serif" font-size="11" lengthAdjust="spacingAndGlyphs" textLength="135" x="913.5" y="754.2104">discountAmount: Money</text><line style="stroke: #A80036; stroke-width: 1.5;" x1="894.5" x2="1080.5" y1="760.8047" y2="760.8047"/><polygon fill="#FFFF44" points="904.5,766.8047,908.5,770.8047,904.5,774.8047,900.5,770.8047" style="stroke: #B38D22; stroke-width: 1.0;"/><text fill="#000000" font-family="sans-serif" font-size="11" lengthAdjust="spacingAndGlyphs" textLength="162" x="913.5" y="775.0151">getDiscountAmount(): Money</text><!--MD5=[3569ce30feb923fc14990051d8236b45]
class NoneDiscountPolicy--><rect fill="#FEFECE" filter="url(#frrwmswj7ode7)" height="60.8047" id="NoneDiscountPolicy" style="stroke: #A80036; stroke-width: 1.5;" width="188" x="599.5" y="714.5"/><ellipse cx="629.35" cy="730.5" fill="#ADD1B2" rx="11" ry="11" style="stroke: #A80036; stroke-width: 1.0;"/><path d="M631.6938,726.1719 L631.8656,726.25 C632.0844,725.9375 632.2875,725.8438 632.5844,725.8438 C632.8813,725.8438 633.1625,725.9844 633.3188,726.25 C633.4125,726.4063 633.4281,726.5313 633.4281,726.9688 L633.4281,728.3906 C633.4281,728.8125 633.3969,729 633.2875,729.1563 C633.1156,729.375 632.85,729.5156 632.5844,729.5156 C632.3656,729.5156 632.1313,729.4063 631.9906,729.2656 C631.85,729.1406 631.8188,729.0156 631.7563,728.6094 C631.6625,728.2031 631.4906,727.9844 631.0063,727.7031 C630.5375,727.4531 629.9281,727.2969 629.35,727.2969 C627.6156,727.2969 626.3656,728.6094 626.3656,730.3906 L626.3656,731.4844 C626.3656,733.1875 627.6625,734.2813 629.7094,734.2813 C630.475,734.2813 631.1625,734.1563 631.5844,733.8906 C631.7719,733.7969 631.7719,733.7969 632.225,733.3125 C632.4125,733.125 632.6156,733.0469 632.8344,733.0469 C633.3031,733.0469 633.6938,733.4375 633.6938,733.8906 C633.6938,734.2813 633.3656,734.7344 632.7875,735.1406 C632.0375,735.6875 630.8813,735.9844 629.6625,735.9844 C626.7719,735.9844 624.6625,734.0938 624.6625,731.5156 L624.6625,730.3906 C624.6625,727.6719 626.6625,725.5938 629.2875,725.5938 C630.1625,725.5938 630.7563,725.7344 631.6938,726.1719 Z "/><text fill="#000000" font-family="sans-serif" font-size="12" lengthAdjust="spacingAndGlyphs" textLength="123" x="646.65" y="734.6543">NoneDiscountPolicy</text><line style="stroke: #A80036; stroke-width: 1.5;" x1="600.5" x2="786.5" y1="746.5" y2="746.5"/><line style="stroke: #A80036; stroke-width: 1.5;" x1="600.5" x2="786.5" y1="754.5" y2="754.5"/><polygon fill="#FFFF44" points="610.5,760.5,614.5,764.5,610.5,768.5,606.5,764.5" style="stroke: #B38D22; stroke-width: 1.0;"/><text fill="#000000" font-family="sans-serif" font-size="11" lengthAdjust="spacingAndGlyphs" textLength="162" x="619.5" y="768.7104">getDiscountAmount(): Money</text><!--MD5=[3877aba889c0f996d5efd598404f2be1]
class PercentDiscountPolicy--><rect fill="#FEFECE" filter="url(#frrwmswj7ode7)" height="73.6094" id="PercentDiscountPolicy" style="stroke: #A80036; stroke-width: 1.5;" width="309" x="1117" y="708"/><ellipse cx="1197.75" cy="724" fill="#ADD1B2" rx="11" ry="11" style="stroke: #A80036; stroke-width: 1.0;"/><path d="M1200.0938,719.6719 L1200.2656,719.75 C1200.4844,719.4375 1200.6875,719.3438 1200.9844,719.3438 C1201.2813,719.3438 1201.5625,719.4844 1201.7188,719.75 C1201.8125,719.9063 1201.8281,720.0313 1201.8281,720.4688 L1201.8281,721.8906 C1201.8281,722.3125 1201.7969,722.5 1201.6875,722.6563 C1201.5156,722.875 1201.25,723.0156 1200.9844,723.0156 C1200.7656,723.0156 1200.5313,722.9063 1200.3906,722.7656 C1200.25,722.6406 1200.2188,722.5156 1200.1563,722.1094 C1200.0625,721.7031 1199.8906,721.4844 1199.4063,721.2031 C1198.9375,720.9531 1198.3281,720.7969 1197.75,720.7969 C1196.0156,720.7969 1194.7656,722.1094 1194.7656,723.8906 L1194.7656,724.9844 C1194.7656,726.6875 1196.0625,727.7813 1198.1094,727.7813 C1198.875,727.7813 1199.5625,727.6563 1199.9844,727.3906 C1200.1719,727.2969 1200.1719,727.2969 1200.625,726.8125 C1200.8125,726.625 1201.0156,726.5469 1201.2344,726.5469 C1201.7031,726.5469 1202.0938,726.9375 1202.0938,727.3906 C1202.0938,727.7813 1201.7656,728.2344 1201.1875,728.6406 C1200.4375,729.1875 1199.2813,729.4844 1198.0625,729.4844 C1195.1719,729.4844 1193.0625,727.5938 1193.0625,725.0156 L1193.0625,723.8906 C1193.0625,721.1719 1195.0625,719.0938 1197.6875,719.0938 C1198.5625,719.0938 1199.1563,719.2344 1200.0938,719.6719 Z "/><text fill="#000000" font-family="sans-serif" font-size="12" lengthAdjust="spacingAndGlyphs" textLength="139" x="1218.25" y="728.1543">PercentDiscountPolicy</text><line style="stroke: #A80036; stroke-width: 1.5;" x1="1118" x2="1425" y1="740" y2="740"/><rect fill="none" height="6" style="stroke: #C82930; stroke-width: 1.0;" width="6" x="1125" y="748"/><text fill="#000000" font-family="sans-serif" font-size="11" lengthAdjust="spacingAndGlyphs" textLength="95" x="1137" y="754.2104">percent: number</text><line style="stroke: #A80036; stroke-width: 1.5;" x1="1118" x2="1425" y1="760.8047" y2="760.8047"/><polygon fill="#FFFF44" points="1128,766.8047,1132,770.8047,1128,774.8047,1124,770.8047" style="stroke: #B38D22; stroke-width: 1.0;"/><text fill="#000000" font-family="sans-serif" font-size="11" lengthAdjust="spacingAndGlyphs" textLength="283" x="1137" y="775.0151">getDiscountAmount(screening: Screening): Money</text><!--MD5=[3387774d7316174022149a2e55ddfc5c]
class PeriodCondition--><rect fill="#FEFECE" filter="url(#frrwmswj7ode7)" height="99.2188" id="PeriodCondition" style="stroke: #A80036; stroke-width: 1.5;" width="282" x="35.5" y="867.5"/><ellipse cx="122.75" cy="883.5" fill="#ADD1B2" rx="11" ry="11" style="stroke: #A80036; stroke-width: 1.0;"/><path d="M125.0938,879.1719 L125.2656,879.25 C125.4844,878.9375 125.6875,878.8438 125.9844,878.8438 C126.2813,878.8438 126.5625,878.9844 126.7188,879.25 C126.8125,879.4063 126.8281,879.5313 126.8281,879.9688 L126.8281,881.3906 C126.8281,881.8125 126.7969,882 126.6875,882.1563 C126.5156,882.375 126.25,882.5156 125.9844,882.5156 C125.7656,882.5156 125.5313,882.4063 125.3906,882.2656 C125.25,882.1406 125.2188,882.0156 125.1563,881.6094 C125.0625,881.2031 124.8906,880.9844 124.4063,880.7031 C123.9375,880.4531 123.3281,880.2969 122.75,880.2969 C121.0156,880.2969 119.7656,881.6094 119.7656,883.3906 L119.7656,884.4844 C119.7656,886.1875 121.0625,887.2813 123.1094,887.2813 C123.875,887.2813 124.5625,887.1563 124.9844,886.8906 C125.1719,886.7969 125.1719,886.7969 125.625,886.3125 C125.8125,886.125 126.0156,886.0469 126.2344,886.0469 C126.7031,886.0469 127.0938,886.4375 127.0938,886.8906 C127.0938,887.2813 126.7656,887.7344 126.1875,888.1406 C125.4375,888.6875 124.2813,888.9844 123.0625,888.9844 C120.1719,888.9844 118.0625,887.0938 118.0625,884.5156 L118.0625,883.3906 C118.0625,880.6719 120.0625,878.5938 122.6875,878.5938 C123.5625,878.5938 124.1563,878.7344 125.0938,879.1719 Z "/><text fill="#000000" font-family="sans-serif" font-size="12" lengthAdjust="spacingAndGlyphs" textLength="99" x="143.25" y="887.6543">PeriodCondition</text><line style="stroke: #A80036; stroke-width: 1.5;" x1="36.5" x2="316.5" y1="899.5" y2="899.5"/><rect fill="none" height="6" style="stroke: #C82930; stroke-width: 1.0;" width="6" x="43.5" y="907.5"/><text fill="#000000" font-family="sans-serif" font-size="11" lengthAdjust="spacingAndGlyphs" textLength="114" x="55.5" y="913.7104">dayOfWeek: number</text><rect fill="none" height="6" style="stroke: #C82930; stroke-width: 1.0;" width="6" x="43.5" y="920.3047"/><text fill="#000000" font-family="sans-serif" font-size="11" lengthAdjust="spacingAndGlyphs" textLength="89" x="55.5" y="926.5151">startTime: Date</text><rect fill="none" height="6" style="stroke: #C82930; stroke-width: 1.0;" width="6" x="43.5" y="933.1094"/><text fill="#000000" font-family="sans-serif" font-size="11" lengthAdjust="spacingAndGlyphs" textLength="83" x="55.5" y="939.3198">endTime: Date</text><line style="stroke: #A80036; stroke-width: 1.5;" x1="36.5" x2="316.5" y1="945.9141" y2="945.9141"/><ellipse cx="46.5" cy="956.9141" fill="#84BE84" rx="3" ry="3" style="stroke: #038048; stroke-width: 1.0;"/><text fill="#000000" font-family="sans-serif" font-size="11" lengthAdjust="spacingAndGlyphs" textLength="256" x="55.5" y="960.1245">isSatisfiedBy(screening: Screening): boolean</text><!--MD5=[d9cfa9873d7e4c13423254ca3a85e4a5]
class SequenceCondition--><rect fill="#FEFECE" filter="url(#frrwmswj7ode7)" height="73.6094" id="SequenceCondition" style="stroke: #A80036; stroke-width: 1.5;" width="282" x="387.5" y="880"/><ellipse cx="463.25" cy="896" fill="#ADD1B2" rx="11" ry="11" style="stroke: #A80036; stroke-width: 1.0;"/><path d="M465.5938,891.6719 L465.7656,891.75 C465.9844,891.4375 466.1875,891.3438 466.4844,891.3438 C466.7813,891.3438 467.0625,891.4844 467.2188,891.75 C467.3125,891.9063 467.3281,892.0313 467.3281,892.4688 L467.3281,893.8906 C467.3281,894.3125 467.2969,894.5 467.1875,894.6563 C467.0156,894.875 466.75,895.0156 466.4844,895.0156 C466.2656,895.0156 466.0313,894.9063 465.8906,894.7656 C465.75,894.6406 465.7188,894.5156 465.6563,894.1094 C465.5625,893.7031 465.3906,893.4844 464.9063,893.2031 C464.4375,892.9531 463.8281,892.7969 463.25,892.7969 C461.5156,892.7969 460.2656,894.1094 460.2656,895.8906 L460.2656,896.9844 C460.2656,898.6875 461.5625,899.7813 463.6094,899.7813 C464.375,899.7813 465.0625,899.6563 465.4844,899.3906 C465.6719,899.2969 465.6719,899.2969 466.125,898.8125 C466.3125,898.625 466.5156,898.5469 466.7344,898.5469 C467.2031,898.5469 467.5938,898.9375 467.5938,899.3906 C467.5938,899.7813 467.2656,900.2344 466.6875,900.6406 C465.9375,901.1875 464.7813,901.4844 463.5625,901.4844 C460.6719,901.4844 458.5625,899.5938 458.5625,897.0156 L458.5625,895.8906 C458.5625,893.1719 460.5625,891.0938 463.1875,891.0938 C464.0625,891.0938 464.6563,891.2344 465.5938,891.6719 Z "/><text fill="#000000" font-family="sans-serif" font-size="12" lengthAdjust="spacingAndGlyphs" textLength="122" x="483.75" y="900.1543">SequenceCondition</text><line style="stroke: #A80036; stroke-width: 1.5;" x1="388.5" x2="668.5" y1="912" y2="912"/><rect fill="none" height="6" style="stroke: #C82930; stroke-width: 1.0;" width="6" x="395.5" y="920"/><text fill="#000000" font-family="sans-serif" font-size="11" lengthAdjust="spacingAndGlyphs" textLength="107" x="407.5" y="926.2104">sequence: number</text><line style="stroke: #A80036; stroke-width: 1.5;" x1="388.5" x2="668.5" y1="932.8047" y2="932.8047"/><ellipse cx="398.5" cy="943.8047" fill="#84BE84" rx="3" ry="3" style="stroke: #038048; stroke-width: 1.0;"/><text fill="#000000" font-family="sans-serif" font-size="11" lengthAdjust="spacingAndGlyphs" textLength="256" x="407.5" y="947.0151">isSatisfiedBy(screening: Screening): boolean</text><!--MD5=[b9b99c8fdbc5d8cdc0f992e9fc5c24b3]
reverse link DiscountPolicy to AmountDiscountPolicy--><path d="M877.209,660.372 C898.267,676.34 920.771,693.403 939.923,707.925 " fill="none" id="DiscountPolicy&lt;-AmountDiscountPolicy" style="stroke: #A80036; stroke-width: 1.0;"/><polygon fill="none" points="872.802,665.816,861.095,648.154,881.261,654.66,872.802,665.816" style="stroke: #A80036; stroke-width: 1.0;"/><!--MD5=[f610d21dd537894f2535aecff51a3a97]
reverse link DiscountPolicy to NoneDiscountPolicy--><path d="M758.636,663.743 C744.499,681.162 729.563,699.565 717.565,714.348 " fill="none" id="DiscountPolicy&lt;-NoneDiscountPolicy" style="stroke: #A80036; stroke-width: 1.0;"/><polygon fill="none" points="753.249,659.272,771.288,648.154,764.12,668.095,753.249,659.272" style="stroke: #A80036; stroke-width: 1.0;"/><!--MD5=[09e89549304e7717957921c901df876a]
reverse link DiscountPolicy to PercentDiscountPolicy--><path d="M966.766,653.757 C1026.85,671.549 1093.98,691.429 1149.91,707.992 " fill="none" id="DiscountPolicy&lt;-PercentDiscountPolicy" style="stroke: #A80036; stroke-width: 1.0;"/><polygon fill="none" points="964.719,660.451,947.53,648.06,968.695,647.028,964.719,660.451" style="stroke: #A80036; stroke-width: 1.0;"/><!--MD5=[f10db535786092e9f64cc5487298fd3d]
reverse link DiscountCondition to PeriodCondition--><path d="M307.37,789.591 C282.735,813.387 252.168,842.911 226.773,867.441 " fill="none" id="DiscountCondition&lt;-PeriodCondition" style="stroke: #A80036; stroke-width: 1.0; stroke-dasharray: 7.0,7.0;"/><polygon fill="none" points="302.595,784.472,321.843,775.612,312.321,794.541,302.595,784.472" style="stroke: #A80036; stroke-width: 1.0;"/><!--MD5=[b6f68802e2fe0ab73d04375e226265b5]
reverse link DiscountCondition to SequenceCondition--><path d="M397.88,789.833 C426.841,817.806 463.92,853.621 491.168,879.941 " fill="none" id="DiscountCondition&lt;-SequenceCondition" style="stroke: #A80036; stroke-width: 1.0; stroke-dasharray: 7.0,7.0;"/><polygon fill="none" points="392.679,794.541,383.157,775.612,402.405,784.472,392.679,794.541" style="stroke: #A80036; stroke-width: 1.0;"/><!--MD5=[16d1abe9ff43d595e4dffd7964cee7c5]
reverse link DiscountPolicy to DiscountCondition--><path d="M654.925,651.871 C587.271,672.48 509.397,696.204 449.616,714.415 " fill="none" id="DiscountPolicy&lt;-DiscountCondition" style="stroke: #A80036; stroke-width: 1.0;"/><polygon fill="#A80036" points="667.432,648.06,660.5267,645.9822,655.9529,651.5571,662.8582,653.6349,667.432,648.06" style="stroke: #A80036; stroke-width: 1.0;"/><!--MD5=[978676fffa62c0490feeef4066d3cb09]
reverse link DiscountPolicy to Screening--><path d="M805.5,548.499 C805.5,486.567 805.5,386.058 805.5,317.362 " fill="none" id="DiscountPolicy&lt;-Screening" style="stroke: #A80036; stroke-width: 1.0;"/><polygon fill="#A80036" points="805.5,561.859,809.5,555.859,805.5,549.859,801.5,555.859,805.5,561.859" style="stroke: #A80036; stroke-width: 1.0;"/><!--MD5=[d359a93dfaa8fe5f2814ef13a93483d6]
reverse link DiscountPolicy to Money--><path d="M814.788,661.156 C824,699.793 841.822,750.038 875.5,782 C943.806,846.827 1044.6,880.363 1127.4,897.6739 " fill="none" id="DiscountPolicy&lt;-Money" style="stroke: #A80036; stroke-width: 1.0;"/><polygon fill="#A80036" points="811.93,648.282,809.3254,655.0063,814.5307,659.9968,817.1353,653.2725,811.93,648.282" style="stroke: #A80036; stroke-width: 1.0;"/><!--MD5=[7114dc62aa61f1f979cee9d07f4dfd9b]
reverse link Movie to Money--><path d="M1311.14,511.459 C1359.45,561.126 1417.23,631.985 1443.5,708 C1454.24,739.085 1457.94,752.45 1443.5,782 C1432.37,804.787 1415.28,824.826 1396.12,841.993 " fill="none" id="Movie&lt;-Money" style="stroke: #A80036; stroke-width: 1.0;"/><polygon fill="#A80036" points="1301.93,502.125,1303.2958,509.2056,1310.3571,510.6681,1308.9912,503.5875,1301.93,502.125" style="stroke: #A80036; stroke-width: 1.0;"/><!--MD5=[092c468b0fc5801242764288116528b0]
reverse link Movie to DiscountPolicy--><path d="M1070.53,502.755 C1018.72,522.546 962.679,543.956 915.529,561.968 " fill="none" id="Movie&lt;-DiscountPolicy" style="stroke: #A80036; stroke-width: 1.0;"/><polygon fill="#A80036" points="1082.9,498.029,1075.8688,496.4281,1071.6868,502.3027,1078.718,503.9036,1082.9,498.029" style="stroke: #A80036; stroke-width: 1.0;"/><!--MD5=[583467abdeec2d311a672525fbe0a9b9]
reverse link Movie to Screening--><path d="M1099.13,371.229 C1061.59,353.76 1020.27,334.847 980.754,317.05 " fill="none" id="Movie&lt;-Screening" style="stroke: #A80036; stroke-width: 1.0;"/><polygon fill="#A80036" points="1111.17,376.847,1107.4192,370.6882,1100.2915,371.7817,1104.0423,377.9405,1111.17,376.847" style="stroke: #A80036; stroke-width: 1.0;"/><!--MD5=[88f6fb7f013dd115006957351a8e9723]
reverse link Screening to Movie--><path d="M967.024,322.513 C1006.28,340.628 1048.04,359.609 1086.58,376.847 " fill="none" id="Screening&lt;-Movie" style="stroke: #A80036; stroke-width: 1.0;"/><polygon fill="#A80036" points="955.203,317.05,958.9713,323.1982,966.0959,322.0844,962.3276,315.9362,955.203,317.05" style="stroke: #A80036; stroke-width: 1.0;"/><!--MD5=[b2a5c62ee17020f07685cec7b7db6df8]
reverse link Reservation to Customer--><path d="M712.281,94.544 C579.034,147.831 328.561,254.629 132.5,377 C120.599,384.428 108.422,393.407 97.3663,402.182 " fill="none" id="Reservation&lt;-Customer" style="stroke: #A80036; stroke-width: 1.0;"/><polygon fill="#A80036" points="724.413,89.71,717.3586,88.2146,713.2651,94.1512,720.3195,95.6466,724.413,89.71" style="stroke: #A80036; stroke-width: 1.0;"/><!--MD5=[d6f262f12d648c2666cae04541bf4aa4]
reverse link Reservation to Screening--><path d="M793.344,120.677 C792.717,135.535 792.587,151.542 792.952,166.879 " fill="none" id="Reservation&lt;-Screening" style="stroke: #A80036; stroke-width: 1.0;"/><polygon fill="#A80036" points="794.058,107.407,789.7407,113.1829,793.4118,119.3896,797.7291,113.6137,794.058,107.407" style="stroke: #A80036; stroke-width: 1.0;"/><!--MD5=[c68cec2d08a0c756de089f5d87b96330]
reverse link Screening to Reservation--><path d="M818.989,153.612 C819.078,137.722 818.62,121.677 817.615,107.407 " fill="none" id="Screening&lt;-Reservation" style="stroke: #A80036; stroke-width: 1.0;"/><polygon fill="#A80036" points="818.786,166.879,822.8772,160.9408,818.9693,154.8804,814.8781,160.8186,818.786,166.879" style="stroke: #A80036; stroke-width: 1.0;"/><!--MD5=[39dd7fb721f0a429b8062e1ef2dc64c3]
reverse link Reservation to Money--><path d="M899.822,59.983 C1114.57,68.85 1621.5,123.176 1621.5,438.5 C1621.5,438.5 1621.5,438.5 1621.5,606 C1621.5,722.176 1512.1,805.346 1415.63,856.102 " fill="none" id="Reservation&lt;-Money" style="stroke: #A80036; stroke-width: 1.0;"/><polygon fill="#A80036" points="886.724,59.484,892.5676,63.7092,898.7153,59.9403,892.8718,55.715,886.724,59.484" style="stroke: #A80036; stroke-width: 1.0;"/><!--MD5=[0e44eefa85f7d41020a26d0e9d3d82cf]
reverse link Screening to Money--><path d="M1026.38,267.712 C1173.38,288.687 1348.82,323.949 1401.5,377 C1530.32,506.725 1559.95,620.909 1473.5,782 C1459.82,807.494 1438.92,828.959 1415.66,846.72 " fill="none" id="Screening&lt;-Money" style="stroke: #A80036; stroke-width: 1.0;"/><polygon fill="#A80036" points="1013.15,265.852,1018.533,270.6502,1025.0326,267.5267,1019.6495,262.7285,1013.15,265.852" style="stroke: #A80036; stroke-width: 1.0;"/><!--MD5=[7f35b6f28088c12d4f6bb0e95957d027]
reverse link Screening to Customer--><path d="M584.573,275.429 C420.336,301.688 211.581,340.229 132.5,377 C118.693,383.42 105.1795,392.809 93.4243,402.327 " fill="none" id="Screening&lt;-Customer" style="stroke: #A80036; stroke-width: 1.0;"/><polygon fill="#A80036" points="597.815,273.323,591.2613,270.3148,585.9639,275.2074,592.5176,278.2156,597.815,273.323" style="stroke: #A80036; stroke-width: 1.0;"/><!--MD5=[d0fa2538dcf05f1b31919df43b72669a]
reverse link DiscountCondition to Screening--><path d="M361.789,701.349 C380.051,626.671 427.221,471.237 520.5,377 C543.674,353.588 571.727,333.774 601.077,317.161 " fill="none" id="DiscountCondition&lt;-Screening" style="stroke: #A80036; stroke-width: 1.0;"/><polygon fill="#A80036" points="358.711,714.321,363.9881,709.4065,361.4813,702.6452,356.2042,707.5596,358.711,714.321" style="stroke: #A80036; stroke-width: 1.0;"/><!--MD5=[4f2c9916e02fbd70d581dfbc001efef4]
reverse link AmountDiscountPolicy to Money--><path d="M1058.97,788.781 C1085.88,804.89 1117.32,823.711 1147.64,841.861 " fill="none" id="AmountDiscountPolicy&lt;-Money" style="stroke: #A80036; stroke-width: 1.0;"/><polygon fill="#A80036" points="1047.73,782.053,1050.8261,788.5656,1058.0285,788.2126,1054.9325,781.7,1047.73,782.053" style="stroke: #A80036; stroke-width: 1.0;"/><!--MD5=[349cbd6019290ea13fa11ccc36052601]
reverse link NoneDiscountPolicy to Money--><path d="M800.351,777.816 C805.133,779.231 809.866,780.631 814.5,782 C919.168,812.916 1037.4,847.576 1127.38,873.9 " fill="none" id="NoneDiscountPolicy&lt;-Money" style="stroke: #A80036; stroke-width: 1.0;"/><polygon fill="#A80036" points="787.619,774.042,792.235,779.5821,799.1243,777.452,794.5083,771.9119,787.619,774.042" style="stroke: #A80036; stroke-width: 1.0;"/><!--MD5=[464f933a9aa102cffc9a6bdb3882db61]
reverse link PercentDiscountPolicy to Screening--><path d="M1229.05,698.36 C1148.39,611.646 972.337,422.368 874.511,317.194 " fill="none" id="PercentDiscountPolicy&lt;-Screening" style="stroke: #A80036; stroke-width: 1.0;"/><polygon fill="#A80036" points="1237.94,707.919,1236.7859,700.8008,1229.7715,699.1284,1230.9255,706.2465,1237.94,707.919" style="stroke: #A80036; stroke-width: 1.0;"/><!--MD5=[cca19c106ce502e8301ea01e264c699b]
reverse link PercentDiscountPolicy to Money--><path d="M1271.5,795.391 C1271.5,809.919 1271.5,826.142 1271.5,841.861 " fill="none" id="PercentDiscountPolicy&lt;-Money" style="stroke: #A80036; stroke-width: 1.0;"/><polygon fill="#A80036" points="1271.5,782.053,1267.5,788.053,1271.5,794.053,1275.5,788.053,1271.5,782.053" style="stroke: #A80036; stroke-width: 1.0;"/><!--MD5=[c3fe0045adb0b9a29d28c0b772884ede]
reverse link PeriodCondition to Screening--><path d="M173.094,854.16 C172.775,811.798 176.373,754.997 193.5,708 C255.274,538.488 284.596,485.821 428.5,377 C478.226,339.397 539.423,311.69 597.935,291.562 " fill="none" id="PeriodCondition&lt;-Screening" style="stroke: #A80036; stroke-width: 1.0;"/><polygon fill="#A80036" points="173.324,867.375,177.2192,861.3064,173.1156,855.3768,169.2204,861.4454,173.324,867.375" style="stroke: #A80036; stroke-width: 1.0;"/><!--MD5=[4338201ae531b0c5c74cd4579d448b1b]
reverse link SequenceCondition to Screening--><path d="M536.3,866.646 C548.338,796.919 574.644,666.428 617.5,562 C653.865,473.388 711.586,379.861 753.484,317.159 " fill="none" id="SequenceCondition&lt;-Screening" style="stroke: #A80036; stroke-width: 1.0;"/><polygon fill="#A80036" points="534.081,879.755,539.0264,874.5068,536.0839,867.9233,531.1386,873.1715,534.081,879.755" style="stroke: #A80036; stroke-width: 1.0;"/><!--MD5=[d017384af8ce57bfae54f5b6139f13fc]
@startuml
class Customer {
    -name: string
    -id: string
}
class Money {
    -amount: number
    +plus(amount: Money): Money
    +minus(amount: Money): Money
    +times(percent: number): Money
    +isLessThan(other: Money): boolean
    +isGreaterThanOrEqual(other: Money): boolean
    +{static} ZERO: Money
    +{static} wons(amount: number): Money
}
abstract class DiscountPolicy {
    -conditions: DiscountCondition[]
    +calculateDiscountAmount(screening: Screening): Money
    #{abstract} getDiscountAmount(Screening: Screening): Money
}
class Movie {
    -title: string
    -runningTime: number
    -fee: Money
    -discountPolicy: DiscountPolicy
    +getFee(): Money
    +calculateMovieFee(screening: Screening): Money
}
class Reservation {
    -customer: Customer
    -screening: Screening
    -fee: Money
    -audienceCount: number
}
class Screening {
    -movie: Movie
    -sequence: number
    -whenScreened: Date
    +getStartTime(): Date
    +isSequence(sequence: number): boolean
    +getMovieFee(): Money
    +reserve(customer: Customer, audienceCount: number): Reservation
    +calculateFee(audienceCount: number): Money
}
interface DiscountCondition {
    +isSatisfiedBy(screening: Screening): boolean
}
class AmountDiscountPolicy extends DiscountPolicy {
    -discountAmount: Money
    #getDiscountAmount(): Money
}
class NoneDiscountPolicy extends DiscountPolicy {
    #getDiscountAmount(): Money
}
class PercentDiscountPolicy extends DiscountPolicy {
    -percent: number
    #getDiscountAmount(screening: Screening): Money
}
class PeriodCondition implements DiscountCondition {
    -dayOfWeek: number
    -startTime: Date
    -endTime: Date
    +isSatisfiedBy(screening: Screening): boolean
}
class SequenceCondition implements DiscountCondition {
    -sequence: number
    +isSatisfiedBy(screening: Screening): boolean
}
DiscountPolicy *- - DiscountCondition
DiscountPolicy *- - Screening
DiscountPolicy *- - Money
Movie *- - Money
Movie *- - DiscountPolicy
Movie *- - Screening
Reservation *- - Customer
Reservation *- - Screening
Reservation *- - Money
Screening *- - Movie
Screening *- - Money
Screening *- - Customer
Screening *- - Reservation
DiscountCondition *- - Screening
AmountDiscountPolicy *- - Money
NoneDiscountPolicy *- - Money
PercentDiscountPolicy *- - Screening
PercentDiscountPolicy *- - Money
PeriodCondition *- - Screening
SequenceCondition *- - Screening
@enduml

PlantUML version 1.2019.11(Sun Sep 22 10:02:15 UTC 2019)
(GPL source distribution)
Java Runtime: Java(TM) SE Runtime Environment
JVM: Java HotSpot(TM) 64-Bit Server VM
Java Version: 1.7.0_25-b15
Operating System: Linux
Default Encoding: UTF-8
Language: en
Country: US
--></g></svg>