<?xml version="1.0" encoding="UTF-8" standalone="no"?>
<!DOCTYPE svg PUBLIC "-//W3C//DTD SVG 1.1//EN"
 "http://www.w3.org/Graphics/SVG/1.1/DTD/svg11.dtd">
<!-- Generated by graphviz version 2.40.1 (20161225.0304)
 -->
<!-- Title: G Pages: 1 -->
<svg width="523pt" height="109pt"
 viewBox="0.00 0.00 522.80 109.30" xmlns="http://www.w3.org/2000/svg" xmlns:xlink="http://www.w3.org/1999/xlink">
<g id="graph0" class="graph" transform="scale(1 1) rotate(0) translate(21.6 87.6986)">
<title>G</title>
<polygon fill="#111111" stroke="transparent" points="-21.6,21.6 -21.6,-87.6986 501.1967,-87.6986 501.1967,21.6 -21.6,21.6"/>
<!-- Audience.ts -->
<g id="node1" class="node">
<title>Audience.ts</title>
<path fill="none" stroke="#c6c5fe" d="M202.1564,-66.1482C202.1564,-66.1482 128.9715,-66.1482 128.9715,-66.1482 124.9386,-66.1482 120.9056,-62.1152 120.9056,-58.0823 120.9056,-58.0823 120.9056,-50.0164 120.9056,-50.0164 120.9056,-45.9834 124.9386,-41.9505 128.9715,-41.9505 128.9715,-41.9505 202.1564,-41.9505 202.1564,-41.9505 206.1894,-41.9505 210.2223,-45.9834 210.2223,-50.0164 210.2223,-50.0164 210.2223,-58.0823 210.2223,-58.0823 210.2223,-62.1152 206.1894,-66.1482 202.1564,-66.1482"/>
<text text-anchor="middle" x="165.564" y="-50.8986" font-family="Arial" font-size="14.00" fill="#c6c5fe">Audience.ts</text>
</g>
<!-- Bag.ts -->
<g id="node2" class="node">
<title>Bag.ts</title>
<path fill="none" stroke="#c6c5fe" d="M324.4525,-66.1482C324.4525,-66.1482 285.2037,-66.1482 285.2037,-66.1482 281.1708,-66.1482 277.1378,-62.1152 277.1378,-58.0823 277.1378,-58.0823 277.1378,-50.0164 277.1378,-50.0164 277.1378,-45.9834 281.1708,-41.9505 285.2037,-41.9505 285.2037,-41.9505 324.4525,-41.9505 324.4525,-41.9505 328.4855,-41.9505 332.5184,-45.9834 332.5184,-50.0164 332.5184,-50.0164 332.5184,-58.0823 332.5184,-58.0823 332.5184,-62.1152 328.4855,-66.1482 324.4525,-66.1482"/>
<text text-anchor="middle" x="304.8281" y="-50.8986" font-family="Arial" font-size="14.00" fill="#c6c5fe">Bag.ts</text>
</g>
<!-- Audience.ts&#45;&gt;Bag.ts -->
<g id="edge1" class="edge">
<title>Audience.ts&#45;&gt;Bag.ts</title>
<path fill="none" stroke="#757575" d="M210.3946,-54.0493C228.5686,-54.0493 249.3354,-54.0493 266.7584,-54.0493"/>
<polygon fill="#757575" stroke="#757575" points="267.1215,-57.5494 277.1215,-54.0493 267.1214,-50.5494 267.1215,-57.5494"/>
</g>
<!-- Invitation.ts -->
<g id="node3" class="node">
<title>Invitation.ts</title>
<path fill="none" stroke="#cfffac" d="M471.4377,-66.1482C471.4377,-66.1482 400.9422,-66.1482 400.9422,-66.1482 396.9092,-66.1482 392.8763,-62.1152 392.8763,-58.0823 392.8763,-58.0823 392.8763,-50.0164 392.8763,-50.0164 392.8763,-45.9834 396.9092,-41.9505 400.9422,-41.9505 400.9422,-41.9505 471.4377,-41.9505 471.4377,-41.9505 475.4707,-41.9505 479.5036,-45.9834 479.5036,-50.0164 479.5036,-50.0164 479.5036,-58.0823 479.5036,-58.0823 479.5036,-62.1152 475.4707,-66.1482 471.4377,-66.1482"/>
<text text-anchor="middle" x="436.1899" y="-50.8986" font-family="Arial" font-size="14.00" fill="#cfffac">Invitation.ts</text>
</g>
<!-- Bag.ts&#45;&gt;Invitation.ts -->
<g id="edge2" class="edge">
<title>Bag.ts&#45;&gt;Invitation.ts</title>
<path fill="none" stroke="#757575" d="M332.6866,-54.0493C347.156,-54.0493 365.3404,-54.0493 382.4144,-54.0493"/>
<polygon fill="#757575" stroke="#757575" points="382.8587,-57.5494 392.8587,-54.0493 382.8586,-50.5494 382.8587,-57.5494"/>
</g>
<!-- Ticket.ts -->
<g id="node4" class="node">
<title>Ticket.ts</title>
<path fill="none" stroke="#cfffac" d="M461.7229,-24.1482C461.7229,-24.1482 410.657,-24.1482 410.657,-24.1482 406.624,-24.1482 402.5911,-20.1152 402.5911,-16.0823 402.5911,-16.0823 402.5911,-8.0164 402.5911,-8.0164 402.5911,-3.9834 406.624,.0495 410.657,.0495 410.657,.0495 461.7229,.0495 461.7229,.0495 465.7558,.0495 469.7888,-3.9834 469.7888,-8.0164 469.7888,-8.0164 469.7888,-16.0823 469.7888,-16.0823 469.7888,-20.1152 465.7558,-24.1482 461.7229,-24.1482"/>
<text text-anchor="middle" x="436.1899" y="-8.8986" font-family="Arial" font-size="14.00" fill="#cfffac">Ticket.ts</text>
</g>
<!-- Bag.ts&#45;&gt;Ticket.ts -->
<g id="edge3" class="edge">
<title>Bag.ts&#45;&gt;Ticket.ts</title>
<path fill="none" stroke="#757575" d="M332.6866,-45.1422C350.082,-39.5804 372.8469,-32.3018 392.5963,-25.9874"/>
<polygon fill="#757575" stroke="#757575" points="393.8486,-29.2616 402.3077,-22.8824 391.7167,-22.5941 393.8486,-29.2616"/>
</g>
<!-- Theater.ts -->
<g id="node5" class="node">
<title>Theater.ts</title>
<path fill="none" stroke="#c6c5fe" d="M70.3169,-45.1482C70.3169,-45.1482 7.938,-45.1482 7.938,-45.1482 3.9051,-45.1482 -.1279,-41.1152 -.1279,-37.0823 -.1279,-37.0823 -.1279,-29.0164 -.1279,-29.0164 -.1279,-24.9834 3.9051,-20.9505 7.938,-20.9505 7.938,-20.9505 70.3169,-20.9505 70.3169,-20.9505 74.3498,-20.9505 78.3827,-24.9834 78.3827,-29.0164 78.3827,-29.0164 78.3827,-37.0823 78.3827,-37.0823 78.3827,-41.1152 74.3498,-45.1482 70.3169,-45.1482"/>
<text text-anchor="middle" x="39.1274" y="-29.8986" font-family="Arial" font-size="14.00" fill="#c6c5fe">Theater.ts</text>
</g>
<!-- Theater.ts&#45;&gt;Audience.ts -->
<g id="edge4" class="edge">
<title>Theater.ts&#45;&gt;Audience.ts</title>
<path fill="none" stroke="#757575" d="M78.4397,-39.5787C88.7629,-41.2933 100.0836,-43.1736 111.0482,-44.9947"/>
<polygon fill="#757575" stroke="#757575" points="110.5405,-48.4583 120.9788,-46.6441 111.6875,-41.5529 110.5405,-48.4583"/>
</g>
<!-- TicketSeller.ts -->
<g id="node6" class="node">
<title>TicketSeller.ts</title>
<path fill="none" stroke="#c6c5fe" d="M208.6169,-24.1482C208.6169,-24.1482 122.511,-24.1482 122.511,-24.1482 118.478,-24.1482 114.4451,-20.1152 114.4451,-16.0823 114.4451,-16.0823 114.4451,-8.0164 114.4451,-8.0164 114.4451,-3.9834 118.478,.0495 122.511,.0495 122.511,.0495 208.6169,.0495 208.6169,.0495 212.6499,.0495 216.6828,-3.9834 216.6828,-8.0164 216.6828,-8.0164 216.6828,-16.0823 216.6828,-16.0823 216.6828,-20.1152 212.6499,-24.1482 208.6169,-24.1482"/>
<text text-anchor="middle" x="165.564" y="-8.8986" font-family="Arial" font-size="14.00" fill="#c6c5fe">TicketSeller.ts</text>
</g>
<!-- Theater.ts&#45;&gt;TicketSeller.ts -->
<g id="edge5" class="edge">
<title>Theater.ts&#45;&gt;TicketSeller.ts</title>
<path fill="none" stroke="#757575" d="M78.4397,-26.5199C86.6561,-25.1552 95.5045,-23.6856 104.3022,-22.2244"/>
<polygon fill="#757575" stroke="#757575" points="104.8859,-25.6754 114.1773,-20.5842 103.7389,-18.77 104.8859,-25.6754"/>
</g>
<!-- TicketOffice.ts -->
<g id="node7" class="node">
<title>TicketOffice.ts</title>
<path fill="none" stroke="#c6c5fe" d="M348.6724,-24.1482C348.6724,-24.1482 260.9838,-24.1482 260.9838,-24.1482 256.9509,-24.1482 252.9179,-20.1152 252.9179,-16.0823 252.9179,-16.0823 252.9179,-8.0164 252.9179,-8.0164 252.9179,-3.9834 256.9509,.0495 260.9838,.0495 260.9838,.0495 348.6724,.0495 348.6724,.0495 352.7054,.0495 356.7383,-3.9834 356.7383,-8.0164 356.7383,-8.0164 356.7383,-16.0823 356.7383,-16.0823 356.7383,-20.1152 352.7054,-24.1482 348.6724,-24.1482"/>
<text text-anchor="middle" x="304.8281" y="-8.8986" font-family="Arial" font-size="14.00" fill="#c6c5fe">TicketOffice.ts</text>
</g>
<!-- TicketSeller.ts&#45;&gt;TicketOffice.ts -->
<g id="edge7" class="edge">
<title>TicketSeller.ts&#45;&gt;TicketOffice.ts</title>
<path fill="none" stroke="#757575" d="M217.0251,-12.0493C225.2879,-12.0493 233.9178,-12.0493 242.4033,-12.0493"/>
<polygon fill="#757575" stroke="#757575" points="242.6479,-15.5494 252.6479,-12.0493 242.6478,-8.5494 242.6479,-15.5494"/>
</g>
<!-- TicketOffice.ts&#45;&gt;Ticket.ts -->
<g id="edge6" class="edge">
<title>TicketOffice.ts&#45;&gt;Ticket.ts</title>
<path fill="none" stroke="#757575" d="M356.7458,-12.0493C368.4958,-12.0493 380.8611,-12.0493 392.2446,-12.0493"/>
<polygon fill="#757575" stroke="#757575" points="392.377,-15.5494 402.377,-12.0493 392.377,-8.5494 392.377,-15.5494"/>
</g>
</g>
</svg>
