<?xml version="1.0" encoding="UTF-8" standalone="no"?><svg xmlns="http://www.w3.org/2000/svg" xmlns:xlink="http://www.w3.org/1999/xlink" contentScriptType="application/ecmascript" contentStyleType="text/css" height="839px" preserveAspectRatio="none" style="width:1102px;height:839px;" version="1.1" viewBox="0 0 1102 839" width="1102px" zoomAndPan="magnify"><defs><filter height="300%" id="f1tqzrp3iqbwcw" width="300%" x="-1" y="-1"><feGaussianBlur result="blurOut" stdDeviation="2.0"/><feColorMatrix in="blurOut" result="blurOut2" type="matrix" values="0 0 0 0 0 0 0 0 0 0 0 0 0 0 0 0 0 0 .4 0"/><feOffset dx="4.0" dy="4.0" in="blurOut2" result="blurOut3"/><feBlend in="SourceGraphic" in2="blurOut3" mode="normal"/></filter></defs><g><!--MD5=[2ce0c9fb7f55b1e256ab28a8ea6b25ec]
class Customer--><rect fill="#FEFECE" filter="url(#f1tqzrp3iqbwcw)" height="48" id="Customer" style="stroke: #A80036; stroke-width: 1.5;" width="92" x="223" y="467.5"/><ellipse cx="238" cy="483.5" fill="#ADD1B2" rx="11" ry="11" style="stroke: #A80036; stroke-width: 1.0;"/><path d="M240.3438,479.1719 L240.5156,479.25 C240.7344,478.9375 240.9375,478.8438 241.2344,478.8438 C241.5313,478.8438 241.8125,478.9844 241.9688,479.25 C242.0625,479.4063 242.0781,479.5313 242.0781,479.9688 L242.0781,481.3906 C242.0781,481.8125 242.0469,482 241.9375,482.1563 C241.7656,482.375 241.5,482.5156 241.2344,482.5156 C241.0156,482.5156 240.7813,482.4063 240.6406,482.2656 C240.5,482.1406 240.4688,482.0156 240.4063,481.6094 C240.3125,481.2031 240.1406,480.9844 239.6563,480.7031 C239.1875,480.4531 238.5781,480.2969 238,480.2969 C236.2656,480.2969 235.0156,481.6094 235.0156,483.3906 L235.0156,484.4844 C235.0156,486.1875 236.3125,487.2813 238.3594,487.2813 C239.125,487.2813 239.8125,487.1563 240.2344,486.8906 C240.4219,486.7969 240.4219,486.7969 240.875,486.3125 C241.0625,486.125 241.2656,486.0469 241.4844,486.0469 C241.9531,486.0469 242.3438,486.4375 242.3438,486.8906 C242.3438,487.2813 242.0156,487.7344 241.4375,488.1406 C240.6875,488.6875 239.5313,488.9844 238.3125,488.9844 C235.4219,488.9844 233.3125,487.0938 233.3125,484.5156 L233.3125,483.3906 C233.3125,480.6719 235.3125,478.5938 237.9375,478.5938 C238.8125,478.5938 239.4063,478.7344 240.3438,479.1719 Z "/><text fill="#000000" font-family="sans-serif" font-size="12" lengthAdjust="spacingAndGlyphs" textLength="60" x="252" y="487.6543">Customer</text><line style="stroke: #A80036; stroke-width: 1.5;" x1="224" x2="314" y1="499.5" y2="499.5"/><line style="stroke: #A80036; stroke-width: 1.5;" x1="224" x2="314" y1="507.5" y2="507.5"/><!--MD5=[08dbe06e87f91eb667838fe2f259c34a]
class Money--><rect fill="#FEFECE" filter="url(#f1tqzrp3iqbwcw)" height="150.4375" id="Money" style="stroke: #A80036; stroke-width: 1.5;" width="288" x="803" y="678"/><ellipse cx="922.75" cy="694" fill="#ADD1B2" rx="11" ry="11" style="stroke: #A80036; stroke-width: 1.0;"/><path d="M925.0938,689.6719 L925.2656,689.75 C925.4844,689.4375 925.6875,689.3438 925.9844,689.3438 C926.2813,689.3438 926.5625,689.4844 926.7188,689.75 C926.8125,689.9063 926.8281,690.0313 926.8281,690.4688 L926.8281,691.8906 C926.8281,692.3125 926.7969,692.5 926.6875,692.6563 C926.5156,692.875 926.25,693.0156 925.9844,693.0156 C925.7656,693.0156 925.5313,692.9063 925.3906,692.7656 C925.25,692.6406 925.2188,692.5156 925.1563,692.1094 C925.0625,691.7031 924.8906,691.4844 924.4063,691.2031 C923.9375,690.9531 923.3281,690.7969 922.75,690.7969 C921.0156,690.7969 919.7656,692.1094 919.7656,693.8906 L919.7656,694.9844 C919.7656,696.6875 921.0625,697.7813 923.1094,697.7813 C923.875,697.7813 924.5625,697.6563 924.9844,697.3906 C925.1719,697.2969 925.1719,697.2969 925.625,696.8125 C925.8125,696.625 926.0156,696.5469 926.2344,696.5469 C926.7031,696.5469 927.0938,696.9375 927.0938,697.3906 C927.0938,697.7813 926.7656,698.2344 926.1875,698.6406 C925.4375,699.1875 924.2813,699.4844 923.0625,699.4844 C920.1719,699.4844 918.0625,697.5938 918.0625,695.0156 L918.0625,693.8906 C918.0625,691.1719 920.0625,689.0938 922.6875,689.0938 C923.5625,689.0938 924.1563,689.2344 925.0938,689.6719 Z "/><text fill="#000000" font-family="sans-serif" font-size="12" lengthAdjust="spacingAndGlyphs" textLength="40" x="943.25" y="698.1543">Money</text><line style="stroke: #A80036; stroke-width: 1.5;" x1="804" x2="1090" y1="710" y2="710"/><rect fill="none" height="6" style="stroke: #C82930; stroke-width: 1.0;" width="6" x="811" y="718"/><text fill="#000000" font-family="sans-serif" font-size="11" lengthAdjust="spacingAndGlyphs" textLength="95" x="823" y="724.2104">amount: number</text><ellipse cx="814" cy="733.8047" fill="none" rx="3" ry="3" style="stroke: #038048; stroke-width: 1.0;"/><text fill="#000000" font-family="sans-serif" font-size="11" lengthAdjust="spacingAndGlyphs" text-decoration="underline" textLength="76" x="823" y="737.0151">ZERO: Money</text><line style="stroke: #A80036; stroke-width: 1.5;" x1="804" x2="1090" y1="743.6094" y2="743.6094"/><ellipse cx="814" cy="754.6094" fill="#84BE84" rx="3" ry="3" style="stroke: #038048; stroke-width: 1.0;"/><text fill="#000000" font-family="sans-serif" font-size="11" lengthAdjust="spacingAndGlyphs" textLength="163" x="823" y="757.8198">plus(amount: Money): Money</text><ellipse cx="814" cy="767.4141" fill="#84BE84" rx="3" ry="3" style="stroke: #038048; stroke-width: 1.0;"/><text fill="#000000" font-family="sans-serif" font-size="11" lengthAdjust="spacingAndGlyphs" textLength="174" x="823" y="770.6245">minus(amount: Money): Money</text><ellipse cx="814" cy="780.2188" fill="#84BE84" rx="3" ry="3" style="stroke: #038048; stroke-width: 1.0;"/><text fill="#000000" font-family="sans-serif" font-size="11" lengthAdjust="spacingAndGlyphs" textLength="179" x="823" y="783.4292">times(percent: number): Money</text><ellipse cx="814" cy="793.0234" fill="#84BE84" rx="3" ry="3" style="stroke: #038048; stroke-width: 1.0;"/><text fill="#000000" font-family="sans-serif" font-size="11" lengthAdjust="spacingAndGlyphs" textLength="200" x="823" y="796.2339">isLessThan(other: Money): boolean</text><ellipse cx="814" cy="805.8281" fill="#84BE84" rx="3" ry="3" style="stroke: #038048; stroke-width: 1.0;"/><text fill="#000000" font-family="sans-serif" font-size="11" lengthAdjust="spacingAndGlyphs" textLength="262" x="823" y="809.0386">isGreaterThanOrEqual(other: Money): boolean</text><ellipse cx="814" cy="818.6328" fill="#84BE84" rx="3" ry="3" style="stroke: #038048; stroke-width: 1.0;"/><text fill="#000000" font-family="sans-serif" font-size="11" lengthAdjust="spacingAndGlyphs" text-decoration="underline" textLength="177" x="823" y="821.8433">wons(amount: number): Money</text><!--MD5=[9c46470aa33a0c75e6d1dfdefc2f9c22]
class Reservation--><rect fill="#FEFECE" filter="url(#f1tqzrp3iqbwcw)" height="99.2188" id="Reservation" style="stroke: #A80036; stroke-width: 1.5;" width="162" x="519" y="8"/><ellipse cx="559.2" cy="24" fill="#ADD1B2" rx="11" ry="11" style="stroke: #A80036; stroke-width: 1.0;"/><path d="M561.5438,19.6719 L561.7156,19.75 C561.9344,19.4375 562.1375,19.3438 562.4344,19.3438 C562.7313,19.3438 563.0125,19.4844 563.1688,19.75 C563.2625,19.9063 563.2781,20.0313 563.2781,20.4688 L563.2781,21.8906 C563.2781,22.3125 563.2469,22.5 563.1375,22.6563 C562.9656,22.875 562.7,23.0156 562.4344,23.0156 C562.2156,23.0156 561.9813,22.9063 561.8406,22.7656 C561.7,22.6406 561.6688,22.5156 561.6063,22.1094 C561.5125,21.7031 561.3406,21.4844 560.8563,21.2031 C560.3875,20.9531 559.7781,20.7969 559.2,20.7969 C557.4656,20.7969 556.2156,22.1094 556.2156,23.8906 L556.2156,24.9844 C556.2156,26.6875 557.5125,27.7813 559.5594,27.7813 C560.325,27.7813 561.0125,27.6563 561.4344,27.3906 C561.6219,27.2969 561.6219,27.2969 562.075,26.8125 C562.2625,26.625 562.4656,26.5469 562.6844,26.5469 C563.1531,26.5469 563.5438,26.9375 563.5438,27.3906 C563.5438,27.7813 563.2156,28.2344 562.6375,28.6406 C561.8875,29.1875 560.7313,29.4844 559.5125,29.4844 C556.6219,29.4844 554.5125,27.5938 554.5125,25.0156 L554.5125,23.8906 C554.5125,21.1719 556.5125,19.0938 559.1375,19.0938 C560.0125,19.0938 560.6063,19.2344 561.5438,19.6719 Z "/><text fill="#000000" font-family="sans-serif" font-size="12" lengthAdjust="spacingAndGlyphs" textLength="74" x="578.8" y="28.1543">Reservation</text><line style="stroke: #A80036; stroke-width: 1.5;" x1="520" x2="680" y1="40" y2="40"/><rect fill="none" height="6" style="stroke: #C82930; stroke-width: 1.0;" width="6" x="527" y="48"/><text fill="#000000" font-family="sans-serif" font-size="11" lengthAdjust="spacingAndGlyphs" textLength="118" x="539" y="54.2104">customer: Customer</text><rect fill="none" height="6" style="stroke: #C82930; stroke-width: 1.0;" width="6" x="527" y="60.8047"/><text fill="#000000" font-family="sans-serif" font-size="11" lengthAdjust="spacingAndGlyphs" textLength="121" x="539" y="67.0151">screening: Screening</text><rect fill="none" height="6" style="stroke: #C82930; stroke-width: 1.0;" width="6" x="527" y="73.6094"/><text fill="#000000" font-family="sans-serif" font-size="11" lengthAdjust="spacingAndGlyphs" textLength="62" x="539" y="79.8198">fee: Money</text><rect fill="none" height="6" style="stroke: #C82930; stroke-width: 1.0;" width="6" x="527" y="86.4141"/><text fill="#000000" font-family="sans-serif" font-size="11" lengthAdjust="spacingAndGlyphs" textLength="136" x="539" y="92.6245">audienceCount: number</text><line style="stroke: #A80036; stroke-width: 1.5;" x1="520" x2="680" y1="99.2188" y2="99.2188"/><!--MD5=[fa5b27f77fe197a60cf8f352dcfe1889]
class Screening--><rect fill="#FEFECE" filter="url(#f1tqzrp3iqbwcw)" height="137.6328" id="Screening" style="stroke: #A80036; stroke-width: 1.5;" width="415" x="392.5" y="167"/><ellipse cx="564.25" cy="183" fill="#ADD1B2" rx="11" ry="11" style="stroke: #A80036; stroke-width: 1.0;"/><path d="M566.5938,178.6719 L566.7656,178.75 C566.9844,178.4375 567.1875,178.3438 567.4844,178.3438 C567.7813,178.3438 568.0625,178.4844 568.2188,178.75 C568.3125,178.9063 568.3281,179.0313 568.3281,179.4688 L568.3281,180.8906 C568.3281,181.3125 568.2969,181.5 568.1875,181.6563 C568.0156,181.875 567.75,182.0156 567.4844,182.0156 C567.2656,182.0156 567.0313,181.9063 566.8906,181.7656 C566.75,181.6406 566.7188,181.5156 566.6563,181.1094 C566.5625,180.7031 566.3906,180.4844 565.9063,180.2031 C565.4375,179.9531 564.8281,179.7969 564.25,179.7969 C562.5156,179.7969 561.2656,181.1094 561.2656,182.8906 L561.2656,183.9844 C561.2656,185.6875 562.5625,186.7813 564.6094,186.7813 C565.375,186.7813 566.0625,186.6563 566.4844,186.3906 C566.6719,186.2969 566.6719,186.2969 567.125,185.8125 C567.3125,185.625 567.5156,185.5469 567.7344,185.5469 C568.2031,185.5469 568.5938,185.9375 568.5938,186.3906 C568.5938,186.7813 568.2656,187.2344 567.6875,187.6406 C566.9375,188.1875 565.7813,188.4844 564.5625,188.4844 C561.6719,188.4844 559.5625,186.5938 559.5625,184.0156 L559.5625,182.8906 C559.5625,180.1719 561.5625,178.0938 564.1875,178.0938 C565.0625,178.0938 565.6563,178.2344 566.5938,178.6719 Z "/><text fill="#000000" font-family="sans-serif" font-size="12" lengthAdjust="spacingAndGlyphs" textLength="63" x="584.75" y="187.1543">Screening</text><line style="stroke: #A80036; stroke-width: 1.5;" x1="393.5" x2="806.5" y1="199" y2="199"/><rect fill="none" height="6" style="stroke: #C82930; stroke-width: 1.0;" width="6" x="400.5" y="207"/><text fill="#000000" font-family="sans-serif" font-size="11" lengthAdjust="spacingAndGlyphs" textLength="74" x="412.5" y="213.2104">movie: Movie</text><rect fill="none" height="6" style="stroke: #C82930; stroke-width: 1.0;" width="6" x="400.5" y="219.8047"/><text fill="#000000" font-family="sans-serif" font-size="11" lengthAdjust="spacingAndGlyphs" textLength="107" x="412.5" y="226.0151">sequence: number</text><rect fill="none" height="6" style="stroke: #C82930; stroke-width: 1.0;" width="6" x="400.5" y="232.6094"/><text fill="#000000" font-family="sans-serif" font-size="11" lengthAdjust="spacingAndGlyphs" textLength="118" x="412.5" y="238.8198">whenScreened: Date</text><line style="stroke: #A80036; stroke-width: 1.5;" x1="393.5" x2="806.5" y1="245.4141" y2="245.4141"/><ellipse cx="403.5" cy="256.4141" fill="#84BE84" rx="3" ry="3" style="stroke: #038048; stroke-width: 1.0;"/><text fill="#000000" font-family="sans-serif" font-size="11" lengthAdjust="spacingAndGlyphs" textLength="389" x="412.5" y="259.6245">reserve(customer: Customer, audienceCount: number): Reservation</text><ellipse cx="403.5" cy="269.2188" fill="#84BE84" rx="3" ry="3" style="stroke: #038048; stroke-width: 1.0;"/><text fill="#000000" font-family="sans-serif" font-size="11" lengthAdjust="spacingAndGlyphs" textLength="134" x="412.5" y="272.4292">getSequence(): number</text><ellipse cx="403.5" cy="282.0234" fill="#84BE84" rx="3" ry="3" style="stroke: #038048; stroke-width: 1.0;"/><text fill="#000000" font-family="sans-serif" font-size="11" lengthAdjust="spacingAndGlyphs" textLength="144" x="412.5" y="285.2339">getWhenScreened(): Date</text><rect fill="#F24D5C" height="6" style="stroke: #C82930; stroke-width: 1.0;" width="6" x="400.5" y="291.8281"/><text fill="#000000" font-family="sans-serif" font-size="11" lengthAdjust="spacingAndGlyphs" textLength="258" x="412.5" y="298.0386">calculateFee(audienceCount: number): Money</text><!--MD5=[a6ea7bbe5fa1bb287cba451ba5804a33]
class MovieType--><rect fill="#FEFECE" filter="url(#f1tqzrp3iqbwcw)" height="86.4141" id="MovieType" style="stroke: #A80036; stroke-width: 1.5;" width="128" x="640" y="710"/><ellipse cx="669.4" cy="726" fill="#EB937F" rx="11" ry="11" style="stroke: #A80036; stroke-width: 1.0;"/><path d="M667.6969,726.875 L667.6969,729.2969 L672.0563,729.2969 L672.0563,728.4219 C672.0563,727.9375 672.0875,727.7969 672.1969,727.6406 C672.3688,727.3906 672.6344,727.2813 672.9,727.2813 C673.1813,727.2813 673.4625,727.4375 673.6344,727.6875 C673.7125,727.8438 673.7438,727.9844 673.7438,728.4219 L673.7438,731 L665.7438,731 C665.3531,731 665.1188,730.9531 664.9781,730.8281 C664.7594,730.6719 664.6188,730.4219 664.6188,730.1563 C664.6188,729.8594 664.775,729.5938 665.025,729.4219 C665.1813,729.3125 665.3375,729.2969 665.7438,729.2969 L665.9938,729.2969 L665.9938,722.7813 L665.7438,722.7813 C665.3219,722.7813 665.1344,722.75 664.9781,722.6406 C664.7594,722.4688 664.6188,722.2188 664.6188,721.9375 C664.6188,721.6563 664.775,721.3594 665.025,721.2031 C665.1813,721.1094 665.3063,721.0938 665.7438,721.0938 L673.3688,721.0938 L673.3688,723.6406 C673.3688,724.1094 673.3375,724.25 673.2281,724.4219 C673.0563,724.6406 672.7906,724.7813 672.525,724.7813 C672.2438,724.7813 671.9625,724.625 671.7906,724.375 C671.7125,724.2188 671.6813,724.0469 671.6813,723.6406 L671.6813,722.7813 L667.6969,722.7813 L667.6969,725.1875 L669.15,725.1875 L669.15,725.0625 C669.15,724.6094 669.1813,724.4531 669.2906,724.2813 C669.4625,724.0625 669.7281,723.9219 669.9781,723.9219 C670.4313,723.9219 670.7438,724.2344 670.8063,724.7031 C670.8219,724.8594 670.8219,724.9063 670.8219,725.0625 L670.8219,726.9844 C670.8219,727.4375 670.7906,727.5938 670.6656,727.75 C670.5094,727.9688 670.2438,728.1094 669.9938,728.1094 C669.6969,728.1094 669.4156,727.9531 669.2594,727.7031 C669.1813,727.5469 669.15,727.3906 669.15,726.9844 L669.15,726.875 Z "/><text fill="#000000" font-family="sans-serif" font-size="12" lengthAdjust="spacingAndGlyphs" textLength="64" x="686.6" y="730.1543">MovieType</text><line style="stroke: #A80036; stroke-width: 1.5;" x1="641" x2="767" y1="742" y2="742"/><text fill="#000000" font-family="sans-serif" font-size="11" lengthAdjust="spacingAndGlyphs" textLength="113" x="646" y="756.2104">AMOUNT_DISCOUNT</text><text fill="#000000" font-family="sans-serif" font-size="11" lengthAdjust="spacingAndGlyphs" textLength="116" x="646" y="769.0151">PERCENT_DISCOUNT</text><text fill="#000000" font-family="sans-serif" font-size="11" lengthAdjust="spacingAndGlyphs" textLength="97" x="646" y="781.8198">NONE_DISCOUNT</text><line style="stroke: #A80036; stroke-width: 1.5;" x1="641" x2="767" y1="788.4141" y2="788.4141"/><!--MD5=[3387774d7316174022149a2e55ddfc5c]
class PeriodCondition--><rect fill="#FEFECE" filter="url(#f1tqzrp3iqbwcw)" height="99.2188" id="PeriodCondition" style="stroke: #A80036; stroke-width: 1.5;" width="282" x="6" y="703.5"/><ellipse cx="93.25" cy="719.5" fill="#ADD1B2" rx="11" ry="11" style="stroke: #A80036; stroke-width: 1.0;"/><path d="M95.5938,715.1719 L95.7656,715.25 C95.9844,714.9375 96.1875,714.8438 96.4844,714.8438 C96.7813,714.8438 97.0625,714.9844 97.2188,715.25 C97.3125,715.4063 97.3281,715.5313 97.3281,715.9688 L97.3281,717.3906 C97.3281,717.8125 97.2969,718 97.1875,718.1563 C97.0156,718.375 96.75,718.5156 96.4844,718.5156 C96.2656,718.5156 96.0313,718.4063 95.8906,718.2656 C95.75,718.1406 95.7188,718.0156 95.6563,717.6094 C95.5625,717.2031 95.3906,716.9844 94.9063,716.7031 C94.4375,716.4531 93.8281,716.2969 93.25,716.2969 C91.5156,716.2969 90.2656,717.6094 90.2656,719.3906 L90.2656,720.4844 C90.2656,722.1875 91.5625,723.2813 93.6094,723.2813 C94.375,723.2813 95.0625,723.1563 95.4844,722.8906 C95.6719,722.7969 95.6719,722.7969 96.125,722.3125 C96.3125,722.125 96.5156,722.0469 96.7344,722.0469 C97.2031,722.0469 97.5938,722.4375 97.5938,722.8906 C97.5938,723.2813 97.2656,723.7344 96.6875,724.1406 C95.9375,724.6875 94.7813,724.9844 93.5625,724.9844 C90.6719,724.9844 88.5625,723.0938 88.5625,720.5156 L88.5625,719.3906 C88.5625,716.6719 90.5625,714.5938 93.1875,714.5938 C94.0625,714.5938 94.6563,714.7344 95.5938,715.1719 Z "/><text fill="#000000" font-family="sans-serif" font-size="12" lengthAdjust="spacingAndGlyphs" textLength="99" x="113.75" y="723.6543">PeriodCondition</text><line style="stroke: #A80036; stroke-width: 1.5;" x1="7" x2="287" y1="735.5" y2="735.5"/><rect fill="none" height="6" style="stroke: #C82930; stroke-width: 1.0;" width="6" x="14" y="743.5"/><text fill="#000000" font-family="sans-serif" font-size="11" lengthAdjust="spacingAndGlyphs" textLength="114" x="26" y="749.7104">dayOfWeek: number</text><rect fill="none" height="6" style="stroke: #C82930; stroke-width: 1.0;" width="6" x="14" y="756.3047"/><text fill="#000000" font-family="sans-serif" font-size="11" lengthAdjust="spacingAndGlyphs" textLength="89" x="26" y="762.5151">startTime: Date</text><rect fill="none" height="6" style="stroke: #C82930; stroke-width: 1.0;" width="6" x="14" y="769.1094"/><text fill="#000000" font-family="sans-serif" font-size="11" lengthAdjust="spacingAndGlyphs" textLength="83" x="26" y="775.3198">endTime: Date</text><line style="stroke: #A80036; stroke-width: 1.5;" x1="7" x2="287" y1="781.9141" y2="781.9141"/><ellipse cx="17" cy="792.9141" fill="#84BE84" rx="3" ry="3" style="stroke: #038048; stroke-width: 1.0;"/><text fill="#000000" font-family="sans-serif" font-size="11" lengthAdjust="spacingAndGlyphs" textLength="256" x="26" y="796.1245">isSatisfiedBy(screening: Screening): boolean</text><!--MD5=[d9cfa9873d7e4c13423254ca3a85e4a5]
class SequenceCondition--><rect fill="#FEFECE" filter="url(#f1tqzrp3iqbwcw)" height="73.6094" id="SequenceCondition" style="stroke: #A80036; stroke-width: 1.5;" width="282" x="323" y="716"/><ellipse cx="398.75" cy="732" fill="#ADD1B2" rx="11" ry="11" style="stroke: #A80036; stroke-width: 1.0;"/><path d="M401.0938,727.6719 L401.2656,727.75 C401.4844,727.4375 401.6875,727.3438 401.9844,727.3438 C402.2813,727.3438 402.5625,727.4844 402.7188,727.75 C402.8125,727.9063 402.8281,728.0313 402.8281,728.4688 L402.8281,729.8906 C402.8281,730.3125 402.7969,730.5 402.6875,730.6563 C402.5156,730.875 402.25,731.0156 401.9844,731.0156 C401.7656,731.0156 401.5313,730.9063 401.3906,730.7656 C401.25,730.6406 401.2188,730.5156 401.1563,730.1094 C401.0625,729.7031 400.8906,729.4844 400.4063,729.2031 C399.9375,728.9531 399.3281,728.7969 398.75,728.7969 C397.0156,728.7969 395.7656,730.1094 395.7656,731.8906 L395.7656,732.9844 C395.7656,734.6875 397.0625,735.7813 399.1094,735.7813 C399.875,735.7813 400.5625,735.6563 400.9844,735.3906 C401.1719,735.2969 401.1719,735.2969 401.625,734.8125 C401.8125,734.625 402.0156,734.5469 402.2344,734.5469 C402.7031,734.5469 403.0938,734.9375 403.0938,735.3906 C403.0938,735.7813 402.7656,736.2344 402.1875,736.6406 C401.4375,737.1875 400.2813,737.4844 399.0625,737.4844 C396.1719,737.4844 394.0625,735.5938 394.0625,733.0156 L394.0625,731.8906 C394.0625,729.1719 396.0625,727.0938 398.6875,727.0938 C399.5625,727.0938 400.1563,727.2344 401.0938,727.6719 Z "/><text fill="#000000" font-family="sans-serif" font-size="12" lengthAdjust="spacingAndGlyphs" textLength="122" x="419.25" y="736.1543">SequenceCondition</text><line style="stroke: #A80036; stroke-width: 1.5;" x1="324" x2="604" y1="748" y2="748"/><rect fill="none" height="6" style="stroke: #C82930; stroke-width: 1.0;" width="6" x="331" y="756"/><text fill="#000000" font-family="sans-serif" font-size="11" lengthAdjust="spacingAndGlyphs" textLength="107" x="343" y="762.2104">sequence: number</text><line style="stroke: #A80036; stroke-width: 1.5;" x1="324" x2="604" y1="768.8047" y2="768.8047"/><ellipse cx="334" cy="779.8047" fill="#84BE84" rx="3" ry="3" style="stroke: #038048; stroke-width: 1.0;"/><text fill="#000000" font-family="sans-serif" font-size="11" lengthAdjust="spacingAndGlyphs" textLength="256" x="343" y="783.0151">isSatisfiedBy(screening: Screening): boolean</text><!--MD5=[e69084ab16b022bdbef99762ea85e9d6]
class Movie--><rect fill="#FEFECE" filter="url(#f1tqzrp3iqbwcw)" height="252.875" id="Movie" style="stroke: #A80036; stroke-width: 1.5;" width="356" x="492" y="365"/><ellipse cx="648.25" cy="381" fill="#ADD1B2" rx="11" ry="11" style="stroke: #A80036; stroke-width: 1.0;"/><path d="M650.5938,376.6719 L650.7656,376.75 C650.9844,376.4375 651.1875,376.3438 651.4844,376.3438 C651.7813,376.3438 652.0625,376.4844 652.2188,376.75 C652.3125,376.9063 652.3281,377.0313 652.3281,377.4688 L652.3281,378.8906 C652.3281,379.3125 652.2969,379.5 652.1875,379.6563 C652.0156,379.875 651.75,380.0156 651.4844,380.0156 C651.2656,380.0156 651.0313,379.9063 650.8906,379.7656 C650.75,379.6406 650.7188,379.5156 650.6563,379.1094 C650.5625,378.7031 650.3906,378.4844 649.9063,378.2031 C649.4375,377.9531 648.8281,377.7969 648.25,377.7969 C646.5156,377.7969 645.2656,379.1094 645.2656,380.8906 L645.2656,381.9844 C645.2656,383.6875 646.5625,384.7813 648.6094,384.7813 C649.375,384.7813 650.0625,384.6563 650.4844,384.3906 C650.6719,384.2969 650.6719,384.2969 651.125,383.8125 C651.3125,383.625 651.5156,383.5469 651.7344,383.5469 C652.2031,383.5469 652.5938,383.9375 652.5938,384.3906 C652.5938,384.7813 652.2656,385.2344 651.6875,385.6406 C650.9375,386.1875 649.7813,386.4844 648.5625,386.4844 C645.6719,386.4844 643.5625,384.5938 643.5625,382.0156 L643.5625,380.8906 C643.5625,378.1719 645.5625,376.0938 648.1875,376.0938 C649.0625,376.0938 649.6563,376.2344 650.5938,376.6719 Z "/><text fill="#000000" font-family="sans-serif" font-size="12" lengthAdjust="spacingAndGlyphs" textLength="35" x="668.75" y="385.1543">Movie</text><line style="stroke: #A80036; stroke-width: 1.5;" x1="493" x2="847" y1="397" y2="397"/><rect fill="none" height="6" style="stroke: #C82930; stroke-width: 1.0;" width="6" x="500" y="405"/><text fill="#000000" font-family="sans-serif" font-size="11" lengthAdjust="spacingAndGlyphs" textLength="128" x="512" y="411.2104">movieType: MovieType</text><rect fill="none" height="6" style="stroke: #C82930; stroke-width: 1.0;" width="6" x="500" y="417.8047"/><text fill="#000000" font-family="sans-serif" font-size="11" lengthAdjust="spacingAndGlyphs" textLength="135" x="512" y="424.0151">discountAmount: Money</text><rect fill="none" height="6" style="stroke: #C82930; stroke-width: 1.0;" width="6" x="500" y="430.6094"/><text fill="#000000" font-family="sans-serif" font-size="11" lengthAdjust="spacingAndGlyphs" textLength="143" x="512" y="436.8198">discountPercent: number</text><rect fill="none" height="6" style="stroke: #C82930; stroke-width: 1.0;" width="6" x="500" y="443.4141"/><text fill="#000000" font-family="sans-serif" font-size="11" lengthAdjust="spacingAndGlyphs" textLength="62" x="512" y="449.6245">title: string</text><rect fill="none" height="6" style="stroke: #C82930; stroke-width: 1.0;" width="6" x="500" y="456.2188"/><text fill="#000000" font-family="sans-serif" font-size="11" lengthAdjust="spacingAndGlyphs" textLength="123" x="512" y="462.4292">runningTime: number</text><rect fill="none" height="6" style="stroke: #C82930; stroke-width: 1.0;" width="6" x="500" y="469.0234"/><text fill="#000000" font-family="sans-serif" font-size="11" lengthAdjust="spacingAndGlyphs" textLength="62" x="512" y="475.2339">fee: Money</text><rect fill="none" height="6" style="stroke: #C82930; stroke-width: 1.0;" width="6" x="500" y="481.8281"/><text fill="#000000" font-family="sans-serif" font-size="11" lengthAdjust="spacingAndGlyphs" textLength="201" x="512" y="488.0386">periodConditions: PeriodCondition[]</text><rect fill="none" height="6" style="stroke: #C82930; stroke-width: 1.0;" width="6" x="500" y="494.6328"/><text fill="#000000" font-family="sans-serif" font-size="11" lengthAdjust="spacingAndGlyphs" textLength="240" x="512" y="500.8433">sequenceConditions: SequenceCondition[]</text><line style="stroke: #A80036; stroke-width: 1.5;" x1="493" x2="847" y1="507.4375" y2="507.4375"/><ellipse cx="503" cy="518.4375" fill="#84BE84" rx="3" ry="3" style="stroke: #038048; stroke-width: 1.0;"/><text fill="#000000" font-family="sans-serif" font-size="11" lengthAdjust="spacingAndGlyphs" textLength="275" x="512" y="521.6479">calculateMovieFee(screening: Screening): Money</text><rect fill="#F24D5C" height="6" style="stroke: #C82930; stroke-width: 1.0;" width="6" x="500" y="528.2422"/><text fill="#000000" font-family="sans-serif" font-size="11" lengthAdjust="spacingAndGlyphs" textLength="265" x="512" y="534.4526">isDiscountAble(screening: Screening): boolean</text><rect fill="#F24D5C" height="6" style="stroke: #C82930; stroke-width: 1.0;" width="6" x="500" y="541.0469"/><text fill="#000000" font-family="sans-serif" font-size="11" lengthAdjust="spacingAndGlyphs" textLength="310" x="512" y="547.2573">checkPeriodConditions(screening: Screening): boolean</text><rect fill="#F24D5C" height="6" style="stroke: #C82930; stroke-width: 1.0;" width="6" x="500" y="553.8516"/><text fill="#000000" font-family="sans-serif" font-size="11" lengthAdjust="spacingAndGlyphs" textLength="330" x="512" y="560.062">checkSequenceConditions(screening: Screening): boolean</text><rect fill="#F24D5C" height="6" style="stroke: #C82930; stroke-width: 1.0;" width="6" x="500" y="566.6563"/><text fill="#000000" font-family="sans-serif" font-size="11" lengthAdjust="spacingAndGlyphs" textLength="200" x="512" y="572.8667">caclculateDiscountAmount(): Money</text><rect fill="#F24D5C" height="6" style="stroke: #C82930; stroke-width: 1.0;" width="6" x="500" y="579.4609"/><text fill="#000000" font-family="sans-serif" font-size="11" lengthAdjust="spacingAndGlyphs" textLength="243" x="512" y="585.6714">caclculateAmountDiscountAmount(): Money</text><rect fill="#F24D5C" height="6" style="stroke: #C82930; stroke-width: 1.0;" width="6" x="500" y="592.2656"/><text fill="#000000" font-family="sans-serif" font-size="11" lengthAdjust="spacingAndGlyphs" textLength="243" x="512" y="598.4761">caclculatePercentDiscountAmount(): Money</text><rect fill="#F24D5C" height="6" style="stroke: #C82930; stroke-width: 1.0;" width="6" x="500" y="605.0703"/><text fill="#000000" font-family="sans-serif" font-size="11" lengthAdjust="spacingAndGlyphs" textLength="229" x="512" y="611.2808">caclculateNoneDiscountAmount(): Money</text><!--MD5=[b2a5c62ee17020f07685cec7b7db6df8]
reverse link Reservation to Customer--><path d="M506.503,84.484 C461.251,101.356 409.408,127.694 375,167 C295.586,257.718 275.427,409.28 270.514,467.109 " fill="none" id="Reservation&lt;-Customer" style="stroke: #A80036; stroke-width: 1.0;"/><polygon fill="#A80036" points="518.766,80.079,511.7671,78.3427,507.4724,84.1354,514.4713,85.8717,518.766,80.079" style="stroke: #A80036; stroke-width: 1.0;"/><!--MD5=[d6f262f12d648c2666cae04541bf4aa4]
reverse link Reservation to Screening--><path d="M587.761,120.606 C587.158,135.609 587.089,151.719 587.552,166.976 " fill="none" id="Reservation&lt;-Screening" style="stroke: #A80036; stroke-width: 1.0;"/><polygon fill="#A80036" points="588.464,107.197,584.155,112.9791,587.835,119.1805,592.144,113.3984,588.464,107.197" style="stroke: #A80036; stroke-width: 1.0;"/><!--MD5=[c68cec2d08a0c756de089f5d87b96330]
reverse link Screening to Reservation--><path d="M613.462,153.735 C613.634,137.833 613.218,121.625 612.214,107.197 " fill="none" id="Screening&lt;-Reservation" style="stroke: #A80036; stroke-width: 1.0;"/><polygon fill="#A80036" points="613.18,166.976,617.3077,161.0631,613.4371,154.9788,609.3095,160.8917,613.18,166.976" style="stroke: #A80036; stroke-width: 1.0;"/><!--MD5=[39dd7fb721f0a429b8062e1ef2dc64c3]
reverse link Reservation to Money--><path d="M693.472,87.612 C737.587,105.054 788.442,130.962 825,167 C963.348,303.38 964.579,553.233 955.263,677.596 " fill="none" id="Reservation&lt;-Money" style="stroke: #A80036; stroke-width: 1.0;"/><polygon fill="#A80036" points="681.225,82.916,685.3946,88.7994,692.4292,87.2133,688.2595,81.3299,681.225,82.916" style="stroke: #A80036; stroke-width: 1.0;"/><!--MD5=[88f6fb7f013dd115006957351a8e9723]
reverse link Screening to Movie--><path d="M610.416,318.128 C614.022,333.077 618.166,349.004 622.57,364.906 " fill="none" id="Screening&lt;-Movie" style="stroke: #A80036; stroke-width: 1.0;"/><polygon fill="#A80036" points="607.393,305.267,604.872,312.0231,610.1387,316.9487,612.6597,310.1926,607.393,305.267" style="stroke: #A80036; stroke-width: 1.0;"/><!--MD5=[583467abdeec2d311a672525fbe0a9b9]
reverse link Movie to Screening--><path d="M645.178,351.91 C640.572,335.749 635.742,319.847 630.983,305.267 " fill="none" id="Movie&lt;-Screening" style="stroke: #A80036; stroke-width: 1.0;"/><polygon fill="#A80036" points="648.819,364.906,651.0526,358.0495,645.5827,353.3507,643.349,360.2071,648.819,364.906" style="stroke: #A80036; stroke-width: 1.0;"/><!--MD5=[7f35b6f28088c12d4f6bb0e95957d027]
reverse link Screening to Customer--><path d="M415.728,311.54 C389.285,326.878 363.723,344.672 342,365 C310.713,394.279 288.787,440.015 277.587,467.439 " fill="none" id="Screening&lt;-Customer" style="stroke: #A80036; stroke-width: 1.0;"/><polygon fill="#A80036" points="427.106,305.116,419.9147,304.5824,416.6562,311.0153,423.8476,311.5489,427.106,305.116" style="stroke: #A80036; stroke-width: 1.0;"/><!--MD5=[0e44eefa85f7d41020a26d0e9d3d82cf]
reverse link Screening to Money--><path d="M806.542,312.217 C828.632,326.984 848.883,344.439 865,365 C902.497,412.837 927.342,579.527 939.105,677.85 " fill="none" id="Screening&lt;-Money" style="stroke: #A80036; stroke-width: 1.0;"/><polygon fill="#A80036" points="795.56,305.181,798.4546,311.7857,805.6645,311.654,802.7699,305.0494,795.56,305.181" style="stroke: #A80036; stroke-width: 1.0;"/><!--MD5=[c3fe0045adb0b9a29d28c0b772884ede]
reverse link PeriodCondition to Screening--><path d="M245.4,695.95 C276.267,674.669 308.401,648.183 332,618 C406.676,522.489 360.765,461.62 434,365 C450.707,342.958 472.125,322.722 493.983,305.163 " fill="none" id="PeriodCondition&lt;-Screening" style="stroke: #A80036; stroke-width: 1.0;"/><polygon fill="#A80036" points="234.551,703.257,241.762,703.2223,244.5034,696.5526,237.2924,696.5873,234.551,703.257" style="stroke: #A80036; stroke-width: 1.0;"/><!--MD5=[4338201ae531b0c5c74cd4579d448b1b]
reverse link SequenceCondition to Screening--><path d="M454.198,702.878 C441.428,626.954 425.973,478.066 474,365 C483.326,343.044 498.33,322.78 514.786,305.158 " fill="none" id="SequenceCondition&lt;-Screening" style="stroke: #A80036; stroke-width: 1.0;"/><polygon fill="#A80036" points="456.455,715.741,459.3576,709.1399,454.3807,703.9216,451.4781,710.5227,456.455,715.741" style="stroke: #A80036; stroke-width: 1.0;"/><!--MD5=[d4ffe86c538f73f079e4b432620d3bef]
reverse link Movie to MovieType--><path d="M688.181,631.264 C691.938,659.936 695.617,688.018 698.481,709.874 " fill="none" id="Movie&lt;-MovieType" style="stroke: #A80036; stroke-width: 1.0;"/><polygon fill="#A80036" points="686.452,618.069,683.2652,624.5377,688.0107,629.9673,691.1974,623.4986,686.452,618.069" style="stroke: #A80036; stroke-width: 1.0;"/><!--MD5=[7114dc62aa61f1f979cee9d07f4dfd9b]
reverse link Movie to Money--><path d="M813.756,627.174 C832.333,644.578 850.784,661.863 867.769,677.775 " fill="none" id="Movie&lt;-Money" style="stroke: #A80036; stroke-width: 1.0;"/><polygon fill="#A80036" points="804.037,618.069,805.6812,625.0901,812.7947,626.2728,811.1505,619.2517,804.037,618.069" style="stroke: #A80036; stroke-width: 1.0;"/><!--MD5=[05364cae76a0e9788456828434b92841]
reverse link Movie to PeriodCondition--><path d="M480.149,586.699 C400.403,626.268 311.023,670.616 244.934,703.407 " fill="none" id="Movie&lt;-PeriodCondition" style="stroke: #A80036; stroke-width: 1.0;"/><polygon fill="#A80036" points="491.841,580.898,484.6883,579.9818,481.0916,586.2318,488.2442,587.1481,491.841,580.898" style="stroke: #A80036; stroke-width: 1.0;"/><!--MD5=[6b7d0ff4ebb0c28f4ccf0b2d16877b6f]
reverse link Movie to SequenceCondition--><path d="M561.983,628.57 C536.329,660.887 511.09,692.68 492.654,715.904 " fill="none" id="Movie&lt;-SequenceCondition" style="stroke: #A80036; stroke-width: 1.0;"/><polygon fill="#A80036" points="570.319,618.069,563.4557,620.2816,562.8584,627.4679,569.7217,625.2553,570.319,618.069" style="stroke: #A80036; stroke-width: 1.0;"/><!--MD5=[bc7e3fc9d3e2d36327e16469cef7505b]
@startuml
class Customer
class Money {
    -amount: number
    +plus(amount: Money): Money
    +minus(amount: Money): Money
    +times(percent: number): Money
    +isLessThan(other: Money): boolean
    +isGreaterThanOrEqual(other: Money): boolean
    +{static} ZERO: Money
    +{static} wons(amount: number): Money
}
class Reservation {
    -customer: Customer
    -screening: Screening
    -fee: Money
    -audienceCount: number
}
class Screening {
    -movie: Movie
    -sequence: number
    -whenScreened: Date
    +reserve(customer: Customer, audienceCount: number): Reservation
    +getSequence(): number
    +getWhenScreened(): Date
    -calculateFee(audienceCount: number): Money
}
enum MovieType {
    AMOUNT_DISCOUNT
    PERCENT_DISCOUNT
    NONE_DISCOUNT
}
class PeriodCondition {
    -dayOfWeek: number
    -startTime: Date
    -endTime: Date
    +isSatisfiedBy(screening: Screening): boolean
}
class SequenceCondition {
    -sequence: number
    +isSatisfiedBy(screening: Screening): boolean
}
class Movie {
    -movieType: MovieType
    -discountAmount: Money
    -discountPercent: number
    -title: string
    -runningTime: number
    -fee: Money
    -periodConditions: PeriodCondition[]
    -sequenceConditions: SequenceCondition[]
    +calculateMovieFee(screening: Screening): Money
    -isDiscountAble(screening: Screening): boolean
    -checkPeriodConditions(screening: Screening): boolean
    -checkSequenceConditions(screening: Screening): boolean
    -caclculateDiscountAmount(): Money
    -caclculateAmountDiscountAmount(): Money
    -caclculatePercentDiscountAmount(): Money
    -caclculateNoneDiscountAmount(): Money
}
Reservation *- - Customer
Reservation *- - Screening
Reservation *- - Money
Screening *- - Movie
Screening *- - Customer
Screening *- - Reservation
Screening *- - Money
PeriodCondition *- - Screening
SequenceCondition *- - Screening
Movie *- - MovieType
Movie *- - Money
Movie *- - PeriodCondition
Movie *- - SequenceCondition
Movie *- - Screening
@enduml

PlantUML version 1.2019.11(Sun Sep 22 10:02:15 UTC 2019)
(GPL source distribution)
Java Runtime: Java(TM) SE Runtime Environment
JVM: Java HotSpot(TM) 64-Bit Server VM
Java Version: 1.7.0_25-b15
Operating System: Linux
Default Encoding: UTF-8
Language: en
Country: US
--></g></svg>