<?xml version="1.0" encoding="UTF-8" standalone="no"?><svg xmlns="http://www.w3.org/2000/svg" xmlns:xlink="http://www.w3.org/1999/xlink" contentScriptType="application/ecmascript" contentStyleType="text/css" height="959px" preserveAspectRatio="none" style="width:1121px;height:959px;" version="1.1" viewBox="0 0 1121 959" width="1121px" zoomAndPan="magnify"><defs><filter height="300%" id="fqwa2spilsi6" width="300%" x="-1" y="-1"><feGaussianBlur result="blurOut" stdDeviation="2.0"/><feColorMatrix in="blurOut" result="blurOut2" type="matrix" values="0 0 0 0 0 0 0 0 0 0 0 0 0 0 0 0 0 0 .4 0"/><feOffset dx="4.0" dy="4.0" in="blurOut2" result="blurOut3"/><feBlend in="SourceGraphic" in2="blurOut3" mode="normal"/></filter></defs><g><!--MD5=[2ce0c9fb7f55b1e256ab28a8ea6b25ec]
class Customer--><rect fill="#FEFECE" filter="url(#fqwa2spilsi6)" height="48" id="Customer" style="stroke: #A80036; stroke-width: 1.5;" width="92" x="46.1464" y="448"/><ellipse cx="61.1464" cy="464" fill="#ADD1B2" rx="11" ry="11" style="stroke: #A80036; stroke-width: 1.0;"/><path d="M63.4902,459.6719 L63.662,459.75 C63.8808,459.4375 64.0839,459.3438 64.3808,459.3438 C64.6777,459.3438 64.9589,459.4844 65.1152,459.75 C65.2089,459.9063 65.2245,460.0313 65.2245,460.4688 L65.2245,461.8906 C65.2245,462.3125 65.1933,462.5 65.0839,462.6563 C64.912,462.875 64.6464,463.0156 64.3808,463.0156 C64.162,463.0156 63.9277,462.9063 63.787,462.7656 C63.6464,462.6406 63.6152,462.5156 63.5527,462.1094 C63.4589,461.7031 63.287,461.4844 62.8027,461.2031 C62.3339,460.9531 61.7245,460.7969 61.1464,460.7969 C59.412,460.7969 58.162,462.1094 58.162,463.8906 L58.162,464.9844 C58.162,466.6875 59.4589,467.7813 61.5058,467.7813 C62.2714,467.7813 62.9589,467.6563 63.3808,467.3906 C63.5683,467.2969 63.5683,467.2969 64.0214,466.8125 C64.2089,466.625 64.412,466.5469 64.6308,466.5469 C65.0995,466.5469 65.4902,466.9375 65.4902,467.3906 C65.4902,467.7813 65.162,468.2344 64.5839,468.6406 C63.8339,469.1875 62.6777,469.4844 61.4589,469.4844 C58.5683,469.4844 56.4589,467.5938 56.4589,465.0156 L56.4589,463.8906 C56.4589,461.1719 58.4589,459.0938 61.0839,459.0938 C61.9589,459.0938 62.5527,459.2344 63.4902,459.6719 Z "/><text fill="#000000" font-family="sans-serif" font-size="12" lengthAdjust="spacingAndGlyphs" textLength="60" x="75.1464" y="468.1543">Customer</text><line style="stroke: #A80036; stroke-width: 1.5;" x1="47.1464" x2="137.1464" y1="480" y2="480"/><line style="stroke: #A80036; stroke-width: 1.5;" x1="47.1464" x2="137.1464" y1="488" y2="488"/><!--MD5=[08dbe06e87f91eb667838fe2f259c34a]
class Money--><rect fill="#FEFECE" filter="url(#fqwa2spilsi6)" height="150.4375" id="Money" style="stroke: #A80036; stroke-width: 1.5;" width="288" x="27.1464" y="639"/><ellipse cx="146.8964" cy="655" fill="#ADD1B2" rx="11" ry="11" style="stroke: #A80036; stroke-width: 1.0;"/><path d="M149.2402,650.6719 L149.412,650.75 C149.6308,650.4375 149.8339,650.3438 150.1308,650.3438 C150.4277,650.3438 150.7089,650.4844 150.8652,650.75 C150.9589,650.9063 150.9745,651.0313 150.9745,651.4688 L150.9745,652.8906 C150.9745,653.3125 150.9433,653.5 150.8339,653.6563 C150.662,653.875 150.3964,654.0156 150.1308,654.0156 C149.912,654.0156 149.6777,653.9063 149.537,653.7656 C149.3964,653.6406 149.3652,653.5156 149.3027,653.1094 C149.2089,652.7031 149.037,652.4844 148.5527,652.2031 C148.0839,651.9531 147.4745,651.7969 146.8964,651.7969 C145.162,651.7969 143.912,653.1094 143.912,654.8906 L143.912,655.9844 C143.912,657.6875 145.2089,658.7813 147.2558,658.7813 C148.0214,658.7813 148.7089,658.6563 149.1308,658.3906 C149.3183,658.2969 149.3183,658.2969 149.7714,657.8125 C149.9589,657.625 150.162,657.5469 150.3808,657.5469 C150.8495,657.5469 151.2402,657.9375 151.2402,658.3906 C151.2402,658.7813 150.912,659.2344 150.3339,659.6406 C149.5839,660.1875 148.4277,660.4844 147.2089,660.4844 C144.3183,660.4844 142.2089,658.5938 142.2089,656.0156 L142.2089,654.8906 C142.2089,652.1719 144.2089,650.0938 146.8339,650.0938 C147.7089,650.0938 148.3027,650.2344 149.2402,650.6719 Z "/><text fill="#000000" font-family="sans-serif" font-size="12" lengthAdjust="spacingAndGlyphs" textLength="40" x="167.3964" y="659.1543">Money</text><line style="stroke: #A80036; stroke-width: 1.5;" x1="28.1464" x2="314.1464" y1="671" y2="671"/><rect fill="none" height="6" style="stroke: #C82930; stroke-width: 1.0;" width="6" x="35.1464" y="679"/><text fill="#000000" font-family="sans-serif" font-size="11" lengthAdjust="spacingAndGlyphs" textLength="95" x="47.1464" y="685.2104">amount: number</text><ellipse cx="38.1464" cy="694.8047" fill="none" rx="3" ry="3" style="stroke: #038048; stroke-width: 1.0;"/><text fill="#000000" font-family="sans-serif" font-size="11" lengthAdjust="spacingAndGlyphs" text-decoration="underline" textLength="76" x="47.1464" y="698.0151">ZERO: Money</text><line style="stroke: #A80036; stroke-width: 1.5;" x1="28.1464" x2="314.1464" y1="704.6094" y2="704.6094"/><ellipse cx="38.1464" cy="715.6094" fill="#84BE84" rx="3" ry="3" style="stroke: #038048; stroke-width: 1.0;"/><text fill="#000000" font-family="sans-serif" font-size="11" lengthAdjust="spacingAndGlyphs" textLength="163" x="47.1464" y="718.8198">plus(amount: Money): Money</text><ellipse cx="38.1464" cy="728.4141" fill="#84BE84" rx="3" ry="3" style="stroke: #038048; stroke-width: 1.0;"/><text fill="#000000" font-family="sans-serif" font-size="11" lengthAdjust="spacingAndGlyphs" textLength="174" x="47.1464" y="731.6245">minus(amount: Money): Money</text><ellipse cx="38.1464" cy="741.2188" fill="#84BE84" rx="3" ry="3" style="stroke: #038048; stroke-width: 1.0;"/><text fill="#000000" font-family="sans-serif" font-size="11" lengthAdjust="spacingAndGlyphs" textLength="179" x="47.1464" y="744.4292">times(percent: number): Money</text><ellipse cx="38.1464" cy="754.0234" fill="#84BE84" rx="3" ry="3" style="stroke: #038048; stroke-width: 1.0;"/><text fill="#000000" font-family="sans-serif" font-size="11" lengthAdjust="spacingAndGlyphs" textLength="200" x="47.1464" y="757.2339">isLessThan(other: Money): boolean</text><ellipse cx="38.1464" cy="766.8281" fill="#84BE84" rx="3" ry="3" style="stroke: #038048; stroke-width: 1.0;"/><text fill="#000000" font-family="sans-serif" font-size="11" lengthAdjust="spacingAndGlyphs" textLength="262" x="47.1464" y="770.0386">isGreaterThanOrEqual(other: Money): boolean</text><ellipse cx="38.1464" cy="779.6328" fill="#84BE84" rx="3" ry="3" style="stroke: #038048; stroke-width: 1.0;"/><text fill="#000000" font-family="sans-serif" font-size="11" lengthAdjust="spacingAndGlyphs" text-decoration="underline" textLength="177" x="47.1464" y="782.8433">wons(amount: number): Money</text><!--MD5=[9c46470aa33a0c75e6d1dfdefc2f9c22]
class Reservation--><rect fill="#FEFECE" filter="url(#fqwa2spilsi6)" height="99.2188" id="Reservation" style="stroke: #A80036; stroke-width: 1.5;" width="162" x="173.146" y="8"/><ellipse cx="213.346" cy="24" fill="#ADD1B2" rx="11" ry="11" style="stroke: #A80036; stroke-width: 1.0;"/><path d="M215.6897,19.6719 L215.8616,19.75 C216.0804,19.4375 216.2835,19.3438 216.5804,19.3438 C216.8772,19.3438 217.1585,19.4844 217.3147,19.75 C217.4085,19.9063 217.4241,20.0313 217.4241,20.4688 L217.4241,21.8906 C217.4241,22.3125 217.3929,22.5 217.2835,22.6563 C217.1116,22.875 216.846,23.0156 216.5804,23.0156 C216.3616,23.0156 216.1272,22.9063 215.9866,22.7656 C215.846,22.6406 215.8147,22.5156 215.7522,22.1094 C215.6585,21.7031 215.4866,21.4844 215.0022,21.2031 C214.5335,20.9531 213.9241,20.7969 213.346,20.7969 C211.6116,20.7969 210.3616,22.1094 210.3616,23.8906 L210.3616,24.9844 C210.3616,26.6875 211.6585,27.7813 213.7054,27.7813 C214.471,27.7813 215.1585,27.6563 215.5804,27.3906 C215.7679,27.2969 215.7679,27.2969 216.221,26.8125 C216.4085,26.625 216.6116,26.5469 216.8304,26.5469 C217.2991,26.5469 217.6897,26.9375 217.6897,27.3906 C217.6897,27.7813 217.3616,28.2344 216.7835,28.6406 C216.0335,29.1875 214.8772,29.4844 213.6585,29.4844 C210.7679,29.4844 208.6585,27.5938 208.6585,25.0156 L208.6585,23.8906 C208.6585,21.1719 210.6585,19.0938 213.2835,19.0938 C214.1585,19.0938 214.7522,19.2344 215.6897,19.6719 Z "/><text fill="#000000" font-family="sans-serif" font-size="12" lengthAdjust="spacingAndGlyphs" textLength="74" x="232.946" y="28.1543">Reservation</text><line style="stroke: #A80036; stroke-width: 1.5;" x1="174.146" x2="334.146" y1="40" y2="40"/><rect fill="none" height="6" style="stroke: #C82930; stroke-width: 1.0;" width="6" x="181.146" y="48"/><text fill="#000000" font-family="sans-serif" font-size="11" lengthAdjust="spacingAndGlyphs" textLength="118" x="193.146" y="54.2104">customer: Customer</text><rect fill="none" height="6" style="stroke: #C82930; stroke-width: 1.0;" width="6" x="181.146" y="60.8047"/><text fill="#000000" font-family="sans-serif" font-size="11" lengthAdjust="spacingAndGlyphs" textLength="121" x="193.146" y="67.0151">screening: Screening</text><rect fill="none" height="6" style="stroke: #C82930; stroke-width: 1.0;" width="6" x="181.146" y="73.6094"/><text fill="#000000" font-family="sans-serif" font-size="11" lengthAdjust="spacingAndGlyphs" textLength="62" x="193.146" y="79.8198">fee: Money</text><rect fill="none" height="6" style="stroke: #C82930; stroke-width: 1.0;" width="6" x="181.146" y="86.4141"/><text fill="#000000" font-family="sans-serif" font-size="11" lengthAdjust="spacingAndGlyphs" textLength="136" x="193.146" y="92.6245">audienceCount: number</text><line style="stroke: #A80036; stroke-width: 1.5;" x1="174.146" x2="334.146" y1="99.2188" y2="99.2188"/><!--MD5=[a6ea7bbe5fa1bb287cba451ba5804a33]
class MovieType--><rect fill="#FEFECE" filter="url(#fqwa2spilsi6)" height="86.4141" id="MovieType" style="stroke: #A80036; stroke-width: 1.5;" width="128" x="350.146" y="671"/><ellipse cx="379.546" cy="687" fill="#EB937F" rx="11" ry="11" style="stroke: #A80036; stroke-width: 1.0;"/><path d="M377.8429,687.875 L377.8429,690.2969 L382.2023,690.2969 L382.2023,689.4219 C382.2023,688.9375 382.2335,688.7969 382.3429,688.6406 C382.5148,688.3906 382.7804,688.2813 383.046,688.2813 C383.3273,688.2813 383.6085,688.4375 383.7804,688.6875 C383.8585,688.8438 383.8898,688.9844 383.8898,689.4219 L383.8898,692 L375.8898,692 C375.4991,692 375.2648,691.9531 375.1241,691.8281 C374.9054,691.6719 374.7648,691.4219 374.7648,691.1563 C374.7648,690.8594 374.921,690.5938 375.171,690.4219 C375.3273,690.3125 375.4835,690.2969 375.8898,690.2969 L376.1398,690.2969 L376.1398,683.7813 L375.8898,683.7813 C375.4679,683.7813 375.2804,683.75 375.1241,683.6406 C374.9054,683.4688 374.7648,683.2188 374.7648,682.9375 C374.7648,682.6563 374.921,682.3594 375.171,682.2031 C375.3273,682.1094 375.4523,682.0938 375.8898,682.0938 L383.5148,682.0938 L383.5148,684.6406 C383.5148,685.1094 383.4835,685.25 383.3741,685.4219 C383.2023,685.6406 382.9366,685.7813 382.671,685.7813 C382.3898,685.7813 382.1085,685.625 381.9366,685.375 C381.8585,685.2188 381.8273,685.0469 381.8273,684.6406 L381.8273,683.7813 L377.8429,683.7813 L377.8429,686.1875 L379.296,686.1875 L379.296,686.0625 C379.296,685.6094 379.3273,685.4531 379.4366,685.2813 C379.6085,685.0625 379.8741,684.9219 380.1241,684.9219 C380.5773,684.9219 380.8898,685.2344 380.9523,685.7031 C380.9679,685.8594 380.9679,685.9063 380.9679,686.0625 L380.9679,687.9844 C380.9679,688.4375 380.9366,688.5938 380.8116,688.75 C380.6554,688.9688 380.3898,689.1094 380.1398,689.1094 C379.8429,689.1094 379.5616,688.9531 379.4054,688.7031 C379.3273,688.5469 379.296,688.3906 379.296,687.9844 L379.296,687.875 Z "/><text fill="#000000" font-family="sans-serif" font-size="12" lengthAdjust="spacingAndGlyphs" textLength="64" x="396.746" y="691.1543">MovieType</text><line style="stroke: #A80036; stroke-width: 1.5;" x1="351.146" x2="477.146" y1="703" y2="703"/><text fill="#000000" font-family="sans-serif" font-size="11" lengthAdjust="spacingAndGlyphs" textLength="113" x="356.146" y="717.2104">AMOUNT_DISCOUNT</text><text fill="#000000" font-family="sans-serif" font-size="11" lengthAdjust="spacingAndGlyphs" textLength="116" x="356.146" y="730.0151">PERCENT_DISCOUNT</text><text fill="#000000" font-family="sans-serif" font-size="11" lengthAdjust="spacingAndGlyphs" textLength="97" x="356.146" y="742.8198">NONE_DISCOUNT</text><line style="stroke: #A80036; stroke-width: 1.5;" x1="351.146" x2="477.146" y1="749.4141" y2="749.4141"/><!--MD5=[e69084ab16b022bdbef99762ea85e9d6]
class Movie--><rect fill="#FEFECE" filter="url(#fqwa2spilsi6)" height="214.4609" id="Movie" style="stroke: #A80036; stroke-width: 1.5;" width="301" x="244.646" y="365"/><ellipse cx="373.396" cy="381" fill="#ADD1B2" rx="11" ry="11" style="stroke: #A80036; stroke-width: 1.0;"/><path d="M375.7397,376.6719 L375.9116,376.75 C376.1304,376.4375 376.3335,376.3438 376.6304,376.3438 C376.9272,376.3438 377.2085,376.4844 377.3647,376.75 C377.4585,376.9063 377.4741,377.0313 377.4741,377.4688 L377.4741,378.8906 C377.4741,379.3125 377.4429,379.5 377.3335,379.6563 C377.1616,379.875 376.896,380.0156 376.6304,380.0156 C376.4116,380.0156 376.1772,379.9063 376.0366,379.7656 C375.896,379.6406 375.8647,379.5156 375.8022,379.1094 C375.7085,378.7031 375.5366,378.4844 375.0522,378.2031 C374.5835,377.9531 373.9741,377.7969 373.396,377.7969 C371.6616,377.7969 370.4116,379.1094 370.4116,380.8906 L370.4116,381.9844 C370.4116,383.6875 371.7085,384.7813 373.7554,384.7813 C374.521,384.7813 375.2085,384.6563 375.6304,384.3906 C375.8179,384.2969 375.8179,384.2969 376.271,383.8125 C376.4585,383.625 376.6616,383.5469 376.8804,383.5469 C377.3491,383.5469 377.7397,383.9375 377.7397,384.3906 C377.7397,384.7813 377.4116,385.2344 376.8335,385.6406 C376.0835,386.1875 374.9272,386.4844 373.7085,386.4844 C370.8179,386.4844 368.7085,384.5938 368.7085,382.0156 L368.7085,380.8906 C368.7085,378.1719 370.7085,376.0938 373.3335,376.0938 C374.2085,376.0938 374.8022,376.2344 375.7397,376.6719 Z "/><text fill="#000000" font-family="sans-serif" font-size="12" lengthAdjust="spacingAndGlyphs" textLength="35" x="393.896" y="385.1543">Movie</text><line style="stroke: #A80036; stroke-width: 1.5;" x1="245.646" x2="544.646" y1="397" y2="397"/><rect fill="none" height="6" style="stroke: #C82930; stroke-width: 1.0;" width="6" x="252.646" y="405"/><text fill="#000000" font-family="sans-serif" font-size="11" lengthAdjust="spacingAndGlyphs" textLength="128" x="264.646" y="411.2104">movieType: MovieType</text><rect fill="none" height="6" style="stroke: #C82930; stroke-width: 1.0;" width="6" x="252.646" y="417.8047"/><text fill="#000000" font-family="sans-serif" font-size="11" lengthAdjust="spacingAndGlyphs" textLength="135" x="264.646" y="424.0151">discountAmount: Money</text><rect fill="none" height="6" style="stroke: #C82930; stroke-width: 1.0;" width="6" x="252.646" y="430.6094"/><text fill="#000000" font-family="sans-serif" font-size="11" lengthAdjust="spacingAndGlyphs" textLength="143" x="264.646" y="436.8198">discountPercent: number</text><rect fill="none" height="6" style="stroke: #C82930; stroke-width: 1.0;" width="6" x="252.646" y="443.4141"/><text fill="#000000" font-family="sans-serif" font-size="11" lengthAdjust="spacingAndGlyphs" textLength="62" x="264.646" y="449.6245">title: string</text><rect fill="none" height="6" style="stroke: #C82930; stroke-width: 1.0;" width="6" x="252.646" y="456.2188"/><text fill="#000000" font-family="sans-serif" font-size="11" lengthAdjust="spacingAndGlyphs" textLength="123" x="264.646" y="462.4292">runningTime: number</text><rect fill="none" height="6" style="stroke: #C82930; stroke-width: 1.0;" width="6" x="252.646" y="469.0234"/><text fill="#000000" font-family="sans-serif" font-size="11" lengthAdjust="spacingAndGlyphs" textLength="62" x="264.646" y="475.2339">fee: Money</text><rect fill="none" height="6" style="stroke: #C82930; stroke-width: 1.0;" width="6" x="252.646" y="481.8281"/><text fill="#000000" font-family="sans-serif" font-size="11" lengthAdjust="spacingAndGlyphs" textLength="226" x="264.646" y="488.0386">discountConditions: DiscountCondition[]</text><line style="stroke: #A80036; stroke-width: 1.5;" x1="245.646" x2="544.646" y1="494.6328" y2="494.6328"/><ellipse cx="255.646" cy="505.6328" fill="#84BE84" rx="3" ry="3" style="stroke: #038048; stroke-width: 1.0;"/><text fill="#000000" font-family="sans-serif" font-size="11" lengthAdjust="spacingAndGlyphs" textLength="275" x="264.646" y="508.8433">calculateMovieFee(screening: Screening): Money</text><rect fill="#F24D5C" height="6" style="stroke: #C82930; stroke-width: 1.0;" width="6" x="252.646" y="515.4375"/><text fill="#000000" font-family="sans-serif" font-size="11" lengthAdjust="spacingAndGlyphs" textLength="265" x="264.646" y="521.6479">isDiscountAble(screening: Screening): boolean</text><rect fill="#F24D5C" height="6" style="stroke: #C82930; stroke-width: 1.0;" width="6" x="252.646" y="528.2422"/><text fill="#000000" font-family="sans-serif" font-size="11" lengthAdjust="spacingAndGlyphs" textLength="200" x="264.646" y="534.4526">caclculateDiscountAmount(): Money</text><rect fill="#F24D5C" height="6" style="stroke: #C82930; stroke-width: 1.0;" width="6" x="252.646" y="541.0469"/><text fill="#000000" font-family="sans-serif" font-size="11" lengthAdjust="spacingAndGlyphs" textLength="243" x="264.646" y="547.2573">caclculateAmountDiscountAmount(): Money</text><rect fill="#F24D5C" height="6" style="stroke: #C82930; stroke-width: 1.0;" width="6" x="252.646" y="553.8516"/><text fill="#000000" font-family="sans-serif" font-size="11" lengthAdjust="spacingAndGlyphs" textLength="243" x="264.646" y="560.062">caclculatePercentDiscountAmount(): Money</text><rect fill="#F24D5C" height="6" style="stroke: #C82930; stroke-width: 1.0;" width="6" x="252.646" y="566.6563"/><text fill="#000000" font-family="sans-serif" font-size="11" lengthAdjust="spacingAndGlyphs" textLength="229" x="264.646" y="572.8667">caclculateNoneDiscountAmount(): Money</text><!--MD5=[fa5b27f77fe197a60cf8f352dcfe1889]
class Screening--><rect fill="#FEFECE" filter="url(#fqwa2spilsi6)" height="137.6328" id="Screening" style="stroke: #A80036; stroke-width: 1.5;" width="415" x="187.646" y="167"/><ellipse cx="359.396" cy="183" fill="#ADD1B2" rx="11" ry="11" style="stroke: #A80036; stroke-width: 1.0;"/><path d="M361.7397,178.6719 L361.9116,178.75 C362.1304,178.4375 362.3335,178.3438 362.6304,178.3438 C362.9272,178.3438 363.2085,178.4844 363.3647,178.75 C363.4585,178.9063 363.4741,179.0313 363.4741,179.4688 L363.4741,180.8906 C363.4741,181.3125 363.4429,181.5 363.3335,181.6563 C363.1616,181.875 362.896,182.0156 362.6304,182.0156 C362.4116,182.0156 362.1772,181.9063 362.0366,181.7656 C361.896,181.6406 361.8647,181.5156 361.8022,181.1094 C361.7085,180.7031 361.5366,180.4844 361.0522,180.2031 C360.5835,179.9531 359.9741,179.7969 359.396,179.7969 C357.6616,179.7969 356.4116,181.1094 356.4116,182.8906 L356.4116,183.9844 C356.4116,185.6875 357.7085,186.7813 359.7554,186.7813 C360.521,186.7813 361.2085,186.6563 361.6304,186.3906 C361.8179,186.2969 361.8179,186.2969 362.271,185.8125 C362.4585,185.625 362.6616,185.5469 362.8804,185.5469 C363.3491,185.5469 363.7397,185.9375 363.7397,186.3906 C363.7397,186.7813 363.4116,187.2344 362.8335,187.6406 C362.0835,188.1875 360.9272,188.4844 359.7085,188.4844 C356.8179,188.4844 354.7085,186.5938 354.7085,184.0156 L354.7085,182.8906 C354.7085,180.1719 356.7085,178.0938 359.3335,178.0938 C360.2085,178.0938 360.8022,178.2344 361.7397,178.6719 Z "/><text fill="#000000" font-family="sans-serif" font-size="12" lengthAdjust="spacingAndGlyphs" textLength="63" x="379.896" y="187.1543">Screening</text><line style="stroke: #A80036; stroke-width: 1.5;" x1="188.646" x2="601.646" y1="199" y2="199"/><rect fill="none" height="6" style="stroke: #C82930; stroke-width: 1.0;" width="6" x="195.646" y="207"/><text fill="#000000" font-family="sans-serif" font-size="11" lengthAdjust="spacingAndGlyphs" textLength="74" x="207.646" y="213.2104">movie: Movie</text><rect fill="none" height="6" style="stroke: #C82930; stroke-width: 1.0;" width="6" x="195.646" y="219.8047"/><text fill="#000000" font-family="sans-serif" font-size="11" lengthAdjust="spacingAndGlyphs" textLength="107" x="207.646" y="226.0151">sequence: number</text><rect fill="none" height="6" style="stroke: #C82930; stroke-width: 1.0;" width="6" x="195.646" y="232.6094"/><text fill="#000000" font-family="sans-serif" font-size="11" lengthAdjust="spacingAndGlyphs" textLength="118" x="207.646" y="238.8198">whenScreened: Date</text><line style="stroke: #A80036; stroke-width: 1.5;" x1="188.646" x2="601.646" y1="245.4141" y2="245.4141"/><ellipse cx="198.646" cy="256.4141" fill="#84BE84" rx="3" ry="3" style="stroke: #038048; stroke-width: 1.0;"/><text fill="#000000" font-family="sans-serif" font-size="11" lengthAdjust="spacingAndGlyphs" textLength="389" x="207.646" y="259.6245">reserve(customer: Customer, audienceCount: number): Reservation</text><ellipse cx="198.646" cy="269.2188" fill="#84BE84" rx="3" ry="3" style="stroke: #038048; stroke-width: 1.0;"/><text fill="#000000" font-family="sans-serif" font-size="11" lengthAdjust="spacingAndGlyphs" textLength="134" x="207.646" y="272.4292">getSequence(): number</text><ellipse cx="198.646" cy="282.0234" fill="#84BE84" rx="3" ry="3" style="stroke: #038048; stroke-width: 1.0;"/><text fill="#000000" font-family="sans-serif" font-size="11" lengthAdjust="spacingAndGlyphs" textLength="144" x="207.646" y="285.2339">getWhenScreened(): Date</text><rect fill="#F24D5C" height="6" style="stroke: #C82930; stroke-width: 1.0;" width="6" x="195.646" y="291.8281"/><text fill="#000000" font-family="sans-serif" font-size="11" lengthAdjust="spacingAndGlyphs" textLength="258" x="207.646" y="298.0386">calculateFee(audienceCount: number): Money</text><!--MD5=[fb6547c0cf79da1af610e0229b9f01c4]
class DiscountCondition--><rect fill="#FEFECE" filter="url(#fqwa2spilsi6)" height="60.8047" id="DiscountCondition" style="stroke: #A80036; stroke-width: 1.5;" width="282" x="652.146" y="683.5"/><ellipse cx="732.396" cy="699.5" fill="#B4A7E5" rx="11" ry="11" style="stroke: #A80036; stroke-width: 1.0;"/><path d="M733.3491,696.2813 L733.3491,702.7969 L735.0679,702.7969 C735.521,702.7969 735.6616,702.8281 735.8335,702.9531 C736.0679,703.125 736.1773,703.375 736.1773,703.6563 C736.1773,704.2188 735.8179,704.5 735.0679,704.5 L729.9273,704.5 C729.521,704.5 729.3179,704.4531 729.1616,704.3281 C728.9429,704.1719 728.8023,703.9063 728.8023,703.6563 C728.8023,703.3594 728.9585,703.0781 729.2085,702.9219 C729.3648,702.8125 729.4898,702.7969 729.9273,702.7969 L731.646,702.7969 L731.646,696.2813 L729.9273,696.2813 C729.5054,696.2813 729.3179,696.25 729.1616,696.1406 C728.9429,695.9688 728.8023,695.7188 728.8023,695.4375 C728.8023,695.1563 728.9585,694.8594 729.2085,694.7031 C729.3648,694.6094 729.4898,694.5938 729.9273,694.5938 L735.0679,694.5938 C735.521,694.5938 735.6616,694.625 735.8335,694.7344 C736.0679,694.9063 736.1773,695.1719 736.1773,695.4375 C736.1773,695.7344 736.0366,696.0156 735.771,696.1719 C735.646,696.25 735.4585,696.2813 735.0679,696.2813 Z "/><text fill="#000000" font-family="sans-serif" font-size="12" font-style="italic" lengthAdjust="spacingAndGlyphs" textLength="113" x="752.896" y="703.6543">DiscountCondition</text><line style="stroke: #A80036; stroke-width: 1.5;" x1="653.146" x2="933.146" y1="715.5" y2="715.5"/><line style="stroke: #A80036; stroke-width: 1.5;" x1="653.146" x2="933.146" y1="723.5" y2="723.5"/><ellipse cx="663.146" cy="734.5" fill="#84BE84" rx="3" ry="3" style="stroke: #038048; stroke-width: 1.0;"/><text fill="#000000" font-family="sans-serif" font-size="11" lengthAdjust="spacingAndGlyphs" textLength="256" x="672.146" y="737.7104">isSatisfiedBy(screening: Screening): boolean</text><!--MD5=[3387774d7316174022149a2e55ddfc5c]
class PeriodCondition--><rect fill="#FEFECE" filter="url(#fqwa2spilsi6)" height="99.2188" id="PeriodCondition" style="stroke: #A80036; stroke-width: 1.5;" width="282" x="828.146" y="849"/><ellipse cx="915.396" cy="865" fill="#ADD1B2" rx="11" ry="11" style="stroke: #A80036; stroke-width: 1.0;"/><path d="M917.7398,860.6719 L917.9116,860.75 C918.1304,860.4375 918.3335,860.3438 918.6304,860.3438 C918.9273,860.3438 919.2085,860.4844 919.3648,860.75 C919.4585,860.9063 919.4741,861.0313 919.4741,861.4688 L919.4741,862.8906 C919.4741,863.3125 919.4429,863.5 919.3335,863.6563 C919.1616,863.875 918.896,864.0156 918.6304,864.0156 C918.4116,864.0156 918.1773,863.9063 918.0366,863.7656 C917.896,863.6406 917.8648,863.5156 917.8023,863.1094 C917.7085,862.7031 917.5366,862.4844 917.0523,862.2031 C916.5835,861.9531 915.9741,861.7969 915.396,861.7969 C913.6616,861.7969 912.4116,863.1094 912.4116,864.8906 L912.4116,865.9844 C912.4116,867.6875 913.7085,868.7813 915.7554,868.7813 C916.521,868.7813 917.2085,868.6563 917.6304,868.3906 C917.8179,868.2969 917.8179,868.2969 918.271,867.8125 C918.4585,867.625 918.6616,867.5469 918.8804,867.5469 C919.3491,867.5469 919.7398,867.9375 919.7398,868.3906 C919.7398,868.7813 919.4116,869.2344 918.8335,869.6406 C918.0835,870.1875 916.9273,870.4844 915.7085,870.4844 C912.8179,870.4844 910.7085,868.5938 910.7085,866.0156 L910.7085,864.8906 C910.7085,862.1719 912.7085,860.0938 915.3335,860.0938 C916.2085,860.0938 916.8023,860.2344 917.7398,860.6719 Z "/><text fill="#000000" font-family="sans-serif" font-size="12" lengthAdjust="spacingAndGlyphs" textLength="99" x="935.896" y="869.1543">PeriodCondition</text><line style="stroke: #A80036; stroke-width: 1.5;" x1="829.146" x2="1109.146" y1="881" y2="881"/><rect fill="none" height="6" style="stroke: #C82930; stroke-width: 1.0;" width="6" x="836.146" y="889"/><text fill="#000000" font-family="sans-serif" font-size="11" lengthAdjust="spacingAndGlyphs" textLength="114" x="848.146" y="895.2104">dayOfWeek: number</text><rect fill="none" height="6" style="stroke: #C82930; stroke-width: 1.0;" width="6" x="836.146" y="901.8047"/><text fill="#000000" font-family="sans-serif" font-size="11" lengthAdjust="spacingAndGlyphs" textLength="89" x="848.146" y="908.0151">startTime: Date</text><rect fill="none" height="6" style="stroke: #C82930; stroke-width: 1.0;" width="6" x="836.146" y="914.6094"/><text fill="#000000" font-family="sans-serif" font-size="11" lengthAdjust="spacingAndGlyphs" textLength="83" x="848.146" y="920.8198">endTime: Date</text><line style="stroke: #A80036; stroke-width: 1.5;" x1="829.146" x2="1109.146" y1="927.4141" y2="927.4141"/><ellipse cx="839.146" cy="938.4141" fill="#84BE84" rx="3" ry="3" style="stroke: #038048; stroke-width: 1.0;"/><text fill="#000000" font-family="sans-serif" font-size="11" lengthAdjust="spacingAndGlyphs" textLength="256" x="848.146" y="941.6245">isSatisfiedBy(screening: Screening): boolean</text><!--MD5=[d9cfa9873d7e4c13423254ca3a85e4a5]
class SequenceCondition--><rect fill="#FEFECE" filter="url(#fqwa2spilsi6)" height="73.6094" id="SequenceCondition" style="stroke: #A80036; stroke-width: 1.5;" width="282" x="493.146" y="861.5"/><ellipse cx="568.896" cy="877.5" fill="#ADD1B2" rx="11" ry="11" style="stroke: #A80036; stroke-width: 1.0;"/><path d="M571.2398,873.1719 L571.4116,873.25 C571.6304,872.9375 571.8335,872.8438 572.1304,872.8438 C572.4273,872.8438 572.7085,872.9844 572.8648,873.25 C572.9585,873.4063 572.9741,873.5313 572.9741,873.9688 L572.9741,875.3906 C572.9741,875.8125 572.9429,876 572.8335,876.1563 C572.6616,876.375 572.396,876.5156 572.1304,876.5156 C571.9116,876.5156 571.6773,876.4063 571.5366,876.2656 C571.396,876.1406 571.3648,876.0156 571.3023,875.6094 C571.2085,875.2031 571.0366,874.9844 570.5523,874.7031 C570.0835,874.4531 569.4741,874.2969 568.896,874.2969 C567.1616,874.2969 565.9116,875.6094 565.9116,877.3906 L565.9116,878.4844 C565.9116,880.1875 567.2085,881.2813 569.2554,881.2813 C570.021,881.2813 570.7085,881.1563 571.1304,880.8906 C571.3179,880.7969 571.3179,880.7969 571.771,880.3125 C571.9585,880.125 572.1616,880.0469 572.3804,880.0469 C572.8491,880.0469 573.2398,880.4375 573.2398,880.8906 C573.2398,881.2813 572.9116,881.7344 572.3335,882.1406 C571.5835,882.6875 570.4273,882.9844 569.2085,882.9844 C566.3179,882.9844 564.2085,881.0938 564.2085,878.5156 L564.2085,877.3906 C564.2085,874.6719 566.2085,872.5938 568.8335,872.5938 C569.7085,872.5938 570.3023,872.7344 571.2398,873.1719 Z "/><text fill="#000000" font-family="sans-serif" font-size="12" lengthAdjust="spacingAndGlyphs" textLength="122" x="589.396" y="881.6543">SequenceCondition</text><line style="stroke: #A80036; stroke-width: 1.5;" x1="494.146" x2="774.146" y1="893.5" y2="893.5"/><rect fill="none" height="6" style="stroke: #C82930; stroke-width: 1.0;" width="6" x="501.146" y="901.5"/><text fill="#000000" font-family="sans-serif" font-size="11" lengthAdjust="spacingAndGlyphs" textLength="107" x="513.146" y="907.7104">sequence: number</text><line style="stroke: #A80036; stroke-width: 1.5;" x1="494.146" x2="774.146" y1="914.3047" y2="914.3047"/><ellipse cx="504.146" cy="925.3047" fill="#84BE84" rx="3" ry="3" style="stroke: #038048; stroke-width: 1.0;"/><text fill="#000000" font-family="sans-serif" font-size="11" lengthAdjust="spacingAndGlyphs" textLength="256" x="513.146" y="928.5151">isSatisfiedBy(screening: Screening): boolean</text><!--MD5=[f10db535786092e9f64cc5487298fd3d]
reverse link DiscountCondition to PeriodCondition--><path d="M835.864,759.295 C861.983,786.379 895.418,821.049 922.266,848.8883 " fill="none" id="DiscountCondition&lt;-PeriodCondition" style="stroke: #A80036; stroke-width: 1.0; stroke-dasharray: 7.0,7.0;"/><polygon fill="none" points="830.66,763.983,821.816,744.728,840.738,754.265,830.66,763.983" style="stroke: #A80036; stroke-width: 1.0;"/><!--MD5=[b6f68802e2fe0ab73d04375e226265b5]
reverse link DiscountCondition to SequenceCondition--><path d="M753.927,760.016 C726.781,791.174 691.12,832.106 665.786,861.1839 " fill="none" id="DiscountCondition&lt;-SequenceCondition" style="stroke: #A80036; stroke-width: 1.0; stroke-dasharray: 7.0,7.0;"/><polygon fill="none" points="748.831,755.209,767.246,744.728,759.386,764.406,748.831,755.209" style="stroke: #A80036; stroke-width: 1.0;"/><!--MD5=[b2a5c62ee17020f07685cec7b7db6df8]
reverse link Reservation to Customer--><path d="M201.518,117.543 C189.874,132.852 178.525,149.874 170.146,167 C122.258,264.889 101.5877,395.373 94.8361,447.776 " fill="none" id="Reservation&lt;-Customer" style="stroke: #A80036; stroke-width: 1.0;"/><polygon fill="#A80036" points="209.593,107.238,202.7437,109.4935,202.1914,116.6835,209.0407,114.4279,209.593,107.238" style="stroke: #A80036; stroke-width: 1.0;"/><!--MD5=[d6f262f12d648c2666cae04541bf4aa4]
reverse link Reservation to Screening--><path d="M289.448,117.864 C301.336,133.633 314.93,150.785 328.357,166.976 " fill="none" id="Reservation&lt;-Screening" style="stroke: #A80036; stroke-width: 1.0;"/><polygon fill="#A80036" points="281.513,107.197,281.8847,114.3985,288.6752,116.8253,288.3035,109.6237,281.513,107.197" style="stroke: #A80036; stroke-width: 1.0;"/><!--MD5=[c68cec2d08a0c756de089f5d87b96330]
reverse link Screening to Reservation--><path d="M345.936,156.594 C332.763,139.784 318.545,122.491 305.263,107.197 " fill="none" id="Screening&lt;-Reservation" style="stroke: #A80036; stroke-width: 1.0;"/><polygon fill="#A80036" points="353.984,166.976,353.4695,159.7833,346.6322,157.4918,347.1467,164.6845,353.984,166.976" style="stroke: #A80036; stroke-width: 1.0;"/><!--MD5=[39dd7fb721f0a429b8062e1ef2dc64c3]
reverse link Reservation to Money--><path d="M166.597,115.424 C147.632,130.569 128.873,148.05 114.146,167 C55.2754,242.757 47.6657,271.064 28.1464,365 C8.7962,458.122 -9.6732,491.731 28.1464,579 C37.7518,601.164 53.0287,621.342 70.0923,638.929 " fill="none" id="Reservation&lt;-Money" style="stroke: #A80036; stroke-width: 1.0;"/><polygon fill="#A80036" points="177.13,107.256,169.9374,107.7716,167.6469,114.6093,174.8396,114.0937,177.13,107.256" style="stroke: #A80036; stroke-width: 1.0;"/><!--MD5=[d4ffe86c538f73f079e4b432620d3bef]
reverse link Movie to MovieType--><path d="M404.617,592.634 C406.841,620.723 409.067,648.839 410.808,670.825 " fill="none" id="Movie&lt;-MovieType" style="stroke: #A80036; stroke-width: 1.0;"/><polygon fill="#A80036" points="403.563,579.316,400.0489,585.6129,404.5098,591.2786,408.0239,584.9817,403.563,579.316" style="stroke: #A80036; stroke-width: 1.0;"/><!--MD5=[7114dc62aa61f1f979cee9d07f4dfd9b]
reverse link Movie to Money--><path d="M286.673,589.221 C270.937,606.081 255.108,623.041 240.43,638.768 " fill="none" id="Movie&lt;-Money" style="stroke: #A80036; stroke-width: 1.0;"/><polygon fill="#A80036" points="295.919,579.316,288.9009,580.9733,287.7315,588.089,294.7496,586.4316,295.919,579.316" style="stroke: #A80036; stroke-width: 1.0;"/><!--MD5=[38159cfd20a3d01acff0b0b23942b510]
reverse link Movie to DiscountCondition--><path d="M557.066,570.64 C624.302,611.184 697.393,655.259 744.154,683.457 " fill="none" id="Movie&lt;-DiscountCondition" style="stroke: #A80036; stroke-width: 1.0;"/><polygon fill="#A80036" points="545.897,563.905,548.9694,570.4289,556.173,570.102,553.1007,563.5782,545.897,563.905" style="stroke: #A80036; stroke-width: 1.0;"/><!--MD5=[583467abdeec2d311a672525fbe0a9b9]
reverse link Movie to Screening--><path d="M408.644,351.449 C408.608,335.621 408.243,319.855 407.549,305.312 " fill="none" id="Movie&lt;-Screening" style="stroke: #A80036; stroke-width: 1.0;"/><polygon fill="#A80036" points="408.596,364.733,412.6177,358.7475,408.6395,352.7331,404.6178,358.7185,408.596,364.733" style="stroke: #A80036; stroke-width: 1.0;"/><!--MD5=[88f6fb7f013dd115006957351a8e9723]
reverse link Screening to Movie--><path d="M382.927,318.699 C382.467,333.569 382.306,349.277 382.444,364.733 " fill="none" id="Screening&lt;-Movie" style="stroke: #A80036; stroke-width: 1.0;"/><polygon fill="#A80036" points="383.433,305.312,379.2091,311.1565,382.9794,317.3034,387.2033,311.4589,383.433,305.312" style="stroke: #A80036; stroke-width: 1.0;"/><!--MD5=[7f35b6f28088c12d4f6bb0e95957d027]
reverse link Screening to Customer--><path d="M237.373,311.944 C211.832,327.599 186.723,345.387 165.146,365 C138.691,389.048 116.79,424.442 104.0834,447.606 " fill="none" id="Screening&lt;-Customer" style="stroke: #A80036; stroke-width: 1.0;"/><polygon fill="#A80036" points="248.73,305.136,241.5272,304.7903,238.4378,311.3061,245.6406,311.6518,248.73,305.136" style="stroke: #A80036; stroke-width: 1.0;"/><!--MD5=[0e44eefa85f7d41020a26d0e9d3d82cf]
reverse link Screening to Money--><path d="M270.542,313.87 C253.78,328.961 238.486,346.067 227.146,365 C176.759,449.128 167.511,564.294 167.642,638.675 " fill="none" id="Screening&lt;-Money" style="stroke: #A80036; stroke-width: 1.0;"/><polygon fill="#A80036" points="280.562,305.219,273.4065,306.1124,271.479,313.0611,278.6345,312.1677,280.562,305.219" style="stroke: #A80036; stroke-width: 1.0;"/><!--MD5=[d0fa2538dcf05f1b31919df43b72669a]
reverse link DiscountCondition to Screening--><path d="M781.859,670.616 C761.174,599.801 711.221,456.225 625.146,365 C603.35,341.9 576.437,321.908 548.791,305.04 " fill="none" id="DiscountCondition&lt;-Screening" style="stroke: #A80036; stroke-width: 1.0;"/><polygon fill="#A80036" points="785.496,683.368,787.6969,676.501,782.2046,671.8282,780.0037,678.6953,785.496,683.368" style="stroke: #A80036; stroke-width: 1.0;"/><!--MD5=[c3fe0045adb0b9a29d28c0b772884ede]
reverse link PeriodCondition to Screening--><path d="M975.554,835.589 C978.685,781.605 977.246,702.257 951.146,639 C889.735,490.159 845.225,458.506 714.146,365 C680.505,341.002 641.721,320.62 603.039,303.655 " fill="none" id="PeriodCondition&lt;-Screening" style="stroke: #A80036; stroke-width: 1.0;"/><polygon fill="#A80036" points="974.672,848.7422,979.0646,843.0233,975.475,836.7691,971.0825,842.488,974.672,848.7422" style="stroke: #A80036; stroke-width: 1.0;"/><!--MD5=[4338201ae531b0c5c74cd4579d448b1b]
reverse link SequenceCondition to Screening--><path d="M632.355,848.1802 C627.396,732.369 610.574,446.667 563.146,365 C549.98,342.328 531.063,322.336 510.635,305.295 " fill="none" id="SequenceCondition&lt;-Screening" style="stroke: #A80036; stroke-width: 1.0;"/><polygon fill="#A80036" points="632.902,861.4361,636.6511,855.2762,632.407,849.4463,628.6579,855.6062,632.902,861.4361" style="stroke: #A80036; stroke-width: 1.0;"/><!--MD5=[d5fca5cca066908abbc5531bba8c9f4f]
@startuml
class Customer
class Money {
    -amount: number
    +plus(amount: Money): Money
    +minus(amount: Money): Money
    +times(percent: number): Money
    +isLessThan(other: Money): boolean
    +isGreaterThanOrEqual(other: Money): boolean
    +{static} ZERO: Money
    +{static} wons(amount: number): Money
}
class Reservation {
    -customer: Customer
    -screening: Screening
    -fee: Money
    -audienceCount: number
}
enum MovieType {
    AMOUNT_DISCOUNT
    PERCENT_DISCOUNT
    NONE_DISCOUNT
}
class Movie {
    -movieType: MovieType
    -discountAmount: Money
    -discountPercent: number
    -title: string
    -runningTime: number
    -fee: Money
    -discountConditions: DiscountCondition[]
    +calculateMovieFee(screening: Screening): Money
    -isDiscountAble(screening: Screening): boolean
    -caclculateDiscountAmount(): Money
    -caclculateAmountDiscountAmount(): Money
    -caclculatePercentDiscountAmount(): Money
    -caclculateNoneDiscountAmount(): Money
}
class Screening {
    -movie: Movie
    -sequence: number
    -whenScreened: Date
    +reserve(customer: Customer, audienceCount: number): Reservation
    +getSequence(): number
    +getWhenScreened(): Date
    -calculateFee(audienceCount: number): Money
}
interface DiscountCondition {
    +isSatisfiedBy(screening: Screening): boolean
}
class PeriodCondition implements DiscountCondition {
    -dayOfWeek: number
    -startTime: Date
    -endTime: Date
    +isSatisfiedBy(screening: Screening): boolean
}
class SequenceCondition implements DiscountCondition {
    -sequence: number
    +isSatisfiedBy(screening: Screening): boolean
}
Reservation *- - Customer
Reservation *- - Screening
Reservation *- - Money
Movie *- - MovieType
Movie *- - Money
Movie *- - DiscountCondition
Movie *- - Screening
Screening *- - Movie
Screening *- - Customer
Screening *- - Reservation
Screening *- - Money
DiscountCondition *- - Screening
PeriodCondition *- - Screening
SequenceCondition *- - Screening
@enduml

PlantUML version 1.2019.11(Sun Sep 22 10:02:15 UTC 2019)
(GPL source distribution)
Java Runtime: Java(TM) SE Runtime Environment
JVM: Java HotSpot(TM) 64-Bit Server VM
Java Version: 1.7.0_25-b15
Operating System: Linux
Default Encoding: UTF-8
Language: en
Country: US
--></g></svg>