<?xml version="1.0" encoding="UTF-8" standalone="no"?><svg xmlns="http://www.w3.org/2000/svg" xmlns:xlink="http://www.w3.org/1999/xlink" contentScriptType="application/ecmascript" contentStyleType="text/css" height="933px" preserveAspectRatio="none" style="width:845px;height:933px;" version="1.1" viewBox="0 0 845 933" width="845px" zoomAndPan="magnify"><defs><filter height="300%" id="f1cmz0bus081g5" width="300%" x="-1" y="-1"><feGaussianBlur result="blurOut" stdDeviation="2.0"/><feColorMatrix in="blurOut" result="blurOut2" type="matrix" values="0 0 0 0 0 0 0 0 0 0 0 0 0 0 0 0 0 0 .4 0"/><feOffset dx="4.0" dy="4.0" in="blurOut2" result="blurOut3"/><feBlend in="SourceGraphic" in2="blurOut3" mode="normal"/></filter></defs><g><!--MD5=[2ce0c9fb7f55b1e256ab28a8ea6b25ec]
class Customer--><rect fill="#FEFECE" filter="url(#f1cmz0bus081g5)" height="48" id="Customer" style="stroke: #A80036; stroke-width: 1.5;" width="92" x="61" y="448"/><ellipse cx="76" cy="464" fill="#ADD1B2" rx="11" ry="11" style="stroke: #A80036; stroke-width: 1.0;"/><path d="M78.3438,459.6719 L78.5156,459.75 C78.7344,459.4375 78.9375,459.3438 79.2344,459.3438 C79.5313,459.3438 79.8125,459.4844 79.9688,459.75 C80.0625,459.9063 80.0781,460.0313 80.0781,460.4688 L80.0781,461.8906 C80.0781,462.3125 80.0469,462.5 79.9375,462.6563 C79.7656,462.875 79.5,463.0156 79.2344,463.0156 C79.0156,463.0156 78.7813,462.9063 78.6406,462.7656 C78.5,462.6406 78.4688,462.5156 78.4063,462.1094 C78.3125,461.7031 78.1406,461.4844 77.6563,461.2031 C77.1875,460.9531 76.5781,460.7969 76,460.7969 C74.2656,460.7969 73.0156,462.1094 73.0156,463.8906 L73.0156,464.9844 C73.0156,466.6875 74.3125,467.7813 76.3594,467.7813 C77.125,467.7813 77.8125,467.6563 78.2344,467.3906 C78.4219,467.2969 78.4219,467.2969 78.875,466.8125 C79.0625,466.625 79.2656,466.5469 79.4844,466.5469 C79.9531,466.5469 80.3438,466.9375 80.3438,467.3906 C80.3438,467.7813 80.0156,468.2344 79.4375,468.6406 C78.6875,469.1875 77.5313,469.4844 76.3125,469.4844 C73.4219,469.4844 71.3125,467.5938 71.3125,465.0156 L71.3125,463.8906 C71.3125,461.1719 73.3125,459.0938 75.9375,459.0938 C76.8125,459.0938 77.4063,459.2344 78.3438,459.6719 Z "/><text fill="#000000" font-family="sans-serif" font-size="12" lengthAdjust="spacingAndGlyphs" textLength="60" x="90" y="468.1543">Customer</text><line style="stroke: #A80036; stroke-width: 1.5;" x1="62" x2="152" y1="480" y2="480"/><line style="stroke: #A80036; stroke-width: 1.5;" x1="62" x2="152" y1="488" y2="488"/><!--MD5=[08dbe06e87f91eb667838fe2f259c34a]
class Money--><rect fill="#FEFECE" filter="url(#f1cmz0bus081g5)" height="150.4375" id="Money" style="stroke: #A80036; stroke-width: 1.5;" width="288" x="6" y="639"/><ellipse cx="125.75" cy="655" fill="#ADD1B2" rx="11" ry="11" style="stroke: #A80036; stroke-width: 1.0;"/><path d="M128.0938,650.6719 L128.2656,650.75 C128.4844,650.4375 128.6875,650.3438 128.9844,650.3438 C129.2813,650.3438 129.5625,650.4844 129.7188,650.75 C129.8125,650.9063 129.8281,651.0313 129.8281,651.4688 L129.8281,652.8906 C129.8281,653.3125 129.7969,653.5 129.6875,653.6563 C129.5156,653.875 129.25,654.0156 128.9844,654.0156 C128.7656,654.0156 128.5313,653.9063 128.3906,653.7656 C128.25,653.6406 128.2188,653.5156 128.1563,653.1094 C128.0625,652.7031 127.8906,652.4844 127.4063,652.2031 C126.9375,651.9531 126.3281,651.7969 125.75,651.7969 C124.0156,651.7969 122.7656,653.1094 122.7656,654.8906 L122.7656,655.9844 C122.7656,657.6875 124.0625,658.7813 126.1094,658.7813 C126.875,658.7813 127.5625,658.6563 127.9844,658.3906 C128.1719,658.2969 128.1719,658.2969 128.625,657.8125 C128.8125,657.625 129.0156,657.5469 129.2344,657.5469 C129.7031,657.5469 130.0938,657.9375 130.0938,658.3906 C130.0938,658.7813 129.7656,659.2344 129.1875,659.6406 C128.4375,660.1875 127.2813,660.4844 126.0625,660.4844 C123.1719,660.4844 121.0625,658.5938 121.0625,656.0156 L121.0625,654.8906 C121.0625,652.1719 123.0625,650.0938 125.6875,650.0938 C126.5625,650.0938 127.1563,650.2344 128.0938,650.6719 Z "/><text fill="#000000" font-family="sans-serif" font-size="12" lengthAdjust="spacingAndGlyphs" textLength="40" x="146.25" y="659.1543">Money</text><line style="stroke: #A80036; stroke-width: 1.5;" x1="7" x2="293" y1="671" y2="671"/><rect fill="none" height="6" style="stroke: #C82930; stroke-width: 1.0;" width="6" x="14" y="679"/><text fill="#000000" font-family="sans-serif" font-size="11" lengthAdjust="spacingAndGlyphs" textLength="95" x="26" y="685.2104">amount: number</text><ellipse cx="17" cy="694.8047" fill="none" rx="3" ry="3" style="stroke: #038048; stroke-width: 1.0;"/><text fill="#000000" font-family="sans-serif" font-size="11" lengthAdjust="spacingAndGlyphs" text-decoration="underline" textLength="76" x="26" y="698.0151">ZERO: Money</text><line style="stroke: #A80036; stroke-width: 1.5;" x1="7" x2="293" y1="704.6094" y2="704.6094"/><ellipse cx="17" cy="715.6094" fill="#84BE84" rx="3" ry="3" style="stroke: #038048; stroke-width: 1.0;"/><text fill="#000000" font-family="sans-serif" font-size="11" lengthAdjust="spacingAndGlyphs" textLength="163" x="26" y="718.8198">plus(amount: Money): Money</text><ellipse cx="17" cy="728.4141" fill="#84BE84" rx="3" ry="3" style="stroke: #038048; stroke-width: 1.0;"/><text fill="#000000" font-family="sans-serif" font-size="11" lengthAdjust="spacingAndGlyphs" textLength="174" x="26" y="731.6245">minus(amount: Money): Money</text><ellipse cx="17" cy="741.2188" fill="#84BE84" rx="3" ry="3" style="stroke: #038048; stroke-width: 1.0;"/><text fill="#000000" font-family="sans-serif" font-size="11" lengthAdjust="spacingAndGlyphs" textLength="179" x="26" y="744.4292">times(percent: number): Money</text><ellipse cx="17" cy="754.0234" fill="#84BE84" rx="3" ry="3" style="stroke: #038048; stroke-width: 1.0;"/><text fill="#000000" font-family="sans-serif" font-size="11" lengthAdjust="spacingAndGlyphs" textLength="200" x="26" y="757.2339">isLessThan(other: Money): boolean</text><ellipse cx="17" cy="766.8281" fill="#84BE84" rx="3" ry="3" style="stroke: #038048; stroke-width: 1.0;"/><text fill="#000000" font-family="sans-serif" font-size="11" lengthAdjust="spacingAndGlyphs" textLength="262" x="26" y="770.0386">isGreaterThanOrEqual(other: Money): boolean</text><ellipse cx="17" cy="779.6328" fill="#84BE84" rx="3" ry="3" style="stroke: #038048; stroke-width: 1.0;"/><text fill="#000000" font-family="sans-serif" font-size="11" lengthAdjust="spacingAndGlyphs" text-decoration="underline" textLength="177" x="26" y="782.8433">wons(amount: number): Money</text><!--MD5=[9c46470aa33a0c75e6d1dfdefc2f9c22]
class Reservation--><rect fill="#FEFECE" filter="url(#f1cmz0bus081g5)" height="99.2188" id="Reservation" style="stroke: #A80036; stroke-width: 1.5;" width="162" x="156" y="8"/><ellipse cx="196.2" cy="24" fill="#ADD1B2" rx="11" ry="11" style="stroke: #A80036; stroke-width: 1.0;"/><path d="M198.5438,19.6719 L198.7156,19.75 C198.9344,19.4375 199.1375,19.3438 199.4344,19.3438 C199.7313,19.3438 200.0125,19.4844 200.1688,19.75 C200.2625,19.9063 200.2781,20.0313 200.2781,20.4688 L200.2781,21.8906 C200.2781,22.3125 200.2469,22.5 200.1375,22.6563 C199.9656,22.875 199.7,23.0156 199.4344,23.0156 C199.2156,23.0156 198.9813,22.9063 198.8406,22.7656 C198.7,22.6406 198.6688,22.5156 198.6063,22.1094 C198.5125,21.7031 198.3406,21.4844 197.8563,21.2031 C197.3875,20.9531 196.7781,20.7969 196.2,20.7969 C194.4656,20.7969 193.2156,22.1094 193.2156,23.8906 L193.2156,24.9844 C193.2156,26.6875 194.5125,27.7813 196.5594,27.7813 C197.325,27.7813 198.0125,27.6563 198.4344,27.3906 C198.6219,27.2969 198.6219,27.2969 199.075,26.8125 C199.2625,26.625 199.4656,26.5469 199.6844,26.5469 C200.1531,26.5469 200.5438,26.9375 200.5438,27.3906 C200.5438,27.7813 200.2156,28.2344 199.6375,28.6406 C198.8875,29.1875 197.7313,29.4844 196.5125,29.4844 C193.6219,29.4844 191.5125,27.5938 191.5125,25.0156 L191.5125,23.8906 C191.5125,21.1719 193.5125,19.0938 196.1375,19.0938 C197.0125,19.0938 197.6063,19.2344 198.5438,19.6719 Z "/><text fill="#000000" font-family="sans-serif" font-size="12" lengthAdjust="spacingAndGlyphs" textLength="74" x="215.8" y="28.1543">Reservation</text><line style="stroke: #A80036; stroke-width: 1.5;" x1="157" x2="317" y1="40" y2="40"/><rect fill="none" height="6" style="stroke: #C82930; stroke-width: 1.0;" width="6" x="164" y="48"/><text fill="#000000" font-family="sans-serif" font-size="11" lengthAdjust="spacingAndGlyphs" textLength="118" x="176" y="54.2104">customer: Customer</text><rect fill="none" height="6" style="stroke: #C82930; stroke-width: 1.0;" width="6" x="164" y="60.8047"/><text fill="#000000" font-family="sans-serif" font-size="11" lengthAdjust="spacingAndGlyphs" textLength="121" x="176" y="67.0151">screening: Screening</text><rect fill="none" height="6" style="stroke: #C82930; stroke-width: 1.0;" width="6" x="164" y="73.6094"/><text fill="#000000" font-family="sans-serif" font-size="11" lengthAdjust="spacingAndGlyphs" textLength="62" x="176" y="79.8198">fee: Money</text><rect fill="none" height="6" style="stroke: #C82930; stroke-width: 1.0;" width="6" x="164" y="86.4141"/><text fill="#000000" font-family="sans-serif" font-size="11" lengthAdjust="spacingAndGlyphs" textLength="136" x="176" y="92.6245">audienceCount: number</text><line style="stroke: #A80036; stroke-width: 1.5;" x1="157" x2="317" y1="99.2188" y2="99.2188"/><!--MD5=[a6ea7bbe5fa1bb287cba451ba5804a33]
class MovieType--><rect fill="#FEFECE" filter="url(#f1cmz0bus081g5)" height="86.4141" id="MovieType" style="stroke: #A80036; stroke-width: 1.5;" width="128" x="329" y="671"/><ellipse cx="358.4" cy="687" fill="#EB937F" rx="11" ry="11" style="stroke: #A80036; stroke-width: 1.0;"/><path d="M356.6969,687.875 L356.6969,690.2969 L361.0563,690.2969 L361.0563,689.4219 C361.0563,688.9375 361.0875,688.7969 361.1969,688.6406 C361.3688,688.3906 361.6344,688.2813 361.9,688.2813 C362.1813,688.2813 362.4625,688.4375 362.6344,688.6875 C362.7125,688.8438 362.7438,688.9844 362.7438,689.4219 L362.7438,692 L354.7438,692 C354.3531,692 354.1188,691.9531 353.9781,691.8281 C353.7594,691.6719 353.6188,691.4219 353.6188,691.1563 C353.6188,690.8594 353.775,690.5938 354.025,690.4219 C354.1813,690.3125 354.3375,690.2969 354.7438,690.2969 L354.9938,690.2969 L354.9938,683.7813 L354.7438,683.7813 C354.3219,683.7813 354.1344,683.75 353.9781,683.6406 C353.7594,683.4688 353.6188,683.2188 353.6188,682.9375 C353.6188,682.6563 353.775,682.3594 354.025,682.2031 C354.1813,682.1094 354.3063,682.0938 354.7438,682.0938 L362.3688,682.0938 L362.3688,684.6406 C362.3688,685.1094 362.3375,685.25 362.2281,685.4219 C362.0563,685.6406 361.7906,685.7813 361.525,685.7813 C361.2438,685.7813 360.9625,685.625 360.7906,685.375 C360.7125,685.2188 360.6813,685.0469 360.6813,684.6406 L360.6813,683.7813 L356.6969,683.7813 L356.6969,686.1875 L358.15,686.1875 L358.15,686.0625 C358.15,685.6094 358.1813,685.4531 358.2906,685.2813 C358.4625,685.0625 358.7281,684.9219 358.9781,684.9219 C359.4313,684.9219 359.7438,685.2344 359.8063,685.7031 C359.8219,685.8594 359.8219,685.9063 359.8219,686.0625 L359.8219,687.9844 C359.8219,688.4375 359.7906,688.5938 359.6656,688.75 C359.5094,688.9688 359.2438,689.1094 358.9938,689.1094 C358.6969,689.1094 358.4156,688.9531 358.2594,688.7031 C358.1813,688.5469 358.15,688.3906 358.15,687.9844 L358.15,687.875 Z "/><text fill="#000000" font-family="sans-serif" font-size="12" lengthAdjust="spacingAndGlyphs" textLength="64" x="375.6" y="691.1543">MovieType</text><line style="stroke: #A80036; stroke-width: 1.5;" x1="330" x2="456" y1="703" y2="703"/><text fill="#000000" font-family="sans-serif" font-size="11" lengthAdjust="spacingAndGlyphs" textLength="113" x="335" y="717.2104">AMOUNT_DISCOUNT</text><text fill="#000000" font-family="sans-serif" font-size="11" lengthAdjust="spacingAndGlyphs" textLength="116" x="335" y="730.0151">PERCENT_DISCOUNT</text><text fill="#000000" font-family="sans-serif" font-size="11" lengthAdjust="spacingAndGlyphs" textLength="97" x="335" y="742.8198">NONE_DISCOUNT</text><line style="stroke: #A80036; stroke-width: 1.5;" x1="330" x2="456" y1="749.4141" y2="749.4141"/><!--MD5=[e69084ab16b022bdbef99762ea85e9d6]
class Movie--><rect fill="#FEFECE" filter="url(#f1cmz0bus081g5)" height="214.4609" id="Movie" style="stroke: #A80036; stroke-width: 1.5;" width="301" x="259.5" y="365"/><ellipse cx="388.25" cy="381" fill="#ADD1B2" rx="11" ry="11" style="stroke: #A80036; stroke-width: 1.0;"/><path d="M390.5938,376.6719 L390.7656,376.75 C390.9844,376.4375 391.1875,376.3438 391.4844,376.3438 C391.7813,376.3438 392.0625,376.4844 392.2188,376.75 C392.3125,376.9063 392.3281,377.0313 392.3281,377.4688 L392.3281,378.8906 C392.3281,379.3125 392.2969,379.5 392.1875,379.6563 C392.0156,379.875 391.75,380.0156 391.4844,380.0156 C391.2656,380.0156 391.0313,379.9063 390.8906,379.7656 C390.75,379.6406 390.7188,379.5156 390.6563,379.1094 C390.5625,378.7031 390.3906,378.4844 389.9063,378.2031 C389.4375,377.9531 388.8281,377.7969 388.25,377.7969 C386.5156,377.7969 385.2656,379.1094 385.2656,380.8906 L385.2656,381.9844 C385.2656,383.6875 386.5625,384.7813 388.6094,384.7813 C389.375,384.7813 390.0625,384.6563 390.4844,384.3906 C390.6719,384.2969 390.6719,384.2969 391.125,383.8125 C391.3125,383.625 391.5156,383.5469 391.7344,383.5469 C392.2031,383.5469 392.5938,383.9375 392.5938,384.3906 C392.5938,384.7813 392.2656,385.2344 391.6875,385.6406 C390.9375,386.1875 389.7813,386.4844 388.5625,386.4844 C385.6719,386.4844 383.5625,384.5938 383.5625,382.0156 L383.5625,380.8906 C383.5625,378.1719 385.5625,376.0938 388.1875,376.0938 C389.0625,376.0938 389.6563,376.2344 390.5938,376.6719 Z "/><text fill="#000000" font-family="sans-serif" font-size="12" lengthAdjust="spacingAndGlyphs" textLength="35" x="408.75" y="385.1543">Movie</text><line style="stroke: #A80036; stroke-width: 1.5;" x1="260.5" x2="559.5" y1="397" y2="397"/><rect fill="none" height="6" style="stroke: #C82930; stroke-width: 1.0;" width="6" x="267.5" y="405"/><text fill="#000000" font-family="sans-serif" font-size="11" lengthAdjust="spacingAndGlyphs" textLength="128" x="279.5" y="411.2104">movieType: MovieType</text><rect fill="none" height="6" style="stroke: #C82930; stroke-width: 1.0;" width="6" x="267.5" y="417.8047"/><text fill="#000000" font-family="sans-serif" font-size="11" lengthAdjust="spacingAndGlyphs" textLength="135" x="279.5" y="424.0151">discountAmount: Money</text><rect fill="none" height="6" style="stroke: #C82930; stroke-width: 1.0;" width="6" x="267.5" y="430.6094"/><text fill="#000000" font-family="sans-serif" font-size="11" lengthAdjust="spacingAndGlyphs" textLength="143" x="279.5" y="436.8198">discountPercent: number</text><rect fill="none" height="6" style="stroke: #C82930; stroke-width: 1.0;" width="6" x="267.5" y="443.4141"/><text fill="#000000" font-family="sans-serif" font-size="11" lengthAdjust="spacingAndGlyphs" textLength="62" x="279.5" y="449.6245">title: string</text><rect fill="none" height="6" style="stroke: #C82930; stroke-width: 1.0;" width="6" x="267.5" y="456.2188"/><text fill="#000000" font-family="sans-serif" font-size="11" lengthAdjust="spacingAndGlyphs" textLength="123" x="279.5" y="462.4292">runningTime: number</text><rect fill="none" height="6" style="stroke: #C82930; stroke-width: 1.0;" width="6" x="267.5" y="469.0234"/><text fill="#000000" font-family="sans-serif" font-size="11" lengthAdjust="spacingAndGlyphs" textLength="62" x="279.5" y="475.2339">fee: Money</text><rect fill="none" height="6" style="stroke: #C82930; stroke-width: 1.0;" width="6" x="267.5" y="481.8281"/><text fill="#000000" font-family="sans-serif" font-size="11" lengthAdjust="spacingAndGlyphs" textLength="226" x="279.5" y="488.0386">discountConditions: DiscountCondition[]</text><line style="stroke: #A80036; stroke-width: 1.5;" x1="260.5" x2="559.5" y1="494.6328" y2="494.6328"/><ellipse cx="270.5" cy="505.6328" fill="#84BE84" rx="3" ry="3" style="stroke: #038048; stroke-width: 1.0;"/><text fill="#000000" font-family="sans-serif" font-size="11" lengthAdjust="spacingAndGlyphs" textLength="275" x="279.5" y="508.8433">calculateMovieFee(screening: Screening): Money</text><rect fill="#F24D5C" height="6" style="stroke: #C82930; stroke-width: 1.0;" width="6" x="267.5" y="515.4375"/><text fill="#000000" font-family="sans-serif" font-size="11" lengthAdjust="spacingAndGlyphs" textLength="265" x="279.5" y="521.6479">isDiscountAble(screening: Screening): boolean</text><rect fill="#F24D5C" height="6" style="stroke: #C82930; stroke-width: 1.0;" width="6" x="267.5" y="528.2422"/><text fill="#000000" font-family="sans-serif" font-size="11" lengthAdjust="spacingAndGlyphs" textLength="200" x="279.5" y="534.4526">caclculateDiscountAmount(): Money</text><rect fill="#F24D5C" height="6" style="stroke: #C82930; stroke-width: 1.0;" width="6" x="267.5" y="541.0469"/><text fill="#000000" font-family="sans-serif" font-size="11" lengthAdjust="spacingAndGlyphs" textLength="243" x="279.5" y="547.2573">caclculateAmountDiscountAmount(): Money</text><rect fill="#F24D5C" height="6" style="stroke: #C82930; stroke-width: 1.0;" width="6" x="267.5" y="553.8516"/><text fill="#000000" font-family="sans-serif" font-size="11" lengthAdjust="spacingAndGlyphs" textLength="243" x="279.5" y="560.062">caclculatePercentDiscountAmount(): Money</text><rect fill="#F24D5C" height="6" style="stroke: #C82930; stroke-width: 1.0;" width="6" x="267.5" y="566.6563"/><text fill="#000000" font-family="sans-serif" font-size="11" lengthAdjust="spacingAndGlyphs" textLength="229" x="279.5" y="572.8667">caclculateNoneDiscountAmount(): Money</text><!--MD5=[fa5b27f77fe197a60cf8f352dcfe1889]
class Screening--><rect fill="#FEFECE" filter="url(#f1cmz0bus081g5)" height="137.6328" id="Screening" style="stroke: #A80036; stroke-width: 1.5;" width="415" x="160.5" y="167"/><ellipse cx="332.25" cy="183" fill="#ADD1B2" rx="11" ry="11" style="stroke: #A80036; stroke-width: 1.0;"/><path d="M334.5938,178.6719 L334.7656,178.75 C334.9844,178.4375 335.1875,178.3438 335.4844,178.3438 C335.7813,178.3438 336.0625,178.4844 336.2188,178.75 C336.3125,178.9063 336.3281,179.0313 336.3281,179.4688 L336.3281,180.8906 C336.3281,181.3125 336.2969,181.5 336.1875,181.6563 C336.0156,181.875 335.75,182.0156 335.4844,182.0156 C335.2656,182.0156 335.0313,181.9063 334.8906,181.7656 C334.75,181.6406 334.7188,181.5156 334.6563,181.1094 C334.5625,180.7031 334.3906,180.4844 333.9063,180.2031 C333.4375,179.9531 332.8281,179.7969 332.25,179.7969 C330.5156,179.7969 329.2656,181.1094 329.2656,182.8906 L329.2656,183.9844 C329.2656,185.6875 330.5625,186.7813 332.6094,186.7813 C333.375,186.7813 334.0625,186.6563 334.4844,186.3906 C334.6719,186.2969 334.6719,186.2969 335.125,185.8125 C335.3125,185.625 335.5156,185.5469 335.7344,185.5469 C336.2031,185.5469 336.5938,185.9375 336.5938,186.3906 C336.5938,186.7813 336.2656,187.2344 335.6875,187.6406 C334.9375,188.1875 333.7813,188.4844 332.5625,188.4844 C329.6719,188.4844 327.5625,186.5938 327.5625,184.0156 L327.5625,182.8906 C327.5625,180.1719 329.5625,178.0938 332.1875,178.0938 C333.0625,178.0938 333.6563,178.2344 334.5938,178.6719 Z "/><text fill="#000000" font-family="sans-serif" font-size="12" lengthAdjust="spacingAndGlyphs" textLength="63" x="352.75" y="187.1543">Screening</text><line style="stroke: #A80036; stroke-width: 1.5;" x1="161.5" x2="574.5" y1="199" y2="199"/><rect fill="none" height="6" style="stroke: #C82930; stroke-width: 1.0;" width="6" x="168.5" y="207"/><text fill="#000000" font-family="sans-serif" font-size="11" lengthAdjust="spacingAndGlyphs" textLength="74" x="180.5" y="213.2104">movie: Movie</text><rect fill="none" height="6" style="stroke: #C82930; stroke-width: 1.0;" width="6" x="168.5" y="219.8047"/><text fill="#000000" font-family="sans-serif" font-size="11" lengthAdjust="spacingAndGlyphs" textLength="107" x="180.5" y="226.0151">sequence: number</text><rect fill="none" height="6" style="stroke: #C82930; stroke-width: 1.0;" width="6" x="168.5" y="232.6094"/><text fill="#000000" font-family="sans-serif" font-size="11" lengthAdjust="spacingAndGlyphs" textLength="118" x="180.5" y="238.8198">whenScreened: Date</text><line style="stroke: #A80036; stroke-width: 1.5;" x1="161.5" x2="574.5" y1="245.4141" y2="245.4141"/><ellipse cx="171.5" cy="256.4141" fill="#84BE84" rx="3" ry="3" style="stroke: #038048; stroke-width: 1.0;"/><text fill="#000000" font-family="sans-serif" font-size="11" lengthAdjust="spacingAndGlyphs" textLength="389" x="180.5" y="259.6245">reserve(customer: Customer, audienceCount: number): Reservation</text><ellipse cx="171.5" cy="269.2188" fill="#84BE84" rx="3" ry="3" style="stroke: #038048; stroke-width: 1.0;"/><text fill="#000000" font-family="sans-serif" font-size="11" lengthAdjust="spacingAndGlyphs" textLength="134" x="180.5" y="272.4292">getSequence(): number</text><ellipse cx="171.5" cy="282.0234" fill="#84BE84" rx="3" ry="3" style="stroke: #038048; stroke-width: 1.0;"/><text fill="#000000" font-family="sans-serif" font-size="11" lengthAdjust="spacingAndGlyphs" textLength="144" x="180.5" y="285.2339">getWhenScreened(): Date</text><rect fill="#F24D5C" height="6" style="stroke: #C82930; stroke-width: 1.0;" width="6" x="168.5" y="291.8281"/><text fill="#000000" font-family="sans-serif" font-size="11" lengthAdjust="spacingAndGlyphs" textLength="258" x="180.5" y="298.0386">calculateFee(audienceCount: number): Money</text><!--MD5=[fec947f57fa162b2a4467bc966b5eef2]
class DiscountConditionType--><rect fill="#FEFECE" filter="url(#f1cmz0bus081g5)" height="73.6094" id="DiscountConditionType" style="stroke: #A80036; stroke-width: 1.5;" width="175" x="575.5" y="849"/><ellipse cx="590.5" cy="865" fill="#EB937F" rx="11" ry="11" style="stroke: #A80036; stroke-width: 1.0;"/><path d="M588.7969,865.875 L588.7969,868.2969 L593.1563,868.2969 L593.1563,867.4219 C593.1563,866.9375 593.1875,866.7969 593.2969,866.6406 C593.4688,866.3906 593.7344,866.2813 594,866.2813 C594.2813,866.2813 594.5625,866.4375 594.7344,866.6875 C594.8125,866.8438 594.8438,866.9844 594.8438,867.4219 L594.8438,870 L586.8438,870 C586.4531,870 586.2188,869.9531 586.0781,869.8281 C585.8594,869.6719 585.7188,869.4219 585.7188,869.1563 C585.7188,868.8594 585.875,868.5938 586.125,868.4219 C586.2813,868.3125 586.4375,868.2969 586.8438,868.2969 L587.0938,868.2969 L587.0938,861.7813 L586.8438,861.7813 C586.4219,861.7813 586.2344,861.75 586.0781,861.6406 C585.8594,861.4688 585.7188,861.2188 585.7188,860.9375 C585.7188,860.6563 585.875,860.3594 586.125,860.2031 C586.2813,860.1094 586.4063,860.0938 586.8438,860.0938 L594.4688,860.0938 L594.4688,862.6406 C594.4688,863.1094 594.4375,863.25 594.3281,863.4219 C594.1563,863.6406 593.8906,863.7813 593.625,863.7813 C593.3438,863.7813 593.0625,863.625 592.8906,863.375 C592.8125,863.2188 592.7813,863.0469 592.7813,862.6406 L592.7813,861.7813 L588.7969,861.7813 L588.7969,864.1875 L590.25,864.1875 L590.25,864.0625 C590.25,863.6094 590.2813,863.4531 590.3906,863.2813 C590.5625,863.0625 590.8281,862.9219 591.0781,862.9219 C591.5313,862.9219 591.8438,863.2344 591.9063,863.7031 C591.9219,863.8594 591.9219,863.9063 591.9219,864.0625 L591.9219,865.9844 C591.9219,866.4375 591.8906,866.5938 591.7656,866.75 C591.6094,866.9688 591.3438,867.1094 591.0938,867.1094 C590.7969,867.1094 590.5156,866.9531 590.3594,866.7031 C590.2813,866.5469 590.25,866.3906 590.25,865.9844 L590.25,865.875 Z "/><text fill="#000000" font-family="sans-serif" font-size="12" lengthAdjust="spacingAndGlyphs" textLength="143" x="604.5" y="869.1543">DiscountConditionType</text><line style="stroke: #A80036; stroke-width: 1.5;" x1="576.5" x2="749.5" y1="881" y2="881"/><text fill="#000000" font-family="sans-serif" font-size="11" lengthAdjust="spacingAndGlyphs" textLength="62" x="581.5" y="895.2104">SEQUENCE</text><text fill="#000000" font-family="sans-serif" font-size="11" lengthAdjust="spacingAndGlyphs" textLength="41" x="581.5" y="908.0151">PERIOD</text><line style="stroke: #A80036; stroke-width: 1.5;" x1="576.5" x2="749.5" y1="914.6094" y2="914.6094"/><!--MD5=[fb6547c0cf79da1af610e0229b9f01c4]
class DiscountCondition--><rect fill="#FEFECE" filter="url(#f1cmz0bus081g5)" height="150.4375" id="DiscountCondition" style="stroke: #A80036; stroke-width: 1.5;" width="342" x="492" y="639"/><ellipse cx="601.75" cy="655" fill="#ADD1B2" rx="11" ry="11" style="stroke: #A80036; stroke-width: 1.0;"/><path d="M604.0938,650.6719 L604.2656,650.75 C604.4844,650.4375 604.6875,650.3438 604.9844,650.3438 C605.2813,650.3438 605.5625,650.4844 605.7188,650.75 C605.8125,650.9063 605.8281,651.0313 605.8281,651.4688 L605.8281,652.8906 C605.8281,653.3125 605.7969,653.5 605.6875,653.6563 C605.5156,653.875 605.25,654.0156 604.9844,654.0156 C604.7656,654.0156 604.5313,653.9063 604.3906,653.7656 C604.25,653.6406 604.2188,653.5156 604.1563,653.1094 C604.0625,652.7031 603.8906,652.4844 603.4063,652.2031 C602.9375,651.9531 602.3281,651.7969 601.75,651.7969 C600.0156,651.7969 598.7656,653.1094 598.7656,654.8906 L598.7656,655.9844 C598.7656,657.6875 600.0625,658.7813 602.1094,658.7813 C602.875,658.7813 603.5625,658.6563 603.9844,658.3906 C604.1719,658.2969 604.1719,658.2969 604.625,657.8125 C604.8125,657.625 605.0156,657.5469 605.2344,657.5469 C605.7031,657.5469 606.0938,657.9375 606.0938,658.3906 C606.0938,658.7813 605.7656,659.2344 605.1875,659.6406 C604.4375,660.1875 603.2813,660.4844 602.0625,660.4844 C599.1719,660.4844 597.0625,658.5938 597.0625,656.0156 L597.0625,654.8906 C597.0625,652.1719 599.0625,650.0938 601.6875,650.0938 C602.5625,650.0938 603.1563,650.2344 604.0938,650.6719 Z "/><text fill="#000000" font-family="sans-serif" font-size="12" lengthAdjust="spacingAndGlyphs" textLength="114" x="622.25" y="659.1543">DiscountCondition</text><line style="stroke: #A80036; stroke-width: 1.5;" x1="493" x2="833" y1="671" y2="671"/><rect fill="none" height="6" style="stroke: #C82930; stroke-width: 1.0;" width="6" x="500" y="679"/><text fill="#000000" font-family="sans-serif" font-size="11" lengthAdjust="spacingAndGlyphs" textLength="161" x="512" y="685.2104">type: DiscountConditionType</text><rect fill="none" height="6" style="stroke: #C82930; stroke-width: 1.0;" width="6" x="500" y="691.8047"/><text fill="#000000" font-family="sans-serif" font-size="11" lengthAdjust="spacingAndGlyphs" textLength="107" x="512" y="698.0151">sequence: number</text><rect fill="none" height="6" style="stroke: #C82930; stroke-width: 1.0;" width="6" x="500" y="704.6094"/><text fill="#000000" font-family="sans-serif" font-size="11" lengthAdjust="spacingAndGlyphs" textLength="114" x="512" y="710.8198">dayOfWeek: number</text><rect fill="none" height="6" style="stroke: #C82930; stroke-width: 1.0;" width="6" x="500" y="717.4141"/><text fill="#000000" font-family="sans-serif" font-size="11" lengthAdjust="spacingAndGlyphs" textLength="89" x="512" y="723.6245">startTime: Date</text><rect fill="none" height="6" style="stroke: #C82930; stroke-width: 1.0;" width="6" x="500" y="730.2188"/><text fill="#000000" font-family="sans-serif" font-size="11" lengthAdjust="spacingAndGlyphs" textLength="83" x="512" y="736.4292">endTime: Date</text><line style="stroke: #A80036; stroke-width: 1.5;" x1="493" x2="833" y1="743.0234" y2="743.0234"/><ellipse cx="503" cy="754.0234" fill="#84BE84" rx="3" ry="3" style="stroke: #038048; stroke-width: 1.0;"/><text fill="#000000" font-family="sans-serif" font-size="11" lengthAdjust="spacingAndGlyphs" textLength="256" x="512" y="757.2339">isSatisfiedBy(screening: Screening): boolean</text><rect fill="#F24D5C" height="6" style="stroke: #C82930; stroke-width: 1.0;" width="6" x="500" y="763.8281"/><text fill="#000000" font-family="sans-serif" font-size="11" lengthAdjust="spacingAndGlyphs" textLength="296" x="512" y="770.0386">isStatisfiedByPeriod(screening: Screening): boolean</text><rect fill="#F24D5C" height="6" style="stroke: #C82930; stroke-width: 1.0;" width="6" x="500" y="776.6328"/><text fill="#000000" font-family="sans-serif" font-size="11" lengthAdjust="spacingAndGlyphs" textLength="316" x="512" y="782.8433">isStatisfiedBySequence(screening: Screening): boolean</text><!--MD5=[b2a5c62ee17020f07685cec7b7db6df8]
reverse link Reservation to Customer--><path d="M175.253,117.129 C162.648,132.198 150.854,149.217 143,167 C100.0568,264.232 102.2397,395.086 105.2496,447.682 " fill="none" id="Reservation&lt;-Customer" style="stroke: #A80036; stroke-width: 1.0;"/><polygon fill="#A80036" points="184.07,107.022,177.1115,108.9137,176.1813,116.0646,183.1398,114.1729,184.07,107.022" style="stroke: #A80036; stroke-width: 1.0;"/><!--MD5=[d6f262f12d648c2666cae04541bf4aa4]
reverse link Reservation to Screening--><path d="M269.256,118.319 C280.176,133.962 292.675,150.94 305.065,166.976 " fill="none" id="Reservation&lt;-Screening" style="stroke: #A80036; stroke-width: 1.0;"/><polygon fill="#A80036" points="261.607,107.197,261.7114,114.4073,268.4072,117.0842,268.3029,109.8738,261.607,107.197" style="stroke: #A80036; stroke-width: 1.0;"/><!--MD5=[c68cec2d08a0c756de089f5d87b96330]
reverse link Screening to Reservation--><path d="M322.885,156.118 C310.762,139.458 297.656,122.347 285.357,107.197 " fill="none" id="Screening&lt;-Reservation" style="stroke: #A80036; stroke-width: 1.0;"/><polygon fill="#A80036" points="330.692,166.976,330.4375,159.7694,323.6874,157.2325,323.9419,164.4391,330.692,166.976" style="stroke: #A80036; stroke-width: 1.0;"/><!--MD5=[39dd7fb721f0a429b8062e1ef2dc64c3]
reverse link Reservation to Money--><path d="M149.117,115.471 C131.171,130.441 113.866,147.834 101,167 C49.8931,243.135 56.0208,274.231 43,365 C29.4945,459.147 11.5584,489.236 43,579 C50.4303,600.213 62.7847,620.569 76.5123,638.728 " fill="none" id="Reservation&lt;-Money" style="stroke: #A80036; stroke-width: 1.0;"/><polygon fill="#A80036" points="159.428,107.176,152.2458,107.821,150.0788,114.6988,157.261,114.0538,159.428,107.176" style="stroke: #A80036; stroke-width: 1.0;"/><!--MD5=[d4ffe86c538f73f079e4b432620d3bef]
reverse link Movie to MovieType--><path d="M401.526,592.634 C399.536,620.723 397.545,648.839 395.987,670.825 " fill="none" id="Movie&lt;-MovieType" style="stroke: #A80036; stroke-width: 1.0;"/><polygon fill="#A80036" points="402.469,579.316,398.055,585.0184,401.6211,591.286,406.035,585.5836,402.469,579.316" style="stroke: #A80036; stroke-width: 1.0;"/><!--MD5=[7114dc62aa61f1f979cee9d07f4dfd9b]
reverse link Movie to Money--><path d="M285.118,588.276 C266.516,605.447 247.774,622.747 230.418,638.768 " fill="none" id="Movie&lt;-Money" style="stroke: #A80036; stroke-width: 1.0;"/><polygon fill="#A80036" points="294.825,579.316,287.7031,580.4467,286.0076,587.4556,293.1295,586.3249,294.825,579.316" style="stroke: #A80036; stroke-width: 1.0;"/><!--MD5=[38159cfd20a3d01acff0b0b23942b510]
reverse link Movie to DiscountCondition--><path d="M531.52,588.276 C549.621,605.447 567.859,622.747 584.747,638.768 " fill="none" id="Movie&lt;-DiscountCondition" style="stroke: #A80036; stroke-width: 1.0;"/><polygon fill="#A80036" points="522.074,579.316,523.6745,586.3472,530.7805,587.5742,529.18,580.5429,522.074,579.316" style="stroke: #A80036; stroke-width: 1.0;"/><!--MD5=[583467abdeec2d311a672525fbe0a9b9]
reverse link Movie to Screening--><path d="M402.125,351.923 C399.227,335.936 396.001,320.001 392.663,305.312 " fill="none" id="Movie&lt;-Screening" style="stroke: #A80036; stroke-width: 1.0;"/><polygon fill="#A80036" points="404.376,364.733,407.2779,358.1316,402.3004,352.9139,399.3985,359.5153,404.376,364.733" style="stroke: #A80036; stroke-width: 1.0;"/><!--MD5=[88f6fb7f013dd115006957351a8e9723]
reverse link Screening to Movie--><path d="M370.377,318.245 C372.599,333.248 375.282,349.119 378.224,364.733 " fill="none" id="Screening&lt;-Movie" style="stroke: #A80036; stroke-width: 1.0;"/><polygon fill="#A80036" points="368.548,305.312,365.428,311.8132,370.2292,317.1937,373.3491,310.6924,368.548,305.312" style="stroke: #A80036; stroke-width: 1.0;"/><!--MD5=[7f35b6f28088c12d4f6bb0e95957d027]
reverse link Screening to Customer--><path d="M242.593,312.757 C220.593,328.668 198.765,346.334 180,365 C154.811,390.055 132.751,424.877 119.65,447.669 " fill="none" id="Screening&lt;-Customer" style="stroke: #A80036; stroke-width: 1.0;"/><polygon fill="#A80036" points="253.394,305.09,246.186,305.3012,243.6087,312.036,250.8167,311.8248,253.394,305.09" style="stroke: #A80036; stroke-width: 1.0;"/><!--MD5=[0e44eefa85f7d41020a26d0e9d3d82cf]
reverse link Screening to Money--><path d="M278.878,315.166 C265.02,330.573 252.006,347.443 242,365 C215.545,411.422 183.383,551.098 164.943,638.735 " fill="none" id="Screening&lt;-Money" style="stroke: #A80036; stroke-width: 1.0;"/><polygon fill="#A80036" points="288.084,305.261,281.0694,306.9331,279.9149,314.0511,286.9295,312.3791,288.084,305.261" style="stroke: #A80036; stroke-width: 1.0;"/><!--MD5=[8d8b97df2c4a638b375f53929aed527a]
reverse link DiscountCondition to DiscountConditionType--><path d="M663,802.277 C663,818.773 663,835.1546 663,848.9344 " fill="none" id="DiscountCondition&lt;-DiscountConditionType" style="stroke: #A80036; stroke-width: 1.0;"/><polygon fill="#A80036" points="663,789.07,659,795.07,663,801.07,667,795.07,663,789.07" style="stroke: #A80036; stroke-width: 1.0;"/><!--MD5=[d0fa2538dcf05f1b31919df43b72669a]
reverse link DiscountCondition to Screening--><path d="M659.99,625.667 C653.399,550.182 633.936,441.48 578,365 C560.986,341.737 538.344,321.843 514.226,305.159 " fill="none" id="DiscountCondition&lt;-Screening" style="stroke: #A80036; stroke-width: 1.0;"/><polygon fill="#A80036" points="661.043,638.891,664.5537,632.5922,660.0897,626.9289,656.579,633.2277,661.043,638.891" style="stroke: #A80036; stroke-width: 1.0;"/><!--MD5=[2cc95134103affd35f1eb428167925ea]
@startuml
class Customer
class Money {
    -amount: number
    +plus(amount: Money): Money
    +minus(amount: Money): Money
    +times(percent: number): Money
    +isLessThan(other: Money): boolean
    +isGreaterThanOrEqual(other: Money): boolean
    +{static} ZERO: Money
    +{static} wons(amount: number): Money
}
class Reservation {
    -customer: Customer
    -screening: Screening
    -fee: Money
    -audienceCount: number
}
enum MovieType {
    AMOUNT_DISCOUNT
    PERCENT_DISCOUNT
    NONE_DISCOUNT
}
class Movie {
    -movieType: MovieType
    -discountAmount: Money
    -discountPercent: number
    -title: string
    -runningTime: number
    -fee: Money
    -discountConditions: DiscountCondition[]
    +calculateMovieFee(screening: Screening): Money
    -isDiscountAble(screening: Screening): boolean
    -caclculateDiscountAmount(): Money
    -caclculateAmountDiscountAmount(): Money
    -caclculatePercentDiscountAmount(): Money
    -caclculateNoneDiscountAmount(): Money
}
class Screening {
    -movie: Movie
    -sequence: number
    -whenScreened: Date
    +reserve(customer: Customer, audienceCount: number): Reservation
    +getSequence(): number
    +getWhenScreened(): Date
    -calculateFee(audienceCount: number): Money
}
enum DiscountConditionType {
    SEQUENCE
    PERIOD
}
class DiscountCondition {
    -type: DiscountConditionType
    -sequence: number
    -dayOfWeek: number
    -startTime: Date
    -endTime: Date
    +isSatisfiedBy(screening: Screening): boolean
    -isStatisfiedByPeriod(screening: Screening): boolean
    -isStatisfiedBySequence(screening: Screening): boolean
}
Reservation *- - Customer
Reservation *- - Screening
Reservation *- - Money
Movie *- - MovieType
Movie *- - Money
Movie *- - DiscountCondition
Movie *- - Screening
Screening *- - Movie
Screening *- - Customer
Screening *- - Reservation
Screening *- - Money
DiscountCondition *- - DiscountConditionType
DiscountCondition *- - Screening
@enduml

PlantUML version 1.2019.11(Sun Sep 22 10:02:15 UTC 2019)
(GPL source distribution)
Java Runtime: Java(TM) SE Runtime Environment
JVM: Java HotSpot(TM) 64-Bit Server VM
Java Version: 1.7.0_25-b15
Operating System: Linux
Default Encoding: UTF-8
Language: en
Country: US
--></g></svg>