<?xml version="1.0" encoding="UTF-8" standalone="no"?><svg xmlns="http://www.w3.org/2000/svg" xmlns:xlink="http://www.w3.org/1999/xlink" contentScriptType="application/ecmascript" contentStyleType="text/css" height="870px" preserveAspectRatio="none" style="width:1532px;height:870px;" version="1.1" viewBox="0 0 1532 870" width="1532px" zoomAndPan="magnify"><defs><filter height="300%" id="f1tequu1vf7px" width="300%" x="-1" y="-1"><feGaussianBlur result="blurOut" stdDeviation="2.0"/><feColorMatrix in="blurOut" result="blurOut2" type="matrix" values="0 0 0 0 0 0 0 0 0 0 0 0 0 0 0 0 0 0 .4 0"/><feOffset dx="4.0" dy="4.0" in="blurOut2" result="blurOut3"/><feBlend in="SourceGraphic" in2="blurOut3" mode="normal"/></filter></defs><g><!--MD5=[08dbe06e87f91eb667838fe2f259c34a]
class Money--><rect fill="#FEFECE" filter="url(#f1tequu1vf7px)" height="150.4375" id="Money" style="stroke: #A80036; stroke-width: 1.5;" width="288" x="1049" y="709"/><ellipse cx="1168.75" cy="725" fill="#ADD1B2" rx="11" ry="11" style="stroke: #A80036; stroke-width: 1.0;"/><path d="M1171.0938,720.6719 L1171.2656,720.75 C1171.4844,720.4375 1171.6875,720.3438 1171.9844,720.3438 C1172.2813,720.3438 1172.5625,720.4844 1172.7188,720.75 C1172.8125,720.9063 1172.8281,721.0313 1172.8281,721.4688 L1172.8281,722.8906 C1172.8281,723.3125 1172.7969,723.5 1172.6875,723.6563 C1172.5156,723.875 1172.25,724.0156 1171.9844,724.0156 C1171.7656,724.0156 1171.5313,723.9063 1171.3906,723.7656 C1171.25,723.6406 1171.2188,723.5156 1171.1563,723.1094 C1171.0625,722.7031 1170.8906,722.4844 1170.4063,722.2031 C1169.9375,721.9531 1169.3281,721.7969 1168.75,721.7969 C1167.0156,721.7969 1165.7656,723.1094 1165.7656,724.8906 L1165.7656,725.9844 C1165.7656,727.6875 1167.0625,728.7813 1169.1094,728.7813 C1169.875,728.7813 1170.5625,728.6563 1170.9844,728.3906 C1171.1719,728.2969 1171.1719,728.2969 1171.625,727.8125 C1171.8125,727.625 1172.0156,727.5469 1172.2344,727.5469 C1172.7031,727.5469 1173.0938,727.9375 1173.0938,728.3906 C1173.0938,728.7813 1172.7656,729.2344 1172.1875,729.6406 C1171.4375,730.1875 1170.2813,730.4844 1169.0625,730.4844 C1166.1719,730.4844 1164.0625,728.5938 1164.0625,726.0156 L1164.0625,724.8906 C1164.0625,722.1719 1166.0625,720.0938 1168.6875,720.0938 C1169.5625,720.0938 1170.1563,720.2344 1171.0938,720.6719 Z "/><text fill="#000000" font-family="sans-serif" font-size="12" lengthAdjust="spacingAndGlyphs" textLength="40" x="1189.25" y="729.1543">Money</text><line style="stroke: #A80036; stroke-width: 1.5;" x1="1050" x2="1336" y1="741" y2="741"/><rect fill="none" height="6" style="stroke: #C82930; stroke-width: 1.0;" width="6" x="1057" y="749"/><text fill="#000000" font-family="sans-serif" font-size="11" lengthAdjust="spacingAndGlyphs" textLength="95" x="1069" y="755.2104">amount: number</text><ellipse cx="1060" cy="764.8047" fill="none" rx="3" ry="3" style="stroke: #038048; stroke-width: 1.0;"/><text fill="#000000" font-family="sans-serif" font-size="11" lengthAdjust="spacingAndGlyphs" text-decoration="underline" textLength="76" x="1069" y="768.0151">ZERO: Money</text><line style="stroke: #A80036; stroke-width: 1.5;" x1="1050" x2="1336" y1="774.6094" y2="774.6094"/><ellipse cx="1060" cy="785.6094" fill="#84BE84" rx="3" ry="3" style="stroke: #038048; stroke-width: 1.0;"/><text fill="#000000" font-family="sans-serif" font-size="11" lengthAdjust="spacingAndGlyphs" textLength="163" x="1069" y="788.8198">plus(amount: Money): Money</text><ellipse cx="1060" cy="798.4141" fill="#84BE84" rx="3" ry="3" style="stroke: #038048; stroke-width: 1.0;"/><text fill="#000000" font-family="sans-serif" font-size="11" lengthAdjust="spacingAndGlyphs" textLength="174" x="1069" y="801.6245">minus(amount: Money): Money</text><ellipse cx="1060" cy="811.2188" fill="#84BE84" rx="3" ry="3" style="stroke: #038048; stroke-width: 1.0;"/><text fill="#000000" font-family="sans-serif" font-size="11" lengthAdjust="spacingAndGlyphs" textLength="179" x="1069" y="814.4292">times(percent: number): Money</text><ellipse cx="1060" cy="824.0234" fill="#84BE84" rx="3" ry="3" style="stroke: #038048; stroke-width: 1.0;"/><text fill="#000000" font-family="sans-serif" font-size="11" lengthAdjust="spacingAndGlyphs" textLength="200" x="1069" y="827.2339">isLessThan(other: Money): boolean</text><ellipse cx="1060" cy="836.8281" fill="#84BE84" rx="3" ry="3" style="stroke: #038048; stroke-width: 1.0;"/><text fill="#000000" font-family="sans-serif" font-size="11" lengthAdjust="spacingAndGlyphs" textLength="262" x="1069" y="840.0386">isGreaterThanOrEqual(other: Money): boolean</text><ellipse cx="1060" cy="849.6328" fill="#84BE84" rx="3" ry="3" style="stroke: #038048; stroke-width: 1.0;"/><text fill="#000000" font-family="sans-serif" font-size="11" lengthAdjust="spacingAndGlyphs" text-decoration="underline" textLength="177" x="1069" y="852.8433">wons(amount: number): Money</text><!--MD5=[2ce0c9fb7f55b1e256ab28a8ea6b25ec]
class Customer--><rect fill="#FEFECE" filter="url(#f1tequu1vf7px)" height="48" id="Customer" style="stroke: #A80036; stroke-width: 1.5;" width="92" x="1368" y="416"/><ellipse cx="1383" cy="432" fill="#ADD1B2" rx="11" ry="11" style="stroke: #A80036; stroke-width: 1.0;"/><path d="M1385.3438,427.6719 L1385.5156,427.75 C1385.7344,427.4375 1385.9375,427.3438 1386.2344,427.3438 C1386.5313,427.3438 1386.8125,427.4844 1386.9688,427.75 C1387.0625,427.9063 1387.0781,428.0313 1387.0781,428.4688 L1387.0781,429.8906 C1387.0781,430.3125 1387.0469,430.5 1386.9375,430.6563 C1386.7656,430.875 1386.5,431.0156 1386.2344,431.0156 C1386.0156,431.0156 1385.7813,430.9063 1385.6406,430.7656 C1385.5,430.6406 1385.4688,430.5156 1385.4063,430.1094 C1385.3125,429.7031 1385.1406,429.4844 1384.6563,429.2031 C1384.1875,428.9531 1383.5781,428.7969 1383,428.7969 C1381.2656,428.7969 1380.0156,430.1094 1380.0156,431.8906 L1380.0156,432.9844 C1380.0156,434.6875 1381.3125,435.7813 1383.3594,435.7813 C1384.125,435.7813 1384.8125,435.6563 1385.2344,435.3906 C1385.4219,435.2969 1385.4219,435.2969 1385.875,434.8125 C1386.0625,434.625 1386.2656,434.5469 1386.4844,434.5469 C1386.9531,434.5469 1387.3438,434.9375 1387.3438,435.3906 C1387.3438,435.7813 1387.0156,436.2344 1386.4375,436.6406 C1385.6875,437.1875 1384.5313,437.4844 1383.3125,437.4844 C1380.4219,437.4844 1378.3125,435.5938 1378.3125,433.0156 L1378.3125,431.8906 C1378.3125,429.1719 1380.3125,427.0938 1382.9375,427.0938 C1383.8125,427.0938 1384.4063,427.2344 1385.3438,427.6719 Z "/><text fill="#000000" font-family="sans-serif" font-size="12" lengthAdjust="spacingAndGlyphs" textLength="60" x="1397" y="436.1543">Customer</text><line style="stroke: #A80036; stroke-width: 1.5;" x1="1369" x2="1459" y1="448" y2="448"/><line style="stroke: #A80036; stroke-width: 1.5;" x1="1369" x2="1459" y1="456" y2="456"/><!--MD5=[9c46470aa33a0c75e6d1dfdefc2f9c22]
class Reservation--><rect fill="#FEFECE" filter="url(#f1tequu1vf7px)" height="99.2188" id="Reservation" style="stroke: #A80036; stroke-width: 1.5;" width="162" x="1108" y="8"/><ellipse cx="1148.2" cy="24" fill="#ADD1B2" rx="11" ry="11" style="stroke: #A80036; stroke-width: 1.0;"/><path d="M1150.5438,19.6719 L1150.7156,19.75 C1150.9344,19.4375 1151.1375,19.3438 1151.4344,19.3438 C1151.7313,19.3438 1152.0125,19.4844 1152.1688,19.75 C1152.2625,19.9063 1152.2781,20.0313 1152.2781,20.4688 L1152.2781,21.8906 C1152.2781,22.3125 1152.2469,22.5 1152.1375,22.6563 C1151.9656,22.875 1151.7,23.0156 1151.4344,23.0156 C1151.2156,23.0156 1150.9813,22.9063 1150.8406,22.7656 C1150.7,22.6406 1150.6688,22.5156 1150.6063,22.1094 C1150.5125,21.7031 1150.3406,21.4844 1149.8563,21.2031 C1149.3875,20.9531 1148.7781,20.7969 1148.2,20.7969 C1146.4656,20.7969 1145.2156,22.1094 1145.2156,23.8906 L1145.2156,24.9844 C1145.2156,26.6875 1146.5125,27.7813 1148.5594,27.7813 C1149.325,27.7813 1150.0125,27.6563 1150.4344,27.3906 C1150.6219,27.2969 1150.6219,27.2969 1151.075,26.8125 C1151.2625,26.625 1151.4656,26.5469 1151.6844,26.5469 C1152.1531,26.5469 1152.5438,26.9375 1152.5438,27.3906 C1152.5438,27.7813 1152.2156,28.2344 1151.6375,28.6406 C1150.8875,29.1875 1149.7313,29.4844 1148.5125,29.4844 C1145.6219,29.4844 1143.5125,27.5938 1143.5125,25.0156 L1143.5125,23.8906 C1143.5125,21.1719 1145.5125,19.0938 1148.1375,19.0938 C1149.0125,19.0938 1149.6063,19.2344 1150.5438,19.6719 Z "/><text fill="#000000" font-family="sans-serif" font-size="12" lengthAdjust="spacingAndGlyphs" textLength="74" x="1167.8" y="28.1543">Reservation</text><line style="stroke: #A80036; stroke-width: 1.5;" x1="1109" x2="1269" y1="40" y2="40"/><rect fill="none" height="6" style="stroke: #C82930; stroke-width: 1.0;" width="6" x="1116" y="48"/><text fill="#000000" font-family="sans-serif" font-size="11" lengthAdjust="spacingAndGlyphs" textLength="118" x="1128" y="54.2104">customer: Customer</text><rect fill="none" height="6" style="stroke: #C82930; stroke-width: 1.0;" width="6" x="1116" y="60.8047"/><text fill="#000000" font-family="sans-serif" font-size="11" lengthAdjust="spacingAndGlyphs" textLength="121" x="1128" y="67.0151">screening: Screening</text><rect fill="none" height="6" style="stroke: #C82930; stroke-width: 1.0;" width="6" x="1116" y="73.6094"/><text fill="#000000" font-family="sans-serif" font-size="11" lengthAdjust="spacingAndGlyphs" textLength="62" x="1128" y="79.8198">fee: Money</text><rect fill="none" height="6" style="stroke: #C82930; stroke-width: 1.0;" width="6" x="1116" y="86.4141"/><text fill="#000000" font-family="sans-serif" font-size="11" lengthAdjust="spacingAndGlyphs" textLength="136" x="1128" y="92.6245">audienceCount: number</text><line style="stroke: #A80036; stroke-width: 1.5;" x1="1109" x2="1269" y1="99.2188" y2="99.2188"/><!--MD5=[e69084ab16b022bdbef99762ea85e9d6]
class Movie--><rect fill="#FEFECE" filter="url(#f1tequu1vf7px)" height="150.4375" id="Movie" style="stroke: #A80036; stroke-width: 1.5;" width="301" x="876.5" y="365"/><ellipse cx="1005.25" cy="381" fill="#A9DCDF" rx="11" ry="11" style="stroke: #A80036; stroke-width: 1.0;"/><path d="M1006.8281,382.8125 L1002.7813,382.8125 L1002.3906,383.7969 L1002.7813,383.7969 C1003.2344,383.7969 1003.375,383.8281 1003.5469,383.9531 C1003.7656,384.125 1003.8906,384.375 1003.8906,384.6563 C1003.8906,384.9375 1003.75,385.2344 1003.4844,385.375 C1003.3594,385.4688 1003.1406,385.5 1002.7813,385.5 L1000.5156,385.5 C999.7656,385.5 999.3906,385.2188 999.3906,384.6563 C999.3906,384.3594 999.5469,384.0781 999.7969,383.9219 C999.9531,383.8125 1000.1094,383.7969 1000.5313,383.7969 L1003.1719,377.2813 L1002.0938,377.2813 C1001.6563,377.2813 1001.4844,377.25 1001.3125,377.1406 C1001.0938,376.9688 1000.9531,376.7188 1000.9531,376.4375 C1000.9531,376.1563 1001.1094,375.875 1001.3594,375.7031 C1001.5156,375.6094 1001.6406,375.5938 1002.0938,375.5938 L1005.7656,375.5938 L1009.1563,383.7969 C1009.625,383.7969 1009.7813,383.8281 1009.9531,383.9688 C1010.1719,384.125 1010.3125,384.375 1010.3125,384.6563 C1010.3125,384.9375 1010.1563,385.2344 1009.9063,385.375 C1009.7656,385.4688 1009.5469,385.5 1009.1875,385.5 L1006.8281,385.5 C1006.4063,385.5 1006.2031,385.4531 1006.0625,385.3281 C1005.8438,385.1719 1005.7031,384.9219 1005.7031,384.6563 C1005.7031,384.3594 1005.8594,384.0781 1006.1094,383.9219 C1006.2656,383.8125 1006.375,383.7969 1006.8281,383.7969 L1007.2188,383.7969 Z M1006.125,381.1094 L1004.7969,377.8438 L1003.4531,381.1094 Z "/><text fill="#000000" font-family="sans-serif" font-size="12" font-style="italic" lengthAdjust="spacingAndGlyphs" textLength="35" x="1025.75" y="385.1543">Movie</text><line style="stroke: #A80036; stroke-width: 1.5;" x1="877.5" x2="1176.5" y1="397" y2="397"/><rect fill="none" height="6" style="stroke: #C82930; stroke-width: 1.0;" width="6" x="884.5" y="405"/><text fill="#000000" font-family="sans-serif" font-size="11" lengthAdjust="spacingAndGlyphs" textLength="62" x="896.5" y="411.2104">title: string</text><rect fill="none" height="6" style="stroke: #C82930; stroke-width: 1.0;" width="6" x="884.5" y="417.8047"/><text fill="#000000" font-family="sans-serif" font-size="11" lengthAdjust="spacingAndGlyphs" textLength="123" x="896.5" y="424.0151">runningTime: number</text><rect fill="none" height="6" style="stroke: #C82930; stroke-width: 1.0;" width="6" x="884.5" y="430.6094"/><text fill="#000000" font-family="sans-serif" font-size="11" lengthAdjust="spacingAndGlyphs" textLength="62" x="896.5" y="436.8198">fee: Money</text><rect fill="none" height="6" style="stroke: #C82930; stroke-width: 1.0;" width="6" x="884.5" y="443.4141"/><text fill="#000000" font-family="sans-serif" font-size="11" lengthAdjust="spacingAndGlyphs" textLength="226" x="896.5" y="449.6245">discountConditions: DiscountCondition[]</text><line style="stroke: #A80036; stroke-width: 1.5;" x1="877.5" x2="1176.5" y1="456.2188" y2="456.2188"/><ellipse cx="887.5" cy="467.2188" fill="#84BE84" rx="3" ry="3" style="stroke: #038048; stroke-width: 1.0;"/><text fill="#000000" font-family="sans-serif" font-size="11" lengthAdjust="spacingAndGlyphs" textLength="275" x="896.5" y="470.4292">calculateMovieFee(screening: Screening): Money</text><rect fill="#F24D5C" height="6" style="stroke: #C82930; stroke-width: 1.0;" width="6" x="884.5" y="477.0234"/><text fill="#000000" font-family="sans-serif" font-size="11" lengthAdjust="spacingAndGlyphs" textLength="265" x="896.5" y="483.2339">isDiscountAble(screening: Screening): boolean</text><polygon fill="#FFFF44" points="887.5,487.8281,891.5,491.8281,887.5,495.8281,883.5,491.8281" style="stroke: #B38D22; stroke-width: 1.0;"/><text fill="#000000" font-family="sans-serif" font-size="11" lengthAdjust="spacingAndGlyphs" textLength="90" x="896.5" y="496.0386">getFee(): Money</text><polygon fill="#FFFF44" points="887.5,500.6328,891.5,504.6328,887.5,508.6328,883.5,504.6328" style="stroke: #B38D22; stroke-width: 1.0;"/><text fill="#000000" font-family="sans-serif" font-size="11" font-style="italic" lengthAdjust="spacingAndGlyphs" textLength="201" x="896.5" y="508.8433">caclculateDiscountAmount(): Money</text><!--MD5=[fa5b27f77fe197a60cf8f352dcfe1889]
class Screening--><rect fill="#FEFECE" filter="url(#f1tequu1vf7px)" height="137.6328" id="Screening" style="stroke: #A80036; stroke-width: 1.5;" width="415" x="819.5" y="167"/><ellipse cx="991.25" cy="183" fill="#ADD1B2" rx="11" ry="11" style="stroke: #A80036; stroke-width: 1.0;"/><path d="M993.5938,178.6719 L993.7656,178.75 C993.9844,178.4375 994.1875,178.3438 994.4844,178.3438 C994.7813,178.3438 995.0625,178.4844 995.2188,178.75 C995.3125,178.9063 995.3281,179.0313 995.3281,179.4688 L995.3281,180.8906 C995.3281,181.3125 995.2969,181.5 995.1875,181.6563 C995.0156,181.875 994.75,182.0156 994.4844,182.0156 C994.2656,182.0156 994.0313,181.9063 993.8906,181.7656 C993.75,181.6406 993.7188,181.5156 993.6563,181.1094 C993.5625,180.7031 993.3906,180.4844 992.9063,180.2031 C992.4375,179.9531 991.8281,179.7969 991.25,179.7969 C989.5156,179.7969 988.2656,181.1094 988.2656,182.8906 L988.2656,183.9844 C988.2656,185.6875 989.5625,186.7813 991.6094,186.7813 C992.375,186.7813 993.0625,186.6563 993.4844,186.3906 C993.6719,186.2969 993.6719,186.2969 994.125,185.8125 C994.3125,185.625 994.5156,185.5469 994.7344,185.5469 C995.2031,185.5469 995.5938,185.9375 995.5938,186.3906 C995.5938,186.7813 995.2656,187.2344 994.6875,187.6406 C993.9375,188.1875 992.7813,188.4844 991.5625,188.4844 C988.6719,188.4844 986.5625,186.5938 986.5625,184.0156 L986.5625,182.8906 C986.5625,180.1719 988.5625,178.0938 991.1875,178.0938 C992.0625,178.0938 992.6563,178.2344 993.5938,178.6719 Z "/><text fill="#000000" font-family="sans-serif" font-size="12" lengthAdjust="spacingAndGlyphs" textLength="63" x="1011.75" y="187.1543">Screening</text><line style="stroke: #A80036; stroke-width: 1.5;" x1="820.5" x2="1233.5" y1="199" y2="199"/><rect fill="none" height="6" style="stroke: #C82930; stroke-width: 1.0;" width="6" x="827.5" y="207"/><text fill="#000000" font-family="sans-serif" font-size="11" lengthAdjust="spacingAndGlyphs" textLength="74" x="839.5" y="213.2104">movie: Movie</text><rect fill="none" height="6" style="stroke: #C82930; stroke-width: 1.0;" width="6" x="827.5" y="219.8047"/><text fill="#000000" font-family="sans-serif" font-size="11" lengthAdjust="spacingAndGlyphs" textLength="107" x="839.5" y="226.0151">sequence: number</text><rect fill="none" height="6" style="stroke: #C82930; stroke-width: 1.0;" width="6" x="827.5" y="232.6094"/><text fill="#000000" font-family="sans-serif" font-size="11" lengthAdjust="spacingAndGlyphs" textLength="118" x="839.5" y="238.8198">whenScreened: Date</text><line style="stroke: #A80036; stroke-width: 1.5;" x1="820.5" x2="1233.5" y1="245.4141" y2="245.4141"/><ellipse cx="830.5" cy="256.4141" fill="#84BE84" rx="3" ry="3" style="stroke: #038048; stroke-width: 1.0;"/><text fill="#000000" font-family="sans-serif" font-size="11" lengthAdjust="spacingAndGlyphs" textLength="389" x="839.5" y="259.6245">reserve(customer: Customer, audienceCount: number): Reservation</text><ellipse cx="830.5" cy="269.2188" fill="#84BE84" rx="3" ry="3" style="stroke: #038048; stroke-width: 1.0;"/><text fill="#000000" font-family="sans-serif" font-size="11" lengthAdjust="spacingAndGlyphs" textLength="134" x="839.5" y="272.4292">getSequence(): number</text><ellipse cx="830.5" cy="282.0234" fill="#84BE84" rx="3" ry="3" style="stroke: #038048; stroke-width: 1.0;"/><text fill="#000000" font-family="sans-serif" font-size="11" lengthAdjust="spacingAndGlyphs" textLength="144" x="839.5" y="285.2339">getWhenScreened(): Date</text><rect fill="#F24D5C" height="6" style="stroke: #C82930; stroke-width: 1.0;" width="6" x="827.5" y="291.8281"/><text fill="#000000" font-family="sans-serif" font-size="11" lengthAdjust="spacingAndGlyphs" textLength="258" x="839.5" y="298.0386">calculateFee(audienceCount: number): Money</text><!--MD5=[fb6547c0cf79da1af610e0229b9f01c4]
class DiscountCondition--><rect fill="#FEFECE" filter="url(#f1tequu1vf7px)" height="60.8047" id="DiscountCondition" style="stroke: #A80036; stroke-width: 1.5;" width="282" x="182" y="581.5"/><ellipse cx="262.25" cy="597.5" fill="#B4A7E5" rx="11" ry="11" style="stroke: #A80036; stroke-width: 1.0;"/><path d="M263.2031,594.2813 L263.2031,600.7969 L264.9219,600.7969 C265.375,600.7969 265.5156,600.8281 265.6875,600.9531 C265.9219,601.125 266.0313,601.375 266.0313,601.6563 C266.0313,602.2188 265.6719,602.5 264.9219,602.5 L259.7813,602.5 C259.375,602.5 259.1719,602.4531 259.0156,602.3281 C258.7969,602.1719 258.6563,601.9063 258.6563,601.6563 C258.6563,601.3594 258.8125,601.0781 259.0625,600.9219 C259.2188,600.8125 259.3438,600.7969 259.7813,600.7969 L261.5,600.7969 L261.5,594.2813 L259.7813,594.2813 C259.3594,594.2813 259.1719,594.25 259.0156,594.1406 C258.7969,593.9688 258.6563,593.7188 258.6563,593.4375 C258.6563,593.1563 258.8125,592.8594 259.0625,592.7031 C259.2188,592.6094 259.3438,592.5938 259.7813,592.5938 L264.9219,592.5938 C265.375,592.5938 265.5156,592.625 265.6875,592.7344 C265.9219,592.9063 266.0313,593.1719 266.0313,593.4375 C266.0313,593.7344 265.8906,594.0156 265.625,594.1719 C265.5,594.25 265.3125,594.2813 264.9219,594.2813 Z "/><text fill="#000000" font-family="sans-serif" font-size="12" font-style="italic" lengthAdjust="spacingAndGlyphs" textLength="113" x="282.75" y="601.6543">DiscountCondition</text><line style="stroke: #A80036; stroke-width: 1.5;" x1="183" x2="463" y1="613.5" y2="613.5"/><line style="stroke: #A80036; stroke-width: 1.5;" x1="183" x2="463" y1="621.5" y2="621.5"/><ellipse cx="193" cy="632.5" fill="#84BE84" rx="3" ry="3" style="stroke: #038048; stroke-width: 1.0;"/><text fill="#000000" font-family="sans-serif" font-size="11" lengthAdjust="spacingAndGlyphs" textLength="256" x="202" y="635.7104">isSatisfiedBy(screening: Screening): boolean</text><!--MD5=[e0f732346b04fc72e4ff6d72ff5e44b4]
class AmountDiscountMovie--><rect fill="#FEFECE" filter="url(#f1tequu1vf7px)" height="73.6094" id="AmountDiscountMovie" style="stroke: #A80036; stroke-width: 1.5;" width="226" x="1163" y="575"/><ellipse cx="1203.2" cy="591" fill="#ADD1B2" rx="11" ry="11" style="stroke: #A80036; stroke-width: 1.0;"/><path d="M1205.5438,586.6719 L1205.7156,586.75 C1205.9344,586.4375 1206.1375,586.3438 1206.4344,586.3438 C1206.7313,586.3438 1207.0125,586.4844 1207.1688,586.75 C1207.2625,586.9063 1207.2781,587.0313 1207.2781,587.4688 L1207.2781,588.8906 C1207.2781,589.3125 1207.2469,589.5 1207.1375,589.6563 C1206.9656,589.875 1206.7,590.0156 1206.4344,590.0156 C1206.2156,590.0156 1205.9813,589.9063 1205.8406,589.7656 C1205.7,589.6406 1205.6688,589.5156 1205.6063,589.1094 C1205.5125,588.7031 1205.3406,588.4844 1204.8563,588.2031 C1204.3875,587.9531 1203.7781,587.7969 1203.2,587.7969 C1201.4656,587.7969 1200.2156,589.1094 1200.2156,590.8906 L1200.2156,591.9844 C1200.2156,593.6875 1201.5125,594.7813 1203.5594,594.7813 C1204.325,594.7813 1205.0125,594.6563 1205.4344,594.3906 C1205.6219,594.2969 1205.6219,594.2969 1206.075,593.8125 C1206.2625,593.625 1206.4656,593.5469 1206.6844,593.5469 C1207.1531,593.5469 1207.5438,593.9375 1207.5438,594.3906 C1207.5438,594.7813 1207.2156,595.2344 1206.6375,595.6406 C1205.8875,596.1875 1204.7313,596.4844 1203.5125,596.4844 C1200.6219,596.4844 1198.5125,594.5938 1198.5125,592.0156 L1198.5125,590.8906 C1198.5125,588.1719 1200.5125,586.0938 1203.1375,586.0938 C1204.0125,586.0938 1204.6063,586.2344 1205.5438,586.6719 Z "/><text fill="#000000" font-family="sans-serif" font-size="12" lengthAdjust="spacingAndGlyphs" textLength="138" x="1222.8" y="595.1543">AmountDiscountMovie</text><line style="stroke: #A80036; stroke-width: 1.5;" x1="1164" x2="1388" y1="607" y2="607"/><rect fill="none" height="6" style="stroke: #C82930; stroke-width: 1.0;" width="6" x="1171" y="615"/><text fill="#000000" font-family="sans-serif" font-size="11" lengthAdjust="spacingAndGlyphs" textLength="135" x="1183" y="621.2104">discountAmount: Money</text><line style="stroke: #A80036; stroke-width: 1.5;" x1="1164" x2="1388" y1="627.8047" y2="627.8047"/><polygon fill="#FFFF44" points="1174,633.8047,1178,637.8047,1174,641.8047,1170,637.8047" style="stroke: #B38D22; stroke-width: 1.0;"/><text fill="#000000" font-family="sans-serif" font-size="11" lengthAdjust="spacingAndGlyphs" textLength="200" x="1183" y="642.0151">caclculateDiscountAmount(): Money</text><!--MD5=[32e6da29544adc8b7b65ce54f308dae2]
class NoneDiscountMovie--><rect fill="#FEFECE" filter="url(#f1tequu1vf7px)" height="60.8047" id="NoneDiscountMovie" style="stroke: #A80036; stroke-width: 1.5;" width="226" x="570" y="581.5"/><ellipse cx="617.25" cy="597.5" fill="#ADD1B2" rx="11" ry="11" style="stroke: #A80036; stroke-width: 1.0;"/><path d="M619.5938,593.1719 L619.7656,593.25 C619.9844,592.9375 620.1875,592.8438 620.4844,592.8438 C620.7813,592.8438 621.0625,592.9844 621.2188,593.25 C621.3125,593.4063 621.3281,593.5313 621.3281,593.9688 L621.3281,595.3906 C621.3281,595.8125 621.2969,596 621.1875,596.1563 C621.0156,596.375 620.75,596.5156 620.4844,596.5156 C620.2656,596.5156 620.0313,596.4063 619.8906,596.2656 C619.75,596.1406 619.7188,596.0156 619.6563,595.6094 C619.5625,595.2031 619.3906,594.9844 618.9063,594.7031 C618.4375,594.4531 617.8281,594.2969 617.25,594.2969 C615.5156,594.2969 614.2656,595.6094 614.2656,597.3906 L614.2656,598.4844 C614.2656,600.1875 615.5625,601.2813 617.6094,601.2813 C618.375,601.2813 619.0625,601.1563 619.4844,600.8906 C619.6719,600.7969 619.6719,600.7969 620.125,600.3125 C620.3125,600.125 620.5156,600.0469 620.7344,600.0469 C621.2031,600.0469 621.5938,600.4375 621.5938,600.8906 C621.5938,601.2813 621.2656,601.7344 620.6875,602.1406 C619.9375,602.6875 618.7813,602.9844 617.5625,602.9844 C614.6719,602.9844 612.5625,601.0938 612.5625,598.5156 L612.5625,597.3906 C612.5625,594.6719 614.5625,592.5938 617.1875,592.5938 C618.0625,592.5938 618.6563,592.7344 619.5938,593.1719 Z "/><text fill="#000000" font-family="sans-serif" font-size="12" lengthAdjust="spacingAndGlyphs" textLength="123" x="637.75" y="601.6543">NoneDiscountMovie</text><line style="stroke: #A80036; stroke-width: 1.5;" x1="571" x2="795" y1="613.5" y2="613.5"/><line style="stroke: #A80036; stroke-width: 1.5;" x1="571" x2="795" y1="621.5" y2="621.5"/><polygon fill="#FFFF44" points="581,627.5,585,631.5,581,635.5,577,631.5" style="stroke: #B38D22; stroke-width: 1.0;"/><text fill="#000000" font-family="sans-serif" font-size="11" lengthAdjust="spacingAndGlyphs" textLength="200" x="590" y="635.7104">caclculateDiscountAmount(): Money</text><!--MD5=[a4074d3fa8dcedfc0923651f65695950]
class PercentDiscountMovie--><rect fill="#FEFECE" filter="url(#f1tequu1vf7px)" height="73.6094" id="PercentDiscountMovie" style="stroke: #A80036; stroke-width: 1.5;" width="226" x="831" y="575"/><ellipse cx="870.75" cy="591" fill="#ADD1B2" rx="11" ry="11" style="stroke: #A80036; stroke-width: 1.0;"/><path d="M873.0938,586.6719 L873.2656,586.75 C873.4844,586.4375 873.6875,586.3438 873.9844,586.3438 C874.2813,586.3438 874.5625,586.4844 874.7188,586.75 C874.8125,586.9063 874.8281,587.0313 874.8281,587.4688 L874.8281,588.8906 C874.8281,589.3125 874.7969,589.5 874.6875,589.6563 C874.5156,589.875 874.25,590.0156 873.9844,590.0156 C873.7656,590.0156 873.5313,589.9063 873.3906,589.7656 C873.25,589.6406 873.2188,589.5156 873.1563,589.1094 C873.0625,588.7031 872.8906,588.4844 872.4063,588.2031 C871.9375,587.9531 871.3281,587.7969 870.75,587.7969 C869.0156,587.7969 867.7656,589.1094 867.7656,590.8906 L867.7656,591.9844 C867.7656,593.6875 869.0625,594.7813 871.1094,594.7813 C871.875,594.7813 872.5625,594.6563 872.9844,594.3906 C873.1719,594.2969 873.1719,594.2969 873.625,593.8125 C873.8125,593.625 874.0156,593.5469 874.2344,593.5469 C874.7031,593.5469 875.0938,593.9375 875.0938,594.3906 C875.0938,594.7813 874.7656,595.2344 874.1875,595.6406 C873.4375,596.1875 872.2813,596.4844 871.0625,596.4844 C868.1719,596.4844 866.0625,594.5938 866.0625,592.0156 L866.0625,590.8906 C866.0625,588.1719 868.0625,586.0938 870.6875,586.0938 C871.5625,586.0938 872.1563,586.2344 873.0938,586.6719 Z "/><text fill="#000000" font-family="sans-serif" font-size="12" lengthAdjust="spacingAndGlyphs" textLength="139" x="890.25" y="595.1543">PercentDiscountMovie</text><line style="stroke: #A80036; stroke-width: 1.5;" x1="832" x2="1056" y1="607" y2="607"/><rect fill="none" height="6" style="stroke: #C82930; stroke-width: 1.0;" width="6" x="839" y="615"/><text fill="#000000" font-family="sans-serif" font-size="11" lengthAdjust="spacingAndGlyphs" textLength="95" x="851" y="621.2104">percent: number</text><line style="stroke: #A80036; stroke-width: 1.5;" x1="832" x2="1056" y1="627.8047" y2="627.8047"/><polygon fill="#FFFF44" points="842,633.8047,846,637.8047,842,641.8047,838,637.8047" style="stroke: #B38D22; stroke-width: 1.0;"/><text fill="#000000" font-family="sans-serif" font-size="11" lengthAdjust="spacingAndGlyphs" textLength="200" x="851" y="642.0151">caclculateDiscountAmount(): Money</text><!--MD5=[3387774d7316174022149a2e55ddfc5c]
class PeriodCondition--><rect fill="#FEFECE" filter="url(#f1tequu1vf7px)" height="99.2188" id="PeriodCondition" style="stroke: #A80036; stroke-width: 1.5;" width="282" x="6" y="734.5"/><ellipse cx="93.25" cy="750.5" fill="#ADD1B2" rx="11" ry="11" style="stroke: #A80036; stroke-width: 1.0;"/><path d="M95.5938,746.1719 L95.7656,746.25 C95.9844,745.9375 96.1875,745.8438 96.4844,745.8438 C96.7813,745.8438 97.0625,745.9844 97.2188,746.25 C97.3125,746.4063 97.3281,746.5313 97.3281,746.9688 L97.3281,748.3906 C97.3281,748.8125 97.2969,749 97.1875,749.1563 C97.0156,749.375 96.75,749.5156 96.4844,749.5156 C96.2656,749.5156 96.0313,749.4063 95.8906,749.2656 C95.75,749.1406 95.7188,749.0156 95.6563,748.6094 C95.5625,748.2031 95.3906,747.9844 94.9063,747.7031 C94.4375,747.4531 93.8281,747.2969 93.25,747.2969 C91.5156,747.2969 90.2656,748.6094 90.2656,750.3906 L90.2656,751.4844 C90.2656,753.1875 91.5625,754.2813 93.6094,754.2813 C94.375,754.2813 95.0625,754.1563 95.4844,753.8906 C95.6719,753.7969 95.6719,753.7969 96.125,753.3125 C96.3125,753.125 96.5156,753.0469 96.7344,753.0469 C97.2031,753.0469 97.5938,753.4375 97.5938,753.8906 C97.5938,754.2813 97.2656,754.7344 96.6875,755.1406 C95.9375,755.6875 94.7813,755.9844 93.5625,755.9844 C90.6719,755.9844 88.5625,754.0938 88.5625,751.5156 L88.5625,750.3906 C88.5625,747.6719 90.5625,745.5938 93.1875,745.5938 C94.0625,745.5938 94.6563,745.7344 95.5938,746.1719 Z "/><text fill="#000000" font-family="sans-serif" font-size="12" lengthAdjust="spacingAndGlyphs" textLength="99" x="113.75" y="754.6543">PeriodCondition</text><line style="stroke: #A80036; stroke-width: 1.5;" x1="7" x2="287" y1="766.5" y2="766.5"/><rect fill="none" height="6" style="stroke: #C82930; stroke-width: 1.0;" width="6" x="14" y="774.5"/><text fill="#000000" font-family="sans-serif" font-size="11" lengthAdjust="spacingAndGlyphs" textLength="114" x="26" y="780.7104">dayOfWeek: number</text><rect fill="none" height="6" style="stroke: #C82930; stroke-width: 1.0;" width="6" x="14" y="787.3047"/><text fill="#000000" font-family="sans-serif" font-size="11" lengthAdjust="spacingAndGlyphs" textLength="89" x="26" y="793.5151">startTime: Date</text><rect fill="none" height="6" style="stroke: #C82930; stroke-width: 1.0;" width="6" x="14" y="800.1094"/><text fill="#000000" font-family="sans-serif" font-size="11" lengthAdjust="spacingAndGlyphs" textLength="83" x="26" y="806.3198">endTime: Date</text><line style="stroke: #A80036; stroke-width: 1.5;" x1="7" x2="287" y1="812.9141" y2="812.9141"/><ellipse cx="17" cy="823.9141" fill="#84BE84" rx="3" ry="3" style="stroke: #038048; stroke-width: 1.0;"/><text fill="#000000" font-family="sans-serif" font-size="11" lengthAdjust="spacingAndGlyphs" textLength="256" x="26" y="827.1245">isSatisfiedBy(screening: Screening): boolean</text><!--MD5=[d9cfa9873d7e4c13423254ca3a85e4a5]
class SequenceCondition--><rect fill="#FEFECE" filter="url(#f1tequu1vf7px)" height="73.6094" id="SequenceCondition" style="stroke: #A80036; stroke-width: 1.5;" width="282" x="358" y="747"/><ellipse cx="433.75" cy="763" fill="#ADD1B2" rx="11" ry="11" style="stroke: #A80036; stroke-width: 1.0;"/><path d="M436.0938,758.6719 L436.2656,758.75 C436.4844,758.4375 436.6875,758.3438 436.9844,758.3438 C437.2813,758.3438 437.5625,758.4844 437.7188,758.75 C437.8125,758.9063 437.8281,759.0313 437.8281,759.4688 L437.8281,760.8906 C437.8281,761.3125 437.7969,761.5 437.6875,761.6563 C437.5156,761.875 437.25,762.0156 436.9844,762.0156 C436.7656,762.0156 436.5313,761.9063 436.3906,761.7656 C436.25,761.6406 436.2188,761.5156 436.1563,761.1094 C436.0625,760.7031 435.8906,760.4844 435.4063,760.2031 C434.9375,759.9531 434.3281,759.7969 433.75,759.7969 C432.0156,759.7969 430.7656,761.1094 430.7656,762.8906 L430.7656,763.9844 C430.7656,765.6875 432.0625,766.7813 434.1094,766.7813 C434.875,766.7813 435.5625,766.6563 435.9844,766.3906 C436.1719,766.2969 436.1719,766.2969 436.625,765.8125 C436.8125,765.625 437.0156,765.5469 437.2344,765.5469 C437.7031,765.5469 438.0938,765.9375 438.0938,766.3906 C438.0938,766.7813 437.7656,767.2344 437.1875,767.6406 C436.4375,768.1875 435.2813,768.4844 434.0625,768.4844 C431.1719,768.4844 429.0625,766.5938 429.0625,764.0156 L429.0625,762.8906 C429.0625,760.1719 431.0625,758.0938 433.6875,758.0938 C434.5625,758.0938 435.1563,758.2344 436.0938,758.6719 Z "/><text fill="#000000" font-family="sans-serif" font-size="12" lengthAdjust="spacingAndGlyphs" textLength="122" x="454.25" y="767.1543">SequenceCondition</text><line style="stroke: #A80036; stroke-width: 1.5;" x1="359" x2="639" y1="779" y2="779"/><rect fill="none" height="6" style="stroke: #C82930; stroke-width: 1.0;" width="6" x="366" y="787"/><text fill="#000000" font-family="sans-serif" font-size="11" lengthAdjust="spacingAndGlyphs" textLength="107" x="378" y="793.2104">sequence: number</text><line style="stroke: #A80036; stroke-width: 1.5;" x1="359" x2="639" y1="799.8047" y2="799.8047"/><ellipse cx="369" cy="810.8047" fill="#84BE84" rx="3" ry="3" style="stroke: #038048; stroke-width: 1.0;"/><text fill="#000000" font-family="sans-serif" font-size="11" lengthAdjust="spacingAndGlyphs" textLength="256" x="378" y="814.0151">isSatisfiedBy(screening: Screening): boolean</text><!--MD5=[8e78399144d485f601d50cbeb032fecf]
reverse link Movie to AmountDiscountMovie--><path d="M1152.32,526.561 C1177.33,543.634 1202.29,560.677 1223.17,574.934 " fill="none" id="Movie&lt;-AmountDiscountMovie" style="stroke: #A80036; stroke-width: 1.0;"/><polygon fill="none" points="1148.06,532.128,1135.49,515.07,1155.96,520.566,1148.06,532.128" style="stroke: #A80036; stroke-width: 1.0;"/><!--MD5=[3cb298737600c27ab3bfafc825e7018f]
reverse link Movie to NoneDiscountMovie--><path d="M858.97,524.038 C817.258,544.652 775.233,565.42 742.718,581.488 " fill="none" id="Movie&lt;-NoneDiscountMovie" style="stroke: #A80036; stroke-width: 1.0;"/><polygon fill="none" points="856.086,517.655,877.117,515.07,862.289,530.206,856.086,517.655" style="stroke: #A80036; stroke-width: 1.0;"/><!--MD5=[3edc201913f629a07555a2241831d6d6]
reverse link Movie to PercentDiscountMovie--><path d="M981.999,533.171 C974.763,547.991 967.67,562.519 961.609,574.934 " fill="none" id="Movie&lt;-PercentDiscountMovie" style="stroke: #A80036; stroke-width: 1.0;"/><polygon fill="none" points="975.771,529.971,990.836,515.07,988.352,536.113,975.771,529.971" style="stroke: #A80036; stroke-width: 1.0;"/><!--MD5=[f10db535786092e9f64cc5487298fd3d]
reverse link DiscountCondition to PeriodCondition--><path d="M277.87,656.591 C253.235,680.387 222.668,709.911 197.273,734.441 " fill="none" id="DiscountCondition&lt;-PeriodCondition" style="stroke: #A80036; stroke-width: 1.0; stroke-dasharray: 7.0,7.0;"/><polygon fill="none" points="273.095,651.472,292.343,642.612,282.821,661.541,273.095,651.472" style="stroke: #A80036; stroke-width: 1.0;"/><!--MD5=[b6f68802e2fe0ab73d04375e226265b5]
reverse link DiscountCondition to SequenceCondition--><path d="M368.38,656.833 C397.341,684.806 434.42,720.621 461.668,746.941 " fill="none" id="DiscountCondition&lt;-SequenceCondition" style="stroke: #A80036; stroke-width: 1.0; stroke-dasharray: 7.0,7.0;"/><polygon fill="none" points="363.179,661.541,353.657,642.612,372.905,651.472,363.179,661.541" style="stroke: #A80036; stroke-width: 1.0;"/><!--MD5=[b2a5c62ee17020f07685cec7b7db6df8]
reverse link Reservation to Customer--><path d="M1224.45,118.448 C1275.12,204.141 1365.94,357.72 1400.31,415.85 " fill="none" id="Reservation&lt;-Customer" style="stroke: #A80036; stroke-width: 1.0;"/><polygon fill="#A80036" points="1217.72,107.077,1217.3322,114.2777,1223.8298,117.4051,1224.2176,110.2045,1217.72,107.077" style="stroke: #A80036; stroke-width: 1.0;"/><!--MD5=[d6f262f12d648c2666cae04541bf4aa4]
reverse link Reservation to Screening--><path d="M1123.27,116.956 C1107.82,132.973 1091.63,150.473 1076.99,166.976 " fill="none" id="Reservation&lt;-Screening" style="stroke: #A80036; stroke-width: 1.0;"/><polygon fill="#A80036" points="1132.77,107.197,1125.7185,108.7056,1124.3989,115.7949,1131.4504,114.2863,1132.77,107.197" style="stroke: #A80036; stroke-width: 1.0;"/><!--MD5=[c68cec2d08a0c756de089f5d87b96330]
reverse link Screening to Reservation--><path d="M1111.95,157.07 C1127.78,140.11 1143.42,122.635 1156.52,107.197 " fill="none" id="Screening&lt;-Reservation" style="stroke: #A80036; stroke-width: 1.0;"/><polygon fill="#A80036" points="1102.61,166.976,1109.6362,165.3536,1110.841,158.2438,1103.8147,159.8662,1102.61,166.976" style="stroke: #A80036; stroke-width: 1.0;"/><!--MD5=[39dd7fb721f0a429b8062e1ef2dc64c3]
reverse link Reservation to Money--><path d="M1272.4,115.282 C1343.69,169.637 1440.49,258.913 1478,365 C1520.49,485.179 1518.17,549.9 1438,649 C1411.32,681.98 1374.26,708.07 1337.02,728.126 " fill="none" id="Reservation&lt;-Money" style="stroke: #A80036; stroke-width: 1.0;"/><polygon fill="#A80036" points="1261.64,107.19,1264.0373,113.9909,1271.2371,114.3938,1268.8398,107.5928,1261.64,107.19" style="stroke: #A80036; stroke-width: 1.0;"/><!--MD5=[7114dc62aa61f1f979cee9d07f4dfd9b]
reverse link Movie to Money--><path d="M1068.7,526.911 C1095.91,582.975 1131.07,655.415 1157.05,708.936 " fill="none" id="Movie&lt;-Money" style="stroke: #A80036; stroke-width: 1.0;"/><polygon fill="#A80036" points="1063.02,515.209,1062.0406,522.3533,1068.2586,526.0052,1069.238,518.8609,1063.02,515.209" style="stroke: #A80036; stroke-width: 1.0;"/><!--MD5=[38159cfd20a3d01acff0b0b23942b510]
reverse link Movie to DiscountCondition--><path d="M863.417,480.502 C735.691,511.344 561.037,553.519 445.259,581.477 " fill="none" id="Movie&lt;-DiscountCondition" style="stroke: #A80036; stroke-width: 1.0;"/><polygon fill="#A80036" points="876.406,477.365,869.6344,474.886,864.7416,480.1832,871.5132,482.6622,876.406,477.365" style="stroke: #A80036; stroke-width: 1.0;"/><!--MD5=[583467abdeec2d311a672525fbe0a9b9]
reverse link Movie to Screening--><path d="M1040.39,351.932 C1040.64,336.264 1040.46,320.139 1039.84,305.106 " fill="none" id="Movie&lt;-Screening" style="stroke: #A80036; stroke-width: 1.0;"/><polygon fill="#A80036" points="1040.06,364.952,1044.2066,359.0524,1040.3556,352.9556,1036.209,358.8553,1040.06,364.952" style="stroke: #A80036; stroke-width: 1.0;"/><!--MD5=[88f6fb7f013dd115006957351a8e9723]
reverse link Screening to Movie--><path d="M1014.47,318.423 C1014.12,333.803 1014.19,349.813 1014.66,364.952 " fill="none" id="Screening&lt;-Movie" style="stroke: #A80036; stroke-width: 1.0;"/><polygon fill="#A80036" points="1014.87,305.106,1010.6891,310.9814,1014.5045,317.1004,1018.6854,311.2251,1014.87,305.106" style="stroke: #A80036; stroke-width: 1.0;"/><!--MD5=[7f35b6f28088c12d4f6bb0e95957d027]
reverse link Screening to Customer--><path d="M1241.01,310.514 C1275.68,326.245 1310.25,344.429 1341,365 C1362,379.049 1381.86,399.863 1395.55,415.842 " fill="none" id="Screening&lt;-Customer" style="stroke: #A80036; stroke-width: 1.0;"/><polygon fill="#A80036" points="1228.75,305.053,1232.6048,311.1473,1239.7129,309.933,1235.8581,303.8387,1228.75,305.053" style="stroke: #A80036; stroke-width: 1.0;"/><!--MD5=[0e44eefa85f7d41020a26d0e9d3d82cf]
reverse link Screening to Money--><path d="M1131.57,313.339 C1152.96,329.877 1175.03,347.629 1195,365 C1207.51,375.88 1400.62,559.699 1407,575 C1419.66,605.355 1422.93,620.227 1407,649 C1390.76,678.337 1365.11,702.107 1337.13,721.016 " fill="none" id="Screening&lt;-Money" style="stroke: #A80036; stroke-width: 1.0;"/><polygon fill="#A80036" points="1121.13,305.326,1123.4478,312.1545,1130.6425,312.6413,1128.3247,305.8128,1121.13,305.326" style="stroke: #A80036; stroke-width: 1.0;"/><!--MD5=[d0fa2538dcf05f1b31919df43b72669a]
reverse link DiscountCondition to Screening--><path d="M339.888,569.323 C364.581,513.834 415.916,416.701 491,365 C587.134,298.804 713.372,266.631 819.188,251.087 " fill="none" id="DiscountCondition&lt;-Screening" style="stroke: #A80036; stroke-width: 1.0;"/><polygon fill="#A80036" points="334.604,581.49,340.663,577.58,339.3841,570.4832,333.3251,574.3932,334.604,581.49" style="stroke: #A80036; stroke-width: 1.0;"/><!--MD5=[af18a9222a96be45bf7fe534ebf51761]
reverse link AmountDiscountMovie to Money--><path d="M1252.54,661.048 C1245.28,675.915 1237.11,692.656 1229.2,708.861 " fill="none" id="AmountDiscountMovie&lt;-Money" style="stroke: #A80036; stroke-width: 1.0;"/><polygon fill="#A80036" points="1258.4,649.053,1252.1716,652.6872,1253.1308,659.8342,1259.3591,656.2,1258.4,649.053" style="stroke: #A80036; stroke-width: 1.0;"/><!--MD5=[1af43f35aded0a96b6e1f51fbcc960d9]
reverse link NoneDiscountMovie to Money--><path d="M783.913,646.638 C859.641,671.88 964.376,706.792 1048.91,734.971 " fill="none" id="NoneDiscountMovie&lt;-Money" style="stroke: #A80036; stroke-width: 1.0;"/><polygon fill="#A80036" points="771.544,642.515,775.971,648.2073,782.9281,646.3101,778.5011,640.6179,771.544,642.515" style="stroke: #A80036; stroke-width: 1.0;"/><!--MD5=[8cba62cc79597a9c08664c67b90b2fbe]
reverse link PercentDiscountMovie to Money--><path d="M1007.61,656.429 C1030.99,672.394 1058.18,690.954 1084.41,708.861 " fill="none" id="PercentDiscountMovie&lt;-Money" style="stroke: #A80036; stroke-width: 1.0;"/><polygon fill="#A80036" points="996.806,649.053,999.5045,655.7402,1006.7151,655.8213,1004.0166,649.1341,996.806,649.053" style="stroke: #A80036; stroke-width: 1.0;"/><!--MD5=[c3fe0045adb0b9a29d28c0b772884ede]
reverse link PeriodCondition to Screening--><path d="M141.569,721.029 C140.278,678.22 143.549,620.947 164,575 C216.163,457.807 249.579,426.778 362,365 C502.518,287.782 682.041,256.51 819.135,244.145 " fill="none" id="PeriodCondition&lt;-Screening" style="stroke: #A80036; stroke-width: 1.0;"/><polygon fill="#A80036" points="142.117,734.103,145.8623,727.9408,141.6146,722.1135,137.8693,728.2757,142.117,734.103" style="stroke: #A80036; stroke-width: 1.0;"/><!--MD5=[4338201ae531b0c5c74cd4579d448b1b]
reverse link SequenceCondition to Screening--><path d="M501.992,733.638 C506.806,688.817 519.349,622.632 552,575 C634.619,454.474 775.127,362.389 881.951,305.001 " fill="none" id="SequenceCondition&lt;-Screening" style="stroke: #A80036; stroke-width: 1.0;"/><polygon fill="#A80036" points="500.733,746.818,505.2858,741.2259,501.8749,734.8725,497.3221,740.4646,500.733,746.818" style="stroke: #A80036; stroke-width: 1.0;"/><!--MD5=[f186fd85e56a70ad52fe3da3caf4a06d]
@startuml
class Money {
    -amount: number
    +plus(amount: Money): Money
    +minus(amount: Money): Money
    +times(percent: number): Money
    +isLessThan(other: Money): boolean
    +isGreaterThanOrEqual(other: Money): boolean
    +{static} ZERO: Money
    +{static} wons(amount: number): Money
}
class Customer
class Reservation {
    -customer: Customer
    -screening: Screening
    -fee: Money
    -audienceCount: number
}
abstract class Movie {
    -title: string
    -runningTime: number
    -fee: Money
    -discountConditions: DiscountCondition[]
    +calculateMovieFee(screening: Screening): Money
    -isDiscountAble(screening: Screening): boolean
    #getFee(): Money
    #{abstract} caclculateDiscountAmount(): Money
}
class Screening {
    -movie: Movie
    -sequence: number
    -whenScreened: Date
    +reserve(customer: Customer, audienceCount: number): Reservation
    +getSequence(): number
    +getWhenScreened(): Date
    -calculateFee(audienceCount: number): Money
}
interface DiscountCondition {
    +isSatisfiedBy(screening: Screening): boolean
}
class AmountDiscountMovie extends Movie {
    -discountAmount: Money
    #caclculateDiscountAmount(): Money
}
class NoneDiscountMovie extends Movie {
    #caclculateDiscountAmount(): Money
}
class PercentDiscountMovie extends Movie {
    -percent: number
    #caclculateDiscountAmount(): Money
}
class PeriodCondition implements DiscountCondition {
    -dayOfWeek: number
    -startTime: Date
    -endTime: Date
    +isSatisfiedBy(screening: Screening): boolean
}
class SequenceCondition implements DiscountCondition {
    -sequence: number
    +isSatisfiedBy(screening: Screening): boolean
}
Reservation *- - Customer
Reservation *- - Screening
Reservation *- - Money
Movie *- - Money
Movie *- - DiscountCondition
Movie *- - Screening
Screening *- - Movie
Screening *- - Customer
Screening *- - Reservation
Screening *- - Money
DiscountCondition *- - Screening
AmountDiscountMovie *- - Money
NoneDiscountMovie *- - Money
PercentDiscountMovie *- - Money
PeriodCondition *- - Screening
SequenceCondition *- - Screening
@enduml

PlantUML version 1.2019.11(Sun Sep 22 10:02:15 UTC 2019)
(GPL source distribution)
Java Runtime: Java(TM) SE Runtime Environment
JVM: Java HotSpot(TM) 64-Bit Server VM
Java Version: 1.7.0_25-b15
Operating System: Linux
Default Encoding: UTF-8
Language: en
Country: US
--></g></svg>