<?xml version="1.0" encoding="UTF-8" standalone="no"?><svg xmlns="http://www.w3.org/2000/svg" xmlns:xlink="http://www.w3.org/1999/xlink" contentScriptType="application/ecmascript" contentStyleType="text/css" height="902px" preserveAspectRatio="none" style="width:500px;height:902px;" version="1.1" viewBox="0 0 500 902" width="500px" zoomAndPan="magnify"><defs><filter height="300%" id="f1vyp55uwbh2s0" width="300%" x="-1" y="-1"><feGaussianBlur result="blurOut" stdDeviation="2.0"/><feColorMatrix in="blurOut" result="blurOut2" type="matrix" values="0 0 0 0 0 0 0 0 0 0 0 0 0 0 0 0 0 0 .4 0"/><feOffset dx="4.0" dy="4.0" in="blurOut2" result="blurOut3"/><feBlend in="SourceGraphic" in2="blurOut3" mode="normal"/></filter></defs><g><!--MD5=[91837343f19ad6bb47ed4fe22d7145fa]
class Invitation--><rect fill="#FEFECE" filter="url(#f1vyp55uwbh2s0)" height="60.8047" id="Invitation" style="stroke: #A80036; stroke-width: 1.5;" width="90" x="80" y="824.5"/><ellipse cx="95.45" cy="840.5" fill="#ADD1B2" rx="11" ry="11" style="stroke: #A80036; stroke-width: 1.0;"/><path d="M97.7938,836.1719 L97.9656,836.25 C98.1844,835.9375 98.3875,835.8438 98.6844,835.8438 C98.9813,835.8438 99.2625,835.9844 99.4188,836.25 C99.5125,836.4063 99.5281,836.5313 99.5281,836.9688 L99.5281,838.3906 C99.5281,838.8125 99.4969,839 99.3875,839.1563 C99.2156,839.375 98.95,839.5156 98.6844,839.5156 C98.4656,839.5156 98.2313,839.4063 98.0906,839.2656 C97.95,839.1406 97.9188,839.0156 97.8563,838.6094 C97.7625,838.2031 97.5906,837.9844 97.1063,837.7031 C96.6375,837.4531 96.0281,837.2969 95.45,837.2969 C93.7156,837.2969 92.4656,838.6094 92.4656,840.3906 L92.4656,841.4844 C92.4656,843.1875 93.7625,844.2813 95.8094,844.2813 C96.575,844.2813 97.2625,844.1563 97.6844,843.8906 C97.8719,843.7969 97.8719,843.7969 98.325,843.3125 C98.5125,843.125 98.7156,843.0469 98.9344,843.0469 C99.4031,843.0469 99.7938,843.4375 99.7938,843.8906 C99.7938,844.2813 99.4656,844.7344 98.8875,845.1406 C98.1375,845.6875 96.9813,845.9844 95.7625,845.9844 C92.8719,845.9844 90.7625,844.0938 90.7625,841.5156 L90.7625,840.3906 C90.7625,837.6719 92.7625,835.5938 95.3875,835.5938 C96.2625,835.5938 96.8563,835.7344 97.7938,836.1719 Z "/><text fill="#000000" font-family="sans-serif" font-size="12" lengthAdjust="spacingAndGlyphs" textLength="57" x="109.55" y="844.6543">Invitation</text><line style="stroke: #A80036; stroke-width: 1.5;" x1="81" x2="169" y1="856.5" y2="856.5"/><rect fill="none" height="6" style="stroke: #C82930; stroke-width: 1.0;" width="6" x="88" y="864.5"/><text fill="#000000" font-family="sans-serif" font-size="11" lengthAdjust="spacingAndGlyphs" textLength="64" x="100" y="870.7104">when: Date</text><line style="stroke: #A80036; stroke-width: 1.5;" x1="81" x2="169" y1="877.3047" y2="877.3047"/><!--MD5=[ac6bea31e13c94c7baa9ad18feb7405e]
class Ticket--><rect fill="#FEFECE" filter="url(#f1vyp55uwbh2s0)" height="73.6094" id="Ticket" style="stroke: #A80036; stroke-width: 1.5;" width="124" x="235" y="818"/><ellipse cx="274.75" cy="834" fill="#ADD1B2" rx="11" ry="11" style="stroke: #A80036; stroke-width: 1.0;"/><path d="M277.0938,829.6719 L277.2656,829.75 C277.4844,829.4375 277.6875,829.3438 277.9844,829.3438 C278.2813,829.3438 278.5625,829.4844 278.7188,829.75 C278.8125,829.9063 278.8281,830.0313 278.8281,830.4688 L278.8281,831.8906 C278.8281,832.3125 278.7969,832.5 278.6875,832.6563 C278.5156,832.875 278.25,833.0156 277.9844,833.0156 C277.7656,833.0156 277.5313,832.9063 277.3906,832.7656 C277.25,832.6406 277.2188,832.5156 277.1563,832.1094 C277.0625,831.7031 276.8906,831.4844 276.4063,831.2031 C275.9375,830.9531 275.3281,830.7969 274.75,830.7969 C273.0156,830.7969 271.7656,832.1094 271.7656,833.8906 L271.7656,834.9844 C271.7656,836.6875 273.0625,837.7813 275.1094,837.7813 C275.875,837.7813 276.5625,837.6563 276.9844,837.3906 C277.1719,837.2969 277.1719,837.2969 277.625,836.8125 C277.8125,836.625 278.0156,836.5469 278.2344,836.5469 C278.7031,836.5469 279.0938,836.9375 279.0938,837.3906 C279.0938,837.7813 278.7656,838.2344 278.1875,838.6406 C277.4375,839.1875 276.2813,839.4844 275.0625,839.4844 C272.1719,839.4844 270.0625,837.5938 270.0625,835.0156 L270.0625,833.8906 C270.0625,831.1719 272.0625,829.0938 274.6875,829.0938 C275.5625,829.0938 276.1563,829.2344 277.0938,829.6719 Z "/><text fill="#000000" font-family="sans-serif" font-size="12" lengthAdjust="spacingAndGlyphs" textLength="37" x="294.25" y="838.1543">Ticket</text><line style="stroke: #A80036; stroke-width: 1.5;" x1="236" x2="358" y1="850" y2="850"/><rect fill="none" height="6" style="stroke: #C82930; stroke-width: 1.0;" width="6" x="243" y="858"/><text fill="#000000" font-family="sans-serif" font-size="11" lengthAdjust="spacingAndGlyphs" textLength="70" x="255" y="864.2104">fee: number</text><line style="stroke: #A80036; stroke-width: 1.5;" x1="236" x2="358" y1="870.8047" y2="870.8047"/><ellipse cx="246" cy="881.8047" fill="#84BE84" rx="3" ry="3" style="stroke: #038048; stroke-width: 1.0;"/><text fill="#000000" font-family="sans-serif" font-size="11" lengthAdjust="spacingAndGlyphs" textLength="98" x="255" y="885.0151">getFee(): number</text><!--MD5=[ce71e8b4822a13f5ea72e94958aa0250]
class Bag--><rect fill="#FEFECE" filter="url(#f1vyp55uwbh2s0)" height="163.2422" id="Bag" style="stroke: #A80036; stroke-width: 1.5;" width="238" x="6" y="595"/><ellipse cx="108.75" cy="611" fill="#ADD1B2" rx="11" ry="11" style="stroke: #A80036; stroke-width: 1.0;"/><path d="M111.0938,606.6719 L111.2656,606.75 C111.4844,606.4375 111.6875,606.3438 111.9844,606.3438 C112.2813,606.3438 112.5625,606.4844 112.7188,606.75 C112.8125,606.9063 112.8281,607.0313 112.8281,607.4688 L112.8281,608.8906 C112.8281,609.3125 112.7969,609.5 112.6875,609.6563 C112.5156,609.875 112.25,610.0156 111.9844,610.0156 C111.7656,610.0156 111.5313,609.9063 111.3906,609.7656 C111.25,609.6406 111.2188,609.5156 111.1563,609.1094 C111.0625,608.7031 110.8906,608.4844 110.4063,608.2031 C109.9375,607.9531 109.3281,607.7969 108.75,607.7969 C107.0156,607.7969 105.7656,609.1094 105.7656,610.8906 L105.7656,611.9844 C105.7656,613.6875 107.0625,614.7813 109.1094,614.7813 C109.875,614.7813 110.5625,614.6563 110.9844,614.3906 C111.1719,614.2969 111.1719,614.2969 111.625,613.8125 C111.8125,613.625 112.0156,613.5469 112.2344,613.5469 C112.7031,613.5469 113.0938,613.9375 113.0938,614.3906 C113.0938,614.7813 112.7656,615.2344 112.1875,615.6406 C111.4375,616.1875 110.2813,616.4844 109.0625,616.4844 C106.1719,616.4844 104.0625,614.5938 104.0625,612.0156 L104.0625,610.8906 C104.0625,608.1719 106.0625,606.0938 108.6875,606.0938 C109.5625,606.0938 110.1563,606.2344 111.0938,606.6719 Z "/><text fill="#000000" font-family="sans-serif" font-size="12" lengthAdjust="spacingAndGlyphs" textLength="24" x="129.25" y="615.1543">Bag</text><line style="stroke: #A80036; stroke-width: 1.5;" x1="7" x2="243" y1="627" y2="627"/><rect fill="none" height="6" style="stroke: #C82930; stroke-width: 1.0;" width="6" x="14" y="635"/><text fill="#000000" font-family="sans-serif" font-size="11" lengthAdjust="spacingAndGlyphs" textLength="95" x="26" y="641.2104">amount: number</text><rect fill="none" height="6" style="stroke: #C82930; stroke-width: 1.0;" width="6" x="14" y="647.8047"/><text fill="#000000" font-family="sans-serif" font-size="11" lengthAdjust="spacingAndGlyphs" textLength="110" x="26" y="654.0151">invitation: Invitation</text><rect fill="none" height="6" style="stroke: #C82930; stroke-width: 1.0;" width="6" x="14" y="660.6094"/><text fill="#000000" font-family="sans-serif" font-size="11" lengthAdjust="spacingAndGlyphs" textLength="71" x="26" y="666.8198">ticket: Ticket</text><line style="stroke: #A80036; stroke-width: 1.5;" x1="7" x2="243" y1="673.4141" y2="673.4141"/><ellipse cx="17" cy="684.4141" fill="#84BE84" rx="3" ry="3" style="stroke: #038048; stroke-width: 1.0;"/><text fill="#000000" font-family="sans-serif" font-size="11" lengthAdjust="spacingAndGlyphs" textLength="155" x="26" y="687.6245">hold(ticket: Ticket): number</text><rect fill="#F24D5C" height="6" style="stroke: #C82930; stroke-width: 1.0;" width="6" x="14" y="694.2188"/><text fill="#000000" font-family="sans-serif" font-size="11" lengthAdjust="spacingAndGlyphs" textLength="133" x="26" y="700.4292">hasInvitation(): boolean</text><rect fill="#F24D5C" height="6" style="stroke: #C82930; stroke-width: 1.0;" width="6" x="14" y="707.0234"/><text fill="#000000" font-family="sans-serif" font-size="11" lengthAdjust="spacingAndGlyphs" textLength="115" x="26" y="713.2339">hasTicket(): boolean</text><rect fill="#F24D5C" height="6" style="stroke: #C82930; stroke-width: 1.0;" width="6" x="14" y="719.8281"/><text fill="#000000" font-family="sans-serif" font-size="11" lengthAdjust="spacingAndGlyphs" textLength="161" x="26" y="726.0386">setTicket(ticket: Ticket): void</text><rect fill="#F24D5C" height="6" style="stroke: #C82930; stroke-width: 1.0;" width="6" x="14" y="732.6328"/><text fill="#000000" font-family="sans-serif" font-size="11" lengthAdjust="spacingAndGlyphs" textLength="212" x="26" y="738.8433">minusAmount(amount: number): void</text><rect fill="#F24D5C" height="6" style="stroke: #C82930; stroke-width: 1.0;" width="6" x="14" y="745.4375"/><text fill="#000000" font-family="sans-serif" font-size="11" lengthAdjust="spacingAndGlyphs" textLength="201" x="26" y="751.6479">plusAmount(amount: number): void</text><!--MD5=[bec07c1bdb2f4b5ed9f4ff914d6eed84]
class Audience--><rect fill="#FEFECE" filter="url(#f1vyp55uwbh2s0)" height="73.6094" id="Audience" style="stroke: #A80036; stroke-width: 1.5;" width="177" x="105.5" y="461"/><ellipse cx="160.75" cy="477" fill="#ADD1B2" rx="11" ry="11" style="stroke: #A80036; stroke-width: 1.0;"/><path d="M163.0938,472.6719 L163.2656,472.75 C163.4844,472.4375 163.6875,472.3438 163.9844,472.3438 C164.2813,472.3438 164.5625,472.4844 164.7188,472.75 C164.8125,472.9063 164.8281,473.0313 164.8281,473.4688 L164.8281,474.8906 C164.8281,475.3125 164.7969,475.5 164.6875,475.6563 C164.5156,475.875 164.25,476.0156 163.9844,476.0156 C163.7656,476.0156 163.5313,475.9063 163.3906,475.7656 C163.25,475.6406 163.2188,475.5156 163.1563,475.1094 C163.0625,474.7031 162.8906,474.4844 162.4063,474.2031 C161.9375,473.9531 161.3281,473.7969 160.75,473.7969 C159.0156,473.7969 157.7656,475.1094 157.7656,476.8906 L157.7656,477.9844 C157.7656,479.6875 159.0625,480.7813 161.1094,480.7813 C161.875,480.7813 162.5625,480.6563 162.9844,480.3906 C163.1719,480.2969 163.1719,480.2969 163.625,479.8125 C163.8125,479.625 164.0156,479.5469 164.2344,479.5469 C164.7031,479.5469 165.0938,479.9375 165.0938,480.3906 C165.0938,480.7813 164.7656,481.2344 164.1875,481.6406 C163.4375,482.1875 162.2813,482.4844 161.0625,482.4844 C158.1719,482.4844 156.0625,480.5938 156.0625,478.0156 L156.0625,476.8906 C156.0625,474.1719 158.0625,472.0938 160.6875,472.0938 C161.5625,472.0938 162.1563,472.2344 163.0938,472.6719 Z "/><text fill="#000000" font-family="sans-serif" font-size="12" lengthAdjust="spacingAndGlyphs" textLength="58" x="181.25" y="481.1543">Audience</text><line style="stroke: #A80036; stroke-width: 1.5;" x1="106.5" x2="281.5" y1="493" y2="493"/><rect fill="none" height="6" style="stroke: #C82930; stroke-width: 1.0;" width="6" x="113.5" y="501"/><text fill="#000000" font-family="sans-serif" font-size="11" lengthAdjust="spacingAndGlyphs" textLength="51" x="125.5" y="507.2104">bag: Bag</text><line style="stroke: #A80036; stroke-width: 1.5;" x1="106.5" x2="281.5" y1="513.8047" y2="513.8047"/><ellipse cx="116.5" cy="524.8047" fill="#84BE84" rx="3" ry="3" style="stroke: #038048; stroke-width: 1.0;"/><text fill="#000000" font-family="sans-serif" font-size="11" lengthAdjust="spacingAndGlyphs" textLength="151" x="125.5" y="528.0151">buy(ticket: Ticket): number</text><!--MD5=[adaa787e39e00dff0557c5919cffd7c3]
class TicketOffice--><rect fill="#FEFECE" filter="url(#f1vyp55uwbh2s0)" height="124.8281" id="TicketOffice" style="stroke: #A80036; stroke-width: 1.5;" width="242" x="247" y="276"/><ellipse cx="327.75" cy="292" fill="#ADD1B2" rx="11" ry="11" style="stroke: #A80036; stroke-width: 1.0;"/><path d="M330.0938,287.6719 L330.2656,287.75 C330.4844,287.4375 330.6875,287.3438 330.9844,287.3438 C331.2813,287.3438 331.5625,287.4844 331.7188,287.75 C331.8125,287.9063 331.8281,288.0313 331.8281,288.4688 L331.8281,289.8906 C331.8281,290.3125 331.7969,290.5 331.6875,290.6563 C331.5156,290.875 331.25,291.0156 330.9844,291.0156 C330.7656,291.0156 330.5313,290.9063 330.3906,290.7656 C330.25,290.6406 330.2188,290.5156 330.1563,290.1094 C330.0625,289.7031 329.8906,289.4844 329.4063,289.2031 C328.9375,288.9531 328.3281,288.7969 327.75,288.7969 C326.0156,288.7969 324.7656,290.1094 324.7656,291.8906 L324.7656,292.9844 C324.7656,294.6875 326.0625,295.7813 328.1094,295.7813 C328.875,295.7813 329.5625,295.6563 329.9844,295.3906 C330.1719,295.2969 330.1719,295.2969 330.625,294.8125 C330.8125,294.625 331.0156,294.5469 331.2344,294.5469 C331.7031,294.5469 332.0938,294.9375 332.0938,295.3906 C332.0938,295.7813 331.7656,296.2344 331.1875,296.6406 C330.4375,297.1875 329.2813,297.4844 328.0625,297.4844 C325.1719,297.4844 323.0625,295.5938 323.0625,293.0156 L323.0625,291.8906 C323.0625,289.1719 325.0625,287.0938 327.6875,287.0938 C328.5625,287.0938 329.1563,287.2344 330.0938,287.6719 Z "/><text fill="#000000" font-family="sans-serif" font-size="12" lengthAdjust="spacingAndGlyphs" textLength="72" x="348.25" y="296.1543">TicketOffice</text><line style="stroke: #A80036; stroke-width: 1.5;" x1="248" x2="488" y1="308" y2="308"/><rect fill="none" height="6" style="stroke: #C82930; stroke-width: 1.0;" width="6" x="255" y="316"/><text fill="#000000" font-family="sans-serif" font-size="11" lengthAdjust="spacingAndGlyphs" textLength="95" x="267" y="322.2104">amount: number</text><rect fill="none" height="6" style="stroke: #C82930; stroke-width: 1.0;" width="6" x="255" y="328.8047"/><text fill="#000000" font-family="sans-serif" font-size="11" lengthAdjust="spacingAndGlyphs" textLength="86" x="267" y="335.0151">tickets: Ticket[]</text><line style="stroke: #A80036; stroke-width: 1.5;" x1="248" x2="488" y1="341.6094" y2="341.6094"/><ellipse cx="258" cy="352.6094" fill="#84BE84" rx="3" ry="3" style="stroke: #038048; stroke-width: 1.0;"/><text fill="#000000" font-family="sans-serif" font-size="11" lengthAdjust="spacingAndGlyphs" textLength="216" x="267" y="355.8198">sellTicketTo(audience: Audience): void</text><rect fill="#F24D5C" height="6" style="stroke: #C82930; stroke-width: 1.0;" width="6" x="255" y="362.4141"/><text fill="#000000" font-family="sans-serif" font-size="11" lengthAdjust="spacingAndGlyphs" textLength="100" x="267" y="368.6245">getTicket(): Ticket</text><rect fill="#F24D5C" height="6" style="stroke: #C82930; stroke-width: 1.0;" width="6" x="255" y="375.2188"/><text fill="#000000" font-family="sans-serif" font-size="11" lengthAdjust="spacingAndGlyphs" textLength="205" x="267" y="381.4292">minusAmout(amount: number): void</text><rect fill="#F24D5C" height="6" style="stroke: #C82930; stroke-width: 1.0;" width="6" x="255" y="388.0234"/><text fill="#000000" font-family="sans-serif" font-size="11" lengthAdjust="spacingAndGlyphs" textLength="194" x="267" y="394.2339">plusAmout(amount: number): void</text><!--MD5=[c8442e838f2ce0b9ddd8d52f992a16e5]
class TicketSeller--><rect fill="#FEFECE" filter="url(#f1vyp55uwbh2s0)" height="73.6094" id="TicketSeller" style="stroke: #A80036; stroke-width: 1.5;" width="209" x="176.5" y="142"/><ellipse cx="240.75" cy="158" fill="#ADD1B2" rx="11" ry="11" style="stroke: #A80036; stroke-width: 1.0;"/><path d="M243.0938,153.6719 L243.2656,153.75 C243.4844,153.4375 243.6875,153.3438 243.9844,153.3438 C244.2813,153.3438 244.5625,153.4844 244.7188,153.75 C244.8125,153.9063 244.8281,154.0313 244.8281,154.4688 L244.8281,155.8906 C244.8281,156.3125 244.7969,156.5 244.6875,156.6563 C244.5156,156.875 244.25,157.0156 243.9844,157.0156 C243.7656,157.0156 243.5313,156.9063 243.3906,156.7656 C243.25,156.6406 243.2188,156.5156 243.1563,156.1094 C243.0625,155.7031 242.8906,155.4844 242.4063,155.2031 C241.9375,154.9531 241.3281,154.7969 240.75,154.7969 C239.0156,154.7969 237.7656,156.1094 237.7656,157.8906 L237.7656,158.9844 C237.7656,160.6875 239.0625,161.7813 241.1094,161.7813 C241.875,161.7813 242.5625,161.6563 242.9844,161.3906 C243.1719,161.2969 243.1719,161.2969 243.625,160.8125 C243.8125,160.625 244.0156,160.5469 244.2344,160.5469 C244.7031,160.5469 245.0938,160.9375 245.0938,161.3906 C245.0938,161.7813 244.7656,162.2344 244.1875,162.6406 C243.4375,163.1875 242.2813,163.4844 241.0625,163.4844 C238.1719,163.4844 236.0625,161.5938 236.0625,159.0156 L236.0625,157.8906 C236.0625,155.1719 238.0625,153.0938 240.6875,153.0938 C241.5625,153.0938 242.1563,153.2344 243.0938,153.6719 Z "/><text fill="#000000" font-family="sans-serif" font-size="12" lengthAdjust="spacingAndGlyphs" textLength="72" x="261.25" y="162.1543">TicketSeller</text><line style="stroke: #A80036; stroke-width: 1.5;" x1="177.5" x2="384.5" y1="174" y2="174"/><rect fill="none" height="6" style="stroke: #C82930; stroke-width: 1.0;" width="6" x="184.5" y="182"/><text fill="#000000" font-family="sans-serif" font-size="11" lengthAdjust="spacingAndGlyphs" textLength="137" x="196.5" y="188.2104">ticketOffice: TicketOffice</text><line style="stroke: #A80036; stroke-width: 1.5;" x1="177.5" x2="384.5" y1="194.8047" y2="194.8047"/><ellipse cx="187.5" cy="205.8047" fill="#84BE84" rx="3" ry="3" style="stroke: #038048; stroke-width: 1.0;"/><text fill="#000000" font-family="sans-serif" font-size="11" lengthAdjust="spacingAndGlyphs" textLength="183" x="196.5" y="209.0151">sellTo(audience: Audience): void</text><!--MD5=[6fa3e4350d44af662413ad1d54c020bd]
class Theater--><rect fill="#FEFECE" filter="url(#f1vyp55uwbh2s0)" height="73.6094" id="Theater" style="stroke: #A80036; stroke-width: 1.5;" width="205" x="99.5" y="8"/><ellipse cx="173.25" cy="24" fill="#ADD1B2" rx="11" ry="11" style="stroke: #A80036; stroke-width: 1.0;"/><path d="M175.5938,19.6719 L175.7656,19.75 C175.9844,19.4375 176.1875,19.3438 176.4844,19.3438 C176.7813,19.3438 177.0625,19.4844 177.2188,19.75 C177.3125,19.9063 177.3281,20.0313 177.3281,20.4688 L177.3281,21.8906 C177.3281,22.3125 177.2969,22.5 177.1875,22.6563 C177.0156,22.875 176.75,23.0156 176.4844,23.0156 C176.2656,23.0156 176.0313,22.9063 175.8906,22.7656 C175.75,22.6406 175.7188,22.5156 175.6563,22.1094 C175.5625,21.7031 175.3906,21.4844 174.9063,21.2031 C174.4375,20.9531 173.8281,20.7969 173.25,20.7969 C171.5156,20.7969 170.2656,22.1094 170.2656,23.8906 L170.2656,24.9844 C170.2656,26.6875 171.5625,27.7813 173.6094,27.7813 C174.375,27.7813 175.0625,27.6563 175.4844,27.3906 C175.6719,27.2969 175.6719,27.2969 176.125,26.8125 C176.3125,26.625 176.5156,26.5469 176.7344,26.5469 C177.2031,26.5469 177.5938,26.9375 177.5938,27.3906 C177.5938,27.7813 177.2656,28.2344 176.6875,28.6406 C175.9375,29.1875 174.7813,29.4844 173.5625,29.4844 C170.6719,29.4844 168.5625,27.5938 168.5625,25.0156 L168.5625,23.8906 C168.5625,21.1719 170.5625,19.0938 173.1875,19.0938 C174.0625,19.0938 174.6563,19.2344 175.5938,19.6719 Z "/><text fill="#000000" font-family="sans-serif" font-size="12" lengthAdjust="spacingAndGlyphs" textLength="49" x="193.75" y="28.1543">Theater</text><line style="stroke: #A80036; stroke-width: 1.5;" x1="100.5" x2="303.5" y1="40" y2="40"/><rect fill="none" height="6" style="stroke: #C82930; stroke-width: 1.0;" width="6" x="107.5" y="48"/><text fill="#000000" font-family="sans-serif" font-size="11" lengthAdjust="spacingAndGlyphs" textLength="137" x="119.5" y="54.2104">ticketSeller: TicketSeller</text><line style="stroke: #A80036; stroke-width: 1.5;" x1="100.5" x2="303.5" y1="60.8047" y2="60.8047"/><ellipse cx="110.5" cy="71.8047" fill="#84BE84" rx="3" ry="3" style="stroke: #038048; stroke-width: 1.0;"/><text fill="#000000" font-family="sans-serif" font-size="11" lengthAdjust="spacingAndGlyphs" textLength="179" x="119.5" y="75.0151">enter(audience: Audience): void</text><!--MD5=[0248fc4efb44ecdf4df7f6014bbd6b12]
reverse link Bag to Invitation--><path d="M125,771.055 C125,790.39 125,809.3829 125,824.3055 " fill="none" id="Bag&lt;-Invitation" style="stroke: #A80036; stroke-width: 1.0;"/><polygon fill="#A80036" points="125,758.003,121,764.003,125,770.003,129,764.003,125,758.003" style="stroke: #A80036; stroke-width: 1.0;"/><!--MD5=[2cc06cdcedb877a8195db6e34e398641]
reverse link Bag to Ticket--><path d="M212.547,767.338 C229.958,785.204 247.283,802.9828 261.669,817.7449 " fill="none" id="Bag&lt;-Ticket" style="stroke: #A80036; stroke-width: 1.0;"/><polygon fill="#A80036" points="203.45,758.003,204.7723,765.0918,211.8245,766.5977,210.5021,759.5088,203.45,758.003" style="stroke: #A80036; stroke-width: 1.0;"/><!--MD5=[77df27665468a4b54e8dddba9e413995]
reverse link Audience to Bag--><path d="M175.031,547.523 C169.286,562.217 162.816,578.768 156.482,594.969 " fill="none" id="Audience&lt;-Bag" style="stroke: #A80036; stroke-width: 1.0;"/><polygon fill="#A80036" points="179.87,535.143,173.9598,539.2745,175.5003,546.3191,181.4105,542.1876,179.87,535.143" style="stroke: #A80036; stroke-width: 1.0;"/><!--MD5=[abe63e78c451b6dd0e25e6dcaa3436a7]
reverse link Audience to Ticket--><path d="M233.54,546.243 C244.048,561.032 254.319,577.962 261,595 C290.584,670.441 296.415,766.598 297.234,817.9035 " fill="none" id="Audience&lt;-Ticket" style="stroke: #A80036; stroke-width: 1.0;"/><polygon fill="#A80036" points="225.513,535.384,225.8631,542.5866,232.6464,545.0336,232.2962,537.831,225.513,535.384" style="stroke: #A80036; stroke-width: 1.0;"/><!--MD5=[63c7e1a81678f7589345e26d9b85a037]
reverse link TicketOffice to Ticket--><path d="M357.686,414.243 C342.204,526.43 313.546,734.103 302.006,817.7205 " fill="none" id="TicketOffice&lt;-Ticket" style="stroke: #A80036; stroke-width: 1.0;"/><polygon fill="#A80036" points="359.506,401.05,354.7233,406.4468,357.8655,412.9373,362.6482,407.5405,359.506,401.05" style="stroke: #A80036; stroke-width: 1.0;"/><!--MD5=[43d0aca93676f8239cd062554955dcf8]
reverse link TicketOffice to Audience--><path d="M289.981,410.121 C270.608,427.657 250.634,445.736 233.958,460.831 " fill="none" id="TicketOffice&lt;-Audience" style="stroke: #A80036; stroke-width: 1.0;"/><polygon fill="#A80036" points="299.73,401.296,292.5973,402.3563,290.8326,409.3481,297.9653,408.2878,299.73,401.296" style="stroke: #A80036; stroke-width: 1.0;"/><!--MD5=[3a0d67775b8571065f8c3df179cf2ee5]
reverse link TicketSeller to TicketOffice--><path d="M307.424,227.836 C315.789,242.98 325.155,259.937 333.976,275.904 " fill="none" id="TicketSeller&lt;-TicketOffice" style="stroke: #A80036; stroke-width: 1.0;"/><polygon fill="#A80036" points="300.96,216.134,300.36,223.3201,306.7625,226.6379,307.3625,219.4518,300.96,216.134" style="stroke: #A80036; stroke-width: 1.0;"/><!--MD5=[a65091c0d9b1ad4ff8e34eae8038e408]
reverse link TicketSeller to Audience--><path d="M251.084,227.612 C242.803,242.615 234.568,259.568 229,276 C207.679,338.913 199.225,416.384 195.962,460.894 " fill="none" id="TicketSeller&lt;-Audience" style="stroke: #A80036; stroke-width: 1.0;"/><polygon fill="#A80036" points="257.686,216.047,251.2377,219.275,251.7373,226.4688,258.1856,223.2408,257.686,216.047" style="stroke: #A80036; stroke-width: 1.0;"/><!--MD5=[a9789a2c07cb68ba3fdbe3a33b7e8779]
reverse link Theater to TicketSeller--><path d="M230.359,93.384 C239.939,109.392 250.472,126.991 259.439,141.974 " fill="none" id="Theater&lt;-TicketSeller" style="stroke: #A80036; stroke-width: 1.0;"/><polygon fill="#A80036" points="223.587,82.07,223.236,89.2726,229.7495,92.3668,230.1005,85.1642,223.587,82.07" style="stroke: #A80036; stroke-width: 1.0;"/><!--MD5=[8de8a166fb4c921dbc5c69e3dcbc6eef]
reverse link Theater to Audience--><path d="M175.681,94.164 C168.858,109.059 162.459,125.815 159,142 C134.471,256.767 165.435,396.146 183.176,460.814 " fill="none" id="Theater&lt;-Audience" style="stroke: #A80036; stroke-width: 1.0;"/><polygon fill="#A80036" points="181.458,82.143,175.254,85.8187,176.2609,92.9592,182.4648,89.2835,181.458,82.143" style="stroke: #A80036; stroke-width: 1.0;"/><!--MD5=[844ea9642de2c6edac37c4c079ec52f6]
@startuml
class Invitation {
    -when: Date
}
class Ticket {
    -fee: number
    +getFee(): number
}
class Bag {
    -amount: number
    -invitation: Invitation
    -ticket: Ticket
    +hold(ticket: Ticket): number
    -hasInvitation(): boolean
    -hasTicket(): boolean
    -setTicket(ticket: Ticket): void
    -minusAmount(amount: number): void
    -plusAmount(amount: number): void
}
class Audience {
    -bag: Bag
    +buy(ticket: Ticket): number
}
class TicketOffice {
    -amount: number
    -tickets: Ticket[]
    +sellTicketTo(audience: Audience): void
    -getTicket(): Ticket
    -minusAmout(amount: number): void
    -plusAmout(amount: number): void
}
class TicketSeller {
    -ticketOffice: TicketOffice
    +sellTo(audience: Audience): void
}
class Theater {
    -ticketSeller: TicketSeller
    +enter(audience: Audience): void
}
Bag *- - Invitation
Bag *- - Ticket
Audience *- - Bag
Audience *- - Ticket
TicketOffice *- - Ticket
TicketOffice *- - Audience
TicketSeller *- - TicketOffice
TicketSeller *- - Audience
Theater *- - TicketSeller
Theater *- - Audience
@enduml

PlantUML version 1.2019.11(Sun Sep 22 10:02:15 UTC 2019)
(GPL source distribution)
Java Runtime: Java(TM) SE Runtime Environment
JVM: Java HotSpot(TM) 64-Bit Server VM
Java Version: 1.7.0_25-b15
Operating System: Linux
Default Encoding: UTF-8
Language: en
Country: US
--></g></svg>